<?xml version="1.0" encoding="utf-8"?>
<!-- Generator: Adobe Illustrator 21.1.0, SVG Export Plug-In . SVG Version: 6.00 Build 0)  -->
<svg version="1.1" id="Camada_1" xmlns="http://www.w3.org/2000/svg" xmlns:xlink="http://www.w3.org/1999/xlink" x="0px" y="0px"
	 viewBox="0 0 65 70" style="enable-background:new 0 0 65 70;" xml:space="preserve">
<style type="text/css">
	.st0{fill:#102027;}
</style>
<g>
	<path class="st0" d="M28,2.5c0,0-0.1,0-0.1,0c-0.8,0.1-1.4,0.9-1.3,1.7c0.1,0.5,0.3,0.9,0.7,1.1l3,1.8c-15.7,1.2-28,14.2-28,30.2
		c0,16.7,13.6,30.3,30.3,30.3s30.3-13.6,30.3-30.3c0-7.4-2.6-14.2-7-19.4c-0.5-0.7-1.4-0.8-2.1-0.3c-0.7,0.5-0.8,1.4-0.3,2.1
		c0,0,0.1,0.1,0.1,0.1c3.9,4.7,6.3,10.9,6.3,17.5c0,15.1-12.2,27.3-27.3,27.3S5.2,52.3,5.2,37.2C5.2,23,16,11.3,29.9,10l-2.6,1.6
		c-0.7,0.4-0.9,1.3-0.5,2c0.4,0.7,1.3,0.9,2,0.5l7.4-4.4c0.7-0.4,0.9-1.3,0.5-2c-0.1-0.2-0.3-0.4-0.5-0.5l-7.4-4.4
		C28.6,2.6,28.3,2.5,28,2.5z M32.5,17.3c-8.7,0-16.2,5.7-18.9,13.5c-0.3,0.8,0,1.6,0.8,1.9c0.8,0.3,1.6,0,1.9-0.8
		c0-0.1,0-0.1,0.1-0.2c2.3-6.7,8.6-11.5,16.1-11.5c9.4,0,17,7.6,17,17s-7.6,17-17,17s-17-7.6-17-17c0-0.8-0.6-1.5-1.4-1.5
		c-0.8,0-1.5,0.6-1.5,1.4c0,0,0,0.1,0,0.1c0,11,8.9,19.9,19.9,19.9s19.9-8.9,19.9-19.9S43.5,17.3,32.5,17.3z M32.3,24.7
		c-0.8,0.1-1.3,0.7-1.3,1.5v11.1c0,0.5,0.3,1,0.8,1.3l6.6,3.7c0.7,0.4,1.6,0.1,2-0.6c0.4-0.7,0.1-1.6-0.6-2l0,0L34,36.4V26.2
		c0-0.8-0.6-1.5-1.5-1.5c0,0,0,0,0,0C32.4,24.6,32.4,24.6,32.3,24.7z"/>
</g>
</svg>
