<?xml version="1.0" encoding="utf-8"?>
<!-- Generator: Adobe Illustrator 21.1.0, SVG Export Plug-In . SVG Version: 6.00 Build 0)  -->
<svg version="1.1" id="Camada_1" xmlns="http://www.w3.org/2000/svg" xmlns:xlink="http://www.w3.org/1999/xlink" x="0px" y="0px"
	 viewBox="0 0 65 70" style="enable-background:new 0 0 65 70;" xml:space="preserve">
<style type="text/css">
	.st0{fill:#102027;}
</style>
<g transform="translate(0,-952.36218)">
	<g transform="translate(-703.00006,1765)">
		<path class="st0" d="M729.4-810.7c-3.8,0-7,3.1-7,7v24c-1.1-2.3-3-4.9-5.4-5.5c-3.3-0.9-7.4,1.7-8.3,4.8c-0.5,1.7-0.2,3.7,0.8,6
			c4.5,10.9,10.1,21.3,16.9,29.3c0.3,0.4,0.8,0.6,1.3,0.6h23.5c0.4,0,0.7-0.1,1-0.4c2.5-1.9,4.5-5,6.2-8.8c1.7-3.8,3-8.1,3.6-12.4
			c0.7-4.3,0.7-8.3-0.3-11.8c-0.9-3.4-3.3-6.3-6.9-6.7c-0.8,0-1.7,0.1-2.5,0.2c-0.4-1.1-1.1-2-1.9-2.5c-1.3-0.9-2.6-1.2-3.7-1.2
			c-1,0-2,0.4-2.8,1c-0.4-0.6-0.8-1.2-1.3-1.5c-1.3-0.9-2.7-1.2-3.8-1.2c-0.9,0-1.8,0.3-2.6,0.6v-14.5
			C736.3-808.4,732.6-810.7,729.4-810.7L729.4-810.7z M729.4-807.2c2,0,3.5,1.5,3.5,3.5v18.3c0,0.8,0.6,1.5,1.4,1.7
			c0.8,0.2,1.6-0.2,2-1c0.4-0.8,1.8-1.6,2.8-1.6c0.4,0,1.2,0.2,1.7,0.5c0.5,0.4,0.9,0.8,0.9,2.1c0,0.8,0.6,1.5,1.3,1.7
			c0.8,0.2,1.6-0.2,2-0.9c0.7-1.4,1.1-1.6,2-1.7c0.2,0,1.1,0.2,1.6,0.5c0.5,0.4,1,0.8,1,2.1c0,0.7,0.4,1.3,1,1.6
			c0.6,0.3,1.4,0.1,1.9-0.3c0.7-0.3,1.3-0.4,2.1-0.4c2.1,0.3,3.2,1.6,3.9,4.2c0.7,2.6,0.8,6.4,0.2,10.3c-0.6,3.9-1.8,8.1-3.3,11.5
			c-1.4,3.2-3.2,5.8-4.8,7.1h-22c-6.1-7.2-11.9-18.3-15.8-27.6c-0.8-2-0.9-3.2-0.7-3.9c0.6-1.7,2.5-2.6,4-2.4
			c1.9,0.7,2.3,1.9,3.1,3.3l3.5,6.9c0.4,0.7,1.2,1.1,2,0.9c0.8-0.2,1.3-0.9,1.3-1.7v-31.3C725.9-805.7,727.4-807.2,729.4-807.2
			L729.4-807.2z"/>
	</g>
</g>
</svg>
