<?xml version="1.0" encoding="utf-8"?>
<!-- Generator: Adobe Illustrator 21.1.0, SVG Export Plug-In . SVG Version: 6.00 Build 0)  -->
<svg version="1.1" id="Camada_1" xmlns="http://www.w3.org/2000/svg" xmlns:xlink="http://www.w3.org/1999/xlink" x="0px" y="0px"
	 viewBox="0 0 680 199.3" style="enable-background:new 0 0 680 199.3;" xml:space="preserve">
<style type="text/css">
	.st0{fill:#102027;}
	.st1{fill:#37474F;}
	.st2{fill:#FFAB00;}
</style>
<g>
	<rect x="4.5" y="85.2" class="st0" width="159" height="111"/>
	<polygon class="st1" points="163.5,196.2 163.5,167.2 95.5,167.2 	"/>
	<rect x="516.5" y="85.2" class="st0" width="159" height="111"/>
	<polygon class="st1" points="516.5,196.2 516.5,167.2 584.5,167.2 	"/>
	<rect x="86.5" y="3.2" class="st0" width="510" height="164"/>
</g>
<g>
	<path class="st2" d="M216.7,45.7h3.8l-8.8,29.6h-5.9L197,45.7h4.1l7.7,26.6L216.7,45.7z"/>
	<path class="st2" d="M224.1,72.1c-1.9-2.4-2.9-6.3-2.9-11.5s1-9.1,2.9-11.5c1.9-2.4,4.6-3.6,8.1-3.6c3.5,0,6.2,1.2,8.1,3.6
		s2.9,6.3,2.9,11.5s-1,9.1-2.9,11.5s-4.6,3.6-8.1,3.6C228.7,75.7,226,74.5,224.1,72.1z M235.9,71.3c1-0.7,1.8-2,2.3-3.7
		c0.5-1.7,0.8-4,0.8-6.9c0-3-0.3-5.3-0.8-7.1c-0.5-1.8-1.3-3-2.3-3.8c-1-0.7-2.3-1.1-3.7-1.1s-2.7,0.4-3.7,1.1c-1,0.7-1.8,2-2.3,3.7
		c-0.5,1.7-0.8,4-0.8,6.9c0,3,0.3,5.3,0.8,7.1c0.5,1.8,1.3,3,2.3,3.8c1,0.7,2.3,1.1,3.7,1.1S234.9,72,235.9,71.3z"/>
	<path class="st2" d="M251.9,74.2c-1.8-1-3.2-2.6-4.1-4.8s-1.4-5.2-1.4-8.8c0-5.3,1.1-9.2,3.2-11.6c2.1-2.4,5.2-3.6,9.3-3.6
		c1.8,0,3.6,0.2,5.4,0.7v3.4c-0.9-0.3-1.7-0.4-2.6-0.5c-0.8-0.1-1.7-0.2-2.6-0.2c-1.9,0-3.5,0.4-4.8,1.1s-2.2,2-2.8,3.7
		c-0.6,1.7-1,4-1,7c0,3,0.3,5.3,1,7.1c0.6,1.7,1.6,2.9,2.8,3.7c1.2,0.7,2.8,1.1,4.7,1.1c0.8,0,1.6-0.1,2.5-0.2
		c0.9-0.2,1.8-0.4,2.8-0.7v3.4c-0.8,0.3-1.7,0.5-2.7,0.7c-1,0.2-2,0.3-3,0.3C255.9,75.7,253.7,75.2,251.9,74.2z"/>
	<path class="st2" d="M271.2,71.9h12.9v3.4h-16.8V45.7H284v3.4h-12.7v9.3h10.8v3.4h-10.8V71.9z M281.8,43.3h-2.9l-2.8-4.2l-2.8,4.2
		h-2.9l3.9-5.8h3.5L281.8,43.3z"/>
	<path class="st2" d="M300.1,71.9H313v3.4h-16.8V45.7h16.6v3.4h-12.7v9.3h10.8v3.4h-10.8V71.9z"/>
	<path class="st2" d="M333.5,45.7h3.7v29.6h-4l-12.9-23v23h-3.7V45.7h4l13,23V45.7z"/>
	<path class="st2" d="M348.5,75.3V49.3H340v-3.5h21v3.5h-8.5v26.1H348.5z"/>
	<path class="st2" d="M367.7,71.9h12.9v3.4h-16.8V45.7h16.6v3.4h-12.7v9.3h10.8v3.4h-10.8V71.9z"/>
	<path class="st2" d="M401.1,45.7h3.7v29.6h-4l-12.9-23v23h-3.7V45.7h4l13,23V45.7z"/>
	<path class="st2" d="M410.2,75.3V46.1c2.5-0.5,4.7-0.7,6.8-0.7c4.5,0,7.9,1.2,10.1,3.7c2.2,2.5,3.3,6.3,3.3,11.4
		c0,3.5-0.5,6.4-1.6,8.6c-1.1,2.2-2.6,3.9-4.7,4.9c-2.1,1-4.7,1.6-7.9,1.6C414.4,75.6,412.4,75.5,410.2,75.3z M422.2,71.1
		c1.3-0.8,2.4-2,3-3.7c0.7-1.7,1-4,1-6.8c0-2.8-0.3-5.1-1-6.8c-0.7-1.7-1.6-3-3-3.8c-1.3-0.8-3-1.2-5-1.2c-1,0-2.1,0.1-3.2,0.3v23.1
		c0.9,0.1,1.9,0.1,3,0.1C419.2,72.2,420.9,71.9,422.2,71.1z"/>
	<path class="st2" d="M438.6,71.9h12.9v3.4h-16.8V45.7h16.6v3.4h-12.7v9.3h10.8v3.4h-10.8V71.9z"/>
	<path class="st2" d="M465.3,72.1c-1.9-2.4-2.9-6.3-2.9-11.5s1-9.1,2.9-11.5c1.9-2.4,4.6-3.6,8.1-3.6s6.2,1.2,8.1,3.6
		s2.9,6.3,2.9,11.5s-1,9.1-2.9,11.5s-4.6,3.6-8.1,3.6S467.2,74.5,465.3,72.1z M477.1,71.3c1-0.7,1.8-2,2.3-3.7s0.8-4,0.8-6.9
		c0-3-0.3-5.3-0.8-7.1s-1.3-3-2.3-3.8s-2.3-1.1-3.7-1.1c-1.5,0-2.7,0.4-3.7,1.1s-1.8,2-2.3,3.7s-0.8,4-0.8,6.9c0,3,0.3,5.3,0.8,7.1
		s1.3,3,2.3,3.8s2.3,1.1,3.7,1.1C474.9,72.4,476.1,72,477.1,71.3z"/>
	<path class="st2" d="M167.3,119.9h12.9v3.4h-16.8V93.7H180v3.4h-12.7v9.3h10.8v3.4h-10.8V119.9z"/>
	<path class="st2" d="M200.3,97.2h-12.6v9.6h10.7v3.5h-10.7v13.1h-3.9V93.7h16.5V97.2z"/>
	<path class="st2" d="M207.1,119.9H220v3.4h-16.8V93.7h16.6v3.4h-12.7v9.3h10.8v3.4h-10.8V119.9z"/>
	<path class="st2" d="M223.6,123.3V93.7h3.9v29.6H223.6z"/>
	<path class="st2" d="M238.8,123.3V97.3h-8.5v-3.5h21v3.5h-8.5v26.1H238.8z"/>
	<path class="st2" d="M254.6,120.1c-1.9-2.4-2.9-6.3-2.9-11.5s1-9.1,2.9-11.5c1.9-2.4,4.6-3.6,8.1-3.6c3.5,0,6.2,1.2,8.1,3.6
		s2.9,6.3,2.9,11.5s-1,9.1-2.9,11.5s-4.6,3.6-8.1,3.6C259.2,123.7,256.5,122.5,254.6,120.1z M266.4,119.3c1-0.7,1.8-2,2.3-3.7
		c0.5-1.7,0.8-4,0.8-6.9c0-3-0.3-5.3-0.8-7.1c-0.5-1.8-1.3-3-2.3-3.8c-1-0.7-2.3-1.1-3.7-1.1s-2.7,0.4-3.7,1.1c-1,0.7-1.8,2-2.3,3.7
		c-0.5,1.7-0.8,4-0.8,6.9c0,3,0.3,5.3,0.8,7.1c0.5,1.8,1.3,3,2.3,3.8c1,0.7,2.3,1.1,3.7,1.1S265.4,120,266.4,119.3z"/>
	<path class="st2" d="M286.4,123.3V94.1c2.5-0.5,4.7-0.7,6.8-0.7c4.5,0,7.9,1.2,10.1,3.7c2.2,2.5,3.3,6.3,3.3,11.4
		c0,3.5-0.5,6.4-1.6,8.6c-1.1,2.2-2.6,3.9-4.7,4.9c-2.1,1-4.7,1.6-7.9,1.6C290.7,123.6,288.7,123.5,286.4,123.3z M298.5,119.1
		c1.3-0.8,2.4-2,3.1-3.7c0.7-1.7,1-4,1-6.8c0-2.8-0.3-5.1-1-6.8c-0.7-1.7-1.6-3-3-3.8c-1.3-0.8-3-1.2-5-1.2c-1,0-2.1,0.1-3.2,0.3
		v23.1c0.9,0.1,1.9,0.1,3,0.1C295.4,120.2,297.1,119.9,298.5,119.1z"/>
	<path class="st2" d="M327.5,123.3l-2.7-9.1h-10.3l-2.7,9.1H308l8.9-29.6h5.7l8.9,29.6H327.5z M315.5,110.8h8.3l-4.2-14.2
		L315.5,110.8z"/>
	<path class="st2" d="M342.9,123.3V93.7h3.9v29.6H342.9z"/>
	<path class="st2" d="M369.1,93.7h3.7v29.6h-4l-12.9-23v23h-3.7V93.7h4l13,23V93.7z"/>
	<path class="st2" d="M394.6,97.2h-12.6v9.6h10.7v3.5h-10.7v13.1h-3.9V93.7h16.5V97.2z"/>
	<path class="st2" d="M397.6,123.3V93.7h3.9v26.1h12.3v3.5H397.6z"/>
	<path class="st2" d="M433.6,123.3l-2.7-9.1h-10.3l-2.7,9.1h-3.9l8.9-29.6h5.7l8.9,29.6H433.6z M421.7,110.8h8.3l-4.2-14.2
		L421.7,110.8z"/>
	<path class="st2" d="M446.9,97.9c-1.2,0.7-2.2,2-2.8,3.7c-0.6,1.7-1,4-1,7c0,3,0.3,5.3,1,7.1c0.6,1.7,1.6,2.9,2.8,3.7
		c1.2,0.7,2.8,1.1,4.7,1.1c0.8,0,1.6-0.1,2.5-0.2c0.9-0.2,1.8-0.4,2.8-0.7v3.4c-0.8,0.3-1.7,0.5-2.7,0.7s-2,0.3-3,0.3h-0.2v1.6
		c1.1,0.1,1.9,0.5,2.5,1s0.9,1.3,0.9,2.2c0,1.1-0.4,1.9-1.1,2.5s-1.9,0.9-3.3,0.9c-1.3,0-2.5-0.2-3.6-0.7v-1.9
		c1.1,0.5,2.3,0.7,3.4,0.7c0.8,0,1.3-0.1,1.7-0.4c0.4-0.3,0.6-0.7,0.6-1.2c0-1.1-0.8-1.6-2.4-1.6h-0.8v-3.2
		c-3.2-0.4-5.6-1.8-7.3-4.2c-1.7-2.4-2.5-6-2.5-10.8c0-5.3,1.1-9.2,3.2-11.6c2.1-2.4,5.2-3.6,9.3-3.6c1.8,0,3.6,0.2,5.4,0.7v3.4
		c-0.9-0.3-1.7-0.4-2.6-0.5c-0.8-0.1-1.7-0.2-2.6-0.2C449.7,96.8,448.1,97.2,446.9,97.9z"/>
	<path class="st2" d="M477.1,123.3l-2.7-9.1h-10.3l-2.7,9.1h-3.9l8.9-29.6h5.7l8.9,29.6H477.1z M470.7,90.1c-0.5-0.1-1-0.3-1.7-0.6
		c-0.6-0.3-1.1-0.4-1.4-0.6s-0.8-0.2-1.2-0.2c-0.7,0-1.2,0.1-1.7,0.4s-1,0.6-1.5,1.1v-2.6c0.4-0.5,0.9-0.8,1.4-1
		c0.5-0.2,1.1-0.3,1.8-0.3c0.5,0,1,0.1,1.5,0.2c0.5,0.1,1,0.4,1.7,0.6c0.6,0.3,1.1,0.4,1.4,0.6c0.4,0.1,0.8,0.2,1.2,0.2
		c0.7,0,1.2-0.1,1.7-0.4c0.5-0.2,1-0.6,1.5-1.1v2.7c-0.8,0.9-1.9,1.4-3.2,1.4C471.7,90.3,471.2,90.2,470.7,90.1z M465.1,110.8h8.3
		l-4.2-14.2L465.1,110.8z"/>
	<path class="st2" d="M485.3,120.1c-1.9-2.4-2.9-6.3-2.9-11.5s1-9.1,2.9-11.5c1.9-2.4,4.6-3.6,8.1-3.6s6.2,1.2,8.1,3.6
		s2.9,6.3,2.9,11.5s-1,9.1-2.9,11.5s-4.6,3.6-8.1,3.6S487.2,122.5,485.3,120.1z M497.1,119.3c1-0.7,1.8-2,2.3-3.7s0.8-4,0.8-6.9
		c0-3-0.3-5.3-0.8-7.1s-1.3-3-2.3-3.8s-2.3-1.1-3.7-1.1c-1.5,0-2.7,0.4-3.7,1.1s-1.8,2-2.3,3.7s-0.8,4-0.8,6.9c0,3,0.3,5.3,0.8,7.1
		s1.3,3,2.3,3.8s2.3,1.1,3.7,1.1C494.8,120.4,496.1,120,497.1,119.3z"/>
	<path class="st2" d="M511.1,107.6c1.6-0.5,2.9-1.1,3.8-1.7c0.9-0.6,1.6-1.3,2-2c0.4-0.8,0.6-1.6,0.6-2.6c0-1.6-0.5-2.7-1.4-3.5
		c-0.9-0.8-2.3-1.1-4.2-1.1c-2,0-3.8,0.4-5.5,1.1v-3.2c0.7-0.3,1.7-0.6,2.8-0.8c1.1-0.2,2.2-0.3,3.2-0.3c2.9,0,5.1,0.6,6.6,1.9
		c1.5,1.3,2.3,3.1,2.3,5.6c0,2-0.5,3.7-1.6,5.1s-2.8,2.5-5.2,3.5l-0.4,6h-2.5L511.1,107.6z M511,122.9c-0.5-0.5-0.8-1.1-0.8-1.9
		c0-0.8,0.2-1.4,0.7-1.9s1.1-0.7,2-0.7c0.8,0,1.4,0.2,1.9,0.7c0.5,0.5,0.7,1.1,0.7,1.9c0,0.8-0.2,1.4-0.7,1.9
		c-0.5,0.5-1.1,0.7-1.9,0.7C512.2,123.6,511.5,123.4,511,122.9z"/>
</g>
</svg>
