<?xml version="1.0" encoding="utf-8"?>
<!-- Generator: Adobe Illustrator 21.1.0, SVG Export Plug-In . SVG Version: 6.00 Build 0)  -->
<svg version="1.1" id="Camada_1" xmlns="http://www.w3.org/2000/svg" xmlns:xlink="http://www.w3.org/1999/xlink" x="0px" y="0px"
	 viewBox="0 0 680 199.3" style="enable-background:new 0 0 680 199.3;" xml:space="preserve">
<style type="text/css">
	.st0{fill:#102027;}
	.st1{fill:#37474F;}
	.st2{fill:#FFAB00;}
</style>
<g>
	<rect x="4.5" y="85.2" class="st0" width="159" height="111"/>
	<polygon class="st1" points="163.5,196.2 163.5,167.2 95.5,167.2 	"/>
	<rect x="516.5" y="85.2" class="st0" width="159" height="111"/>
	<polygon class="st1" points="516.5,196.2 516.5,167.2 584.5,167.2 	"/>
	<rect x="86.5" y="3.2" class="st0" width="510" height="164"/>
	<g>
		<g>
			<g>
				<circle class="st0" cx="240.8" cy="106.4" r="40.1"/>
				<path class="st2" d="M240.8,148.3c-23.1,0-41.9-18.8-41.9-41.9s18.8-41.9,41.9-41.9s41.9,18.8,41.9,41.9
					S263.9,148.3,240.8,148.3z M240.8,68.1c-21.2,0-38.4,17.2-38.4,38.4s17.2,38.4,38.4,38.4s38.4-17.2,38.4-38.4
					S262,68.1,240.8,68.1z"/>
			</g>
			<g>
				<g>
					<path class="st2" d="M227.6,119.7c0-1.1,0.4-2.3,1-3.6c0.6-1.3,1.4-2.2,2.2-2.7c4,2.1,7.4,3.1,10.3,3.1c1.2,0,2.1-0.2,2.8-0.7
						c0.7-0.4,1.1-1.1,1.1-1.9c0-1.3-0.9-2.3-2.8-3l-5.5-2c-5.1-2-7.7-5-7.7-9.2c0-2.5,0.8-4.6,2.5-6.4c1.6-1.8,3.8-2.9,6.4-3.4
						v-4.7c0.7-0.2,1.8-0.2,3.1-0.2c1.3,0,2.4,0.1,3.1,0.2v4.6c2.8,0.3,5.8,1.2,9.1,2.5c0,1.2-0.3,2.5-0.8,3.7
						c-0.5,1.2-1.3,2.2-2.1,3c-3.9-1.5-6.9-2.3-9.1-2.3c-1,0-1.8,0.2-2.4,0.7c-0.6,0.4-0.9,1-0.9,1.8c0,1,1,1.8,2.9,2.4l5.4,2.1
						c5.3,2,7.9,5.3,7.9,9.9c0,2.5-0.9,4.7-2.8,6.4c-1.8,1.7-4.3,2.8-7.4,3.2v4.4c-0.6,0.1-1.6,0.2-3.1,0.2c-1.5,0-2.6-0.1-3.1-0.2
						v-4.4C233.5,122.6,230.2,121.4,227.6,119.7z"/>
				</g>
			</g>
		</g>
		<g>
			<g>
				<circle class="st0" cx="341.5" cy="106.4" r="40.1"/>
				<path class="st2" d="M341.5,148.3c-23.1,0-41.9-18.8-41.9-41.9s18.8-41.9,41.9-41.9s41.9,18.8,41.9,41.9
					S364.6,148.3,341.5,148.3z M341.5,68.1c-21.2,0-38.4,17.2-38.4,38.4s17.2,38.4,38.4,38.4s38.4-17.2,38.4-38.4
					S362.7,68.1,341.5,68.1z"/>
			</g>
			<g>
				<g>
					<path class="st2" d="M328.3,119.7c0-1.1,0.4-2.3,1-3.6c0.6-1.3,1.4-2.2,2.2-2.7c4,2.1,7.4,3.1,10.3,3.1c1.2,0,2.1-0.2,2.8-0.7
						c0.7-0.4,1.1-1.1,1.1-1.9c0-1.3-0.9-2.3-2.8-3l-5.5-2c-5.1-2-7.7-5-7.7-9.2c0-2.5,0.8-4.6,2.5-6.4c1.6-1.8,3.8-2.9,6.4-3.4
						v-4.7c0.7-0.2,1.8-0.2,3.1-0.2c1.3,0,2.4,0.1,3.1,0.2v4.6c2.8,0.3,5.8,1.2,9.1,2.5c0,1.2-0.3,2.5-0.8,3.7
						c-0.5,1.2-1.3,2.2-2.1,3c-3.9-1.5-6.9-2.3-9.1-2.3c-1,0-1.8,0.2-2.4,0.7c-0.6,0.4-0.9,1-0.9,1.8c0,1,1,1.8,2.9,2.4l5.4,2.1
						c5.3,2,7.9,5.3,7.9,9.9c0,2.5-0.9,4.7-2.8,6.4c-1.8,1.7-4.3,2.8-7.4,3.2v4.4c-0.6,0.1-1.6,0.2-3.1,0.2c-1.5,0-2.6-0.1-3.1-0.2
						v-4.4C334.2,122.6,330.9,121.4,328.3,119.7z"/>
				</g>
			</g>
		</g>
		<g>
			<g>
				<circle class="st2" cx="442.2" cy="106.4" r="40.1"/>
				<path class="st2" d="M442.2,148.3c-23.1,0-41.9-18.8-41.9-41.9s18.8-41.9,41.9-41.9S484,83.3,484,106.4S465.2,148.3,442.2,148.3
					z M442.2,68.1c-21.2,0-38.4,17.2-38.4,38.4s17.2,38.4,38.4,38.4c21.2,0,38.4-17.2,38.4-38.4S463.3,68.1,442.2,68.1z"/>
			</g>
			<g>
				<g>
					<path class="st2" d="M428.9,119.7c0-1.1,0.4-2.3,1-3.6c0.6-1.3,1.4-2.2,2.2-2.7c4,2.1,7.4,3.1,10.3,3.1c1.2,0,2.1-0.2,2.8-0.7
						c0.7-0.4,1.1-1.1,1.1-1.9c0-1.3-0.9-2.3-2.8-3l-5.5-2c-5.1-2-7.7-5-7.7-9.2c0-2.5,0.8-4.6,2.5-6.4c1.6-1.8,3.8-2.9,6.4-3.4
						v-4.7c0.7-0.2,1.8-0.2,3.1-0.2c1.3,0,2.4,0.1,3.1,0.2v4.6c2.8,0.3,5.8,1.2,9.1,2.5c0,1.2-0.3,2.5-0.8,3.7
						c-0.5,1.2-1.3,2.2-2.1,3c-3.9-1.5-6.9-2.3-9.1-2.3c-1,0-1.8,0.2-2.4,0.7c-0.6,0.4-0.9,1-0.9,1.8c0,1,1,1.8,2.9,2.4l5.4,2.1
						c5.3,2,7.9,5.3,7.9,9.9c0,2.5-0.9,4.7-2.8,6.4c-1.8,1.7-4.3,2.8-7.4,3.2v4.4c-0.6,0.1-1.6,0.2-3.1,0.2c-1.5,0-2.6-0.1-3.1-0.2
						v-4.4C434.9,122.6,431.5,121.4,428.9,119.7z"/>
				</g>
			</g>
		</g>
	</g>
	<g>
		<path class="st2" d="M269,44.1c0-0.7-0.3-1.2-0.8-1.5c-0.5-0.3-1.4-0.6-2.7-0.9c-1.3-0.3-2.3-0.6-3.1-1c-1.8-0.9-2.8-2.2-2.8-3.9
			c0-1.4,0.6-2.6,1.8-3.5c1.2-0.9,2.7-1.4,4.5-1.4c2,0,3.5,0.5,4.7,1.5c1.2,1,1.8,2.2,1.8,3.8h-3.7c0-0.7-0.3-1.3-0.8-1.8
			c-0.5-0.5-1.2-0.7-2.1-0.7c-0.8,0-1.5,0.2-2,0.6c-0.5,0.4-0.8,0.9-0.8,1.5c0,0.6,0.2,1,0.7,1.3c0.5,0.3,1.4,0.6,2.9,0.9
			c1.4,0.3,2.6,0.7,3.4,1.1c0.8,0.4,1.4,1,1.8,1.6c0.4,0.6,0.6,1.4,0.6,2.2c0,1.5-0.6,2.7-1.8,3.6c-1.2,0.9-2.8,1.4-4.8,1.4
			c-1.3,0-2.5-0.2-3.6-0.7c-1-0.5-1.9-1.2-2.5-2c-0.6-0.8-0.9-1.8-0.9-2.7h3.6c0.1,0.9,0.4,1.5,1,2c0.6,0.5,1.4,0.7,2.4,0.7
			c1,0,1.7-0.2,2.2-0.6C268.7,45.2,269,44.7,269,44.1z"/>
		<path class="st2" d="M283,48.8c-2.3,0-4.2-0.7-5.7-2.2c-1.4-1.5-2.2-3.4-2.2-5.9v-0.5c0-1.6,0.3-3.1,0.9-4.4
			c0.6-1.3,1.5-2.3,2.7-3c1.1-0.7,2.4-1.1,3.8-1.1c2.2,0,4,0.7,5.2,2.1c1.2,1.4,1.8,3.4,1.8,6v1.5h-10.7c0.1,1.4,0.6,2.4,1.4,3.2
			c0.8,0.8,1.8,1.2,3,1.2c1.7,0,3.1-0.7,4.1-2l2,1.9c-0.7,1-1.5,1.7-2.6,2.3C285.6,48.6,284.4,48.8,283,48.8z M282.6,34.8
			c-1,0-1.8,0.4-2.4,1.1c-0.6,0.7-1,1.7-1.2,3h7v-0.3c-0.1-1.2-0.4-2.2-1-2.8C284.4,35.1,283.6,34.8,282.6,34.8z"/>
		<path class="st2" d="M302.4,46.9c-1.1,1.3-2.6,1.9-4.6,1.9c-1.8,0-3.1-0.5-4-1.6c-0.9-1-1.4-2.5-1.4-4.5V32.2h3.7v10.6
			c0,2.1,0.9,3.1,2.6,3.1c1.8,0,3-0.6,3.6-1.9V32.2h3.7v16.4h-3.5L302.4,46.9z"/>
		<path class="st2" d="M316.7,40.2c0-2.5,0.6-4.5,1.8-6.1c1.2-1.5,2.7-2.3,4.7-2.3c1.7,0,3.1,0.6,4.2,1.8v-8.4h3.7v23.3h-3.3
			l-0.2-1.7c-1.1,1.3-2.6,2-4.4,2c-1.9,0-3.5-0.8-4.7-2.3C317.3,45,316.7,42.9,316.7,40.2z M320.4,40.6c0,1.7,0.3,3,1,3.9
			c0.6,0.9,1.6,1.4,2.7,1.4c1.5,0,2.6-0.7,3.3-2v-7c-0.7-1.3-1.8-2-3.3-2c-1.2,0-2.1,0.5-2.8,1.4C320.7,37.2,320.4,38.7,320.4,40.6z
			"/>
		<path class="st2" d="M334.9,27.9c0-0.6,0.2-1,0.5-1.4c0.4-0.4,0.9-0.6,1.5-0.6s1.2,0.2,1.5,0.6c0.4,0.4,0.5,0.8,0.5,1.4
			c0,0.6-0.2,1-0.5,1.4s-0.9,0.6-1.5,0.6s-1.2-0.2-1.5-0.6C335.1,28.9,334.9,28.5,334.9,27.9z M338.8,48.5h-3.7V32.2h3.7V48.5z"/>
		<path class="st2" d="M346.2,32.2l0.1,1.9c1.2-1.5,2.8-2.2,4.8-2.2c3.4,0,5.1,2,5.2,5.9v10.8h-3.7V37.9c0-1-0.2-1.8-0.7-2.3
			c-0.4-0.5-1.2-0.7-2.2-0.7c-1.5,0-2.6,0.7-3.3,2v11.7h-3.7V32.2H346.2z"/>
		<path class="st2" d="M363.7,34c1.2-1.4,2.7-2.1,4.6-2.1c3.5,0,5.3,2,5.3,6v10.7h-3.7V38c0-1.1-0.2-1.9-0.7-2.4
			c-0.5-0.5-1.2-0.7-2.2-0.7c-1.5,0-2.6,0.7-3.3,2v11.7H360V25.3h3.7V34z"/>
		<path class="st2" d="M384.5,48.8c-2.3,0-4.2-0.7-5.7-2.2c-1.4-1.5-2.2-3.4-2.2-5.9v-0.5c0-1.6,0.3-3.1,0.9-4.4
			c0.6-1.3,1.5-2.3,2.7-3c1.1-0.7,2.4-1.1,3.8-1.1c2.2,0,4,0.7,5.2,2.1c1.2,1.4,1.8,3.4,1.8,6v1.5h-10.7c0.1,1.4,0.6,2.4,1.4,3.2
			c0.8,0.8,1.8,1.2,3,1.2c1.7,0,3.1-0.7,4.1-2l2,1.9c-0.7,1-1.5,1.7-2.6,2.3C387.1,48.6,385.8,48.8,384.5,48.8z M384,34.8
			c-1,0-1.8,0.4-2.4,1.1c-0.6,0.7-1,1.7-1.2,3h7v-0.3c-0.1-1.2-0.4-2.2-1-2.8C385.9,35.1,385.1,34.8,384,34.8z"/>
		<path class="st2" d="M393.9,27.9c0-0.6,0.2-1,0.5-1.4c0.4-0.4,0.9-0.6,1.5-0.6s1.2,0.2,1.5,0.6c0.4,0.4,0.5,0.8,0.5,1.4
			c0,0.6-0.2,1-0.5,1.4s-0.9,0.6-1.5,0.6s-1.2-0.2-1.5-0.6C394.1,28.9,393.9,28.5,393.9,27.9z M397.8,48.5h-3.7V32.2h3.7V48.5z"/>
		<path class="st2" d="M410.4,35.5c-0.5-0.1-1-0.1-1.5-0.1c-1.7,0-2.8,0.6-3.4,1.9v11.2h-3.7V32.2h3.5l0.1,1.8
			c0.9-1.4,2.1-2.1,3.7-2.1c0.5,0,1,0.1,1.3,0.2L410.4,35.5z"/>
		<path class="st2" d="M411.5,40.2c0-1.6,0.3-3.1,1-4.3c0.6-1.3,1.5-2.3,2.7-3s2.5-1,4-1c2.2,0,4,0.7,5.4,2.1
			c1.4,1.4,2.1,3.3,2.2,5.7l0,0.9c0,1.6-0.3,3.1-0.9,4.3c-0.6,1.3-1.5,2.3-2.7,3s-2.5,1-4,1c-2.3,0-4.2-0.8-5.5-2.3
			c-1.4-1.5-2.1-3.6-2.1-6.2V40.2z M415.2,40.5c0,1.7,0.3,3,1,4c0.7,1,1.7,1.4,2.9,1.4c1.2,0,2.2-0.5,2.9-1.5s1-2.4,1-4.3
			c0-1.7-0.4-3-1.1-3.9c-0.7-1-1.7-1.5-2.9-1.5c-1.2,0-2.2,0.5-2.9,1.4C415.5,37.2,415.2,38.6,415.2,40.5z"/>
	</g>
</g>
</svg>
