<?xml version="1.0" encoding="utf-8"?>
<!-- Generator: Adobe Illustrator 21.1.0, SVG Export Plug-In . SVG Version: 6.00 Build 0)  -->
<svg version="1.1" id="Camada_1" xmlns="http://www.w3.org/2000/svg" xmlns:xlink="http://www.w3.org/1999/xlink" x="0px" y="0px"
	 viewBox="0 0 600 654" style="enable-background:new 0 0 600 654;" xml:space="preserve">
<style type="text/css">
	.st0{fill:#102027;}
	.st1{fill:none;stroke:#FFAB00;stroke-width:6.1243;stroke-miterlimit:10;}
</style>
<g>
	<path class="st0" d="M245.5,383.6c0.2-4.6,1.6-9.6,4.2-15.1c2.6-5.4,5.7-9.2,9.2-11.2c16.6,8.6,30.8,12.9,42.6,12.9
		c4.8,0,8.6-0.9,11.6-2.7c2.9-1.8,4.4-4.4,4.4-7.8c0-5.6-3.9-9.7-11.7-12.4l-22.7-8.1c-21.2-8.1-31.8-20.8-31.8-38
		c0-10.4,3.4-19.2,10.2-26.4c6.8-7.3,15.7-11.9,26.7-14v-19.4c3-0.6,7.3-1,12.8-1c5.5,0,9.8,0.3,13,1v18.9
		c11.6,1.3,24.2,4.8,37.6,10.5c0,5.1-1.1,10.2-3.4,15.2c-2.2,5-5.2,9.1-8.9,12.3c-16-6.4-28.5-9.6-37.6-9.6c-4.1,0-7.5,0.9-9.9,2.8
		c-2.5,1.8-3.7,4.3-3.7,7.3c0,4,4,7.3,12,10l22.3,8.6c21.9,8.1,32.8,21.8,32.8,40.9c0,10.5-3.8,19.3-11.5,26.4
		c-7.7,7.1-17.9,11.5-30.6,13.3v18.2c-2.4,0.5-6.7,0.7-13,0.7c-6.3,0-10.6-0.2-12.8-0.7v-18.4C270,395.5,256.1,390.8,245.5,383.6"/>
	<path class="st0" d="M147.4,327c0-75.8,76.9-152.7,152.7-152.7v-20.4c-87.1,0-173.1,86-173.1,173.1H147.4z"/>
	<path class="st0" d="M446.1,327.8c6.2,74.3-69.2,151.9-146,151.9v20.4c88.4,0,173.5-87.5,166.2-173.9L446.1,327.8z"/>
	<polygon class="st0" points="386.5,376.7 461.1,335.9 447.5,332.1 495,413.6 512.6,403.3 465,321.9 460.1,313.3 451.4,318.1 
		376.7,358.8 	"/>
	<polygon class="st0" points="214.2,277.2 132.7,317.9 146.4,322.4 105.7,241 87.4,250.1 128.2,331.6 132.7,340.7 141.8,336.1 
		223.3,295.4 	"/>
</g>
<g>
	<line class="st1" x1="8" y1="647" x2="137" y2="517.9"/>
	<line class="st1" x1="592" y1="647" x2="463" y2="517.9"/>
	<line class="st1" x1="8" y1="7" x2="137" y2="136.1"/>
	<line class="st1" x1="592" y1="7" x2="463" y2="136.1"/>
</g>
</svg>
