<?xml version="1.0" encoding="utf-8"?>
<!-- Generator: Adobe Illustrator 21.1.0, SVG Export Plug-In . SVG Version: 6.00 Build 0)  -->
<svg version="1.1" id="Camada_1" xmlns="http://www.w3.org/2000/svg" xmlns:xlink="http://www.w3.org/1999/xlink" x="0px" y="0px"
	 viewBox="0 0 514 54" style="enable-background:new 0 0 514 54;" xml:space="preserve">
<style type="text/css">
	.st0{fill:#102027;}
	.st1{fill:none;stroke:#102027;stroke-width:1.9922;stroke-miterlimit:10;}
	.st2{fill:#FFFFFF;}
</style>
<rect x="1.7" y="3.4" class="st0" width="56.9" height="48.1"/>
<rect x="58.7" y="3.4" class="st0" width="56.9" height="48.1"/>
<rect x="1.7" y="3.5" class="st1" width="512" height="48"/>
<g>
	<path class="st2" d="M79.9,38.8h-14v-1.9l7.4-8.2c1.1-1.2,1.8-2.2,2.3-3s0.6-1.6,0.6-2.4c0-1.1-0.3-2-1-2.7s-1.6-1.1-2.7-1.1
		c-1.3,0-2.4,0.4-3.1,1.1c-0.7,0.8-1.1,1.8-1.1,3.2h-2.7c0-2,0.6-3.5,1.9-4.8c1.3-1.2,3-1.8,5.1-1.8c2,0,3.5,0.5,4.7,1.6
		s1.7,2.4,1.7,4.2c0,2.1-1.3,4.6-4,7.5l-5.7,6.2h10.7V38.8z"/>
	<path class="st2" d="M83.6,40.6h-2.3l8.9-23.2h2.3L83.6,40.6z"/>
	<path class="st2" d="M105.5,29.4c-0.6,0.7-1.2,1.2-2,1.6s-1.6,0.6-2.6,0.6c-1.2,0-2.3-0.3-3.2-0.9s-1.6-1.5-2.1-2.6
		s-0.7-2.3-0.7-3.6c0-1.4,0.3-2.7,0.8-3.9c0.5-1.1,1.3-2,2.3-2.6s2.2-0.9,3.5-0.9c2.1,0,3.8,0.8,5,2.4c1.2,1.6,1.8,3.7,1.8,6.5v0.8
		c0,4.2-0.8,7.2-2.5,9.1s-4.1,2.9-7.4,2.9h-0.5v-2.3h0.6c2.2,0,4-0.6,5.2-1.7C104.8,33.6,105.4,31.8,105.5,29.4z M101.3,29.4
		c0.9,0,1.7-0.3,2.5-0.8c0.8-0.6,1.3-1.2,1.7-2.1v-1.1c0-1.8-0.4-3.2-1.2-4.3s-1.7-1.7-2.9-1.7c-1.2,0-2.1,0.5-2.9,1.4
		s-1.1,2.1-1.1,3.6c0,1.5,0.3,2.7,1,3.6S100.2,29.4,101.3,29.4z"/>
</g>
</svg>
