<?xml version="1.0" encoding="utf-8"?>
<!-- Generator: Adobe Illustrator 21.1.0, SVG Export Plug-In . SVG Version: 6.00 Build 0)  -->
<svg version="1.1" id="Camada_1" xmlns="http://www.w3.org/2000/svg" xmlns:xlink="http://www.w3.org/1999/xlink" x="0px" y="0px"
	 viewBox="0 0 514 54" style="enable-background:new 0 0 514 54;" xml:space="preserve">
<style type="text/css">
	.st0{fill:#102027;}
	.st1{fill:none;stroke:#102027;stroke-width:1.9922;stroke-miterlimit:10;}
	.st2{fill:#FFFFFF;}
</style>
<rect x="1.7" y="3.4" class="st0" width="56.9" height="48.1"/>
<rect x="58.7" y="3.4" class="st0" width="56.9" height="48.1"/>
<rect x="115.7" y="3.4" class="st0" width="56.9" height="48.1"/>
<rect x="172.7" y="3.4" class="st0" width="56.9" height="48.1"/>
<rect x="229.7" y="3.4" class="st0" width="56.9" height="48.1"/>
<rect x="1.7" y="3.5" class="st1" width="512" height="48"/>
<g>
	<path class="st2" d="M238.2,28.1l1.1-10.6h10.9v2.5h-8.6l-0.6,5.8c1-0.6,2.2-0.9,3.6-0.9c1.9,0,3.5,0.6,4.6,1.9s1.7,3,1.7,5.2
		c0,2.2-0.6,3.9-1.8,5.2c-1.2,1.3-2.8,1.9-5,1.9c-1.9,0-3.4-0.5-4.6-1.6s-1.9-2.5-2-4.3h2.6c0.2,1.2,0.6,2.1,1.3,2.8
		s1.6,0.9,2.8,0.9c1.3,0,2.2-0.4,3-1.3c0.7-0.9,1.1-2,1.1-3.6c0-1.4-0.4-2.6-1.2-3.4c-0.8-0.9-1.8-1.3-3.1-1.3
		c-1.2,0-2.1,0.3-2.8,0.8l-0.7,0.6L238.2,28.1z"/>
	<path class="st2" d="M254.6,40.6h-2.3l8.9-23.2h2.3L254.6,40.6z"/>
	<path class="st2" d="M276.5,29.4c-0.6,0.7-1.2,1.2-2,1.6c-0.8,0.4-1.6,0.6-2.6,0.6c-1.2,0-2.3-0.3-3.2-0.9
		c-0.9-0.6-1.6-1.5-2.1-2.6s-0.7-2.3-0.7-3.6c0-1.4,0.3-2.7,0.8-3.9c0.5-1.1,1.3-2,2.3-2.6s2.2-0.9,3.5-0.9c2.1,0,3.8,0.8,5,2.4
		c1.2,1.6,1.8,3.7,1.8,6.5v0.8c0,4.2-0.8,7.2-2.5,9.1s-4.1,2.9-7.4,2.9h-0.5v-2.3h0.6c2.2,0,4-0.6,5.2-1.7
		C275.8,33.6,276.4,31.8,276.5,29.4z M272.3,29.4c0.9,0,1.7-0.3,2.5-0.8c0.8-0.6,1.3-1.2,1.7-2.1v-1.1c0-1.8-0.4-3.2-1.2-4.3
		s-1.7-1.7-2.9-1.7c-1.2,0-2.1,0.5-2.9,1.4s-1.1,2.1-1.1,3.6c0,1.5,0.3,2.7,1,3.6C270.2,28.9,271.2,29.4,272.3,29.4z"/>
</g>
</svg>
