<?xml version="1.0" encoding="utf-8"?>
<!-- Generator: Adobe Illustrator 21.1.0, SVG Export Plug-In . SVG Version: 6.00 Build 0)  -->
<svg version="1.1" id="Camada_1" xmlns="http://www.w3.org/2000/svg" xmlns:xlink="http://www.w3.org/1999/xlink" x="0px" y="0px"
	 viewBox="0 0 514 54" style="enable-background:new 0 0 514 54;" xml:space="preserve">
<style type="text/css">
	.st0{fill:#102027;}
	.st1{fill:#FFFFFF;}
	.st2{fill:none;stroke:#102027;stroke-width:1.9922;stroke-miterlimit:10;}
</style>
<rect x="1.7" y="3.4" class="st0" width="56.9" height="48.1"/>
<rect x="58.7" y="3.4" class="st0" width="56.9" height="48.1"/>
<rect x="115.7" y="3.4" class="st0" width="56.9" height="48.1"/>
<rect x="172.7" y="3.4" class="st0" width="56.9" height="48.1"/>
<rect x="229.7" y="3.4" class="st0" width="56.9" height="48.1"/>
<rect x="286.7" y="3.4" class="st0" width="56.9" height="48.1"/>
<rect x="343.7" y="3.4" class="st0" width="56.9" height="48.1"/>
<rect x="400.7" y="3.4" class="st0" width="56.9" height="48.1"/>
<g>
	<path class="st1" d="M420.9,23c0,1.1-0.3,2-0.8,2.8c-0.6,0.8-1.3,1.5-2.3,1.9c1.1,0.5,2,1.2,2.6,2.1s1,2,1,3.1
		c0,1.8-0.6,3.3-1.9,4.4c-1.2,1.1-2.9,1.6-4.9,1.6c-2.1,0-3.7-0.5-4.9-1.6c-1.2-1.1-1.9-2.6-1.9-4.4c0-1.2,0.3-2.2,0.9-3.1
		c0.6-0.9,1.5-1.6,2.6-2.1c-0.9-0.5-1.7-1.1-2.2-1.9s-0.8-1.8-0.8-2.8c0-1.8,0.6-3.2,1.7-4.3s2.7-1.6,4.6-1.6c1.9,0,3.4,0.5,4.5,1.6
		C420.3,19.8,420.9,21.2,420.9,23z M418.6,33c0-1.2-0.4-2.2-1.1-2.9s-1.7-1.1-3-1.1s-2.2,0.4-2.9,1.1c-0.7,0.7-1.1,1.7-1.1,2.9
		s0.4,2.2,1.1,2.9c0.7,0.7,1.7,1,3,1c1.3,0,2.3-0.3,3-1S418.6,34.2,418.6,33z M414.6,19.4c-1.1,0-1.9,0.3-2.6,1
		c-0.7,0.7-1,1.6-1,2.7c0,1.1,0.3,2,1,2.6s1.5,1,2.6,1s2-0.3,2.6-1c0.6-0.7,1-1.5,1-2.6s-0.3-2-1-2.7S415.6,19.4,414.6,19.4z"/>
	<path class="st1" d="M425.6,40.6h-2.3l8.9-23.2h2.3L425.6,40.6z"/>
	<path class="st1" d="M447.5,29.4c-0.6,0.7-1.2,1.2-2,1.6s-1.6,0.6-2.6,0.6c-1.2,0-2.3-0.3-3.2-0.9s-1.6-1.5-2.1-2.6
		s-0.7-2.3-0.7-3.6c0-1.4,0.3-2.7,0.8-3.9c0.5-1.1,1.3-2,2.3-2.6s2.2-0.9,3.5-0.9c2.1,0,3.8,0.8,5,2.4c1.2,1.6,1.8,3.7,1.8,6.5v0.8
		c0,4.2-0.8,7.2-2.5,9.1s-4.1,2.9-7.4,2.9h-0.5v-2.3h0.6c2.2,0,4-0.6,5.2-1.7C446.8,33.6,447.4,31.8,447.5,29.4z M443.3,29.4
		c0.9,0,1.7-0.3,2.5-0.8c0.8-0.6,1.3-1.2,1.7-2.1v-1.1c0-1.8-0.4-3.2-1.2-4.3s-1.7-1.7-2.9-1.7c-1.2,0-2.1,0.5-2.9,1.4
		s-1.1,2.1-1.1,3.6c0,1.5,0.3,2.7,1,3.6S442.2,29.4,443.3,29.4z"/>
</g>
<rect x="1.7" y="3.5" class="st2" width="512" height="48"/>
</svg>
