<?xml version="1.0" encoding="utf-8"?>
<!-- Generator: Adobe Illustrator 21.1.0, SVG Export Plug-In . SVG Version: 6.00 Build 0)  -->
<svg version="1.1" id="Camada_1" xmlns="http://www.w3.org/2000/svg" xmlns:xlink="http://www.w3.org/1999/xlink" x="0px" y="0px"
	 viewBox="0 0 514 54" style="enable-background:new 0 0 514 54;" xml:space="preserve">
<style type="text/css">
	.st0{fill:#102027;}
	.st1{fill:none;stroke:#102027;stroke-width:1.9922;stroke-miterlimit:10;}
	.st2{fill:#FFFFFF;}
</style>
<rect x="1.7" y="3.4" class="st0" width="56.9" height="48.1"/>
<rect x="58.7" y="3.4" class="st0" width="56.9" height="48.1"/>
<rect x="115.7" y="3.4" class="st0" width="56.9" height="48.1"/>
<rect x="172.7" y="3.4" class="st0" width="56.9" height="48.1"/>
<rect x="229.7" y="3.4" class="st0" width="56.9" height="48.1"/>
<rect x="286.7" y="3.4" class="st0" width="56.9" height="48.1"/>
<rect x="343.7" y="3.4" class="st0" width="56.9" height="48.1"/>
<rect x="400.7" y="3.4" class="st0" width="56.9" height="48.1"/>
<rect x="457.7" y="3.4" class="st0" width="56.9" height="48.1"/>
<rect x="1.7" y="3.5" class="st1" width="512" height="48"/>
<g>
	<path class="st2" d="M194,32c-0.3,2.3-1.1,4-2.5,5.2s-3.3,1.8-5.6,1.8c-2.5,0-4.5-0.9-6.1-2.7c-1.5-1.8-2.3-4.2-2.3-7.3V27
		c0-2,0.4-3.7,1.1-5.2s1.7-2.7,3-3.5s2.8-1.2,4.5-1.2c2.3,0,4.1,0.6,5.4,1.9s2.2,3,2.4,5.3h-2.8c-0.2-1.7-0.8-2.9-1.6-3.7
		c-0.8-0.8-2-1.1-3.4-1.1c-1.8,0-3.2,0.7-4.2,2c-1,1.3-1.5,3.2-1.5,5.7v2.1c0,2.3,0.5,4.2,1.5,5.5s2.3,2.1,4.1,2.1
		c1.6,0,2.8-0.4,3.6-1.1c0.8-0.7,1.4-1.9,1.7-3.7H194z"/>
	<path class="st2" d="M214.3,28.8c0,2.1-0.4,3.9-1.1,5.5s-1.7,2.7-3,3.6s-2.8,1.2-4.5,1.2c-1.7,0-3.2-0.4-4.5-1.2s-2.3-2-3-3.5
		c-0.7-1.5-1.1-3.3-1.1-5.3v-1.5c0-2.1,0.4-3.9,1.1-5.4s1.7-2.8,3-3.6c1.3-0.8,2.8-1.3,4.5-1.3c1.7,0,3.2,0.4,4.5,1.2
		c1.3,0.8,2.3,2,3,3.6s1.1,3.4,1.1,5.5V28.8z M211.5,27.4c0-2.5-0.5-4.5-1.5-5.8s-2.4-2-4.3-2c-1.8,0-3.2,0.7-4.2,2
		c-1,1.4-1.5,3.2-1.6,5.6v1.6c0,2.5,0.5,4.4,1.5,5.8c1,1.4,2.4,2.1,4.3,2.1c1.8,0,3.2-0.7,4.2-2s1.5-3.2,1.5-5.7V27.4z"/>
	<path class="st2" d="M222.1,17.4l7,17.4l7-17.4h3.6v21.3h-2.8v-8.3l0.3-9l-7,17.3H228l-7-17.2l0.3,8.9v8.3h-2.8V17.4H222.1z"/>
	<path class="st2" d="M247.5,30.4v8.3h-2.8V17.4h7.9c2.3,0,4.2,0.6,5.5,1.8c1.3,1.2,2,2.8,2,4.7c0,2.1-0.6,3.7-1.9,4.8
		c-1.3,1.1-3.1,1.7-5.6,1.7H247.5z M247.5,28.1h5.1c1.5,0,2.7-0.4,3.5-1.1c0.8-0.7,1.2-1.7,1.2-3.1c0-1.3-0.4-2.3-1.2-3.1
		s-1.9-1.2-3.3-1.2h-5.2V28.1z"/>
	<path class="st2" d="M266.5,36.5h10.1v2.3h-12.9V17.4h2.8V36.5z"/>
	<path class="st2" d="M291.8,28.9h-9.2v7.6h10.7v2.3h-13.6V17.4h13.4v2.3h-10.6v6.9h9.2V28.9z"/>
	<path class="st2" d="M311.8,19.7H305v19h-2.8v-19h-6.8v-2.3h16.5V19.7z"/>
	<path class="st2" d="M331,28.8c0,2.1-0.4,3.9-1.1,5.5s-1.7,2.7-3,3.6s-2.8,1.2-4.5,1.2c-1.7,0-3.2-0.4-4.5-1.2s-2.3-2-3-3.5
		c-0.7-1.5-1.1-3.3-1.1-5.3v-1.5c0-2.1,0.4-3.9,1.1-5.4s1.7-2.8,3-3.6c1.3-0.8,2.8-1.3,4.5-1.3c1.7,0,3.2,0.4,4.5,1.2
		c1.3,0.8,2.3,2,3,3.6s1.1,3.4,1.1,5.5V28.8z M328.2,27.4c0-2.5-0.5-4.5-1.5-5.8s-2.4-2-4.3-2c-1.8,0-3.2,0.7-4.2,2
		c-1,1.4-1.5,3.2-1.6,5.6v1.6c0,2.5,0.5,4.4,1.5,5.8c1,1.4,2.4,2.1,4.3,2.1c1.8,0,3.2-0.7,4.2-2s1.5-3.2,1.5-5.7V27.4z"/>
	<path class="st2" d="M335.1,37.4c0-0.4,0.1-0.8,0.4-1.1c0.3-0.3,0.7-0.5,1.2-0.5s0.9,0.2,1.2,0.5s0.4,0.7,0.4,1.1s-0.1,0.8-0.4,1.1
		s-0.7,0.4-1.2,0.4s-0.9-0.1-1.2-0.4C335.2,38.2,335.1,37.8,335.1,37.4z M337.8,32.7h-2.4l-0.2-15.3h2.8L337.8,32.7z"/>
</g>
</svg>
