<?xml version="1.0" encoding="utf-8"?>
<!-- Generator: Adobe Illustrator 21.1.0, SVG Export Plug-In . SVG Version: 6.00 Build 0)  -->
<svg version="1.1" id="Camada_1" xmlns="http://www.w3.org/2000/svg" xmlns:xlink="http://www.w3.org/1999/xlink" x="0px" y="0px"
	 viewBox="0 0 340 506" style="enable-background:new 0 0 340 506;" xml:space="preserve">
<style type="text/css">
	.st0{fill:#009688;}
	.st1{fill:#FFFFFF;stroke:#1D1D1B;stroke-width:7.0048;stroke-linejoin:round;stroke-miterlimit:10;}
	.st2{fill:#FFFFFF;stroke:#1D1D1B;stroke-width:6.5097;stroke-miterlimit:10;}
	.st3{fill:#1D1D1B;}
	.st4{fill:#FFFFFF;stroke:#1D1D1B;stroke-width:3.8715;stroke-miterlimit:10;}
	.st5{fill:none;stroke:#1D1D1B;stroke-width:2.8019;stroke-miterlimit:10;}
	.st6{fill:#F57C00;}
	.st7{fill:#1B5E20;}
	.st8{fill:#3E2723;}
	.st9{fill:#FFFFFF;}
</style>
<g>
	<ellipse class="st0" cx="170" cy="470.7" rx="132" ry="35.5"/>
</g>
<g>
	<g>
		<g>
			<path class="st1" d="M203.3,358.5c-12.5-8.1-16.1-24.8-8-37.3c8.1-12.5,24.8-16.1,37.3-8c0.3,0.2,0.5,0.4,0.8,0.6
				c55,12.9,90.4-24.5,83.6,0.4C304.6,359.7,210.1,363,203.3,358.5z"/>
		</g>
		<g>
			<path class="st1" d="M139.7,358.5c12.5-8.1,16.1-24.8,8-37.3c-8.1-12.5-24.8-16.1-37.3-8c-0.3,0.2-0.5,0.4-0.8,0.6
				c-55,12.9-90.4-24.5-83.6,0.4C38.4,359.7,132.8,363,139.7,358.5z"/>
		</g>
		<path class="st2" d="M144.5,304.7c-22.4,0-48.9,40.9-53.7,86c-4.8,45.1,23.4,79.7,23.4,79.7h13.9c0,0,4.9-10.5,16.7-17.8
			c11.8-7.3,40.2-7.3,52,0c11.8,7.3,16.7,17.8,16.7,17.8h13.9c0,0,28.2-34.6,23.4-79.7c-4.8-45.1-31.2-86-53.7-86H144.5z"/>
		<path class="st3" d="M85.9,14.3c-8,0-14.5,6.5-14.5,14.5v77.9l28.9-5.6V28.7C100.4,20.8,93.9,14.3,85.9,14.3z"/>
		<path class="st3" d="M235.8,249.2H105.8c-31.2,0-56.4-25.3-56.4-56.4v0c0-31.2,25.3-56.4,56.4-56.4h130.1
			c31.2,0,56.4,25.3,56.4,56.4v0C292.3,223.9,267,249.2,235.8,249.2z"/>
		<g>
			<g>
				<g>
					<g>
						<circle class="st4" cx="244.5" cy="192.7" r="24.5"/>
					</g>
				</g>
			</g>
			<g>
				<g>
					<g>
						<circle class="st4" cx="97.1" cy="192.7" r="24.5"/>
					</g>
				</g>
			</g>
		</g>
		<path class="st5" d="M186.5,448.8c0,0,25.7-63.5,64.2-36.1"/>
		<path class="st5" d="M154.5,448.8c0,0-25.7-63.5-64.2-36.1"/>
	</g>
	<path class="st6" d="M193.6,304.6h-44.4c-71.7,0-129.9-58.2-129.9-129.9v-13.9c0-53.7,43.5-97.2,97.2-97.2h109.8
		c53.7,0,97.2,43.5,97.2,97.2v13.9C323.5,246.4,265.3,304.6,193.6,304.6z"/>
	<path class="st7" d="M55.8,58.9c0,0-3.6-26.1-10.2-35.8S5.5,11.4,5.5,11.4l0,0c0,0,3.6,33.3,13.6,39.5s36.2,8.5,36.2,8.5L55.8,58.9
		z"/>
	<path class="st8" d="M85.9,14.3c-8,0-14.5,6.5-14.5,14.5v77.9l28.9-5.6V28.7C100.4,20.8,93.9,14.3,85.9,14.3z"/>
	<path class="st9" d="M237.5,260.6H104.1c-35.5,0-64.2-28.8-64.2-64.2v-7.2c0-35.5,28.8-64.2,64.2-64.2h133.4
		c35.5,0,64.2,28.8,64.2,64.2v7.2C301.7,231.8,273,260.6,237.5,260.6z"/>
	<path class="st3" d="M235.8,249.2H105.8c-31.2,0-56.4-25.3-56.4-56.4v0c0-31.2,25.3-56.4,56.4-56.4h130.1
		c31.2,0,56.4,25.3,56.4,56.4v0C292.3,223.9,267,249.2,235.8,249.2z"/>
	<g>
		<g>
			<g>
				<g>
					<circle class="st4" cx="244.5" cy="192.7" r="24.5"/>
				</g>
			</g>
		</g>
		<g>
			<g>
				<g>
					<circle class="st4" cx="97.1" cy="192.7" r="24.5"/>
				</g>
			</g>
		</g>
	</g>
</g>
</svg>
