<?xml version="1.0" encoding="utf-8"?>
<!-- Generator: Adobe Illustrator 21.1.0, SVG Export Plug-In . SVG Version: 6.00 Build 0)  -->
<svg version="1.1" id="Camada_1" xmlns="http://www.w3.org/2000/svg" xmlns:xlink="http://www.w3.org/1999/xlink" x="0px" y="0px"
	 viewBox="0 0 340 506" style="enable-background:new 0 0 340 506;" xml:space="preserve">
<style type="text/css">
	.st0{fill:#FFFFFF;stroke:#1D1D1B;stroke-width:7.1794;stroke-linejoin:round;stroke-miterlimit:10;}
	.st1{fill:#009688;}
	.st2{fill:#1D1D1B;}
	.st3{fill:#FDFDFC;stroke:#1D1D1B;stroke-width:7.1794;stroke-miterlimit:10;}
	.st4{fill:#FFFFFF;stroke:#1D1D1B;stroke-width:3.968;stroke-miterlimit:10;}
	.st5{fill:#FFFFFF;stroke:#1D1D1B;stroke-width:6.672;stroke-miterlimit:10;}
	.st6{fill:none;stroke:#1D1D1B;stroke-width:2.8718;stroke-miterlimit:10;}
</style>
<g>
	<g>
		<path class="st0" d="M212.5,359.5c-15.2-1.7-26.1-15.4-24.4-30.6c1.7-15.2,15.4-26.1,30.6-24.4c0.3,0,0.7,0.1,1,0.2
			c56.4-13.2,71.8-63.6,76.9-37.7C306,314.4,220.8,360.4,212.5,359.5z"/>
	</g>
	<g>
		<path class="st0" d="M127.9,359.5c15.2-1.7,26.1-15.4,24.4-30.6c-1.7-15.2-15.4-26.1-30.6-24.4c-0.3,0-0.7,0.1-1,0.2
			C64.2,291.5,48.8,241,43.7,267C34.3,314.4,119.6,360.4,127.9,359.5z"/>
	</g>
	<g>
		<ellipse class="st1" cx="169.7" cy="468.2" rx="132" ry="35.5"/>
	</g>
	<path class="st2" d="M83,2.3c-8.2,0-14.8,6.6-14.8,14.8V97l29.6-5.7V17.1C97.8,8.9,91.2,2.3,83,2.3z"/>
	<path class="st3" d="M232.9,276.3H107.1c-44.7,0-81-36.3-81-81v0c0-73.9,59.9-133.8,133.8-133.8h20.2
		c73.9,0,133.8,59.9,133.8,133.8v0C313.9,240,277.7,276.3,232.9,276.3z"/>
	<path class="st2" d="M236.7,243H103.3c-31.9,0-57.8-25.9-57.8-57.8v0c0-31.9,25.9-57.8,57.8-57.8h133.3c31.9,0,57.8,25.9,57.8,57.8
		v0C294.5,217.1,268.6,243,236.7,243z"/>
	<g>
		<g>
			<g>
				<g>
					<circle class="st4" cx="245.5" cy="185.2" r="25.1"/>
				</g>
			</g>
		</g>
		<g>
			<g>
				<g>
					<circle class="st4" cx="94.5" cy="185.2" r="25.1"/>
				</g>
			</g>
		</g>
	</g>
	<path class="st5" d="M143,300c-23,0-50.1,41.9-55,88.2c-4.9,46.2,24,81.7,24,81.7h14.3c0,0,5-10.8,17.1-18.3
		c12.1-7.5,41.2-7.5,53.3,0c12.1,7.5,17.1,18.3,17.1,18.3H228c0,0,28.9-35.5,24-81.7c-4.9-46.2-32-88.2-55-88.2H143z"/>
	<path class="st6" d="M186.1,447.6c0,0,26.3-65,65.8-37"/>
	<path class="st6" d="M153.2,447.6c0,0-26.3-65-65.8-37"/>
	<polygon class="st2" points="120.7,162.7 63.7,192.7 75.7,151.7 	"/>
	<polygon class="st2" points="216.7,162.7 273.7,192.7 261.7,151.7 	"/>
</g>
</svg>
