<?xml version="1.0" encoding="utf-8"?>
<!-- Generator: Adobe Illustrator 21.1.0, SVG Export Plug-In . SVG Version: 6.00 Build 0)  -->
<svg version="1.1" id="Layer_1" xmlns="http://www.w3.org/2000/svg" xmlns:xlink="http://www.w3.org/1999/xlink" x="0px" y="0px"
	 viewBox="0 0 75 60" style="enable-background:new 0 0 75 60;" xml:space="preserve">
<style type="text/css">
	.st0{fill:#FFFFFF;}
</style>
<g transform="translate(0,-952.36218)">
	<path class="st0" d="M36.9,953.4c-0.2,0-0.4,0.1-0.5,0.1L0.9,981.6c-0.4,0.3-0.5,1-0.2,1.3c0.3,0.4,1,0.5,1.3,0.1l35-27.6l35,27.6
		c0.4,0.3,1,0.2,1.3-0.1c0.3-0.4,0.3-1.1-0.1-1.3l-35.6-28.1C37.3,953.4,37.1,953.4,36.9,953.4z M12.7,976.8l-1.9,1.5v32.1
		c0,0.5,0.4,0.9,0.9,0.9h17.8c0.5,0,0.9-0.4,0.9-0.9v-17.8h13.1v17.8c0,0.5,0.4,0.9,0.9,0.9h17.8c0.5,0,0.9-0.4,0.9-0.9v-32.1
		l-1.9-1.5v32.7H45.4v-17.8c0-0.5-0.4-0.9-0.9-0.9h-15c-0.5,0-0.9,0.4-0.9,0.9v17.8H12.7V976.8z"/>
</g>
</svg>
