<?xml version="1.0" encoding="utf-8"?>
<!-- Generator: Adobe Illustrator 16.0.4, SVG Export Plug-In . SVG Version: 6.00 Build 0)  -->
<!DOCTYPE svg PUBLIC "-//W3C//DTD SVG 1.1//EN" "http://www.w3.org/Graphics/SVG/1.1/DTD/svg11.dtd">
<svg version="1.1" id="Layer_1" xmlns="http://www.w3.org/2000/svg" xmlns:xlink="http://www.w3.org/1999/xlink" x="0px" y="0px"
	 width="75px" height="60px" viewBox="0 0 75 60" enable-background="new 0 0 75 60" xml:space="preserve">
<g>
	<path fill="#FBAA19" d="M64.599,59c-0.436,0-0.864-0.168-1.188-0.487l-12.46-12.296H18.854c-5.592,0-10.143-4.55-10.143-10.142
		V11.143C8.711,5.549,13.262,1,18.854,1h37.294c5.592,0,10.142,4.549,10.142,10.143v24.933c0,0.009,0,0.02-0.001,0.031
		c0.001,0.013,0.001,0.025,0.001,0.039V57.31c0,0.683-0.409,1.297-1.038,1.561C65.041,58.957,64.818,59,64.599,59 M18.854,4.38
		c-3.728,0-6.761,3.033-6.761,6.762v24.933c0,3.729,3.033,6.761,6.761,6.761h32.792c0.443,0,0.87,0.176,1.188,0.487l10.076,9.943
		V36.252c-0.003-0.036-0.004-0.07-0.004-0.106c0-0.04,0.004-0.115,0.006-0.154l-0.002-24.849c0-3.729-3.034-6.762-6.762-6.762
		H18.854z"/>
	<path fill="#FBAA19" d="M29.194,10.687c-0.781,0-1.415,0.633-1.415,1.415v7.077l2.83-1.143v-5.934
		C30.609,11.32,29.976,10.687,29.194,10.687"/>
	<path fill="#FBAA19" d="M43.512,37.806H31.489c-4.838,0-8.773-3.936-8.773-8.773c0-7.619,6.199-13.817,13.818-13.817h1.934
		c7.619,0,13.817,6.198,13.817,13.817C52.285,33.87,48.35,37.806,43.512,37.806 M36.49,16.875c-6.769,0-12.273,5.505-12.273,12.273
		c0,3.857,3.139,6.997,6.997,6.997h12.573c3.858,0,6.997-3.14,6.997-6.997c0-6.768-5.506-12.273-12.272-12.273H36.49z"/>
	<path fill="#FBAA19" d="M44.714,30.655c-1.426,0-2.586-1.159-2.586-2.586c0-1.425,1.16-2.585,2.586-2.585s2.586,1.16,2.586,2.585
		C47.3,29.496,46.14,30.655,44.714,30.655 M44.714,25.862c-1.218,0-2.207,0.99-2.207,2.207c0,1.218,0.989,2.207,2.207,2.207
		c1.217,0,2.207-0.989,2.207-2.207C46.921,26.853,45.931,25.862,44.714,25.862"/>
	<path fill="#FBAA19" d="M30.287,30.655c-1.426,0-2.586-1.159-2.586-2.586c0-1.425,1.16-2.585,2.586-2.585s2.586,1.16,2.586,2.585
		C32.873,29.496,31.713,30.655,30.287,30.655 M30.287,25.862c-1.217,0-2.207,0.99-2.207,2.207c0,1.218,0.99,2.207,2.207,2.207
		s2.208-0.989,2.208-2.207C32.495,26.853,31.504,25.862,30.287,25.862"/>
	<path fill="#FBAA19" d="M43.865,22.549H31.136c-3.049,0-5.521,2.472-5.521,5.521s2.473,5.521,5.521,5.521h12.729
		c3.05,0,5.521-2.473,5.521-5.521S46.915,22.549,43.865,22.549 M30.287,30.467c-1.323,0-2.396-1.074-2.396-2.397
		c0-1.323,1.073-2.396,2.396-2.396c1.324,0,2.396,1.072,2.396,2.396C32.684,29.393,31.611,30.467,30.287,30.467 M44.714,30.467
		c-1.323,0-2.396-1.074-2.396-2.397c0-1.323,1.072-2.396,2.396-2.396c1.324,0,2.397,1.072,2.397,2.396
		C47.111,29.393,46.038,30.467,44.714,30.467"/>
</g>
</svg>
