<?xml version="1.0" encoding="utf-8"?>
<!-- Generator: Adobe Illustrator 16.0.4, SVG Export Plug-In . SVG Version: 6.00 Build 0)  -->
<!DOCTYPE svg PUBLIC "-//W3C//DTD SVG 1.1//EN" "http://www.w3.org/Graphics/SVG/1.1/DTD/svg11.dtd">
<svg version="1.1" id="Layer_1" xmlns="http://www.w3.org/2000/svg" xmlns:xlink="http://www.w3.org/1999/xlink" x="0px" y="0px"
	 width="75px" height="60px" viewBox="0 0 75 60" enable-background="new 0 0 75 60" xml:space="preserve">
<g>
	<path fill="#FFFFFF" d="M53.645,5.34V1H21.358v4.34H9.926v10.846c0,7.401,5.577,13.438,12.85,14.114
		c1.956,4.331,5.801,7.65,10.349,8.947v2.564c-3.569,1.4-6.288,4.456-7.273,8.153h-1.795v0.044h-2.488V59h31.867v-8.99h-4.252
		v-0.045h-0.03c-0.987-3.696-3.705-6.752-7.274-8.153v-2.564c4.549-1.297,8.394-4.616,10.349-8.947
		c7.273-0.675,12.848-6.712,12.848-14.114V5.34H53.645z M46.888,52.698l0.006,0.044h3.81v3.526H24.301v-3.526h3.808l0.008-0.044
		H46.888z M46.293,49.965H28.711c0.986-2.791,3.272-5.014,6.166-5.87l0.98-0.288v-4.262h3.287v4.262l0.979,0.288
		C43.02,44.951,45.305,47.174,46.293,49.965 M62.343,16.187c0,6.216-4.871,11.24-11.093,11.439l-0.904,0.029L50.02,28.5
		c-1.612,4.186-5.312,7.359-9.669,8.314h-5.699c-4.356-0.955-8.055-4.129-9.669-8.314l-0.325-0.845l-0.904-0.028
		c-6.222-0.199-11.093-5.224-11.093-11.44V8.073h11.431V3.732h26.821v4.341h11.431V16.187z"/>
	<path fill="#FFFFFF" d="M15.503,16.187c0,4.108,2.928,7.663,6.959,8.452l1.629,0.318V10.918h-8.588V16.187z M18.236,13.649h3.122
		v7.729c-1.878-1-3.122-2.979-3.122-5.193V13.649z"/>
	<path fill="#FFFFFF" d="M50.911,24.956l1.629-0.318c4.031-0.789,6.959-4.344,6.959-8.452v-5.269h-8.588V24.956z M53.645,13.649
		h3.123v2.537c0,2.214-1.246,4.193-3.123,5.193V13.649z"/>
	<path fill="#FFFFFF" d="M37.501,9.277l-3.609,5.267l-6.125,1.806l3.894,5.061l-0.175,6.382l6.016-2.14l6.017,2.14l-0.175-6.382
		l3.894-5.061l-6.125-1.806L37.501,9.277z M40.678,23.883l-3.177-1.129l-3.175,1.129l0.093-3.369l-2.057-2.671l3.234-0.953
		l1.905-2.78l1.907,2.78l3.231,0.953l-2.055,2.671L40.678,23.883z"/>
</g>
</svg>
