<?xml version="1.0" encoding="utf-8"?>
<!-- Generator: Adobe Illustrator 16.0.4, SVG Export Plug-In . SVG Version: 6.00 Build 0)  -->
<!DOCTYPE svg PUBLIC "-//W3C//DTD SVG 1.1//EN" "http://www.w3.org/Graphics/SVG/1.1/DTD/svg11.dtd">
<svg version="1.1" id="Layer_1" xmlns="http://www.w3.org/2000/svg" xmlns:xlink="http://www.w3.org/1999/xlink" x="0px" y="0px"
	 width="75px" height="60px" viewBox="0 0 75 60" enable-background="new 0 0 75 60" xml:space="preserve">
<g>
	<path fill="#FBAA19" d="M19.736,1c-1.671,0-3.026,1.354-3.026,3.026v15.135l6.051-2.445V4.026C22.761,2.354,21.407,1,19.736,1"/>
	<path fill="#FBAA19" d="M50.356,59H24.645C14.298,59,5.881,50.582,5.881,40.236c0-16.296,13.257-29.553,29.551-29.553h4.134
		c16.296,0,29.553,13.257,29.553,29.553C69.119,50.582,60.703,59,50.356,59 M35.337,14.236c-14.472,0-26.246,11.775-26.246,26.248
		c0,8.251,6.712,14.964,14.963,14.964h26.891c8.252,0,14.963-6.713,14.963-14.964c0-14.473-11.773-26.248-26.245-26.248H35.337z"/>
	<path fill="#FBAA19" d="M52.926,43.708c-3.049,0-5.529-2.481-5.529-5.531c0-3.049,2.48-5.53,5.529-5.53
		c3.051,0,5.531,2.481,5.531,5.53C58.457,41.227,55.977,43.708,52.926,43.708 M52.926,33.457c-2.602,0-4.72,2.117-4.72,4.72
		s2.118,4.721,4.72,4.721c2.603,0,4.721-2.118,4.721-4.721S55.528,33.457,52.926,33.457"/>
	<path fill="#FBAA19" d="M22.074,43.708c-3.049,0-5.532-2.481-5.532-5.531c0-3.049,2.483-5.53,5.532-5.53
		c3.049,0,5.53,2.481,5.53,5.53C27.604,41.227,25.123,43.708,22.074,43.708 M22.074,33.457c-2.602,0-4.72,2.117-4.72,4.72
		s2.118,4.721,4.72,4.721c2.602,0,4.72-2.118,4.72-4.721S24.676,33.457,22.074,33.457"/>
	<path fill="#FBAA19" d="M51.111,26.369H23.888c-6.521,0-11.808,5.287-11.808,11.808c0,6.521,5.287,11.808,11.808,11.808h27.223
		c6.521,0,11.808-5.286,11.808-11.808C62.919,31.656,57.633,26.369,51.111,26.369 M22.074,43.302c-2.831,0-5.126-2.295-5.126-5.125
		c0-2.831,2.295-5.126,5.126-5.126s5.126,2.295,5.126,5.126C27.2,41.007,24.905,43.302,22.074,43.302 M52.926,43.302
		c-2.83,0-5.124-2.295-5.124-5.125c0-2.831,2.294-5.126,5.124-5.126c2.831,0,5.126,2.295,5.126,5.126
		C58.052,41.007,55.757,43.302,52.926,43.302"/>
</g>
</svg>
