<?xml version="1.0" encoding="utf-8"?>
<!-- Generator: Adobe Illustrator 16.0.4, SVG Export Plug-In . SVG Version: 6.00 Build 0)  -->
<!DOCTYPE svg PUBLIC "-//W3C//DTD SVG 1.1//EN" "http://www.w3.org/Graphics/SVG/1.1/DTD/svg11.dtd">
<svg version="1.1" id="Layer_1" xmlns="http://www.w3.org/2000/svg" xmlns:xlink="http://www.w3.org/1999/xlink" x="0px" y="0px"
	 width="75px" height="60px" viewBox="0 0 75 60" enable-background="new 0 0 75 60" xml:space="preserve">
<g>
	<path fill="#FFFFFF" d="M28.361,39.485c0.026-0.774,0.262-1.616,0.703-2.526c0.44-0.908,0.954-1.536,1.543-1.882
		c2.779,1.442,5.158,2.163,7.139,2.163c0.801,0,1.448-0.152,1.944-0.46c0.493-0.309,0.741-0.742,0.741-1.305
		c0-0.935-0.655-1.63-1.965-2.085l-3.81-1.363c-3.556-1.363-5.333-3.489-5.333-6.375c0-1.738,0.567-3.214,1.704-4.431
		s2.626-1.999,4.472-2.346v-3.249c0.507-0.106,1.223-0.161,2.146-0.161c0.921,0,1.65,0.054,2.185,0.161v3.168
		c1.951,0.214,4.051,0.802,6.296,1.765c0,0.855-0.188,1.704-0.562,2.546c-0.375,0.842-0.869,1.531-1.483,2.065
		c-2.674-1.068-4.772-1.604-6.296-1.604c-0.695,0-1.25,0.154-1.664,0.461c-0.414,0.308-0.621,0.715-0.621,1.223
		c0,0.668,0.667,1.23,2.005,1.684l3.729,1.444c3.663,1.364,5.494,3.649,5.494,6.857c0,1.766-0.642,3.242-1.925,4.432
		s-2.994,1.931-5.133,2.226v3.047c-0.4,0.082-1.13,0.121-2.185,0.121c-1.058,0-1.772-0.039-2.146-0.121v-3.087
		C32.479,41.479,30.152,40.69,28.361,39.485"/>
	<path fill="#FFFFFF" d="M11.938,30c0-12.705,12.883-25.588,25.588-25.588V1c-14.59,0-29,14.411-29,29H11.938z"/>
	<path fill="#FFFFFF" d="M61.982,30.142c1.038,12.449-11.597,25.446-24.456,25.446V59C52.34,59,66.59,44.342,65.383,29.858
		L61.982,30.142z"/>
	<polygon fill="#FFFFFF" points="51.99,38.32 64.499,31.497 62.209,30.86 70.17,44.506 73.117,42.787 65.156,29.14 64.321,27.709 
		62.866,28.503 50.356,35.326 	"/>
	<polygon fill="#FFFFFF" points="23.116,21.65 9.47,28.475 11.758,29.237 4.935,15.59 1.883,17.116 8.707,30.763 9.47,32.288 
		10.995,31.525 24.642,24.702 	"/>
</g>
</svg>
