<?xml version="1.0" encoding="utf-8"?>
<!-- Generator: Adobe Illustrator 16.0.4, SVG Export Plug-In . SVG Version: 6.00 Build 0)  -->
<!DOCTYPE svg PUBLIC "-//W3C//DTD SVG 1.1//EN" "http://www.w3.org/Graphics/SVG/1.1/DTD/svg11.dtd">
<svg version="1.1" id="Layer_1" xmlns="http://www.w3.org/2000/svg" xmlns:xlink="http://www.w3.org/1999/xlink" x="0px" y="0px"
	 width="75px" height="60px" viewBox="0 0 75 60" enable-background="new 0 0 75 60" xml:space="preserve">
<g>
	<path fill="#FFFFFF" d="M60.395,1H20.71c-4.197,0-7.631,3.434-7.631,7.631v42.737c0,4.197,3.434,7.632,7.631,7.632h39.685
		c0.839,0,1.526-0.688,1.526-1.526V2.526C61.921,1.687,61.233,1,60.395,1 M20.71,4.053h21.368v18.316l6.105-6.106l6.104,6.106V4.053
		h4.579v39.685H20.71c-1.756,0-3.281,0.609-4.578,1.525V8.631C16.132,6.113,18.191,4.053,20.71,4.053 M20.71,55.947
		c-6.051,0-6.062-9.158,0-9.158h38.157v3.815H20.71c-1.025,0-1.023,1.527,0,1.527h38.157v3.815H20.71z"/>
</g>
</svg>
