<?xml version="1.0" encoding="utf-8"?>
<!-- Generator: Adobe Illustrator 21.1.0, SVG Export Plug-In . SVG Version: 6.00 Build 0)  -->
<svg version="1.1" xmlns="http://www.w3.org/2000/svg" xmlns:xlink="http://www.w3.org/1999/xlink" x="0px" y="0px"
	 viewBox="0 0 750 620" style="enable-background:new 0 0 750 620;" xml:space="preserve">
<style type="text/css">
	.st0{display:none;}
	.st1{display:inline;}
	.st2{fill:#80CBC4;}
	.st3{fill:#102027;}
	.st4{fill:#FFAB00;}
	.st5{fill:#009688;}
	.st6{fill:#F57C00;}
	.st7{fill:#1D1D1B;}
	.st8{fill:#1B5E20;}
	.st9{fill:#E65100;}
	.st10{fill:#3E2723;}
	.st11{fill:#FDFDFC;}
	.st12{fill:#FFFFFF;}
	.st13{fill:#37474F;}
	.st14{fill:#62727B;}
	.st15{fill:#FFDD4B;}
	.st16{fill:#C67C00;}
	.st17{fill:#72370F;}
</style>
<g id="Camada_2" class="st0">
	<g class="st1">
		<rect x="-0.3" y="-460.5" class="st2" width="750.5" height="1337"/>
	</g>
</g>
<g id="Camada_1">
	<g>
		<g>
			<circle class="st6" cx="136" cy="263" r="80.5"/>
		</g>
		<path class="st7" d="M127.6,234.4c-0.2-8.8,1.5-17.7,4.6-26l2.7-6.2l3.2-6l3.7-5.7l4.1-5.4c1.5-1.7,3-3.4,4.5-5.1l4.9-4.9
			c1.8-1.5,3.6-2.9,5.4-4.3c2-1.2,4-2.4,6-3.4c2.1-0.9,4.3-1.8,6.4-2.6c2.2-0.6,4.5-1.2,6.7-1.7c2.3-0.3,4.6-0.6,6.8-0.7
			c2.3,0,4.6,0.1,6.8,0.4l0.2,1c-2,1.2-4,2.1-5.9,3c-1.9,1.1-3.8,2.1-5.6,3c-1.8,1.1-3.6,2.1-5.4,3.1c-1.7,1.1-3.5,2.2-5.2,3.3
			c-1.7,1.2-3.3,2.3-5.1,3.4c-1.6,1.2-3.3,2.3-5.1,3.4l-5,3.6c-1.6,1.3-3.1,2.7-4.7,4.1l-4.3,4.5l-3.9,4.8L140,205l-3.2,5.4
			c-4,7.4-6.8,15.5-8.2,24.1L127.6,234.4z"/>
		<path class="st8" d="M146,160.5c0,0-2.8-20.8-8.1-28.5c-5.3-7.7-32-9.4-32-9.4l0,0c0,0,2.9,26.6,10.9,31.5
			c8,4.9,28.9,6.8,28.9,6.8L146,160.5z"/>
	</g>
	<g>
		<circle class="st3" cx="631.8" cy="259.5" r="80.5"/>
		<path class="st4" d="M631.8,343.5c-46.3,0-84-37.7-84-84s37.7-84,84-84s84,37.7,84,84S678.1,343.5,631.8,343.5z M631.8,182.5
			c-42.5,0-77,34.5-77,77s34.5,77,77,77s77-34.5,77-77S674.2,182.5,631.8,182.5z"/>
		<g>
			<g>
				<path class="st4" d="M605.2,286.2c0.1-2.2,0.8-4.7,2-7.3c1.3-2.6,2.8-4.4,4.5-5.4c8,4.2,14.9,6.3,20.6,6.3
					c2.3,0,4.2-0.4,5.6-1.3c1.4-0.9,2.1-2.1,2.1-3.8c0-2.7-1.9-4.7-5.7-6l-11-3.9c-10.3-3.9-15.4-10.1-15.4-18.4
					c0-5,1.6-9.3,4.9-12.8c3.3-3.5,7.6-5.8,12.9-6.8v-9.4c1.5-0.3,3.5-0.5,6.2-0.5c2.7,0,4.8,0.2,6.3,0.5v9.2
					c5.6,0.6,11.7,2.3,18.2,5.1c0,2.5-0.5,4.9-1.6,7.4c-1.1,2.4-2.5,4.4-4.3,6c-7.7-3.1-13.8-4.6-18.2-4.6c-2,0-3.6,0.4-4.8,1.3
					c-1.2,0.9-1.8,2.1-1.8,3.5c0,1.9,1.9,3.6,5.8,4.9l10.8,4.2c10.6,3.9,15.9,10.5,15.9,19.8c0,5.1-1.9,9.4-5.6,12.8
					c-3.7,3.4-8.7,5.6-14.8,6.4v8.8c-1.2,0.2-3.3,0.3-6.3,0.3c-3.1,0-5.1-0.1-6.2-0.3V293C617.1,291.9,610.4,289.7,605.2,286.2z"/>
			</g>
		</g>
	</g>
	<g>
		<g>
			<ellipse class="st5" cx="375.5" cy="588.5" rx="132" ry="35.5"/>
		</g>
		<g>
			<g>
				<g>
					<path class="st12" d="M408.1,475.4c-12.8-8.3-16.5-25.4-8.2-38.3c8.3-12.8,25.4-16.5,38.3-8.2c0.3,0.2,0.6,0.4,0.8,0.6
						c56.4,13.3,92.6-25.1,85.7,0.4C511.9,476.6,415.1,480,408.1,475.4z"/>
					<path class="st7" d="M422,480.6c-7.9,0-13.7-0.8-15.8-2.1c0,0,0,0,0,0c-7-4.5-11.8-11.5-13.6-19.7c-1.8-8.2-0.2-16.5,4.3-23.5
						c4.5-7,11.5-11.8,19.7-13.6c8.2-1.8,16.5-0.2,23.5,4.3c0.1,0.1,0.3,0.2,0.4,0.3c28.9,6.6,51.9-0.7,67.1-5.5
						c9.8-3.1,15.7-5,19.4-1.5c3,2.9,2.2,7.7,1.1,11.6c-4.5,16.4-18.5,29.2-41.8,38.1C465,477.2,438.7,480.6,422,480.6z
						 M409.9,472.4c4.8,2.1,48.5,2,81-13.1c16.7-7.8,26.8-17.9,30.2-30.2c0.7-2.6,0.8-3.9,0.7-4.5c-1.9-0.2-7.5,1.6-12.1,3
						c-15.1,4.8-40.5,12.8-71.6,5.4c-0.4-0.1-0.9-0.3-1.2-0.6c-0.1-0.1-0.3-0.2-0.4-0.3c-0.1-0.1-0.2-0.2-0.3-0.2
						c-5.4-3.5-11.8-4.7-18.1-3.3c-6.3,1.3-11.7,5.1-15.2,10.5c-3.5,5.4-4.7,11.8-3.3,18.1C400.9,463.5,404.6,468.9,409.9,472.4z
						 M410,472.4C410,472.4,410,472.4,410,472.4L410,472.4C410,472.4,410,472.4,410,472.4z"/>
				</g>
			</g>
			<g>
				<g>
					<path class="st12" d="M342.9,475.4c12.8-8.3,16.5-25.4,8.2-38.3c-8.3-12.8-25.4-16.5-38.3-8.2c-0.3,0.2-0.6,0.4-0.8,0.6
						c-56.4,13.3-92.6-25.1-85.7,0.4C239.1,476.6,335.9,480,342.9,475.4z"/>
					<path class="st7" d="M329,480.6c-16.8,0-43-3.4-64.3-11.5c-23.3-8.9-37.3-21.7-41.8-38.1c-1.1-3.9-1.9-8.7,1.1-11.6
						c3.6-3.5,9.6-1.6,19.4,1.5c15.2,4.8,38.2,12.1,67.1,5.5c0.1-0.1,0.3-0.2,0.4-0.3c7-4.5,15.4-6.1,23.5-4.3
						c8.2,1.8,15.2,6.6,19.7,13.6s6.1,15.4,4.3,23.5c-1.8,8.2-6.6,15.2-13.6,19.7c0,0,0,0,0,0C342.7,479.8,336.9,480.6,329,480.6z
						 M229.1,424.6c0,0.6,0,1.8,0.7,4.5c3.4,12.3,13.5,22.5,30.2,30.2c32.5,15.1,76.2,15.2,81,13.1c5.4-3.5,9.1-8.9,10.4-15.1
						c1.4-6.3,0.2-12.7-3.3-18.1c-3.5-5.4-8.9-9.1-15.2-10.5c-6.3-1.4-12.7-0.2-18.1,3.3c-0.1,0.1-0.2,0.1-0.3,0.2
						c-0.1,0.1-0.3,0.2-0.4,0.3c-0.4,0.3-0.8,0.5-1.2,0.6c-31.2,7.3-56.5-0.7-71.6-5.4C236.6,426.2,231,424.4,229.1,424.6z
						 M340.9,472.4C340.9,472.4,340.9,472.4,340.9,472.4C340.9,472.4,340.9,472.4,340.9,472.4z"/>
				</g>
			</g>
			<g>
				<path class="st12" d="M347.8,420.3c-23,0-50.1,41.9-55,88.2c-4.9,46.2,24,81.7,24,81.7h14.3c0,0,5-10.8,17.1-18.3
					c12.1-7.5,41.2-7.5,53.3,0c12.1,7.5,17.1,18.3,17.1,18.3h14.3c0,0,28.9-35.5,24-81.7c-4.9-46.2-32-88.2-55-88.2H347.8z"/>
				<path class="st7" d="M434.4,593.5h-18l-0.9-1.9c0-0.1-4.8-10-15.8-16.9c-10.9-6.8-38.8-6.8-49.7,0c-11,6.9-15.8,16.8-15.8,16.9
					l-0.9,1.9l-2.1,0h-15.8l-1-1.2c-1.2-1.5-29.7-37.1-24.7-84.2c5.1-47.7,32.9-91.2,58.3-91.2h53.9c25.4,0,53.2,43.4,58.3,91.2
					c5,47.1-23.5,82.7-24.7,84.2L434.4,593.5z M420.5,586.9h10.6c4.8-6.5,26.5-38.5,22.3-78c-5-47.2-32.4-85.2-51.7-85.2h-53.9
					c-19.3,0-46.7,38-51.7,85.2c-4.2,39.6,17.5,71.5,22.3,78h10.6c2.1-3.6,7.6-11.7,17.3-17.8c13-8.1,43.8-8.1,56.8,0
					C413,575.2,418.4,583.2,420.5,586.9z"/>
			</g>
			<path class="st7" d="M287.8,122.6c-8.2,0-14.8,6.6-14.8,14.8v79.9l29.6-5.7v-74.1C302.6,129.2,296,122.6,287.8,122.6z"/>
			<g>
				<path class="st11" d="M437.7,396.6H311.8c-44.7,0-81-36.3-81-81v0c0-73.9,59.9-133.8,133.8-133.8h20.2
					c73.9,0,133.8,59.9,133.8,133.8v0C518.7,360.3,482.5,396.6,437.7,396.6z"/>
				<path class="st7" d="M437.7,400.2H311.8c-46.6,0-84.6-37.9-84.6-84.6c0-75.8,61.6-137.4,137.4-137.4h20.2
					c75.8,0,137.4,61.6,137.4,137.4C522.3,362.2,484.4,400.2,437.7,400.2z M364.7,185.4c-71.8,0-130.2,58.4-130.2,130.2
					c0,42.7,34.7,77.4,77.4,77.4h125.9c42.7,0,77.4-34.7,77.4-77.4c0-71.8-58.4-130.2-130.2-130.2H364.7z"/>
			</g>
			<path class="st7" d="M441.4,363.3H308.1c-31.9,0-57.8-25.9-57.8-57.8v0c0-31.9,25.9-57.8,57.8-57.8h133.3
				c31.9,0,57.8,25.9,57.8,57.8v0C499.3,337.4,473.4,363.3,441.4,363.3z"/>
			<g>
				<g>
					<g>
						<g>
							<g>
								<circle class="st12" cx="450.3" cy="305.5" r="25.1"/>
								<path class="st7" d="M450.3,332.6c-14.9,0-27.1-12.1-27.1-27.1s12.1-27.1,27.1-27.1s27.1,12.1,27.1,27.1
									S465.3,332.6,450.3,332.6z M450.3,282.4c-12.7,0-23.1,10.4-23.1,23.1s10.4,23.1,23.1,23.1s23.1-10.4,23.1-23.1
									S463.1,282.4,450.3,282.4z"/>
							</g>
						</g>
					</g>
				</g>
				<g>
					<g>
						<g>
							<g>
								<circle class="st12" cx="299.3" cy="305.5" r="25.1"/>
								<path class="st7" d="M299.3,332.6c-14.9,0-27.1-12.1-27.1-27.1s12.1-27.1,27.1-27.1c14.9,0,27.1,12.1,27.1,27.1
									S314.2,332.6,299.3,332.6z M299.3,282.4c-12.7,0-23.1,10.4-23.1,23.1s10.4,23.1,23.1,23.1c12.7,0,23.1-10.4,23.1-23.1
									S312,282.4,299.3,282.4z"/>
							</g>
						</g>
					</g>
				</g>
			</g>
			<path class="st7" d="M392.2,568.5l-2.7-1.1c0.6-1.5,15.1-36.7,39.2-43.7c9.5-2.8,19.2-0.7,28.8,6.1l-1.7,2.3
				c-8.8-6.3-17.7-8.2-26.3-5.7C406.8,533.1,392.4,568.1,392.2,568.5z"/>
			<path class="st7" d="M356.7,568.5c-0.1-0.4-14.6-35.4-37.3-42c-8.6-2.5-17.5-0.6-26.3,5.7l-1.7-2.3c9.6-6.8,19.3-8.9,28.8-6.1
				c24.1,7,38.6,42.2,39.2,43.7L356.7,568.5z"/>
		</g>
	</g>
</g>
</svg>
