<?xml version="1.0" encoding="utf-8"?>
<!-- Generator: Adobe Illustrator 21.1.0, SVG Export Plug-In . SVG Version: 6.00 Build 0)  -->
<svg version="1.1" xmlns="http://www.w3.org/2000/svg" xmlns:xlink="http://www.w3.org/1999/xlink" x="0px" y="0px"
	 viewBox="0 0 750 629" style="enable-background:new 0 0 750 629;" xml:space="preserve">
<style type="text/css">
	.st0{display:none;}
	.st1{display:inline;}
	.st2{fill:#80CBC4;}
	.st3{fill:#102027;}
	.st4{fill:#FFAB00;}
	.st5{fill:#009688;}
	.st6{fill:#F57C00;}
	.st7{fill:#1D1D1B;}
	.st8{fill:#1B5E20;}
	.st9{fill:#E65100;}
	.st10{fill:#3E2723;}
	.st11{fill:#FDFDFC;}
	.st12{fill:#FFFFFF;}
	.st13{fill:#37474F;}
	.st14{fill:#62727B;}
	.st15{fill:#FFDD4B;}
	.st16{fill:#C67C00;}
	.st17{fill:#72370F;}
</style>
<g id="Camada_2" class="st0">
	<g class="st1">
		<rect x="-0.7" y="-455.5" class="st2" width="750.5" height="1337"/>
	</g>
</g>
<g id="Camada_1">
	<g>
		<g>
			<circle class="st9" cx="556.2" cy="422.3" r="59.3"/>
		</g>
		<path class="st7" d="M550.1,401.2c-0.1-6.5,1.1-13,3.4-19.2l2-4.6l2.3-4.4l2.7-4.2l3.1-4c1.1-1.2,2.2-2.5,3.3-3.8l3.6-3.6
			c1.3-1.1,2.6-2.2,4-3.2c1.4-0.9,2.9-1.7,4.4-2.5c1.6-0.7,3.1-1.3,4.7-1.9c1.6-0.5,3.3-0.9,4.9-1.3c1.7-0.2,3.4-0.4,5-0.5
			c1.7,0,3.4,0.1,5,0.3l0.1,0.7c-1.5,0.9-2.9,1.6-4.3,2.2c-1.4,0.8-2.8,1.5-4.1,2.2c-1.3,0.8-2.6,1.6-4,2.3
			c-1.3,0.8-2.5,1.6-3.8,2.4c-1.2,0.9-2.5,1.7-3.7,2.5c-1.2,0.9-2.5,1.7-3.7,2.5l-3.7,2.6c-1.2,1-2.3,2-3.4,3l-3.1,3.3l-2.9,3.6
			l-2.7,3.8l-2.3,4c-3,5.4-5,11.4-6,17.7L550.1,401.2z"/>
		<path class="st8" d="M563.6,346.8c0,0-2.1-15.3-6-21c-3.9-5.7-23.5-6.9-23.5-6.9l0,0c0,0,2.1,19.6,8,23.2s21.3,5,21.3,5
			L563.6,346.8z"/>
	</g>
	<g>
		<rect x="545.6" y="187" class="st10" width="18" height="264"/>
	</g>
	<g>
		<polygon class="st5" points="442.4,604 671.5,604 603,587.7 500.6,587.7 		"/>
	</g>
	<g>
		<ellipse class="st5" cx="213.5" cy="593.5" rx="132" ry="35.5"/>
	</g>
	<rect x="442.4" y="550.2" class="st3" width="22.1" height="53.8"/>
	<rect x="500.6" y="550.2" class="st3" width="22.1" height="37.6"/>
	<rect x="580.9" y="550.2" class="st3" width="22.1" height="37.6"/>
	<rect x="649.4" y="550.2" class="st3" width="22.1" height="53.8"/>
	<path class="st7" d="M126.9,127.6c-8.2,0-14.8,6.6-14.8,14.8v79.9l29.6-5.7v-74.1C141.7,134.2,135.1,127.6,126.9,127.6z"/>
	<g>
		<path class="st11" d="M276.8,401.6H150.9c-44.7,0-81-36.3-81-81v0c0-73.9,59.9-133.8,133.8-133.8H224
			c73.9,0,133.8,59.9,133.8,133.8v0C357.8,365.3,321.5,401.6,276.8,401.6z"/>
		<path class="st7" d="M276.8,405.2H150.9c-46.6,0-84.6-37.9-84.6-84.6c0-75.8,61.6-137.4,137.4-137.4H224
			c75.8,0,137.4,61.6,137.4,137.4C361.4,367.2,323.4,405.2,276.8,405.2z M203.7,190.4c-71.8,0-130.2,58.4-130.2,130.2
			c0,42.7,34.7,77.4,77.4,77.4h125.9c42.7,0,77.4-34.7,77.4-77.4c0-71.8-58.4-130.2-130.2-130.2H203.7z"/>
	</g>
	<path class="st7" d="M280.5,368.3H147.2c-31.9,0-57.8-25.9-57.8-57.8v0c0-31.9,25.9-57.8,57.8-57.8h133.3
		c31.9,0,57.8,25.9,57.8,57.8v0C338.3,342.4,312.4,368.3,280.5,368.3z"/>
	<g>
		<g>
			<g>
				<g>
					<g>
						<circle class="st12" cx="289.4" cy="310.5" r="25.1"/>
						<path class="st7" d="M289.4,337.6c-14.9,0-27.1-12.1-27.1-27.1s12.1-27.1,27.1-27.1s27.1,12.1,27.1,27.1
							S304.3,337.6,289.4,337.6z M289.4,287.4c-12.7,0-23.1,10.4-23.1,23.1s10.4,23.1,23.1,23.1s23.1-10.4,23.1-23.1
							S302.1,287.4,289.4,287.4z"/>
					</g>
				</g>
			</g>
		</g>
		<g>
			<g>
				<g>
					<g>
						<circle class="st12" cx="138.3" cy="310.5" r="25.1"/>
						<path class="st7" d="M138.3,337.6c-14.9,0-27.1-12.1-27.1-27.1s12.1-27.1,27.1-27.1s27.1,12.1,27.1,27.1
							S153.3,337.6,138.3,337.6z M138.3,287.4c-12.7,0-23.1,10.4-23.1,23.1s10.4,23.1,23.1,23.1s23.1-10.4,23.1-23.1
							S151.1,287.4,138.3,287.4z"/>
					</g>
				</g>
			</g>
		</g>
	</g>
	<g>
		<g>
			<circle class="st6" cx="501.7" cy="459.2" r="59.3"/>
		</g>
		<path class="st7" d="M495.6,438.1c-0.1-6.5,1.1-13,3.4-19.2l2-4.6l2.3-4.4l2.7-4.2l3.1-4c1.1-1.2,2.2-2.5,3.3-3.8l3.6-3.6
			c1.3-1.1,2.6-2.2,4-3.2c1.4-0.9,2.9-1.7,4.4-2.5c1.6-0.7,3.1-1.3,4.7-1.9c1.6-0.5,3.3-0.9,4.9-1.3c1.7-0.2,3.4-0.4,5-0.5
			c1.7,0,3.4,0.1,5,0.3l0.1,0.7c-1.5,0.9-2.9,1.6-4.3,2.2c-1.4,0.8-2.8,1.5-4.1,2.2c-1.3,0.8-2.6,1.6-4,2.3
			c-1.3,0.8-2.5,1.6-3.8,2.4c-1.2,0.9-2.5,1.7-3.7,2.5c-1.2,0.9-2.5,1.7-3.7,2.5l-3.7,2.6c-1.2,1-2.3,2-3.4,3l-3.1,3.3l-2.9,3.6
			l-2.7,3.8l-2.3,4c-3,5.4-5,11.4-6,17.7L495.6,438.1z"/>
		<path class="st8" d="M509.1,383.6c0,0-2.1-15.3-6-21c-3.9-5.7-23.5-6.9-23.5-6.9l0,0c0,0,2.1,19.6,8,23.2c5.9,3.6,21.3,5,21.3,5
			L509.1,383.6z"/>
	</g>
	<g>
		<g>
			<circle class="st6" cx="603.4" cy="459.9" r="59.3"/>
		</g>
		<path class="st7" d="M597.2,438.8c-0.1-6.5,1.1-13,3.4-19.2l2-4.6l2.3-4.4l2.7-4.2l3.1-4c1.1-1.2,2.2-2.5,3.3-3.8l3.6-3.6
			c1.3-1.1,2.6-2.2,4-3.2c1.4-0.9,2.9-1.7,4.4-2.5c1.6-0.7,3.1-1.3,4.7-1.9c1.6-0.5,3.3-0.9,4.9-1.3c1.7-0.2,3.4-0.4,5-0.5
			c1.7,0,3.4,0.1,5,0.3l0.1,0.7c-1.5,0.9-2.9,1.6-4.3,2.2c-1.4,0.8-2.8,1.5-4.1,2.2c-1.3,0.8-2.6,1.6-4,2.3
			c-1.3,0.8-2.5,1.6-3.8,2.4c-1.2,0.9-2.5,1.7-3.7,2.5c-1.2,0.9-2.5,1.7-3.7,2.5l-3.7,2.6c-1.2,1-2.3,2-3.4,3l-3.1,3.3l-2.9,3.6
			l-2.7,3.8l-2.3,4c-3,5.4-5,11.4-6,17.7L597.2,438.8z"/>
		<path class="st8" d="M610.8,384.4c0,0-2.1-15.3-6-21c-3.9-5.7-23.5-6.9-23.5-6.9l0,0c0,0,2.1,19.6,8,23.2c5.9,3.6,21.3,5,21.3,5
			L610.8,384.4z"/>
	</g>
	<g>
		<path class="st12" d="M186.9,425.3c-23,0-50.1,41.9-55,88.2c-4.9,46.2,24,81.7,24,81.7h14.3c0,0,5-10.8,17.1-18.3
			c12.1-7.5,41.2-7.5,53.3,0c12.1,7.5,17.1,18.3,17.1,18.3h14.3c0,0,28.9-35.5,24-81.7c-4.9-46.2-32-88.2-55-88.2H186.9z"/>
		<path class="st7" d="M273.4,598.5h-18l-0.9-1.9c0-0.1-4.8-10-15.8-16.9c-10.9-6.8-38.8-6.8-49.7,0c-11,6.9-15.8,16.8-15.8,16.9
			l-0.9,1.9l-2.1,0h-15.8l-1-1.2c-1.2-1.5-29.7-37.1-24.7-84.2c5.1-47.7,32.9-91.2,58.3-91.2h53.9c25.4,0,53.2,43.4,58.3,91.2
			c5,47.1-23.5,82.7-24.7,84.2L273.4,598.5z M259.6,591.9h10.6c4.8-6.5,26.5-38.5,22.3-78c-5-47.2-32.4-85.2-51.7-85.2h-53.9
			c-19.3,0-46.7,38-51.7,85.2c-4.2,39.6,17.5,71.5,22.3,78h10.6c2.1-3.6,7.6-11.7,17.3-17.8c13-8.1,43.8-8.1,56.8,0
			C252,580.2,257.5,588.2,259.6,591.9z"/>
	</g>
	<path class="st7" d="M231.3,573.5l-2.7-1.1c0.6-1.5,15.1-36.7,39.2-43.7c9.5-2.8,19.2-0.7,28.8,6.1l-1.7,2.3
		c-8.8-6.3-17.7-8.2-26.3-5.7C245.8,538.1,231.4,573.1,231.3,573.5z"/>
	<path class="st7" d="M195.8,573.5c-0.1-0.4-14.6-35.4-37.3-42c-8.6-2.5-17.5-0.6-26.3,5.7l-1.7-2.3c9.6-6.8,19.3-8.9,28.8-6.1
		c24.1,7,38.6,42.2,39.2,43.7L195.8,573.5z"/>
	<g>
		<g>
			<circle class="st3" cx="213.8" cy="458" r="80.5"/>
			<path class="st4" d="M213.8,542c-46.3,0-84-37.7-84-84s37.7-84,84-84s84,37.7,84,84S260.1,542,213.8,542z M213.8,381
				c-42.5,0-77,34.5-77,77s34.5,77,77,77s77-34.5,77-77S256.3,381,213.8,381z"/>
		</g>
		<g>
			<g>
				<path class="st4" d="M187.3,484.7c0.1-2.2,0.8-4.7,2-7.3c1.3-2.6,2.8-4.4,4.5-5.4c8,4.2,14.9,6.3,20.6,6.3
					c2.3,0,4.2-0.4,5.6-1.3c1.4-0.9,2.1-2.1,2.1-3.8c0-2.7-1.9-4.7-5.7-6l-11-3.9c-10.3-3.9-15.4-10.1-15.4-18.4
					c0-5,1.6-9.3,4.9-12.8c3.3-3.5,7.6-5.8,12.9-6.8v-9.4c1.5-0.3,3.5-0.5,6.2-0.5c2.7,0,4.8,0.2,6.3,0.5v9.2
					c5.6,0.6,11.7,2.3,18.2,5.1c0,2.5-0.5,4.9-1.6,7.4c-1.1,2.4-2.5,4.4-4.3,6c-7.7-3.1-13.8-4.6-18.2-4.6c-2,0-3.6,0.4-4.8,1.3
					c-1.2,0.9-1.8,2.1-1.8,3.5c0,1.9,1.9,3.6,5.8,4.9l10.8,4.2c10.6,3.9,15.9,10.5,15.9,19.8c0,5.1-1.9,9.4-5.6,12.8
					c-3.7,3.4-8.7,5.6-14.8,6.4v8.8c-1.2,0.2-3.3,0.3-6.3,0.3c-3.1,0-5.1-0.1-6.2-0.3v-8.9C199.2,490.4,192.5,488.1,187.3,484.7z"/>
			</g>
		</g>
	</g>
	<g>
		<path class="st12" d="M133.9,416.3c15.6-4.8,23.1-8.2,19.6,4.7c-1.4,5.1-3.8,9.8-7,13.9c-8.1,10.4-12.4,11.6-21.4-3.4
			C118.3,420.2,127.6,418.3,133.9,416.3z"/>
		<path class="st7" d="M136.5,446.3c-0.2,0-0.3,0-0.5,0c-4.6-0.3-8.7-4-14-13c-2.8-4.7-3.6-8.7-2.3-12c1.9-5,7.5-6.7,12-8
			c0.4-0.1,0.8-0.2,1.2-0.4c1.3-0.4,2.5-0.8,3.6-1.1c9.8-3.1,15.7-5,19.4-1.5c3,2.9,2.2,7.7,1.1,11.6c-1.5,5.4-4,10.5-7.7,15.1
			C145.8,441.6,141.7,446.3,136.5,446.3z M150.5,415.6c-2.2,0-7.5,1.7-11.8,3c-1.2,0.4-2.4,0.8-3.7,1.1l0,0
			c-0.4,0.1-0.8,0.3-1.2,0.4c-2.8,0.8-6.7,2-7.4,3.8c-0.4,1.1,0.2,3.2,1.7,5.8c4.9,8.1,7.3,9.4,8.3,9.5c2,0.1,5.9-4.8,7.2-6.5
			c3-3.9,5.2-8.2,6.4-12.6c0.7-2.6,0.8-3.9,0.7-4.5C150.7,415.6,150.6,415.6,150.5,415.6z"/>
	</g>
	<g>
		<path class="st12" d="M291.1,416.3c-15.6-4.8-23.1-8.2-19.6,4.7c1.4,5.1,3.8,9.8,7,13.9c8.1,10.4,12.4,11.6,21.4-3.4
			C306.8,420.2,297.5,418.3,291.1,416.3z"/>
		<path class="st7" d="M288.5,446.3c-5.2,0-9.3-4.8-12.8-9.2c-3.6-4.7-6.2-9.7-7.7-15.1c-1.1-3.9-1.9-8.7,1.1-11.6
			c3.6-3.5,9.6-1.6,19.4,1.5c1.2,0.4,2.4,0.7,3.6,1.1c0.4,0.1,0.8,0.2,1.2,0.4c4.5,1.3,10,3,12,8c1.3,3.4,0.6,7.3-2.3,12
			c-5.4,8.9-9.4,12.7-14,13C288.9,446.3,288.7,446.3,288.5,446.3z M274.3,415.6c0,0.6,0,1.8,0.7,4.5c1.2,4.5,3.4,8.7,6.4,12.6
			c1.3,1.6,5.1,6.6,7.2,6.5c1-0.1,3.5-1.4,8.3-9.5c1.5-2.5,2.1-4.6,1.7-5.8c-0.7-1.8-4.5-2.9-7.4-3.8c-0.4-0.1-0.8-0.3-1.2-0.4l0,0
			c-1.3-0.4-2.5-0.8-3.7-1.1C281.8,417.2,276.2,415.4,274.3,415.6z"/>
	</g>
	<g>
		<rect x="442" y="468.8" class="st17" width="229.1" height="86.2"/>
	</g>
	<g>
		<rect x="429.1" y="133" class="st10" width="251" height="117"/>
	</g>
	<g>
		<rect x="442.4" y="604" class="st5" width="229.1" height="25"/>
	</g>
	<rect x="534.3" y="177.5" class="st4" width="46" height="6"/>
	<rect x="534.8" y="196" class="st4" width="46" height="6"/>
	<g>
		<g>
			<circle class="st6" cx="631.3" cy="193.3" r="15.5"/>
		</g>
		<path class="st7" d="M629.7,187.8c0-1.7,0.3-3.4,0.9-5l0.5-1.2l0.6-1.2l0.7-1.1l0.8-1c0.3-0.3,0.6-0.7,0.9-1l0.9-0.9
			c0.3-0.3,0.7-0.6,1-0.8c0.4-0.2,0.8-0.5,1.2-0.7c0.4-0.2,0.8-0.3,1.2-0.5c0.4-0.1,0.9-0.2,1.3-0.3c0.4-0.1,0.9-0.1,1.3-0.1
			c0.4,0,0.9,0,1.3,0.1l0,0.2c-0.4,0.2-0.8,0.4-1.1,0.6c-0.4,0.2-0.7,0.4-1.1,0.6c-0.3,0.2-0.7,0.4-1,0.6c-0.3,0.2-0.7,0.4-1,0.6
			c-0.3,0.2-0.6,0.4-1,0.6c-0.3,0.2-0.6,0.4-1,0.7l-1,0.7c-0.3,0.3-0.6,0.5-0.9,0.8l-0.8,0.9l-0.8,0.9l-0.7,1l-0.6,1
			c-0.8,1.4-1.3,3-1.6,4.6L629.7,187.8z"/>
		<path class="st8" d="M633.2,173.5c0,0-0.5-4-1.6-5.5s-6.2-1.8-6.2-1.8l0,0c0,0,0.6,5.1,2.1,6.1
			C629.1,173.2,633.1,173.6,633.2,173.5L633.2,173.5z"/>
	</g>
	<g>
		<g>
			<circle class="st3" cx="471.2" cy="176.1" r="19"/>
			<path class="st4" d="M471.2,196c-10.9,0-19.9-8.9-19.9-19.9s8.9-19.9,19.9-19.9c10.9,0,19.9,8.9,19.9,19.9S482.1,196,471.2,196z
				 M471.2,157.9c-10,0-18.2,8.2-18.2,18.2s8.2,18.2,18.2,18.2c10,0,18.2-8.2,18.2-18.2S481.2,157.9,471.2,157.9z"/>
		</g>
		<g>
			<g>
				<path class="st4" d="M464.9,182.4c0-0.5,0.2-1.1,0.5-1.7c0.3-0.6,0.7-1,1.1-1.3c1.9,1,3.5,1.5,4.9,1.5c0.5,0,1-0.1,1.3-0.3
					c0.3-0.2,0.5-0.5,0.5-0.9c0-0.6-0.4-1.1-1.3-1.4l-2.6-0.9c-2.4-0.9-3.6-2.4-3.6-4.4c0-1.2,0.4-2.2,1.2-3
					c0.8-0.8,1.8-1.4,3.1-1.6v-2.2c0.3-0.1,0.8-0.1,1.5-0.1c0.6,0,1.1,0,1.5,0.1v2.2c1.3,0.1,2.8,0.5,4.3,1.2c0,0.6-0.1,1.2-0.4,1.7
					c-0.3,0.6-0.6,1-1,1.4c-1.8-0.7-3.3-1.1-4.3-1.1c-0.5,0-0.9,0.1-1.1,0.3c-0.3,0.2-0.4,0.5-0.4,0.8c0,0.5,0.5,0.8,1.4,1.2l2.5,1
					c2.5,0.9,3.8,2.5,3.8,4.7c0,1.2-0.4,2.2-1.3,3c-0.9,0.8-2,1.3-3.5,1.5v2.1c-0.3,0.1-0.8,0.1-1.5,0.1c-0.7,0-1.2,0-1.5-0.1v-2.1
					C467.7,183.8,466.1,183.3,464.9,182.4z"/>
			</g>
		</g>
	</g>
	<g>
		<g>
			<circle class="st3" cx="504.2" cy="219.1" r="19"/>
			<path class="st4" d="M504.2,239c-10.9,0-19.9-8.9-19.9-19.9s8.9-19.9,19.9-19.9s19.9,8.9,19.9,19.9S515.1,239,504.2,239z
				 M504.2,200.9c-10,0-18.2,8.2-18.2,18.2s8.2,18.2,18.2,18.2s18.2-8.2,18.2-18.2S514.2,200.9,504.2,200.9z"/>
		</g>
		<g>
			<g>
				<path class="st4" d="M497.9,225.4c0-0.5,0.2-1.1,0.5-1.7c0.3-0.6,0.7-1,1.1-1.3c1.9,1,3.5,1.5,4.9,1.5c0.5,0,1-0.1,1.3-0.3
					c0.3-0.2,0.5-0.5,0.5-0.9c0-0.6-0.4-1.1-1.3-1.4l-2.6-0.9c-2.4-0.9-3.6-2.4-3.6-4.4c0-1.2,0.4-2.2,1.2-3
					c0.8-0.8,1.8-1.4,3.1-1.6v-2.2c0.3-0.1,0.8-0.1,1.5-0.1c0.6,0,1.1,0,1.5,0.1v2.2c1.3,0.1,2.8,0.5,4.3,1.2c0,0.6-0.1,1.2-0.4,1.7
					c-0.3,0.6-0.6,1-1,1.4c-1.8-0.7-3.3-1.1-4.3-1.1c-0.5,0-0.9,0.1-1.1,0.3c-0.3,0.2-0.4,0.5-0.4,0.8c0,0.5,0.5,0.8,1.4,1.2l2.5,1
					c2.5,0.9,3.8,2.5,3.8,4.7c0,1.2-0.4,2.2-1.3,3c-0.9,0.8-2,1.3-3.5,1.5v2.1c-0.3,0.1-0.8,0.1-1.5,0.1c-0.7,0-1.2,0-1.5-0.1v-2.1
					C500.7,226.8,499.1,226.3,497.9,225.4z"/>
			</g>
		</g>
	</g>
	<rect x="116" y="280" class="st7" width="214" height="34"/>
	<g>
		<rect x="219.8" y="25" class="st3" width="184.4" height="97"/>
		<g>
			<path class="st12" d="M262.2,58.7h-8.9l-2,5.6h-2.9l8.1-21.3h2.5l8.2,21.3h-2.9L262.2,58.7z M254.1,56.4h7.3l-3.6-10L254.1,56.4z
				"/>
			<path class="st12" d="M270.9,64.3V50.5h-2.5v-2.1h2.5v-1.6c0-1.7,0.5-3,1.4-3.9s2.2-1.4,3.9-1.4c0.6,0,1.2,0.1,1.9,0.2l-0.1,2.2
				c-0.5-0.1-0.9-0.1-1.5-0.1c-0.9,0-1.6,0.3-2,0.8s-0.7,1.3-0.7,2.2v1.7h3.4v2.1h-3.4v13.8H270.9z"/>
			<path class="st12" d="M281.3,64.3V50.5h-2.5v-2.1h2.5v-1.6c0-1.7,0.5-3,1.4-3.9s2.2-1.4,3.9-1.4c0.6,0,1.2,0.1,1.9,0.2l-0.1,2.2
				c-0.5-0.1-0.9-0.1-1.5-0.1c-0.9,0-1.6,0.3-2,0.8s-0.7,1.3-0.7,2.2v1.7h3.4v2.1H284v13.8H281.3z"/>
			<path class="st12" d="M290.3,68.5l-1.5-1.1c0.9-1.3,1.4-2.6,1.4-4v-2.4h2.7v2.1c0,1-0.2,2-0.7,3C291.6,67.1,291,67.9,290.3,68.5z
				"/>
			<path class="st12" d="M305,64.3V50.5h-2.5v-2.1h2.5v-1.6c0-1.7,0.5-3,1.4-3.9s2.2-1.4,3.9-1.4c0.6,0,1.2,0.1,1.9,0.2l-0.1,2.2
				c-0.5-0.1-0.9-0.1-1.5-0.1c-0.9,0-1.6,0.3-2,0.8s-0.7,1.3-0.7,2.2v1.7h3.4v2.1h-3.4v13.8H305z"/>
			<path class="st12" d="M314.1,44.2c0-0.4,0.1-0.8,0.4-1.1c0.3-0.3,0.7-0.5,1.2-0.5s0.9,0.2,1.2,0.5s0.4,0.7,0.4,1.1
				s-0.1,0.8-0.4,1.1s-0.7,0.4-1.2,0.4s-0.9-0.1-1.2-0.4C314.2,45,314.1,44.7,314.1,44.2z M317,64.3h-2.7V48.4h2.7V64.3z"/>
			<path class="st12" d="M327.7,62.3c1,0,1.8-0.3,2.5-0.9s1.1-1.3,1.2-2.2h2.6c0,0.9-0.4,1.8-0.9,2.6s-1.3,1.5-2.3,2
				c-1,0.5-2,0.7-3.1,0.7c-2.2,0-3.9-0.7-5.1-2.2c-1.3-1.4-1.9-3.4-1.9-5.9V56c0-1.5,0.3-2.9,0.8-4.1s1.4-2.1,2.4-2.8
				c1.1-0.7,2.3-1,3.8-1c1.8,0,3.3,0.5,4.4,1.6s1.8,2.4,1.9,4.1h-2.6c-0.1-1-0.5-1.9-1.2-2.5s-1.6-1-2.6-1c-1.4,0-2.4,0.5-3.2,1.5
				c-0.8,1-1.1,2.4-1.1,4.3v0.5c0,1.8,0.4,3.2,1.1,4.2S326.3,62.3,327.7,62.3z"/>
			<path class="st12" d="M336.4,56.2c0-1.6,0.3-2.9,0.9-4.2s1.5-2.2,2.5-2.9s2.3-1,3.7-1c2.2,0,3.9,0.7,5.2,2.2c1.3,1.5,2,3.5,2,6
				v0.2c0,1.5-0.3,2.9-0.9,4.2s-1.4,2.2-2.5,2.9c-1.1,0.7-2.4,1-3.8,1c-2.1,0-3.9-0.7-5.2-2.2c-1.3-1.5-2-3.5-2-5.9V56.2z
				 M339.1,56.5c0,1.8,0.4,3.2,1.2,4.2c0.8,1.1,1.9,1.6,3.3,1.6c1.4,0,2.5-0.5,3.3-1.6s1.2-2.6,1.2-4.5c0-1.7-0.4-3.1-1.2-4.2
				c-0.8-1.1-1.9-1.6-3.3-1.6c-1.3,0-2.4,0.5-3.2,1.6S339.1,54.5,339.1,56.5z"/>
			<path class="st12" d="M364,62.7c-1.1,1.2-2.6,1.9-4.6,1.9c-1.7,0-3-0.5-3.9-1.5s-1.3-2.4-1.3-4.4V48.4h2.7v10.2
				c0,2.4,1,3.6,2.9,3.6c2.1,0,3.4-0.8,4.1-2.3V48.4h2.7v15.8H364L364,62.7z"/>
			<path class="st12" d="M250.7,84.4l0.1,1.8c1.2-1.4,2.7-2.1,4.7-2.1c2.2,0,3.7,0.8,4.5,2.5c0.5-0.8,1.2-1.4,2.1-1.8s1.8-0.7,3-0.7
				c3.5,0,5.2,1.8,5.3,5.5v10.6h-2.7V89.8c0-1.1-0.3-2-0.8-2.5s-1.4-0.8-2.6-0.8c-1,0-1.8,0.3-2.5,0.9s-1,1.4-1.2,2.4v10.5h-2.7
				V89.9c0-2.3-1.1-3.5-3.4-3.5c-1.8,0-3,0.8-3.6,2.3v11.6h-2.7V84.4H250.7z"/>
			<path class="st12" d="M284.2,100.3c-0.2-0.3-0.3-0.9-0.4-1.7c-1.3,1.3-2.8,2-4.5,2c-1.6,0-2.8-0.4-3.8-1.3s-1.5-2-1.5-3.4
				c0-1.7,0.6-2.9,1.9-3.8s3-1.4,5.3-1.4h2.6v-1.2c0-0.9-0.3-1.7-0.8-2.3s-1.4-0.8-2.5-0.8c-1,0-1.8,0.2-2.4,0.7s-1,1.1-1,1.8h-2.7
				c0-0.8,0.3-1.6,0.8-2.3c0.6-0.7,1.3-1.3,2.3-1.8c1-0.4,2-0.6,3.2-0.6c1.8,0,3.3,0.5,4.3,1.4s1.6,2.2,1.6,3.8v7.3
				c0,1.5,0.2,2.6,0.6,3.5v0.2H284.2z M279.7,98.2c0.8,0,1.7-0.2,2.4-0.7s1.3-1,1.7-1.7v-3.3h-2.1c-3.3,0-5,1-5,2.9
				c0,0.8,0.3,1.5,0.8,2S278.9,98.2,279.7,98.2z"/>
			<path class="st12" d="M290.8,80.2c0-0.4,0.1-0.8,0.4-1.1c0.3-0.3,0.7-0.5,1.2-0.5s0.9,0.2,1.2,0.5s0.4,0.7,0.4,1.1
				s-0.1,0.8-0.4,1.1s-0.7,0.4-1.2,0.4s-0.9-0.1-1.2-0.4C290.9,81,290.8,80.7,290.8,80.2z M293.7,100.3H291V84.4h2.7V100.3z"/>
			<path class="st12" d="M307.3,96.1c0-0.7-0.3-1.3-0.8-1.7s-1.5-0.8-2.9-1c-1.4-0.3-2.5-0.6-3.3-1.1c-0.8-0.4-1.4-0.9-1.8-1.5
				s-0.6-1.2-0.6-2c0-1.3,0.5-2.4,1.6-3.3c1.1-0.9,2.5-1.3,4.2-1.3c1.8,0,3.3,0.5,4.4,1.4c1.1,0.9,1.7,2.1,1.7,3.6h-2.7
				c0-0.7-0.3-1.4-0.9-1.9c-0.6-0.5-1.4-0.8-2.4-0.8c-1,0-1.8,0.2-2.3,0.6s-0.8,1-0.8,1.7c0,0.7,0.3,1.1,0.8,1.5s1.5,0.6,2.8,1
				s2.4,0.7,3.3,1.1s1.5,0.9,1.9,1.5s0.6,1.3,0.6,2.2c0,1.4-0.6,2.6-1.7,3.4s-2.6,1.3-4.4,1.3c-1.3,0-2.4-0.2-3.4-0.7
				s-1.7-1.1-2.3-1.9s-0.8-1.7-0.8-2.6h2.7c0,0.9,0.4,1.6,1.1,2.2c0.7,0.5,1.6,0.8,2.7,0.8c1,0,1.8-0.2,2.5-0.6
				C307,97.3,307.3,96.8,307.3,96.1z"/>
			<path class="st12" d="M327.3,98.3c1,0,1.8-0.3,2.5-0.9s1.1-1.3,1.2-2.2h2.6c0,0.9-0.4,1.8-0.9,2.6s-1.3,1.5-2.3,2
				c-1,0.5-2,0.7-3.1,0.7c-2.2,0-3.9-0.7-5.1-2.2c-1.3-1.4-1.9-3.4-1.9-5.9V92c0-1.5,0.3-2.9,0.8-4.1s1.4-2.1,2.4-2.8
				c1.1-0.7,2.3-1,3.8-1c1.8,0,3.3,0.5,4.4,1.6s1.8,2.4,1.9,4.1H331c-0.1-1-0.5-1.9-1.2-2.5s-1.6-1-2.6-1c-1.4,0-2.4,0.5-3.2,1.5
				c-0.8,1-1.1,2.4-1.1,4.3v0.5c0,1.8,0.4,3.2,1.1,4.2S325.9,98.3,327.3,98.3z"/>
			<path class="st12" d="M346.4,100.3c-0.2-0.3-0.3-0.9-0.4-1.7c-1.3,1.3-2.8,2-4.5,2c-1.6,0-2.8-0.4-3.8-1.3s-1.5-2-1.5-3.4
				c0-1.7,0.6-2.9,1.9-3.8s3-1.4,5.3-1.4h2.6v-1.2c0-0.9-0.3-1.7-0.8-2.3s-1.4-0.8-2.5-0.8c-1,0-1.8,0.2-2.4,0.7s-1,1.1-1,1.8h-2.7
				c0-0.8,0.3-1.6,0.8-2.3c0.6-0.7,1.3-1.3,2.3-1.8c1-0.4,2-0.6,3.2-0.6c1.8,0,3.3,0.5,4.3,1.4s1.6,2.2,1.6,3.8v7.3
				c0,1.5,0.2,2.6,0.6,3.5v0.2H346.4z M341.9,98.2c0.8,0,1.7-0.2,2.4-0.7s1.3-1,1.7-1.7v-3.3h-2.1c-3.3,0-5,1-5,2.9
				c0,0.8,0.3,1.5,0.8,2S341.1,98.2,341.9,98.2z"/>
			<path class="st12" d="M360.6,86.8c-0.4-0.1-0.9-0.1-1.3-0.1c-1.8,0-3,0.8-3.6,2.3v11.3H353V84.4h2.6l0,1.8
				c0.9-1.4,2.1-2.1,3.8-2.1c0.5,0,0.9,0.1,1.2,0.2V86.8z"/>
			<path class="st12" d="M362.1,92.2c0-1.6,0.3-2.9,0.9-4.2s1.5-2.2,2.5-2.9s2.3-1,3.7-1c2.2,0,3.9,0.7,5.2,2.2c1.3,1.5,2,3.5,2,6
				v0.2c0,1.5-0.3,2.9-0.9,4.2s-1.4,2.2-2.5,2.9c-1.1,0.7-2.4,1-3.8,1c-2.1,0-3.9-0.7-5.2-2.2c-1.3-1.5-2-3.5-2-5.9V92.2z
				 M364.8,92.5c0,1.8,0.4,3.2,1.2,4.2c0.8,1.1,1.9,1.6,3.3,1.6c1.4,0,2.5-0.5,3.3-1.6s1.2-2.6,1.2-4.5c0-1.7-0.4-3.1-1.2-4.2
				c-0.8-1.1-1.9-1.6-3.3-1.6c-1.3,0-2.4,0.5-3.2,1.6S364.8,90.5,364.8,92.5z"/>
		</g>
		<polygon class="st3" points="219.8,105.5 219.8,140 253.5,122 		"/>
	</g>
</g>
</svg>
