<?xml version="1.0" encoding="utf-8"?>
<!-- Generator: Adobe Illustrator 21.1.0, SVG Export Plug-In . SVG Version: 6.00 Build 0)  -->
<svg version="1.1" xmlns="http://www.w3.org/2000/svg" xmlns:xlink="http://www.w3.org/1999/xlink" x="0px" y="0px"
	 viewBox="0 0 750 615" style="enable-background:new 0 0 750 615;" xml:space="preserve">
<style type="text/css">
	.st0{display:none;}
	.st1{display:inline;}
	.st2{fill:#80CBC4;}
	.st3{fill:#102027;}
	.st4{fill:#FFAB00;}
	.st5{fill:#009688;}
	.st6{fill:#F57C00;}
	.st7{fill:#1D1D1B;}
	.st8{fill:#1B5E20;}
	.st9{fill:#E65100;}
	.st10{fill:#3E2723;}
	.st11{fill:#FDFDFC;}
	.st12{fill:#FFFFFF;}
	.st13{fill:#37474F;}
	.st14{fill:#62727B;}
	.st15{fill:#FFDD4B;}
	.st16{fill:#C67C00;}
	.st17{fill:#72370F;}
</style>
<g id="Camada_2" class="st0">
	<g class="st1">
		<rect x="-0.7" y="-469.5" class="st2" width="750.5" height="1337"/>
	</g>
</g>
<g id="Camada_1">
	<g>
		<g>
			<g>
				<path class="st12" d="M255.9,467.4c-12.8-8.3-16.5-25.4-8.2-38.3c8.3-12.8,25.4-16.5,38.3-8.2c0.3,0.2,0.6,0.4,0.8,0.6
					c56.4,13.3,92.6-25.1,85.7,0.4C359.7,468.6,262.9,472,255.9,467.4z"/>
				<path class="st7" d="M269.8,472.6c-7.9,0-13.7-0.8-15.8-2.1l0,0c-14.5-9.4-18.6-28.8-9.3-43.2c4.5-7,11.5-11.8,19.7-13.6
					c8.2-1.8,16.5-0.2,23.5,4.3c0.1,0.1,0.3,0.2,0.4,0.3c28.9,6.6,51.9-0.7,67.1-5.5c9.8-3.1,15.7-5,19.4-1.5
					c3,2.9,2.2,7.7,1.1,11.6c-4.5,16.4-18.5,29.2-41.8,38.1C312.8,469.2,286.6,472.6,269.8,472.6z M257.8,464.4
					c4.8,2.1,48.5,2,81-13.1c16.7-7.8,26.8-17.9,30.2-30.2c0.7-2.6,0.8-3.9,0.7-4.5c-1.9-0.2-7.5,1.6-12.1,3
					c-15.1,4.8-40.5,12.8-71.6,5.4c-0.4-0.1-0.9-0.3-1.2-0.6c-0.1-0.1-0.3-0.2-0.4-0.3c-0.1-0.1-0.2-0.2-0.3-0.2
					c-5.4-3.5-11.8-4.7-18.1-3.3c-6.3,1.3-11.7,5.1-15.2,10.5C243.5,442.2,246.7,457.1,257.8,464.4z"/>
			</g>
		</g>
		<g>
			<g>
				<path class="st12" d="M173.2,415.1c15.3-0.4,28,11.6,28.4,26.9c0.4,15.3-11.6,28-26.9,28.4c-0.3,0-0.7,0-1,0
					c-54,21-62.1,73.1-70.8,48.1C87,472.9,164.9,415.4,173.2,415.1z"/>
				<path class="st7" d="M108.1,528.8c-0.4,0-0.7,0-1.1-0.1c-4.1-0.7-6.2-5.1-7.5-9c-5.6-16-1.3-34.6,12.9-55.1
					c19.1-27.6,52.9-52.9,60.7-53.1h0c8.4-0.2,16.3,2.8,22.4,8.5s9.5,13.5,9.8,21.8c0.5,17.2-13.1,31.6-30.4,32.1
					c-0.2,0-0.3,0-0.5,0C146.8,485,132,504,122.1,516.6C116.3,524.1,112.6,528.8,108.1,528.8z M173.4,418.7
					c-5.1,1-41.1,25.8-59.4,56.7c-9.4,15.8-12,30-7.8,42c0.9,2.6,1.6,3.7,1.9,4.1c1.7-1,5.3-5.6,8.3-9.3c9.8-12.5,26.1-33.4,56-45
					c0.4-0.2,0.9-0.2,1.3-0.2c0.2,0,0.4,0,0.5,0c0.1,0,0.2,0,0.4,0c13.3-0.4,23.8-11.5,23.4-24.8c-0.2-6.4-2.9-12.4-7.5-16.8
					C185.9,420.9,179.8,418.6,173.4,418.7z M173.3,418.7C173.3,418.7,173.3,418.7,173.3,418.7C173.3,418.7,173.3,418.7,173.3,418.7z
					"/>
			</g>
		</g>
		<g>
			<ellipse class="st5" cx="223" cy="579.5" rx="132" ry="35.5"/>
		</g>
		<path class="st7" d="M136.3,113.6c-8.2,0-14.8,6.6-14.8,14.8v79.9l29.6-5.7v-74.1C151.1,120.2,144.5,113.6,136.3,113.6z"/>
		<g>
			<path class="st11" d="M286.3,387.6H160.4c-44.7,0-81-36.3-81-81v0c0-73.9,59.9-133.8,133.8-133.8h20.2
				c73.9,0,133.8,59.9,133.8,133.8v0C367.2,351.3,331,387.6,286.3,387.6z"/>
			<path class="st7" d="M286.3,391.2H160.4c-46.6,0-84.6-37.9-84.6-84.6c0-75.8,61.6-137.4,137.4-137.4h20.2
				c75.8,0,137.4,61.6,137.4,137.4C370.8,353.2,332.9,391.2,286.3,391.2z M213.2,176.4C141.4,176.4,83,234.8,83,306.6
				c0,42.7,34.7,77.4,77.4,77.4h125.9c42.7,0,77.4-34.7,77.4-77.4c0-71.8-58.4-130.2-130.2-130.2H213.2z"/>
		</g>
		<path class="st7" d="M290,354.3H156.7c-31.9,0-57.8-25.9-57.8-57.8v0c0-31.9,25.9-57.8,57.8-57.8H290c31.9,0,57.8,25.9,57.8,57.8
			v0C347.8,328.4,321.9,354.3,290,354.3z"/>
		<g>
			<g>
				<g>
					<g>
						<g>
							<circle class="st12" cx="298.9" cy="296.5" r="25.1"/>
							<path class="st7" d="M298.9,323.6c-14.9,0-27.1-12.1-27.1-27.1s12.1-27.1,27.1-27.1s27.1,12.1,27.1,27.1
								S313.8,323.6,298.9,323.6z M298.9,273.4c-12.7,0-23.1,10.4-23.1,23.1s10.4,23.1,23.1,23.1s23.1-10.4,23.1-23.1
								S311.6,273.4,298.9,273.4z"/>
						</g>
					</g>
				</g>
			</g>
			<g>
				<g>
					<g>
						<g>
							<circle class="st12" cx="147.8" cy="296.5" r="25.1"/>
							<path class="st7" d="M147.8,323.6c-14.9,0-27.1-12.1-27.1-27.1s12.1-27.1,27.1-27.1s27.1,12.1,27.1,27.1
								S162.7,323.6,147.8,323.6z M147.8,273.4c-12.7,0-23.1,10.4-23.1,23.1s10.4,23.1,23.1,23.1s23.1-10.4,23.1-23.1
								S160.5,273.4,147.8,273.4z"/>
						</g>
					</g>
				</g>
			</g>
		</g>
		<g>
			<path class="st12" d="M196.3,411.3c-23,0-50.1,41.9-55,88.2c-4.9,46.2,24,81.7,24,81.7h14.3c0,0,5-10.8,17.1-18.3
				c12.1-7.5,41.2-7.5,53.3,0c12.1,7.5,17.1,18.3,17.1,18.3h14.3c0,0,28.9-35.5,24-81.7c-4.9-46.2-32-88.2-55-88.2H196.3z"/>
			<path class="st7" d="M282.9,584.5h-18l-0.9-1.9c0-0.1-4.8-10-15.8-16.9c-10.9-6.8-38.8-6.8-49.7,0c-11,6.9-15.8,16.8-15.8,16.9
				l-0.9,1.9l-2.1,0h-15.8l-1-1.2c-1.2-1.5-29.7-37.1-24.7-84.2c5.1-47.7,32.9-91.2,58.3-91.2h53.9c25.4,0,53.2,43.4,58.3,91.2
				c5,47.1-23.5,82.7-24.7,84.2L282.9,584.5z M269,577.9h10.6c4.8-6.5,26.5-38.5,22.3-78c-5-47.2-32.4-85.2-51.7-85.2h-53.9
				c-19.3,0-46.7,38-51.7,85.2c-4.2,39.6,17.5,71.5,22.3,78h10.6c2.1-3.6,7.6-11.7,17.3-17.8c13-8.1,43.8-8.1,56.8,0
				C261.5,566.2,266.9,574.2,269,577.9z"/>
		</g>
		<path class="st7" d="M240.7,559.5l-2.7-1.1c0.6-1.5,15.1-36.7,39.2-43.7c9.5-2.8,19.2-0.7,28.8,6.1l-1.7,2.3
			c-8.8-6.3-17.7-8.2-26.3-5.7C255.3,524.1,240.9,559.1,240.7,559.5z"/>
		<path class="st7" d="M205.2,559.5c-0.1-0.4-14.6-35.4-37.3-42c-8.6-2.5-17.5-0.6-26.3,5.7l-1.7-2.3c9.6-6.8,19.3-8.9,28.8-6.1
			c24.1,7,38.6,42.2,39.2,43.7L205.2,559.5z"/>
		<rect x="116" y="263" class="st7" width="214" height="34"/>
		<g>
			<rect x="219.8" y="8" class="st3" width="184.4" height="97"/>
			<g>
				<path class="st12" d="M262.2,41.7h-8.9l-2,5.6h-2.9l8.1-21.3h2.5l8.2,21.3h-2.9L262.2,41.7z M254.1,39.4h7.3l-3.6-10L254.1,39.4
					z"/>
				<path class="st12" d="M270.9,47.3V33.5h-2.5v-2.1h2.5v-1.6c0-1.7,0.5-3,1.4-3.9s2.2-1.4,3.9-1.4c0.6,0,1.2,0.1,1.9,0.2l-0.1,2.2
					c-0.5-0.1-0.9-0.1-1.5-0.1c-0.9,0-1.6,0.3-2,0.8c-0.5,0.5-0.7,1.3-0.7,2.2v1.7h3.4v2.1h-3.4v13.8H270.9z"/>
				<path class="st12" d="M281.3,47.3V33.5h-2.5v-2.1h2.5v-1.6c0-1.7,0.5-3,1.4-3.9s2.2-1.4,3.9-1.4c0.6,0,1.2,0.1,1.9,0.2l-0.1,2.2
					c-0.5-0.1-0.9-0.1-1.5-0.1c-0.9,0-1.6,0.3-2,0.8c-0.5,0.5-0.7,1.3-0.7,2.2v1.7h3.4v2.1H284v13.8H281.3z"/>
				<path class="st12" d="M290.3,51.5l-1.5-1.1c0.9-1.3,1.4-2.6,1.4-4v-2.4h2.7v2.1c0,1-0.2,2-0.7,3C291.6,50.1,291,50.9,290.3,51.5
					z"/>
				<path class="st12" d="M305,47.3V33.5h-2.5v-2.1h2.5v-1.6c0-1.7,0.5-3,1.4-3.9s2.2-1.4,3.9-1.4c0.6,0,1.2,0.1,1.9,0.2l-0.1,2.2
					c-0.5-0.1-0.9-0.1-1.5-0.1c-0.9,0-1.6,0.3-2,0.8c-0.5,0.5-0.7,1.3-0.7,2.2v1.7h3.4v2.1h-3.4v13.8H305z"/>
				<path class="st12" d="M314.1,27.2c0-0.4,0.1-0.8,0.4-1.1c0.3-0.3,0.7-0.5,1.2-0.5s0.9,0.2,1.2,0.5s0.4,0.7,0.4,1.1
					s-0.1,0.8-0.4,1.1s-0.7,0.4-1.2,0.4s-0.9-0.1-1.2-0.4C314.2,28,314.1,27.7,314.1,27.2z M317,47.3h-2.7V31.4h2.7V47.3z"/>
				<path class="st12" d="M327.7,45.3c1,0,1.8-0.3,2.5-0.9s1.1-1.3,1.2-2.2h2.6c0,0.9-0.4,1.8-0.9,2.6s-1.3,1.5-2.3,2
					c-1,0.5-2,0.7-3.1,0.7c-2.2,0-3.9-0.7-5.1-2.2c-1.3-1.4-1.9-3.4-1.9-5.9V39c0-1.5,0.3-2.9,0.8-4.1s1.4-2.1,2.4-2.8
					c1.1-0.7,2.3-1,3.8-1c1.8,0,3.3,0.5,4.4,1.6s1.8,2.4,1.9,4.1h-2.6c-0.1-1-0.5-1.9-1.2-2.5s-1.6-1-2.6-1c-1.4,0-2.4,0.5-3.2,1.5
					c-0.8,1-1.1,2.4-1.1,4.3v0.5c0,1.8,0.4,3.2,1.1,4.2S326.3,45.3,327.7,45.3z"/>
				<path class="st12" d="M336.4,39.2c0-1.6,0.3-2.9,0.9-4.2s1.5-2.2,2.5-2.9s2.3-1,3.7-1c2.2,0,3.9,0.7,5.2,2.2c1.3,1.5,2,3.5,2,6
					v0.2c0,1.5-0.3,2.9-0.9,4.2s-1.4,2.2-2.5,2.9c-1.1,0.7-2.4,1-3.8,1c-2.1,0-3.9-0.7-5.2-2.2c-1.3-1.5-2-3.5-2-5.9V39.2z
					 M339.1,39.5c0,1.8,0.4,3.2,1.2,4.2c0.8,1.1,1.9,1.6,3.3,1.6c1.4,0,2.5-0.5,3.3-1.6s1.2-2.6,1.2-4.5c0-1.7-0.4-3.1-1.2-4.2
					c-0.8-1.1-1.9-1.6-3.3-1.6c-1.3,0-2.4,0.5-3.2,1.6S339.1,37.5,339.1,39.5z"/>
				<path class="st12" d="M364,45.7c-1.1,1.2-2.6,1.9-4.6,1.9c-1.7,0-3-0.5-3.9-1.5s-1.3-2.4-1.3-4.4V31.4h2.7v10.2
					c0,2.4,1,3.6,2.9,3.6c2.1,0,3.4-0.8,4.1-2.3V31.4h2.7v15.8H364L364,45.7z"/>
				<path class="st12" d="M250.7,67.4l0.1,1.8c1.2-1.4,2.7-2.1,4.7-2.1c2.2,0,3.7,0.8,4.5,2.5c0.5-0.8,1.2-1.4,2.1-1.8
					s1.8-0.7,3-0.7c3.5,0,5.2,1.8,5.3,5.5v10.6h-2.7V72.8c0-1.1-0.3-2-0.8-2.5s-1.4-0.8-2.6-0.8c-1,0-1.8,0.3-2.5,0.9
					s-1,1.4-1.2,2.4v10.5h-2.7V72.9c0-2.3-1.1-3.5-3.4-3.5c-1.8,0-3,0.8-3.6,2.3v11.6h-2.7V67.4H250.7z"/>
				<path class="st12" d="M284.2,83.3c-0.2-0.3-0.3-0.9-0.4-1.7c-1.3,1.3-2.8,2-4.5,2c-1.6,0-2.8-0.4-3.8-1.3s-1.5-2-1.5-3.4
					c0-1.7,0.6-2.9,1.9-3.8s3-1.4,5.3-1.4h2.6v-1.2c0-0.9-0.3-1.7-0.8-2.3s-1.4-0.8-2.5-0.8c-1,0-1.8,0.2-2.4,0.7s-1,1.1-1,1.8h-2.7
					c0-0.8,0.3-1.6,0.8-2.3c0.6-0.7,1.3-1.3,2.3-1.8c1-0.4,2-0.6,3.2-0.6c1.8,0,3.3,0.5,4.3,1.4s1.6,2.2,1.6,3.8v7.3
					c0,1.5,0.2,2.6,0.6,3.5v0.2H284.2z M279.7,81.2c0.8,0,1.7-0.2,2.4-0.7s1.3-1,1.7-1.7v-3.3h-2.1c-3.3,0-5,1-5,2.9
					c0,0.8,0.3,1.5,0.8,2S278.9,81.2,279.7,81.2z"/>
				<path class="st12" d="M290.8,63.2c0-0.4,0.1-0.8,0.4-1.1c0.3-0.3,0.7-0.5,1.2-0.5s0.9,0.2,1.2,0.5s0.4,0.7,0.4,1.1
					s-0.1,0.8-0.4,1.1s-0.7,0.4-1.2,0.4s-0.9-0.1-1.2-0.4C290.9,64,290.8,63.7,290.8,63.2z M293.7,83.3H291V67.4h2.7V83.3z"/>
				<path class="st12" d="M307.3,79.1c0-0.7-0.3-1.3-0.8-1.7s-1.5-0.8-2.9-1c-1.4-0.3-2.5-0.6-3.3-1.1c-0.8-0.4-1.4-0.9-1.8-1.5
					s-0.6-1.2-0.6-2c0-1.3,0.5-2.4,1.6-3.3c1.1-0.9,2.5-1.3,4.2-1.3c1.8,0,3.3,0.5,4.4,1.4c1.1,0.9,1.7,2.1,1.7,3.6h-2.7
					c0-0.7-0.3-1.4-0.9-1.9c-0.6-0.5-1.4-0.8-2.4-0.8c-1,0-1.8,0.2-2.3,0.6s-0.8,1-0.8,1.7c0,0.7,0.3,1.1,0.8,1.5s1.5,0.6,2.8,1
					s2.4,0.7,3.3,1.1s1.5,0.9,1.9,1.5s0.6,1.3,0.6,2.2c0,1.4-0.6,2.6-1.7,3.4s-2.6,1.3-4.4,1.3c-1.3,0-2.4-0.2-3.4-0.7
					s-1.7-1.1-2.3-1.9s-0.8-1.7-0.8-2.6h2.7c0,0.9,0.4,1.6,1.1,2.2c0.7,0.5,1.6,0.8,2.7,0.8c1,0,1.8-0.2,2.5-0.6
					C307,80.3,307.3,79.8,307.3,79.1z"/>
				<path class="st12" d="M327.3,81.3c1,0,1.8-0.3,2.5-0.9s1.1-1.3,1.2-2.2h2.6c0,0.9-0.4,1.8-0.9,2.6s-1.3,1.5-2.3,2
					c-1,0.5-2,0.7-3.1,0.7c-2.2,0-3.9-0.7-5.1-2.2c-1.3-1.4-1.9-3.4-1.9-5.9V75c0-1.5,0.3-2.9,0.8-4.1s1.4-2.1,2.4-2.8
					c1.1-0.7,2.3-1,3.8-1c1.8,0,3.3,0.5,4.4,1.6s1.8,2.4,1.9,4.1H331c-0.1-1-0.5-1.9-1.2-2.5s-1.6-1-2.6-1c-1.4,0-2.4,0.5-3.2,1.5
					c-0.8,1-1.1,2.4-1.1,4.3v0.5c0,1.8,0.4,3.2,1.1,4.2S325.9,81.3,327.3,81.3z"/>
				<path class="st12" d="M346.4,83.3c-0.2-0.3-0.3-0.9-0.4-1.7c-1.3,1.3-2.8,2-4.5,2c-1.6,0-2.8-0.4-3.8-1.3s-1.5-2-1.5-3.4
					c0-1.7,0.6-2.9,1.9-3.8s3-1.4,5.3-1.4h2.6v-1.2c0-0.9-0.3-1.7-0.8-2.3s-1.4-0.8-2.5-0.8c-1,0-1.8,0.2-2.4,0.7s-1,1.1-1,1.8h-2.7
					c0-0.8,0.3-1.6,0.8-2.3c0.6-0.7,1.3-1.3,2.3-1.8c1-0.4,2-0.6,3.2-0.6c1.8,0,3.3,0.5,4.3,1.4s1.6,2.2,1.6,3.8v7.3
					c0,1.5,0.2,2.6,0.6,3.5v0.2H346.4z M341.9,81.2c0.8,0,1.7-0.2,2.4-0.7s1.3-1,1.7-1.7v-3.3h-2.1c-3.3,0-5,1-5,2.9
					c0,0.8,0.3,1.5,0.8,2S341.1,81.2,341.9,81.2z"/>
				<path class="st12" d="M360.6,69.8c-0.4-0.1-0.9-0.1-1.3-0.1c-1.8,0-3,0.8-3.6,2.3v11.3H353V67.4h2.6l0,1.8
					c0.9-1.4,2.1-2.1,3.8-2.1c0.5,0,0.9,0.1,1.2,0.2V69.8z"/>
				<path class="st12" d="M362.1,75.2c0-1.6,0.3-2.9,0.9-4.2s1.5-2.2,2.5-2.9s2.3-1,3.7-1c2.2,0,3.9,0.7,5.2,2.2c1.3,1.5,2,3.5,2,6
					v0.2c0,1.5-0.3,2.9-0.9,4.2s-1.4,2.2-2.5,2.9c-1.1,0.7-2.4,1-3.8,1c-2.1,0-3.9-0.7-5.2-2.2c-1.3-1.5-2-3.5-2-5.9V75.2z
					 M364.8,75.5c0,1.8,0.4,3.2,1.2,4.2c0.8,1.1,1.9,1.6,3.3,1.6c1.4,0,2.5-0.5,3.3-1.6s1.2-2.6,1.2-4.5c0-1.7-0.4-3.1-1.2-4.2
					c-0.8-1.1-1.9-1.6-3.3-1.6c-1.3,0-2.4,0.5-3.2,1.6S364.8,73.5,364.8,75.5z"/>
			</g>
			<polygon class="st3" points="219.8,88.5 219.8,123 253.5,105 			"/>
		</g>
	</g>
	<g>
		<g>
			<circle class="st9" cx="556.2" cy="408.3" r="59.3"/>
		</g>
		<path class="st7" d="M550.1,387.2c-0.1-6.5,1.1-13,3.4-19.2l2-4.6l2.3-4.4l2.7-4.2l3.1-4c1.1-1.2,2.2-2.5,3.3-3.8l3.6-3.6
			c1.3-1.1,2.6-2.2,4-3.2c1.4-0.9,2.9-1.7,4.4-2.5c1.6-0.7,3.1-1.3,4.7-1.9c1.6-0.5,3.3-0.9,4.9-1.3c1.7-0.2,3.4-0.4,5-0.5
			c1.7,0,3.4,0.1,5,0.3l0.1,0.7c-1.5,0.9-2.9,1.6-4.3,2.2c-1.4,0.8-2.8,1.5-4.1,2.2c-1.3,0.8-2.6,1.6-4,2.3
			c-1.3,0.8-2.5,1.6-3.8,2.4c-1.2,0.9-2.5,1.7-3.7,2.5c-1.2,0.9-2.5,1.7-3.7,2.5l-3.7,2.6c-1.2,1-2.3,2-3.4,3l-3.1,3.3l-2.9,3.6
			l-2.7,3.8l-2.3,4c-3,5.4-5,11.4-6,17.7L550.1,387.2z"/>
		<path class="st8" d="M563.6,332.8c0,0-2.1-15.3-6-21c-3.9-5.7-23.5-6.9-23.5-6.9l0,0c0,0,2.1,19.6,8,23.2s21.3,5,21.3,5
			L563.6,332.8z"/>
	</g>
	<g>
		<rect x="545.6" y="173" class="st10" width="18" height="264"/>
	</g>
	<g>
		<polygon class="st5" points="442.4,590 671.5,590 603,573.7 500.6,573.7 		"/>
	</g>
	<rect x="442.4" y="536.2" class="st3" width="22.1" height="53.8"/>
	<rect x="500.6" y="536.2" class="st3" width="22.1" height="37.6"/>
	<rect x="580.9" y="536.2" class="st3" width="22.1" height="37.6"/>
	<rect x="649.4" y="536.2" class="st3" width="22.1" height="53.8"/>
	<g>
		<g>
			<circle class="st6" cx="501.7" cy="445.2" r="59.3"/>
		</g>
		<path class="st7" d="M495.6,424.1c-0.1-6.5,1.1-13,3.4-19.2l2-4.6l2.3-4.4l2.7-4.2l3.1-4c1.1-1.2,2.2-2.5,3.3-3.8l3.6-3.6
			c1.3-1.1,2.6-2.2,4-3.2c1.4-0.9,2.9-1.7,4.4-2.5c1.6-0.7,3.1-1.3,4.7-1.9c1.6-0.5,3.3-0.9,4.9-1.3c1.7-0.2,3.4-0.4,5-0.5
			c1.7,0,3.4,0.1,5,0.3l0.1,0.7c-1.5,0.9-2.9,1.6-4.3,2.2c-1.4,0.8-2.8,1.5-4.1,2.2c-1.3,0.8-2.6,1.6-4,2.3
			c-1.3,0.8-2.5,1.6-3.8,2.4c-1.2,0.9-2.5,1.7-3.7,2.5c-1.2,0.9-2.5,1.7-3.7,2.5l-3.7,2.6c-1.2,1-2.3,2-3.4,3l-3.1,3.3l-2.9,3.6
			l-2.7,3.8l-2.3,4c-3,5.4-5,11.4-6,17.7L495.6,424.1z"/>
		<path class="st8" d="M509.1,369.6c0,0-2.1-15.3-6-21c-3.9-5.7-23.5-6.9-23.5-6.9l0,0c0,0,2.1,19.6,8,23.2c5.9,3.6,21.3,5,21.3,5
			L509.1,369.6z"/>
	</g>
	<g>
		<g>
			<circle class="st6" cx="603.4" cy="445.9" r="59.3"/>
		</g>
		<path class="st7" d="M597.2,424.8c-0.1-6.5,1.1-13,3.4-19.2l2-4.6l2.3-4.4l2.7-4.2l3.1-4c1.1-1.2,2.2-2.5,3.3-3.8l3.6-3.6
			c1.3-1.1,2.6-2.2,4-3.2c1.4-0.9,2.9-1.7,4.4-2.5c1.6-0.7,3.1-1.3,4.7-1.9c1.6-0.5,3.3-0.9,4.9-1.3c1.7-0.2,3.4-0.4,5-0.5
			c1.7,0,3.4,0.1,5,0.3l0.1,0.7c-1.5,0.9-2.9,1.6-4.3,2.2c-1.4,0.8-2.8,1.5-4.1,2.2c-1.3,0.8-2.6,1.6-4,2.3
			c-1.3,0.8-2.5,1.6-3.8,2.4c-1.2,0.9-2.5,1.7-3.7,2.5c-1.2,0.9-2.5,1.7-3.7,2.5l-3.7,2.6c-1.2,1-2.3,2-3.4,3l-3.1,3.3l-2.9,3.6
			l-2.7,3.8l-2.3,4c-3,5.4-5,11.4-6,17.7L597.2,424.8z"/>
		<path class="st8" d="M610.8,370.4c0,0-2.1-15.3-6-21c-3.9-5.7-23.5-6.9-23.5-6.9l0,0c0,0,2.1,19.6,8,23.2c5.9,3.6,21.3,5,21.3,5
			L610.8,370.4z"/>
	</g>
	<g>
		<rect x="442" y="454.8" class="st17" width="229.1" height="86.2"/>
	</g>
	<g>
		<rect x="429.1" y="119" class="st10" width="251" height="117"/>
	</g>
	<g>
		<rect x="442.4" y="590" class="st5" width="229.1" height="25"/>
	</g>
	<rect x="534.3" y="163.5" class="st4" width="46" height="6"/>
	<rect x="534.8" y="182" class="st4" width="46" height="6"/>
	<g>
		<g>
			<circle class="st6" cx="631.3" cy="179.3" r="15.5"/>
		</g>
		<path class="st7" d="M629.7,173.8c0-1.7,0.3-3.4,0.9-5l0.5-1.2l0.6-1.2l0.7-1.1l0.8-1c0.3-0.3,0.6-0.7,0.9-1l0.9-0.9
			c0.3-0.3,0.7-0.6,1-0.8c0.4-0.2,0.8-0.5,1.2-0.7c0.4-0.2,0.8-0.3,1.2-0.5c0.4-0.1,0.9-0.2,1.3-0.3c0.4-0.1,0.9-0.1,1.3-0.1
			c0.4,0,0.9,0,1.3,0.1l0,0.2c-0.4,0.2-0.8,0.4-1.1,0.6c-0.4,0.2-0.7,0.4-1.1,0.6c-0.3,0.2-0.7,0.4-1,0.6c-0.3,0.2-0.7,0.4-1,0.6
			c-0.3,0.2-0.6,0.4-1,0.6c-0.3,0.2-0.6,0.4-1,0.7l-1,0.7c-0.3,0.3-0.6,0.5-0.9,0.8l-0.8,0.9l-0.8,0.9l-0.7,1l-0.6,1
			c-0.8,1.4-1.3,3-1.6,4.6L629.7,173.8z"/>
		<path class="st8" d="M633.2,159.5c0,0-0.5-4-1.6-5.5s-6.2-1.8-6.2-1.8l0,0c0,0,0.6,5.1,2.1,6.1
			C629.1,159.2,633.1,159.6,633.2,159.5L633.2,159.5z"/>
	</g>
	<g>
		<g>
			<circle class="st3" cx="471.2" cy="162.1" r="19"/>
			<path class="st4" d="M471.2,182c-10.9,0-19.9-8.9-19.9-19.9s8.9-19.9,19.9-19.9c10.9,0,19.9,8.9,19.9,19.9S482.1,182,471.2,182z
				 M471.2,143.9c-10,0-18.2,8.2-18.2,18.2s8.2,18.2,18.2,18.2c10,0,18.2-8.2,18.2-18.2S481.2,143.9,471.2,143.9z"/>
		</g>
		<g>
			<g>
				<path class="st4" d="M464.9,168.4c0-0.5,0.2-1.1,0.5-1.7c0.3-0.6,0.7-1,1.1-1.3c1.9,1,3.5,1.5,4.9,1.5c0.5,0,1-0.1,1.3-0.3
					c0.3-0.2,0.5-0.5,0.5-0.9c0-0.6-0.4-1.1-1.3-1.4l-2.6-0.9c-2.4-0.9-3.6-2.4-3.6-4.4c0-1.2,0.4-2.2,1.2-3
					c0.8-0.8,1.8-1.4,3.1-1.6v-2.2c0.3-0.1,0.8-0.1,1.5-0.1c0.6,0,1.1,0,1.5,0.1v2.2c1.3,0.1,2.8,0.5,4.3,1.2c0,0.6-0.1,1.2-0.4,1.7
					c-0.3,0.6-0.6,1-1,1.4c-1.8-0.7-3.3-1.1-4.3-1.1c-0.5,0-0.9,0.1-1.1,0.3c-0.3,0.2-0.4,0.5-0.4,0.8c0,0.5,0.5,0.8,1.4,1.2l2.5,1
					c2.5,0.9,3.8,2.5,3.8,4.7c0,1.2-0.4,2.2-1.3,3c-0.9,0.8-2,1.3-3.5,1.5v2.1c-0.3,0.1-0.8,0.1-1.5,0.1c-0.7,0-1.2,0-1.5-0.1v-2.1
					C467.7,169.8,466.1,169.3,464.9,168.4z"/>
			</g>
		</g>
	</g>
	<g>
		<g>
			<circle class="st3" cx="504.2" cy="205.1" r="19"/>
			<path class="st4" d="M504.2,225c-10.9,0-19.9-8.9-19.9-19.9s8.9-19.9,19.9-19.9s19.9,8.9,19.9,19.9S515.1,225,504.2,225z
				 M504.2,186.9c-10,0-18.2,8.2-18.2,18.2s8.2,18.2,18.2,18.2s18.2-8.2,18.2-18.2S514.2,186.9,504.2,186.9z"/>
		</g>
		<g>
			<g>
				<path class="st4" d="M497.9,211.4c0-0.5,0.2-1.1,0.5-1.7c0.3-0.6,0.7-1,1.1-1.3c1.9,1,3.5,1.5,4.9,1.5c0.5,0,1-0.1,1.3-0.3
					c0.3-0.2,0.5-0.5,0.5-0.9c0-0.6-0.4-1.1-1.3-1.4l-2.6-0.9c-2.4-0.9-3.6-2.4-3.6-4.4c0-1.2,0.4-2.2,1.2-3
					c0.8-0.8,1.8-1.4,3.1-1.6v-2.2c0.3-0.1,0.8-0.1,1.5-0.1c0.6,0,1.1,0,1.5,0.1v2.2c1.3,0.1,2.8,0.5,4.3,1.2c0,0.6-0.1,1.2-0.4,1.7
					c-0.3,0.6-0.6,1-1,1.4c-1.8-0.7-3.3-1.1-4.3-1.1c-0.5,0-0.9,0.1-1.1,0.3c-0.3,0.2-0.4,0.5-0.4,0.8c0,0.5,0.5,0.8,1.4,1.2l2.5,1
					c2.5,0.9,3.8,2.5,3.8,4.7c0,1.2-0.4,2.2-1.3,3c-0.9,0.8-2,1.3-3.5,1.5v2.1c-0.3,0.1-0.8,0.1-1.5,0.1c-0.7,0-1.2,0-1.5-0.1v-2.1
					C500.7,212.8,499.1,212.3,497.9,211.4z"/>
			</g>
		</g>
	</g>
</g>
</svg>
