<?xml version="1.0" encoding="utf-8"?>
<!-- Generator: Adobe Illustrator 21.1.0, SVG Export Plug-In . SVG Version: 6.00 Build 0)  -->
<svg version="1.1" xmlns="http://www.w3.org/2000/svg" xmlns:xlink="http://www.w3.org/1999/xlink" x="0px" y="0px"
	 viewBox="0 0 750 689" style="enable-background:new 0 0 750 689;" xml:space="preserve">
<style type="text/css">
	.st0{display:none;}
	.st1{display:inline;}
	.st2{fill:#80CBC4;}
	.st3{fill:#102027;}
	.st4{fill:#FFAB00;}
	.st5{fill:#009688;}
	.st6{fill:#F57C00;}
	.st7{fill:#1D1D1B;}
	.st8{fill:#1B5E20;}
	.st9{fill:#E65100;}
	.st10{fill:#3E2723;}
	.st11{fill:#FDFDFC;}
	.st12{fill:#FFFFFF;}
	.st13{fill:#37474F;}
	.st14{fill:#62727B;}
	.st15{fill:#FFDD4B;}
	.st16{fill:#C67C00;}
	.st17{fill:#72370F;}
</style>
<g id="Camada_2" class="st0">
	<g class="st1">
		<rect x="-0.7" y="-221.5" class="st2" width="750.5" height="1337"/>
	</g>
</g>
<g id="Camada_1">
	<g>
		<path class="st7" d="M279.7,384.8c-9,0-16.2,7.3-16.2,16.2v87.4l32.5-6.3V401C296,392.1,288.7,384.8,279.7,384.8z"/>
		<g>
			<path class="st11" d="M443.9,684.8H306.1c-49,0-88.7-39.7-88.7-88.7v0c0-80.9,65.6-146.5,146.5-146.5h22.2
				c80.9,0,146.5,65.6,146.5,146.5v0C532.6,645.1,492.9,684.8,443.9,684.8z"/>
			<path class="st7" d="M443.9,688.7H306.1c-51.1,0-92.6-41.5-92.6-92.6c0-83,67.5-150.4,150.4-150.4h22.2
				c83,0,150.4,67.5,150.4,150.4C536.5,647.2,495,688.7,443.9,688.7z M363.9,453.5c-78.6,0-142.6,64-142.6,142.6
				c0,46.7,38,84.7,84.7,84.7h137.9c46.7,0,84.7-38,84.7-84.7c0-78.6-64-142.6-142.6-142.6H363.9z"/>
		</g>
		<path class="st7" d="M448,648.4H302c-35,0-63.3-28.3-63.3-63.3v0c0-35,28.3-63.3,63.3-63.3h146c35,0,63.3,28.3,63.3,63.3v0
			C511.3,620.1,483,648.4,448,648.4z"/>
		<g>
			<g>
				<g>
					<g>
						<g>
							<circle class="st12" cx="457.7" cy="585.1" r="27.5"/>
							<path class="st7" d="M457.7,614.7c-16.4,0-29.7-13.3-29.7-29.7s13.3-29.7,29.7-29.7s29.7,13.3,29.7,29.7
								S474.1,614.7,457.7,614.7z M457.7,559.8c-14,0-25.3,11.4-25.3,25.3s11.4,25.3,25.3,25.3S483,599,483,585.1
								S471.7,559.8,457.7,559.8z"/>
						</g>
					</g>
				</g>
			</g>
			<g>
				<g>
					<g>
						<g>
							<circle class="st12" cx="292.3" cy="585.1" r="27.5"/>
							<path class="st7" d="M292.3,614.7c-16.4,0-29.7-13.3-29.7-29.7s13.3-29.7,29.7-29.7s29.7,13.3,29.7,29.7
								S308.6,614.7,292.3,614.7z M292.3,559.8c-14,0-25.3,11.4-25.3,25.3s11.4,25.3,25.3,25.3s25.3-11.4,25.3-25.3
								S306.2,559.8,292.3,559.8z"/>
						</g>
					</g>
				</g>
			</g>
		</g>
	</g>
	<circle class="st7" cx="458" cy="571" r="28"/>
	<g>
		<path class="st3" d="M231.1,51.4l-3-10.2h-11.6l-3,10.2h-4.4l10-33.3h6.4l10,33.3H231.1z M217.6,37.3h9.4l-4.7-16L217.6,37.3z"/>
		<path class="st3" d="M248,21.4c-0.5-0.5-0.7-1.1-0.7-2c0-0.9,0.2-1.5,0.7-2c0.5-0.5,1.2-0.7,2.2-0.7c1,0,1.7,0.2,2.2,0.7
			c0.5,0.5,0.7,1.1,0.7,2c0,0.8-0.2,1.5-0.7,2c-0.5,0.5-1.2,0.7-2.2,0.7C249.2,22.1,248.5,21.9,248,21.4z M248,51.4V26.9h4.4v24.5
			H248z"/>
		<path class="st3" d="M257.7,26.9h3.7l0.3,2.7h0.2c0.8-1,1.7-1.7,2.8-2.3c1.1-0.5,2.3-0.8,3.6-0.8c2.1,0,3.7,0.6,4.9,1.9
			c1.2,1.3,1.8,3.3,1.8,6.1v16.9h-4.4V34.8c0-1.6-0.3-2.7-0.9-3.4c-0.6-0.7-1.5-1-2.7-1c-0.9,0-1.8,0.2-2.7,0.7
			c-0.9,0.5-1.6,1.2-2.2,2.1v18.1h-4.4V26.9z"/>
		<path class="st3" d="M283.6,16.6c1.3-1.4,3.3-2.1,5.8-2.1c1.1,0,2.1,0.1,2.9,0.3v3.6c-0.7-0.2-1.5-0.2-2.3-0.2c-1.3,0-2.4,0.3-3,1
			s-1,1.7-1,3.1v4.5h6.1v3.6h-6.1v20.9h-4.3V30.4h-4v-3.6h4v-4.3C281.6,20,282.3,18,283.6,16.6z M294.4,15h4.4v36.4h-4.4V15z"/>
		<path class="st3" d="M315.7,27.3c1.3,0.6,2.2,1.5,2.9,2.8s1,3,1,5.2v16h-3.6l-0.3-2.7h-0.2c-0.6,1-1.4,1.8-2.5,2.3
			s-2.1,0.8-3.4,0.8c-1.3,0-2.5-0.3-3.5-0.8s-1.8-1.3-2.3-2.3c-0.6-1-0.8-2.2-0.8-3.6c0-2.3,0.7-4,2-5.2c1.3-1.2,3.5-2,6.3-2.2
			l4.1-0.4v-2c0-1.3-0.2-2.3-0.6-3s-0.9-1.2-1.7-1.6c-0.8-0.3-1.7-0.5-3-0.5c-0.8,0-1.8,0.1-2.8,0.2c-1,0.2-2,0.4-2.9,0.7v-3.6
			c0.9-0.3,2-0.5,3.1-0.7c1.2-0.2,2.3-0.2,3.3-0.2C312.7,26.5,314.4,26.8,315.7,27.3z M313.2,47.8c0.8-0.4,1.5-1.1,2-2V40l-3.7,0.4
			c-1.5,0.1-2.6,0.6-3.3,1.3c-0.7,0.7-1.1,1.7-1.1,2.9c0,1.3,0.3,2.3,1,2.9c0.6,0.6,1.5,1,2.7,1C311.6,48.4,312.4,48.2,313.2,47.8z"
			/>
		<path class="st3" d="M331.1,31.1c-1,0.5-1.8,1.4-2.3,2.7s-0.7,3-0.7,5.2c0,2.3,0.2,4.1,0.7,5.4c0.5,1.3,1.1,2.2,2,2.8
			c0.9,0.6,2.1,0.8,3.5,0.8c1.2,0,2.6-0.3,4.2-0.8v3.7c-1.7,0.6-3.4,0.9-5.1,0.9v1.8c1,0.2,1.8,0.6,2.4,1.2c0.6,0.6,0.8,1.4,0.8,2.4
			c0,1.1-0.4,2-1.2,2.7s-2,1-3.5,1c-0.6,0-1.2-0.1-1.8-0.2s-1.1-0.3-1.6-0.5v-2.1c1,0.5,2.2,0.7,3.4,0.7c0.8,0,1.3-0.1,1.7-0.4
			c0.4-0.3,0.6-0.7,0.6-1.4c0-1.2-0.8-1.9-2.3-1.9H331v-3.6c-2.5-0.4-4.3-1.7-5.6-3.7c-1.3-2-1.9-4.9-1.9-8.8c0-4.5,0.9-7.7,2.7-9.7
			c1.8-2,4.5-3,8.1-3c1.5,0,2.9,0.2,4.2,0.5v3.7c-1.2-0.3-2.3-0.4-3.4-0.4C333.4,30.3,332.1,30.5,331.1,31.1z"/>
		<path class="st3" d="M353.3,27.3c1.3,0.6,2.2,1.5,2.9,2.8s1,3,1,5.2v16h-3.6l-0.3-2.7h-0.2c-0.6,1-1.4,1.8-2.5,2.3
			s-2.1,0.8-3.4,0.8c-1.3,0-2.5-0.3-3.5-0.8s-1.8-1.3-2.3-2.3c-0.6-1-0.8-2.2-0.8-3.6c0-2.3,0.7-4,2-5.2c1.3-1.2,3.5-2,6.3-2.2
			l4.1-0.4v-2c0-1.3-0.2-2.3-0.6-3s-0.9-1.2-1.7-1.6c-0.8-0.3-1.7-0.5-3-0.5c-0.8,0-1.8,0.1-2.8,0.2c-1,0.2-2,0.4-2.9,0.7v-3.6
			c0.9-0.3,2-0.5,3.1-0.7c1.2-0.2,2.3-0.2,3.3-0.2C350.4,26.5,352,26.8,353.3,27.3z M350.7,21.2c-0.5-0.2-1.1-0.4-1.8-0.8
			c-0.6-0.3-1.1-0.5-1.5-0.7s-0.8-0.2-1.2-0.2c-0.7,0-1.3,0.1-1.9,0.4s-1.1,0.7-1.7,1.4v-3.1c0.9-1,2.1-1.6,3.6-1.6
			c0.5,0,1.1,0.1,1.6,0.3c0.5,0.2,1.1,0.4,1.8,0.8c0.6,0.3,1.1,0.5,1.5,0.7s0.8,0.2,1.2,0.2c0.7,0,1.3-0.1,1.9-0.4
			c0.6-0.3,1.1-0.7,1.6-1.4v3.1c-0.9,1.1-2.1,1.6-3.6,1.6C351.7,21.5,351.1,21.4,350.7,21.2z M350.8,47.8c0.8-0.4,1.5-1.1,2-2V40
			l-3.7,0.4c-1.5,0.1-2.6,0.6-3.3,1.3c-0.7,0.7-1.1,1.7-1.1,2.9c0,1.3,0.3,2.3,1,2.9c0.6,0.6,1.5,1,2.7,1
			C349.2,48.4,350,48.2,350.8,47.8z"/>
		<path class="st3" d="M363.6,48.8c-1.6-2-2.4-5.2-2.4-9.6c0-4.4,0.8-7.6,2.4-9.6c1.6-2,3.9-3.1,7-3.1c3,0,5.3,1,7,3.1
			c1.6,2.1,2.4,5.3,2.4,9.6c0,8.4-3.1,12.6-9.4,12.6C367.5,51.8,365.2,50.8,363.6,48.8z M373.2,47.6c0.7-0.5,1.3-1.5,1.6-2.8
			c0.4-1.3,0.6-3.2,0.6-5.5c0-2.4-0.2-4.3-0.6-5.6c-0.4-1.4-0.9-2.3-1.6-2.9s-1.6-0.8-2.7-0.8c-1.1,0-2,0.3-2.7,0.8
			c-0.7,0.5-1.3,1.5-1.7,2.8c-0.4,1.3-0.6,3.2-0.6,5.5c0,2.4,0.2,4.3,0.6,5.6c0.4,1.4,0.9,2.3,1.6,2.8c0.7,0.5,1.6,0.8,2.7,0.8
			C371.6,48.4,372.5,48.1,373.2,47.6z"/>
		<path class="st3" d="M405.3,27.3c1.3,0.6,2.2,1.5,2.9,2.8s1,3,1,5.2v16h-3.6l-0.3-2.7h-0.2c-0.6,1-1.4,1.8-2.5,2.3
			s-2.1,0.8-3.4,0.8c-1.3,0-2.5-0.3-3.5-0.8s-1.8-1.3-2.3-2.3c-0.6-1-0.8-2.2-0.8-3.6c0-2.3,0.7-4,2-5.2c1.3-1.2,3.5-2,6.3-2.2
			l4.1-0.4v-2c0-1.3-0.2-2.3-0.6-3s-0.9-1.2-1.7-1.6c-0.8-0.3-1.7-0.5-3-0.5c-0.8,0-1.8,0.1-2.8,0.2c-1,0.2-2,0.4-2.9,0.7v-3.6
			c0.9-0.3,2-0.5,3.1-0.7c1.2-0.2,2.3-0.2,3.3-0.2C402.4,26.5,404,26.8,405.3,27.3z M402.8,47.8c0.8-0.4,1.5-1.1,2-2V40l-3.7,0.4
			c-1.5,0.1-2.6,0.6-3.3,1.3c-0.7,0.7-1.1,1.7-1.1,2.9c0,1.3,0.3,2.3,1,2.9c0.6,0.6,1.5,1,2.7,1C401.2,48.4,402,48.2,402.8,47.8z"/>
		<path class="st3" d="M421.1,19.3c-0.7,0.7-1.1,1.8-1.1,3.4v4.3h6.1v3.6H420v20.9h-4.3V30.4h-4v-3.6h4v-4.1c0-2.7,0.7-4.7,2.1-6.1
			c1.4-1.4,3.5-2.1,6.2-2.1c1.1,0,2.1,0.1,2.9,0.2v3.6c-0.9-0.1-1.7-0.2-2.4-0.2C423,18.2,421.9,18.6,421.1,19.3z"/>
		<path class="st3" d="M444.8,40.6h-13.1c0,1.9,0.3,3.4,0.8,4.5c0.5,1.1,1.2,1.9,2.1,2.4s2.2,0.7,3.8,0.7c1.5,0,3.3-0.3,5.3-0.9v3.6
			c-2,0.6-3.9,0.9-5.8,0.9c-2.5,0-4.5-0.4-6-1.3c-1.6-0.8-2.7-2.2-3.5-4.1c-0.8-1.9-1.2-4.3-1.2-7.4c0-4.3,0.8-7.4,2.4-9.5
			s3.8-3.1,6.7-3.1c2.8,0,4.9,1,6.3,3.1c1.4,2,2.2,5.2,2.2,9.6V40.6z M432.9,31.4c-0.8,1.2-1.2,3.3-1.2,6.3h8.9
			c0-2.1-0.2-3.7-0.6-4.8c-0.3-1.2-0.8-2-1.5-2.5c-0.6-0.5-1.4-0.7-2.3-0.7C434.8,29.6,433.7,30.2,432.9,31.4z"/>
		<path class="st3" d="M460.6,47.7v3.7c-1.2,0.3-2.3,0.4-3.4,0.4c-2.4,0-4.2-0.6-5.5-1.9c-1.3-1.3-1.9-3.3-1.9-6.1V30.4h-4v-3.6h4
			l0.8-8.8h3.6v8.8h6.1v3.6h-6.1v12.8c0,1.2,0.1,2.1,0.4,2.8s0.7,1.2,1.3,1.5s1.3,0.4,2.3,0.4C458.8,48,459.6,47.9,460.6,47.7z"/>
		<path class="st3" d="M475.2,27.3c1.3,0.6,2.2,1.5,2.9,2.8s1,3,1,5.2v16h-3.6l-0.3-2.7h-0.2c-0.6,1-1.4,1.8-2.5,2.3
			s-2.1,0.8-3.4,0.8c-1.3,0-2.5-0.3-3.5-0.8s-1.8-1.3-2.3-2.3c-0.6-1-0.8-2.2-0.8-3.6c0-2.3,0.7-4,2-5.2c1.3-1.2,3.5-2,6.3-2.2
			l4.1-0.4v-2c0-1.3-0.2-2.3-0.6-3s-0.9-1.2-1.7-1.6c-0.8-0.3-1.7-0.5-3-0.5c-0.8,0-1.8,0.1-2.8,0.2c-1,0.2-2,0.4-2.9,0.7v-3.6
			c0.9-0.3,2-0.5,3.1-0.7c1.2-0.2,2.3-0.2,3.3-0.2C472.3,26.5,473.9,26.8,475.2,27.3z M472.7,47.8c0.8-0.4,1.5-1.1,2-2V40l-3.7,0.4
			c-1.5,0.1-2.6,0.6-3.3,1.3c-0.7,0.7-1.1,1.7-1.1,2.9c0,1.3,0.3,2.3,1,2.9c0.6,0.6,1.5,1,2.7,1C471.2,48.4,472,48.2,472.7,47.8z"/>
		<path class="st3" d="M492.9,50.9v-3.6c1.9,0.6,3.8,1,5.7,1c1.6,0,2.8-0.3,3.6-0.9c0.8-0.6,1.2-1.5,1.2-2.7c0-1-0.2-1.7-0.7-2.3
			c-0.5-0.5-1.2-0.9-2.2-1.2l-2.7-0.7c-1.9-0.5-3.3-1.3-4.2-2.4c-0.9-1.1-1.3-2.5-1.3-4.3c0-1.4,0.3-2.7,1-3.8
			c0.7-1.1,1.7-1.9,3.1-2.5c1.3-0.6,3-0.9,4.9-0.9c1.7,0,3.3,0.2,4.9,0.6v3.6c-0.8-0.2-1.6-0.4-2.3-0.4c-0.7-0.1-1.5-0.1-2.4-0.1
			c-1.7,0-3,0.3-3.9,1c-0.8,0.7-1.3,1.5-1.3,2.6c0,0.9,0.2,1.6,0.7,2.1c0.5,0.5,1.2,0.9,2.1,1.2l2.7,0.7c2,0.5,3.4,1.3,4.3,2.4
			c0.9,1.1,1.3,2.6,1.3,4.4c0,1.5-0.3,2.8-1,3.9c-0.7,1.1-1.7,2-3,2.5c-1.3,0.6-2.9,0.9-4.7,0.9C496.6,51.8,494.7,51.5,492.9,50.9z"
			/>
		<path class="st3" d="M527.6,40.6h-13.1c0,1.9,0.3,3.4,0.8,4.5c0.5,1.1,1.2,1.9,2.1,2.4s2.2,0.7,3.8,0.7c1.5,0,3.3-0.3,5.3-0.9v3.6
			c-2,0.6-3.9,0.9-5.8,0.9c-2.5,0-4.5-0.4-6-1.3c-1.6-0.8-2.7-2.2-3.5-4.1c-0.8-1.9-1.2-4.3-1.2-7.4c0-4.3,0.8-7.4,2.4-9.5
			s3.8-3.1,6.7-3.1c2.8,0,4.9,1,6.3,3.1c1.4,2,2.2,5.2,2.2,9.6V40.6z M515.8,31.4c-0.8,1.2-1.2,3.3-1.2,6.3h8.9
			c0-2.1-0.2-3.7-0.6-4.8c-0.3-1.2-0.8-2-1.5-2.5c-0.6-0.5-1.4-0.7-2.3-0.7C517.7,29.6,516.5,30.2,515.8,31.4z"/>
		<path class="st3" d="M533.2,49.9c-1.2-1.3-1.8-3.3-1.8-6.2V26.9h4.4v16.6c0,1.6,0.3,2.7,0.9,3.4c0.6,0.7,1.5,1,2.6,1
			c0.9,0,1.7-0.2,2.6-0.7c0.9-0.5,1.6-1.1,2.2-2.1V26.9h4.4v24.5h-3.7l-0.3-2.6h-0.2c-0.8,1-1.8,1.8-2.8,2.3s-2.2,0.8-3.4,0.8
			C536,51.8,534.4,51.2,533.2,49.9z"/>
		<path class="st3" d="M123.3,80.9h3.7l0.3,2.6h0.2c0.5-0.9,1.3-1.6,2.2-2.1c0.9-0.5,2-0.8,3.2-0.8c1.6,0,3,0.4,4.2,1.2
			s2.2,2.1,3,3.9s1.1,4.2,1.1,7c0,4.4-0.9,7.7-2.8,9.9c-1.9,2.2-4.8,3.2-8.6,3.2c-0.6,0-1.3,0-2.2-0.1v9.6h-4.4V80.9z M133.9,101.4
			c1-0.6,1.7-1.6,2.2-2.9c0.5-1.4,0.8-3.1,0.8-5.4c0-2.3-0.2-4.1-0.6-5.4c-0.4-1.3-1-2.2-1.7-2.7c-0.7-0.5-1.6-0.7-2.7-0.7
			c-0.8,0-1.6,0.2-2.4,0.6c-0.8,0.4-1.3,1-1.8,1.7v15.4c0.3,0.1,0.7,0.1,1.2,0.2s0.9,0.1,1.3,0.1C131.7,102.3,132.9,102,133.9,101.4
			z"/>
		<path class="st3" d="M147.1,102.8c-1.6-2-2.4-5.2-2.4-9.6c0-4.4,0.8-7.6,2.4-9.6c1.6-2,3.9-3.1,7-3.1c3,0,5.3,1,7,3.1
			c1.6,2.1,2.4,5.3,2.4,9.6c0,8.4-3.1,12.6-9.4,12.6C151,105.8,148.7,104.8,147.1,102.8z M156.7,101.6c0.7-0.5,1.3-1.5,1.6-2.8
			c0.4-1.3,0.6-3.2,0.6-5.5c0-2.4-0.2-4.3-0.6-5.6c-0.4-1.4-0.9-2.3-1.6-2.9s-1.6-0.8-2.7-0.8c-1.1,0-2,0.3-2.7,0.8
			c-0.7,0.5-1.3,1.5-1.7,2.8c-0.4,1.3-0.6,3.2-0.6,5.5c0,2.4,0.2,4.3,0.6,5.6c0.4,1.4,0.9,2.3,1.6,2.8c0.7,0.5,1.6,0.8,2.7,0.8
			C155.1,102.4,156,102.1,156.7,101.6z"/>
		<path class="st3" d="M170.8,104.6c-1.2-0.8-2.2-2.1-3-3.9c-0.8-1.8-1.1-4.2-1.1-7c0-4.4,1-7.7,2.9-9.9c1.9-2.2,4.8-3.2,8.6-3.2
			c0.8,0,1.5,0,2.2,0.1V69h4.4v36.4H181l-0.3-2.5h-0.2c-0.5,0.9-1.3,1.6-2.2,2.2c-0.9,0.5-2,0.8-3.2,0.8
			C173.5,105.8,172.1,105.4,170.8,104.6z M178.6,101.4c0.8-0.4,1.3-1,1.8-1.7V84.3c-0.3-0.1-0.7-0.1-1.2-0.2c-0.5,0-0.9-0.1-1.3-0.1
			c-1.5,0-2.7,0.3-3.7,0.9c-1,0.6-1.7,1.6-2.2,2.9c-0.5,1.3-0.8,3.1-0.8,5.4c0,2.3,0.2,4.1,0.6,5.4c0.4,1.3,1,2.2,1.7,2.7
			c0.7,0.5,1.6,0.7,2.7,0.7C177.1,102,177.9,101.8,178.6,101.4z"/>
		<path class="st3" d="M206.5,94.6h-13.1c0,1.9,0.3,3.4,0.8,4.5c0.5,1.1,1.2,1.9,2.1,2.4s2.2,0.7,3.8,0.7c1.5,0,3.3-0.3,5.3-0.9v3.6
			c-2,0.6-3.9,0.9-5.8,0.9c-2.5,0-4.5-0.4-6-1.3c-1.6-0.8-2.7-2.2-3.5-4.1c-0.8-1.9-1.2-4.3-1.2-7.4c0-4.3,0.8-7.4,2.4-9.5
			s3.8-3.1,6.7-3.1c2.8,0,4.9,1,6.3,3.1c1.4,2,2.2,5.2,2.2,9.6V94.6z M194.7,85.4c-0.8,1.2-1.2,3.3-1.2,6.3h8.9
			c0-2.1-0.2-3.7-0.6-4.8c-0.3-1.2-0.8-2-1.5-2.5c-0.6-0.5-1.4-0.7-2.3-0.7C196.6,83.6,195.5,84.2,194.7,85.4z"/>
		<path class="st3" d="M210.5,80.9h3.6l0.4,3.4h0.2c0.7-1.2,1.5-2.1,2.6-2.7c1-0.6,2.2-0.9,3.5-0.9c0.5,0,1,0,1.5,0.1v4.1
			c-0.5-0.1-1-0.1-1.7-0.1c-1.1,0-2.2,0.3-3.3,0.9s-1.8,1.4-2.4,2.4v17.4h-4.4V80.9z"/>
		<path class="st3" d="M237.7,104.6c-1.2-0.8-2.2-2.1-3-3.9c-0.8-1.8-1.1-4.2-1.1-7c0-4.4,1-7.7,2.9-9.9c1.9-2.2,4.8-3.2,8.6-3.2
			c0.8,0,1.5,0,2.2,0.1V69h4.4v36.4h-3.7l-0.3-2.5h-0.2c-0.5,0.9-1.3,1.6-2.2,2.2c-0.9,0.5-2,0.8-3.2,0.8
			C240.3,105.8,238.9,105.4,237.7,104.6z M245.5,101.4c0.8-0.4,1.3-1,1.8-1.7V84.3c-0.3-0.1-0.7-0.1-1.2-0.2c-0.5,0-0.9-0.1-1.3-0.1
			c-1.5,0-2.7,0.3-3.7,0.9c-1,0.6-1.7,1.6-2.2,2.9c-0.5,1.3-0.8,3.1-0.8,5.4c0,2.3,0.2,4.1,0.6,5.4c0.4,1.3,1,2.2,1.7,2.7
			c0.7,0.5,1.6,0.7,2.7,0.7C243.9,102,244.7,101.8,245.5,101.4z"/>
		<path class="st3" d="M273.4,94.6h-13.1c0,1.9,0.3,3.4,0.8,4.5c0.5,1.1,1.2,1.9,2.1,2.4s2.2,0.7,3.8,0.7c1.5,0,3.3-0.3,5.3-0.9v3.6
			c-2,0.6-3.9,0.9-5.8,0.9c-2.5,0-4.5-0.4-6-1.3c-1.6-0.8-2.7-2.2-3.5-4.1c-0.8-1.9-1.2-4.3-1.2-7.4c0-4.3,0.8-7.4,2.4-9.5
			s3.8-3.1,6.7-3.1c2.8,0,4.9,1,6.3,3.1c1.4,2,2.2,5.2,2.2,9.6V94.6z M261.5,85.4c-0.8,1.2-1.2,3.3-1.2,6.3h8.9
			c0-2.1-0.2-3.7-0.6-4.8c-0.3-1.2-0.8-2-1.5-2.5c-0.6-0.5-1.4-0.7-2.3-0.7C263.4,83.6,262.3,84.2,261.5,85.4z"/>
		<path class="st3" d="M288.2,102.8c-1.7-2-2.5-5.2-2.5-9.7c0-4.5,0.9-7.7,2.7-9.7c1.8-2,4.5-3,8.1-3c1.5,0,2.9,0.2,4.2,0.5v3.7
			c-1.2-0.3-2.3-0.4-3.4-0.4c-1.6,0-3,0.3-4,0.8s-1.8,1.4-2.3,2.7s-0.7,3-0.7,5.2c0,2.3,0.2,4.1,0.7,5.4c0.5,1.3,1.1,2.2,2,2.8
			c0.9,0.6,2.1,0.8,3.5,0.8c1.2,0,2.6-0.3,4.2-0.8v3.7c-1.7,0.6-3.4,0.9-5.1,0.9C292.3,105.8,289.9,104.8,288.2,102.8z"/>
		<path class="st3" d="M305,102.8c-1.6-2-2.4-5.2-2.4-9.6c0-4.4,0.8-7.6,2.4-9.6c1.6-2,3.9-3.1,7-3.1c3,0,5.3,1,7,3.1
			c1.6,2.1,2.4,5.3,2.4,9.6c0,8.4-3.1,12.6-9.4,12.6C309,105.8,306.6,104.8,305,102.8z M314.7,101.6c0.7-0.5,1.3-1.5,1.6-2.8
			c0.4-1.3,0.6-3.2,0.6-5.5c0-2.4-0.2-4.3-0.6-5.6c-0.4-1.4-0.9-2.3-1.6-2.9s-1.6-0.8-2.7-0.8c-1.1,0-2,0.3-2.7,0.8
			c-0.7,0.5-1.3,1.5-1.7,2.8c-0.4,1.3-0.6,3.2-0.6,5.5c0,2.4,0.2,4.3,0.6,5.6c0.4,1.4,0.9,2.3,1.6,2.8c0.7,0.5,1.6,0.8,2.7,0.8
			C313.1,102.4,313.9,102.1,314.7,101.6z"/>
		<path class="st3" d="M352.9,82.4c1.2,1.3,1.8,3.3,1.8,6.2v16.7h-4.4V88.8c0-2.9-1.2-4.4-3.5-4.4c-0.8,0-1.6,0.2-2.4,0.6
			c-0.8,0.4-1.5,1.1-2.1,2c0,0.6,0,1,0,1.3v16.9H338V88.8c0-1.6-0.3-2.7-0.9-3.4c-0.6-0.7-1.4-1-2.5-1c-0.8,0-1.7,0.2-2.6,0.7
			c-0.9,0.5-1.6,1.2-2.1,2.2v18h-4.4V80.9h3.7l0.3,2.7h0.2c1.6-2.1,3.7-3.1,6.2-3.1c1.2,0,2.3,0.3,3.3,0.8c0.9,0.5,1.7,1.4,2.2,2.6
			c0.9-1.1,1.9-2,3-2.5c1.1-0.5,2.3-0.8,3.5-0.8C350.1,80.5,351.7,81.1,352.9,82.4z"/>
		<path class="st3" d="M359.8,80.9h3.7l0.3,2.6h0.2c0.5-0.9,1.3-1.6,2.2-2.1c0.9-0.5,2-0.8,3.2-0.8c1.6,0,3,0.4,4.2,1.2
			s2.2,2.1,3,3.9s1.1,4.2,1.1,7c0,4.4-0.9,7.7-2.8,9.9c-1.9,2.2-4.8,3.2-8.6,3.2c-0.6,0-1.3,0-2.2-0.1v9.6h-4.4V80.9z M370.4,101.4
			c1-0.6,1.7-1.6,2.2-2.9c0.5-1.4,0.8-3.1,0.8-5.4c0-2.3-0.2-4.1-0.6-5.4c-0.4-1.3-1-2.2-1.7-2.7c-0.7-0.5-1.6-0.7-2.7-0.7
			c-0.8,0-1.6,0.2-2.4,0.6c-0.8,0.4-1.3,1-1.8,1.7v15.4c0.3,0.1,0.7,0.1,1.2,0.2s0.9,0.1,1.3,0.1C368.2,102.3,369.4,102,370.4,101.4
			z"/>
		<path class="st3" d="M382.1,80.9h3.6l0.4,3.4h0.2c0.7-1.2,1.5-2.1,2.6-2.7c1-0.6,2.2-0.9,3.5-0.9c0.5,0,1,0,1.5,0.1v4.1
			c-0.5-0.1-1-0.1-1.7-0.1c-1.1,0-2.2,0.3-3.3,0.9S387,87,386.4,88v17.4h-4.4V80.9z"/>
		<path class="st3" d="M407.6,81.3c1.3,0.6,2.2,1.5,2.9,2.8s1,3,1,5.2v16h-3.6l-0.3-2.7h-0.2c-0.6,1-1.4,1.8-2.5,2.3
			s-2.1,0.8-3.4,0.8c-1.3,0-2.5-0.3-3.5-0.8s-1.8-1.3-2.3-2.3c-0.6-1-0.8-2.2-0.8-3.6c0-2.3,0.7-4,2-5.2c1.3-1.2,3.5-2,6.3-2.2
			l4.1-0.4v-2c0-1.3-0.2-2.3-0.6-3s-0.9-1.2-1.7-1.6c-0.8-0.3-1.7-0.5-3-0.5c-0.8,0-1.8,0.1-2.8,0.2c-1,0.2-2,0.4-2.9,0.7v-3.6
			c0.9-0.3,2-0.5,3.1-0.7c1.2-0.2,2.3-0.2,3.3-0.2C404.7,80.5,406.3,80.8,407.6,81.3z M405.1,101.8c0.8-0.4,1.5-1.1,2-2V94l-3.7,0.4
			c-1.5,0.1-2.6,0.6-3.3,1.3c-0.7,0.7-1.1,1.7-1.1,2.9c0,1.3,0.3,2.3,1,2.9c0.6,0.6,1.5,1,2.7,1
			C403.6,102.4,404.4,102.2,405.1,101.8z"/>
		<path class="st3" d="M416.6,104.9c-0.6-0.5-0.8-1.3-0.8-2.2c0-0.9,0.3-1.7,0.8-2.2c0.6-0.5,1.3-0.8,2.2-0.8c0.9,0,1.6,0.3,2.2,0.8
			c0.6,0.6,0.8,1.3,0.8,2.2c0,0.9-0.3,1.6-0.8,2.2s-1.3,0.8-2.2,0.8C417.9,105.7,417.2,105.4,416.6,104.9z"/>
		<path class="st3" d="M438.5,105.5c-1.3-0.2-2.5-0.5-3.6-0.9v-3.8c2.5,0.8,4.9,1.2,7.2,1.2c2.2,0,3.9-0.5,5-1.4
			c1.1-0.9,1.7-2.3,1.7-4c0-1-0.2-1.8-0.5-2.5c-0.3-0.7-0.9-1.3-1.7-1.8c-0.8-0.5-1.8-1-3.2-1.5l-1.8-0.6c-2.4-0.8-4.2-1.9-5.4-3.4
			c-1.3-1.5-1.9-3.4-1.9-5.7c0-1.9,0.4-3.6,1.3-5c0.8-1.4,2.1-2.5,3.8-3.2c1.7-0.8,3.7-1.1,6.2-1.1c1.1,0,2.2,0.1,3.3,0.2
			c1.1,0.1,2.1,0.4,2.9,0.6v3.8c-1.8-0.6-3.8-0.9-5.9-0.9c-4.7,0-7,1.7-7,5.2c0,1,0.2,1.8,0.5,2.4c0.3,0.7,0.8,1.2,1.6,1.7
			c0.7,0.5,1.7,0.9,3,1.4l1.8,0.6c2.5,0.9,4.4,2,5.7,3.5s1.9,3.4,1.9,5.8c0,2-0.4,3.7-1.3,5.2s-2.1,2.5-3.8,3.3
			c-1.7,0.8-3.7,1.1-6,1.1C441,105.8,439.8,105.7,438.5,105.5z"/>
		<path class="st3" d="M473.9,94.6h-13.1c0,1.9,0.3,3.4,0.8,4.5c0.5,1.1,1.2,1.9,2.1,2.4s2.2,0.7,3.8,0.7c1.5,0,3.3-0.3,5.3-0.9v3.6
			c-2,0.6-3.9,0.9-5.8,0.9c-2.5,0-4.5-0.4-6-1.3c-1.6-0.8-2.7-2.2-3.5-4.1c-0.8-1.9-1.2-4.3-1.2-7.4c0-4.3,0.8-7.4,2.4-9.5
			s3.8-3.1,6.7-3.1c2.8,0,4.9,1,6.3,3.1c1.4,2,2.2,5.2,2.2,9.6V94.6z M462,85.4c-0.8,1.2-1.2,3.3-1.2,6.3h8.9c0-2.1-0.2-3.7-0.6-4.8
			c-0.3-1.2-0.8-2-1.5-2.5c-0.6-0.5-1.4-0.7-2.3-0.7C463.9,83.6,462.8,84.2,462,85.4z"/>
		<path class="st3" d="M501.3,80.9h4.4l-7.6,24.5h-5.7l-7.6-24.5h4.6l6,20.2L501.3,80.9z"/>
		<path class="st3" d="M509.6,102.8c-1.6-2-2.4-5.2-2.4-9.6c0-4.4,0.8-7.6,2.4-9.6c1.6-2,3.9-3.1,7-3.1c3,0,5.3,1,7,3.1
			c1.6,2.1,2.4,5.3,2.4,9.6c0,8.4-3.1,12.6-9.4,12.6C513.5,105.8,511.2,104.8,509.6,102.8z M519.2,101.6c0.7-0.5,1.3-1.5,1.6-2.8
			c0.4-1.3,0.6-3.2,0.6-5.5c0-2.4-0.2-4.3-0.6-5.6c-0.4-1.4-0.9-2.3-1.6-2.9s-1.6-0.8-2.7-0.8c-1.1,0-2,0.3-2.7,0.8
			c-0.7,0.5-1.3,1.5-1.7,2.8c-0.4,1.3-0.6,3.2-0.6,5.5c0,2.4,0.2,4.3,0.6,5.6c0.4,1.4,0.9,2.3,1.6,2.8c0.7,0.5,1.6,0.8,2.7,0.8
			C517.6,102.4,518.5,102.1,519.2,101.6z"/>
		<path class="st3" d="M531.7,102.8c-1.7-2-2.5-5.2-2.5-9.7c0-4.5,0.9-7.7,2.7-9.7c1.8-2,4.5-3,8.1-3c1.5,0,2.9,0.2,4.2,0.5v3.7
			c-1.2-0.3-2.3-0.4-3.4-0.4c-1.6,0-3,0.3-4,0.8s-1.8,1.4-2.3,2.7s-0.7,3-0.7,5.2c0,2.3,0.2,4.1,0.7,5.4c0.5,1.3,1.1,2.2,2,2.8
			c0.9,0.6,2.1,0.8,3.5,0.8c1.2,0,2.6-0.3,4.2-0.8v3.7c-1.7,0.6-3.4,0.9-5.1,0.9C535.8,105.8,533.4,104.8,531.7,102.8z"/>
		<path class="st3" d="M563.6,94.6h-13.1c0,1.9,0.3,3.4,0.8,4.5c0.5,1.1,1.2,1.9,2.1,2.4s2.2,0.7,3.8,0.7c1.5,0,3.3-0.3,5.3-0.9v3.6
			c-2,0.6-3.9,0.9-5.8,0.9c-2.5,0-4.5-0.4-6-1.3c-1.6-0.8-2.7-2.2-3.5-4.1c-0.8-1.9-1.2-4.3-1.2-7.4c0-4.3,0.8-7.4,2.4-9.5
			s3.8-3.1,6.7-3.1c2.8,0,4.9,1,6.3,3.1c1.4,2,2.2,5.2,2.2,9.6V94.6z M561.1,77.3h-3.1l-2.9-6.2l-2.9,6.2h-3.1L553,69h3.9
			L561.1,77.3z M551.8,85.4c-0.8,1.2-1.2,3.3-1.2,6.3h8.9c0-2.1-0.2-3.7-0.6-4.8c-0.3-1.2-0.8-2-1.5-2.5c-0.6-0.5-1.4-0.7-2.3-0.7
			C553.7,83.6,552.6,84.2,551.8,85.4z"/>
		<path class="st3" d="M577.1,80.9h3.7l0.3,2.7h0.2c0.8-1,1.7-1.7,2.8-2.3c1.1-0.5,2.3-0.8,3.6-0.8c2.1,0,3.7,0.6,4.9,1.9
			c1.2,1.3,1.8,3.3,1.8,6.1v16.9H590V88.8c0-1.6-0.3-2.7-0.9-3.4c-0.6-0.7-1.5-1-2.7-1c-0.9,0-1.8,0.2-2.7,0.7
			c-0.9,0.5-1.6,1.2-2.2,2.1v18.1h-4.4V80.9z"/>
		<path class="st3" d="M611.2,81.3c1.3,0.6,2.2,1.5,2.9,2.8s1,3,1,5.2v16h-3.6l-0.3-2.7h-0.2c-0.6,1-1.4,1.8-2.5,2.3
			s-2.1,0.8-3.4,0.8c-1.3,0-2.5-0.3-3.5-0.8s-1.8-1.3-2.3-2.3c-0.6-1-0.8-2.2-0.8-3.6c0-2.3,0.7-4,2-5.2c1.3-1.2,3.5-2,6.3-2.2
			l4.1-0.4v-2c0-1.3-0.2-2.3-0.6-3s-0.9-1.2-1.7-1.6c-0.8-0.3-1.7-0.5-3-0.5c-0.8,0-1.8,0.1-2.8,0.2c-1,0.2-2,0.4-2.9,0.7v-3.6
			c0.9-0.3,2-0.5,3.1-0.7c1.2-0.2,2.3-0.2,3.3-0.2C608.2,80.5,609.9,80.8,611.2,81.3z M608.5,75.2c-0.5-0.2-1.1-0.4-1.8-0.8
			c-0.6-0.3-1.1-0.5-1.5-0.7s-0.8-0.2-1.2-0.2c-0.7,0-1.3,0.1-1.9,0.4s-1.1,0.7-1.7,1.4v-3.1c0.9-1,2.1-1.6,3.6-1.6
			c0.5,0,1.1,0.1,1.6,0.3c0.5,0.2,1.1,0.4,1.8,0.8c0.6,0.3,1.1,0.5,1.5,0.7s0.8,0.2,1.2,0.2c0.7,0,1.3-0.1,1.9-0.4
			c0.6-0.3,1.1-0.7,1.6-1.4v3.1c-0.9,1.1-2.1,1.6-3.6,1.6C609.5,75.5,609,75.4,608.5,75.2z M608.7,101.8c0.8-0.4,1.5-1.1,2-2V94
			l-3.7,0.4c-1.5,0.1-2.6,0.6-3.3,1.3c-0.7,0.7-1.1,1.7-1.1,2.9c0,1.3,0.3,2.3,1,2.9c0.6,0.6,1.5,1,2.7,1
			C607.1,102.4,607.9,102.2,608.7,101.8z"/>
		<path class="st3" d="M621.4,102.8c-1.6-2-2.4-5.2-2.4-9.6c0-4.4,0.8-7.6,2.4-9.6c1.6-2,3.9-3.1,7-3.1c3,0,5.3,1,7,3.1
			c1.6,2.1,2.4,5.3,2.4,9.6c0,8.4-3.1,12.6-9.4,12.6C625.4,105.8,623.1,104.8,621.4,102.8z M631.1,101.6c0.7-0.5,1.3-1.5,1.6-2.8
			c0.4-1.3,0.6-3.2,0.6-5.5c0-2.4-0.2-4.3-0.6-5.6c-0.4-1.4-0.9-2.3-1.6-2.9s-1.6-0.8-2.7-0.8c-1.1,0-2,0.3-2.7,0.8
			c-0.7,0.5-1.3,1.5-1.7,2.8c-0.4,1.3-0.6,3.2-0.6,5.5c0,2.4,0.2,4.3,0.6,5.6c0.4,1.4,0.9,2.3,1.6,2.8c0.7,0.5,1.6,0.8,2.7,0.8
			C629.5,102.4,630.4,102.1,631.1,101.6z"/>
		<path class="st3" d="M126.8,129.4c-0.5-0.5-0.7-1.1-0.7-2c0-0.9,0.2-1.5,0.7-2c0.5-0.5,1.2-0.7,2.2-0.7c1,0,1.7,0.2,2.2,0.7
			c0.5,0.5,0.7,1.1,0.7,2c0,0.8-0.2,1.5-0.7,2c-0.5,0.5-1.2,0.7-2.2,0.7C128,130.1,127.3,129.9,126.8,129.4z M126.8,159.4v-24.5h4.4
			v24.5H126.8z"/>
		<path class="st3" d="M136.5,134.9h3.7l0.3,2.7h0.2c0.8-1,1.7-1.7,2.8-2.3c1.1-0.5,2.3-0.8,3.6-0.8c2.1,0,3.7,0.6,4.9,1.9
			c1.2,1.3,1.8,3.3,1.8,6.1v16.9h-4.4v-16.6c0-1.6-0.3-2.7-0.9-3.4c-0.6-0.7-1.5-1-2.7-1c-0.9,0-1.8,0.2-2.7,0.7
			c-0.9,0.5-1.6,1.2-2.2,2.1v18.1h-4.4V134.9z"/>
		<path class="st3" d="M172.8,134.9h4.4l-7.6,24.5h-5.7l-7.6-24.5h4.6l6,20.2L172.8,134.9z"/>
		<path class="st3" d="M196.2,148.6h-13.1c0,1.9,0.3,3.4,0.8,4.5c0.5,1.1,1.2,1.9,2.1,2.4s2.2,0.7,3.8,0.7c1.5,0,3.3-0.3,5.3-0.9
			v3.6c-2,0.6-3.9,0.9-5.8,0.9c-2.5,0-4.5-0.4-6-1.3c-1.6-0.8-2.7-2.2-3.5-4.1c-0.8-1.9-1.2-4.3-1.2-7.4c0-4.3,0.8-7.4,2.4-9.5
			s3.8-3.1,6.7-3.1c2.8,0,4.9,1,6.3,3.1c1.4,2,2.2,5.2,2.2,9.6V148.6z M184.4,139.4c-0.8,1.2-1.2,3.3-1.2,6.3h8.9
			c0-2.1-0.2-3.7-0.6-4.8c-0.3-1.2-0.8-2-1.5-2.5c-0.6-0.5-1.4-0.7-2.3-0.7C186.3,137.6,185.2,138.2,184.4,139.4z"/>
		<path class="st3" d="M199.4,158.9v-3.6c1.9,0.6,3.8,1,5.7,1c1.6,0,2.8-0.3,3.6-0.9c0.8-0.6,1.2-1.5,1.2-2.7c0-1-0.2-1.7-0.7-2.3
			c-0.5-0.5-1.2-0.9-2.2-1.2l-2.7-0.7c-1.9-0.5-3.3-1.3-4.2-2.4c-0.9-1.1-1.3-2.5-1.3-4.3c0-1.4,0.3-2.7,1-3.8
			c0.7-1.1,1.7-1.9,3.1-2.5c1.3-0.6,3-0.9,4.9-0.9c1.7,0,3.3,0.2,4.9,0.6v3.6c-0.8-0.2-1.6-0.4-2.3-0.4c-0.7-0.1-1.5-0.1-2.4-0.1
			c-1.7,0-3,0.3-3.9,1c-0.8,0.7-1.3,1.5-1.3,2.6c0,0.9,0.2,1.6,0.7,2.1c0.5,0.5,1.2,0.9,2.1,1.2l2.7,0.7c2,0.5,3.4,1.3,4.3,2.4
			c0.9,1.1,1.3,2.6,1.3,4.4c0,1.5-0.3,2.8-1,3.9c-0.7,1.1-1.7,2-3,2.5c-1.3,0.6-2.9,0.9-4.7,0.9
			C203.1,159.8,201.2,159.5,199.4,158.9z"/>
		<path class="st3" d="M229.5,155.7v3.7c-1.2,0.3-2.3,0.4-3.4,0.4c-2.4,0-4.2-0.6-5.5-1.9c-1.3-1.3-1.9-3.3-1.9-6.1v-13.3h-4v-3.6h4
			l0.8-8.8h3.6v8.8h6.1v3.6h-6.1v12.8c0,1.2,0.1,2.1,0.4,2.8s0.7,1.2,1.3,1.5s1.3,0.4,2.3,0.4C227.7,156,228.5,155.9,229.5,155.7z"
			/>
		<path class="st3" d="M248.7,148.6h-13.1c0,1.9,0.3,3.4,0.8,4.5c0.5,1.1,1.2,1.9,2.1,2.4s2.2,0.7,3.8,0.7c1.5,0,3.3-0.3,5.3-0.9
			v3.6c-2,0.6-3.9,0.9-5.8,0.9c-2.5,0-4.5-0.4-6-1.3c-1.6-0.8-2.7-2.2-3.5-4.1c-0.8-1.9-1.2-4.3-1.2-7.4c0-4.3,0.8-7.4,2.4-9.5
			s3.8-3.1,6.7-3.1c2.8,0,4.9,1,6.3,3.1c1.4,2,2.2,5.2,2.2,9.6V148.6z M236.8,139.4c-0.8,1.2-1.2,3.3-1.2,6.3h8.9
			c0-2.1-0.2-3.7-0.6-4.8c-0.3-1.2-0.8-2-1.5-2.5c-0.6-0.5-1.4-0.7-2.3-0.7C238.7,137.6,237.6,138.2,236.8,139.4z"/>
		<path class="st3" d="M257.1,154.6c0.5,0.7,0.8,1.6,0.8,2.9c0,1.6-0.2,3.1-0.7,4.7c-0.5,1.6-1.1,3-1.8,4.3h-2.6
			c0.5-1.4,0.9-2.6,1.2-3.7c0.3-1.1,0.5-2.2,0.6-3.3c-0.8-0.1-1.5-0.4-2-0.9c-0.5-0.5-0.8-1.2-0.8-2.1c0-0.9,0.3-1.7,0.8-2.2
			c0.5-0.5,1.3-0.8,2.1-0.8C255.8,153.6,256.6,154,257.1,154.6z"/>
		<path class="st3" d="M285.8,134.9h4.4l-7.6,24.5h-5.7l-7.6-24.5h4.6l6,20.2L285.8,134.9z"/>
		<path class="st3" d="M294.1,156.8c-1.6-2-2.4-5.2-2.4-9.6c0-4.4,0.8-7.6,2.4-9.6c1.6-2,3.9-3.1,7-3.1c3,0,5.3,1,7,3.1
			c1.6,2.1,2.4,5.3,2.4,9.6c0,8.4-3.1,12.6-9.4,12.6C298.1,159.8,295.7,158.8,294.1,156.8z M303.8,155.6c0.7-0.5,1.3-1.5,1.6-2.8
			c0.4-1.3,0.6-3.2,0.6-5.5c0-2.4-0.2-4.3-0.6-5.6c-0.4-1.4-0.9-2.3-1.6-2.9s-1.6-0.8-2.7-0.8c-1.1,0-2,0.3-2.7,0.8
			c-0.7,0.5-1.3,1.5-1.7,2.8c-0.4,1.3-0.6,3.2-0.6,5.5c0,2.4,0.2,4.3,0.6,5.6c0.4,1.4,0.9,2.3,1.6,2.8c0.7,0.5,1.6,0.8,2.7,0.8
			C302.2,156.4,303.1,156.1,303.8,155.6z"/>
		<path class="st3" d="M316.3,156.8c-1.7-2-2.5-5.2-2.5-9.7c0-4.5,0.9-7.7,2.7-9.7c1.8-2,4.5-3,8.1-3c1.5,0,2.9,0.2,4.2,0.5v3.7
			c-1.2-0.3-2.3-0.4-3.4-0.4c-1.6,0-3,0.3-4,0.8s-1.8,1.4-2.3,2.7s-0.7,3-0.7,5.2c0,2.3,0.2,4.1,0.7,5.4c0.5,1.3,1.1,2.2,2,2.8
			c0.9,0.6,2.1,0.8,3.5,0.8c1.2,0,2.6-0.3,4.2-0.8v3.7c-1.7,0.6-3.4,0.9-5.1,0.9C320.4,159.8,317.9,158.8,316.3,156.8z"/>
		<path class="st3" d="M348.2,148.6h-13.1c0,1.9,0.3,3.4,0.8,4.5c0.5,1.1,1.2,1.9,2.1,2.4s2.2,0.7,3.8,0.7c1.5,0,3.3-0.3,5.3-0.9
			v3.6c-2,0.6-3.9,0.9-5.8,0.9c-2.5,0-4.5-0.4-6-1.3c-1.6-0.8-2.7-2.2-3.5-4.1c-0.8-1.9-1.2-4.3-1.2-7.4c0-4.3,0.8-7.4,2.4-9.5
			s3.8-3.1,6.7-3.1c2.8,0,4.9,1,6.3,3.1c1.4,2,2.2,5.2,2.2,9.6V148.6z M345.6,131.3h-3.1l-2.9-6.2l-2.9,6.2h-3.1l4.1-8.3h3.9
			L345.6,131.3z M336.3,139.4c-0.8,1.2-1.2,3.3-1.2,6.3h8.9c0-2.1-0.2-3.7-0.6-4.8c-0.3-1.2-0.8-2-1.5-2.5c-0.6-0.5-1.4-0.7-2.3-0.7
			C338.2,137.6,337.1,138.2,336.3,139.4z"/>
		<path class="st3" d="M373.3,135.3c1.3,0.6,2.2,1.5,2.9,2.8s1,3,1,5.2v16h-3.6l-0.3-2.7h-0.2c-0.6,1-1.4,1.8-2.5,2.3
			s-2.1,0.8-3.4,0.8c-1.3,0-2.5-0.3-3.5-0.8s-1.8-1.3-2.3-2.3c-0.6-1-0.8-2.2-0.8-3.6c0-2.3,0.7-4,2-5.2c1.3-1.2,3.5-2,6.3-2.2
			l4.1-0.4v-2c0-1.3-0.2-2.3-0.6-3s-0.9-1.2-1.7-1.6c-0.8-0.3-1.7-0.5-3-0.5c-0.8,0-1.8,0.1-2.8,0.2c-1,0.2-2,0.4-2.9,0.7v-3.6
			c0.9-0.3,2-0.5,3.1-0.7c1.2-0.2,2.3-0.2,3.3-0.2C370.3,134.5,372,134.8,373.3,135.3z M370.8,155.8c0.8-0.4,1.5-1.1,2-2V148
			l-3.7,0.4c-1.5,0.1-2.6,0.6-3.3,1.3c-0.7,0.7-1.1,1.7-1.1,2.9c0,1.3,0.3,2.3,1,2.9c0.6,0.6,1.5,1,2.7,1
			C369.2,156.4,370,156.2,370.8,155.8z"/>
		<path class="st3" d="M383.6,156.8c-1.7-2-2.5-5.2-2.5-9.7c0-4.5,0.9-7.7,2.7-9.7c1.8-2,4.5-3,8.1-3c1.5,0,2.9,0.2,4.2,0.5v3.7
			c-1.2-0.3-2.3-0.4-3.4-0.4c-1.6,0-3,0.3-4,0.8s-1.8,1.4-2.3,2.7s-0.7,3-0.7,5.2c0,2.3,0.2,4.1,0.7,5.4c0.5,1.3,1.1,2.2,2,2.8
			c0.9,0.6,2.1,0.8,3.5,0.8c1.2,0,2.6-0.3,4.2-0.8v3.7c-1.7,0.6-3.4,0.9-5.1,0.9C387.7,159.8,385.3,158.8,383.6,156.8z"/>
		<path class="st3" d="M410.9,135.3c1.3,0.6,2.2,1.5,2.9,2.8s1,3,1,5.2v16h-3.6l-0.3-2.7h-0.2c-0.6,1-1.4,1.8-2.5,2.3
			s-2.1,0.8-3.4,0.8c-1.3,0-2.5-0.3-3.5-0.8s-1.8-1.3-2.3-2.3c-0.6-1-0.8-2.2-0.8-3.6c0-2.3,0.7-4,2-5.2c1.3-1.2,3.5-2,6.3-2.2
			l4.1-0.4v-2c0-1.3-0.2-2.3-0.6-3s-0.9-1.2-1.7-1.6c-0.8-0.3-1.7-0.5-3-0.5c-0.8,0-1.8,0.1-2.8,0.2c-1,0.2-2,0.4-2.9,0.7v-3.6
			c0.9-0.3,2-0.5,3.1-0.7c1.2-0.2,2.3-0.2,3.3-0.2C408,134.5,409.6,134.8,410.9,135.3z M408.4,155.8c0.8-0.4,1.5-1.1,2-2V148
			l-3.7,0.4c-1.5,0.1-2.6,0.6-3.3,1.3c-0.7,0.7-1.1,1.7-1.1,2.9c0,1.3,0.3,2.3,1,2.9c0.6,0.6,1.5,1,2.7,1
			C406.8,156.4,407.6,156.2,408.4,155.8z"/>
		<path class="st3" d="M423,159.5c-1.2-0.2-2.3-0.5-3.2-0.8V123h4.4v14.3h0.2c0.5-0.8,1.3-1.5,2.2-2c0.9-0.5,2-0.8,3.2-0.8
			c1.5,0,2.9,0.4,4.1,1.2c1.2,0.8,2.2,2.1,2.9,3.9s1.1,4.2,1.1,7.1c0,4.4-0.9,7.7-2.8,9.8s-4.7,3.2-8.5,3.2
			C425.4,159.8,424.2,159.7,423,159.5z M430.4,155.4c1-0.6,1.7-1.6,2.2-2.9c0.5-1.3,0.8-3.1,0.8-5.4c0-2.3-0.2-4.1-0.6-5.4
			c-0.4-1.3-1-2.2-1.8-2.7c-0.8-0.5-1.7-0.7-2.7-0.7c-0.8,0-1.6,0.2-2.3,0.6c-0.7,0.4-1.3,0.9-1.7,1.6v15.4c0.4,0.1,0.8,0.2,1.3,0.2
			c0.5,0.1,0.9,0.1,1.3,0.1C428.3,156.3,429.5,156,430.4,155.4z"/>
		<path class="st3" d="M453.7,135.3c1.3,0.6,2.2,1.5,2.9,2.8s1,3,1,5.2v16h-3.6l-0.3-2.7h-0.2c-0.6,1-1.4,1.8-2.5,2.3
			s-2.1,0.8-3.4,0.8c-1.3,0-2.5-0.3-3.5-0.8s-1.8-1.3-2.3-2.3c-0.6-1-0.8-2.2-0.8-3.6c0-2.3,0.7-4,2-5.2c1.3-1.2,3.5-2,6.3-2.2
			l4.1-0.4v-2c0-1.3-0.2-2.3-0.6-3s-0.9-1.2-1.7-1.6c-0.8-0.3-1.7-0.5-3-0.5c-0.8,0-1.8,0.1-2.8,0.2c-1,0.2-2,0.4-2.9,0.7v-3.6
			c0.9-0.3,2-0.5,3.1-0.7c1.2-0.2,2.3-0.2,3.3-0.2C450.8,134.5,452.4,134.8,453.7,135.3z M451.2,155.8c0.8-0.4,1.5-1.1,2-2V148
			l-3.7,0.4c-1.5,0.1-2.6,0.6-3.3,1.3c-0.7,0.7-1.1,1.7-1.1,2.9c0,1.3,0.3,2.3,1,2.9c0.6,0.6,1.5,1,2.7,1
			C449.6,156.4,450.4,156.2,451.2,155.8z"/>
		<path class="st3" d="M472.2,134.9h3.7l0.3,2.6h0.2c0.5-0.9,1.3-1.6,2.2-2.1c0.9-0.5,2-0.8,3.2-0.8c1.6,0,3,0.4,4.2,1.2
			s2.2,2.1,3,3.9s1.1,4.2,1.1,7c0,4.4-0.9,7.7-2.8,9.9c-1.9,2.2-4.8,3.2-8.6,3.2c-0.6,0-1.3,0-2.2-0.1v9.6h-4.4V134.9z M482.8,155.4
			c1-0.6,1.7-1.6,2.2-2.9c0.5-1.4,0.8-3.1,0.8-5.4c0-2.3-0.2-4.1-0.6-5.4c-0.4-1.3-1-2.2-1.7-2.7c-0.7-0.5-1.6-0.7-2.7-0.7
			c-0.8,0-1.6,0.2-2.4,0.6c-0.8,0.4-1.3,1-1.8,1.7v15.4c0.3,0.1,0.7,0.1,1.2,0.2s0.9,0.1,1.3,0.1C480.6,156.3,481.8,156,482.8,155.4
			z"/>
		<path class="st3" d="M511.1,148.6H498c0,1.9,0.3,3.4,0.8,4.5c0.5,1.1,1.2,1.9,2.1,2.4s2.2,0.7,3.8,0.7c1.5,0,3.3-0.3,5.3-0.9v3.6
			c-2,0.6-3.9,0.9-5.8,0.9c-2.5,0-4.5-0.4-6-1.3c-1.6-0.8-2.7-2.2-3.5-4.1c-0.8-1.9-1.2-4.3-1.2-7.4c0-4.3,0.8-7.4,2.4-9.5
			s3.8-3.1,6.7-3.1c2.8,0,4.9,1,6.3,3.1c1.4,2,2.2,5.2,2.2,9.6V148.6z M499.2,139.4c-0.8,1.2-1.2,3.3-1.2,6.3h8.9
			c0-2.1-0.2-3.7-0.6-4.8c-0.3-1.2-0.8-2-1.5-2.5c-0.6-0.5-1.4-0.7-2.3-0.7C501.1,137.6,500,138.2,499.2,139.4z"/>
		<path class="st3" d="M515,134.9h3.6l0.4,3.4h0.2c0.7-1.2,1.5-2.1,2.6-2.7c1-0.6,2.2-0.9,3.5-0.9c0.5,0,1,0,1.5,0.1v4.1
			c-0.5-0.1-1-0.1-1.7-0.1c-1.1,0-2.2,0.3-3.3,0.9s-1.8,1.4-2.4,2.4v17.4H515V134.9z"/>
		<path class="st3" d="M532.3,158.6c-1.2-0.8-2.2-2.1-3-3.9c-0.8-1.8-1.1-4.2-1.1-7c0-4.4,1-7.7,2.9-9.9c1.9-2.2,4.8-3.2,8.6-3.2
			c0.8,0,1.5,0,2.2,0.1V123h4.4v36.4h-3.7l-0.3-2.5h-0.2c-0.5,0.9-1.3,1.6-2.2,2.2c-0.9,0.5-2,0.8-3.2,0.8
			C534.9,159.8,533.5,159.4,532.3,158.6z M540.1,155.4c0.8-0.4,1.3-1,1.8-1.7v-15.4c-0.3-0.1-0.7-0.1-1.2-0.2
			c-0.5,0-0.9-0.1-1.3-0.1c-1.5,0-2.7,0.3-3.7,0.9c-1,0.6-1.7,1.6-2.2,2.9c-0.5,1.3-0.8,3.1-0.8,5.4c0,2.3,0.2,4.1,0.6,5.4
			c0.4,1.3,1,2.2,1.7,2.7c0.7,0.5,1.6,0.7,2.7,0.7C538.5,156,539.3,155.8,540.1,155.4z"/>
		<path class="st3" d="M568,148.6h-13.1c0,1.9,0.3,3.4,0.8,4.5c0.5,1.1,1.2,1.9,2.1,2.4s2.2,0.7,3.8,0.7c1.5,0,3.3-0.3,5.3-0.9v3.6
			c-2,0.6-3.9,0.9-5.8,0.9c-2.5,0-4.5-0.4-6-1.3c-1.6-0.8-2.7-2.2-3.5-4.1c-0.8-1.9-1.2-4.3-1.2-7.4c0-4.3,0.8-7.4,2.4-9.5
			s3.8-3.1,6.7-3.1c2.8,0,4.9,1,6.3,3.1c1.4,2,2.2,5.2,2.2,9.6V148.6z M556.1,139.4c-0.8,1.2-1.2,3.3-1.2,6.3h8.9
			c0-2.1-0.2-3.7-0.6-4.8c-0.3-1.2-0.8-2-1.5-2.5c-0.6-0.5-1.4-0.7-2.3-0.7C558,137.6,556.9,138.2,556.1,139.4z"/>
		<path class="st3" d="M571.9,134.9h3.7l0.3,2.7h0.2c0.8-1,1.7-1.7,2.8-2.3c1.1-0.5,2.3-0.8,3.6-0.8c2.1,0,3.7,0.6,4.9,1.9
			c1.2,1.3,1.8,3.3,1.8,6.1v16.9h-4.4v-16.6c0-1.6-0.3-2.7-0.9-3.4c-0.6-0.7-1.5-1-2.7-1c-0.9,0-1.8,0.2-2.7,0.7
			c-0.9,0.5-1.6,1.2-2.2,2.1v18.1h-4.4V134.9z"/>
		<path class="st3" d="M597.4,158.6c-1.2-0.8-2.2-2.1-3-3.9c-0.8-1.8-1.1-4.2-1.1-7c0-4.4,1-7.7,2.9-9.9c1.9-2.2,4.8-3.2,8.6-3.2
			c0.8,0,1.5,0,2.2,0.1V123h4.4v36.4h-3.7l-0.3-2.5H607c-0.5,0.9-1.3,1.6-2.2,2.2c-0.9,0.5-2,0.8-3.2,0.8
			C600,159.8,598.6,159.4,597.4,158.6z M605.2,155.4c0.8-0.4,1.3-1,1.8-1.7v-15.4c-0.3-0.1-0.7-0.1-1.2-0.2c-0.5,0-0.9-0.1-1.3-0.1
			c-1.5,0-2.7,0.3-3.7,0.9c-1,0.6-1.7,1.6-2.2,2.9c-0.5,1.3-0.8,3.1-0.8,5.4c0,2.3,0.2,4.1,0.6,5.4c0.4,1.3,1,2.2,1.7,2.7
			c0.7,0.5,1.6,0.7,2.7,0.7C603.6,156,604.4,155.8,605.2,155.4z"/>
		<path class="st3" d="M617.9,156.8c-1.6-2-2.4-5.2-2.4-9.6c0-4.4,0.8-7.6,2.4-9.6c1.6-2,3.9-3.1,7-3.1c3,0,5.3,1,7,3.1
			c1.6,2.1,2.4,5.3,2.4,9.6c0,8.4-3.1,12.6-9.4,12.6C621.9,159.8,619.6,158.8,617.9,156.8z M627.6,155.6c0.7-0.5,1.3-1.5,1.6-2.8
			c0.4-1.3,0.6-3.2,0.6-5.5c0-2.4-0.2-4.3-0.6-5.6c-0.4-1.4-0.9-2.3-1.6-2.9s-1.6-0.8-2.7-0.8c-1.1,0-2,0.3-2.7,0.8
			c-0.7,0.5-1.3,1.5-1.7,2.8c-0.4,1.3-0.6,3.2-0.6,5.5c0,2.4,0.2,4.3,0.6,5.6c0.4,1.4,0.9,2.3,1.6,2.8c0.7,0.5,1.6,0.8,2.7,0.8
			C626,156.4,626.9,156.1,627.6,155.6z"/>
		<path class="st3" d="M177,212.6c-1.2-0.8-2.2-2.1-3-3.9c-0.8-1.8-1.1-4.2-1.1-7c0-4.4,1-7.7,2.9-9.9c1.9-2.2,4.8-3.2,8.6-3.2
			c0.8,0,1.5,0,2.2,0.1V177h4.4v36.4h-3.7l-0.3-2.5h-0.2c-0.5,0.9-1.3,1.6-2.2,2.2c-0.9,0.5-2,0.8-3.2,0.8
			C179.7,213.8,178.3,213.4,177,212.6z M184.8,209.4c0.8-0.4,1.3-1,1.8-1.7v-15.4c-0.3-0.1-0.7-0.1-1.2-0.2c-0.5,0-0.9-0.1-1.3-0.1
			c-1.5,0-2.7,0.3-3.7,0.9c-1,0.6-1.7,1.6-2.2,2.9c-0.5,1.3-0.8,3.1-0.8,5.4c0,2.3,0.2,4.1,0.6,5.4c0.4,1.3,1,2.2,1.7,2.7
			c0.7,0.5,1.6,0.7,2.7,0.7C183.3,210,184.1,209.8,184.8,209.4z"/>
		<path class="st3" d="M196.3,183.4c-0.5-0.5-0.7-1.1-0.7-2c0-0.9,0.2-1.5,0.7-2c0.5-0.5,1.2-0.7,2.2-0.7c1,0,1.7,0.2,2.2,0.7
			c0.5,0.5,0.7,1.1,0.7,2c0,0.8-0.2,1.5-0.7,2c-0.5,0.5-1.2,0.7-2.2,0.7C197.5,184.1,196.8,183.9,196.3,183.4z M196.3,213.4v-24.5
			h4.4v24.5H196.3z"/>
		<path class="st3" d="M206,188.9h3.7l0.3,2.7h0.2c0.8-1,1.7-1.7,2.8-2.3c1.1-0.5,2.3-0.8,3.6-0.8c2.1,0,3.7,0.6,4.9,1.9
			c1.2,1.3,1.8,3.3,1.8,6.1v16.9h-4.4v-16.6c0-1.6-0.3-2.7-0.9-3.4c-0.6-0.7-1.5-1-2.7-1c-0.9,0-1.8,0.2-2.7,0.7
			c-0.9,0.5-1.6,1.2-2.2,2.1v18.1H206V188.9z"/>
		<path class="st3" d="M228.4,177h4.4v14.6h0.2c1.5-2,3.6-3.1,6.2-3.1c2,0,3.5,0.6,4.7,1.9c1.2,1.3,1.8,3.3,1.8,6.2v16.8h-4.4v-16.5
			c0-1.6-0.3-2.7-0.9-3.4c-0.6-0.7-1.5-1-2.7-1c-0.9,0-1.8,0.2-2.7,0.7c-0.9,0.5-1.6,1.1-2.2,2.1v18.1h-4.4V177z"/>
		<path class="st3" d="M267.3,202.6h-13.1c0,1.9,0.3,3.4,0.8,4.5c0.5,1.1,1.2,1.9,2.1,2.4s2.2,0.7,3.8,0.7c1.5,0,3.3-0.3,5.3-0.9
			v3.6c-2,0.6-3.9,0.9-5.8,0.9c-2.5,0-4.5-0.4-6-1.3c-1.6-0.8-2.7-2.2-3.5-4.1c-0.8-1.9-1.2-4.3-1.2-7.4c0-4.3,0.8-7.4,2.4-9.5
			s3.8-3.1,6.7-3.1c2.8,0,4.9,1,6.3,3.1c1.4,2,2.2,5.2,2.2,9.6V202.6z M255.4,193.4c-0.8,1.2-1.2,3.3-1.2,6.3h8.9
			c0-2.1-0.2-3.7-0.6-4.8c-0.3-1.2-0.8-2-1.5-2.5c-0.6-0.5-1.4-0.7-2.3-0.7C257.3,191.6,256.2,192.2,255.4,193.4z"/>
		<path class="st3" d="M271.2,183.4c-0.5-0.5-0.7-1.1-0.7-2c0-0.9,0.2-1.5,0.7-2c0.5-0.5,1.2-0.7,2.2-0.7c1,0,1.7,0.2,2.2,0.7
			c0.5,0.5,0.7,1.1,0.7,2c0,0.8-0.2,1.5-0.7,2c-0.5,0.5-1.2,0.7-2.2,0.7C272.4,184.1,271.7,183.9,271.2,183.4z M271.2,213.4v-24.5
			h4.4v24.5H271.2z"/>
		<path class="st3" d="M280.9,188.9h3.6l0.4,3.4h0.2c0.7-1.2,1.5-2.1,2.6-2.7c1-0.6,2.2-0.9,3.5-0.9c0.5,0,1,0,1.5,0.1v4.1
			c-0.5-0.1-1-0.1-1.7-0.1c-1.1,0-2.2,0.3-3.3,0.9s-1.8,1.4-2.4,2.4v17.4h-4.4V188.9z"/>
		<path class="st3" d="M296.5,210.8c-1.6-2-2.4-5.2-2.4-9.6c0-4.4,0.8-7.6,2.4-9.6c1.6-2,3.9-3.1,7-3.1c3,0,5.3,1,7,3.1
			c1.6,2.1,2.4,5.3,2.4,9.6c0,8.4-3.1,12.6-9.4,12.6C300.4,213.8,298.1,212.8,296.5,210.8z M306.1,209.6c0.7-0.5,1.3-1.5,1.6-2.8
			c0.4-1.3,0.6-3.2,0.6-5.5c0-2.4-0.2-4.3-0.6-5.6c-0.4-1.4-0.9-2.3-1.6-2.9s-1.6-0.8-2.7-0.8c-1.1,0-2,0.3-2.7,0.8
			c-0.7,0.5-1.3,1.5-1.7,2.8c-0.4,1.3-0.6,3.2-0.6,5.5c0,2.4,0.2,4.3,0.6,5.6c0.4,1.4,0.9,2.3,1.6,2.8c0.7,0.5,1.6,0.8,2.7,0.8
			C304.5,210.4,305.4,210.1,306.1,209.6z"/>
		<path class="st3" d="M320.9,208.6c0.5,0.7,0.8,1.6,0.8,2.9c0,1.6-0.2,3.1-0.7,4.7c-0.5,1.6-1.1,3-1.8,4.3h-2.6
			c0.5-1.4,0.9-2.6,1.2-3.7c0.3-1.1,0.5-2.2,0.6-3.3c-0.8-0.1-1.5-0.4-2-0.9c-0.5-0.5-0.8-1.2-0.8-2.1c0-0.9,0.3-1.7,0.8-2.2
			c0.5-0.5,1.3-0.8,2.1-0.8C319.6,207.6,320.4,208,320.9,208.6z"/>
		<path class="st3" d="M352.2,202.6h-13.1c0,1.9,0.3,3.4,0.8,4.5c0.5,1.1,1.2,1.9,2.1,2.4s2.2,0.7,3.8,0.7c1.5,0,3.3-0.3,5.3-0.9
			v3.6c-2,0.6-3.9,0.9-5.8,0.9c-2.5,0-4.5-0.4-6-1.3c-1.6-0.8-2.7-2.2-3.5-4.1c-0.8-1.9-1.2-4.3-1.2-7.4c0-4.3,0.8-7.4,2.4-9.5
			s3.8-3.1,6.7-3.1c2.8,0,4.9,1,6.3,3.1c1.4,2,2.2,5.2,2.2,9.6V202.6z M340.3,193.4c-0.8,1.2-1.2,3.3-1.2,6.3h8.9
			c0-2.1-0.2-3.7-0.6-4.8c-0.3-1.2-0.8-2-1.5-2.5c-0.6-0.5-1.4-0.7-2.3-0.7C342.2,191.6,341.1,192.2,340.3,193.4z"/>
		<path class="st3" d="M356.1,188.9h3.7l0.3,2.7h0.2c0.8-1,1.7-1.7,2.8-2.3c1.1-0.5,2.3-0.8,3.6-0.8c2.1,0,3.7,0.6,4.9,1.9
			c1.2,1.3,1.8,3.3,1.8,6.1v16.9h-4.4v-16.6c0-1.6-0.3-2.7-0.9-3.4c-0.6-0.7-1.5-1-2.7-1c-0.9,0-1.8,0.2-2.7,0.7
			c-0.9,0.5-1.6,1.2-2.2,2.1v18.1h-4.4V188.9z"/>
		<path class="st3" d="M390.7,209.7v3.7c-1.2,0.3-2.3,0.4-3.4,0.4c-2.4,0-4.2-0.6-5.5-1.9c-1.3-1.3-1.9-3.3-1.9-6.1v-13.3h-4v-3.6h4
			l0.8-8.8h3.6v8.8h6.1v3.6h-6.1v12.8c0,1.2,0.1,2.1,0.4,2.8s0.7,1.2,1.3,1.5s1.3,0.4,2.3,0.4C388.9,210,389.7,209.9,390.7,209.7z"
			/>
		<path class="st3" d="M405.3,189.3c1.3,0.6,2.2,1.5,2.9,2.8s1,3,1,5.2v16h-3.6l-0.3-2.7h-0.2c-0.6,1-1.4,1.8-2.5,2.3
			s-2.1,0.8-3.4,0.8c-1.3,0-2.5-0.3-3.5-0.8s-1.8-1.3-2.3-2.3c-0.6-1-0.8-2.2-0.8-3.6c0-2.3,0.7-4,2-5.2c1.3-1.2,3.5-2,6.3-2.2
			l4.1-0.4v-2c0-1.3-0.2-2.3-0.6-3s-0.9-1.2-1.7-1.6c-0.8-0.3-1.7-0.5-3-0.5c-0.8,0-1.8,0.1-2.8,0.2c-1,0.2-2,0.4-2.9,0.7v-3.6
			c0.9-0.3,2-0.5,3.1-0.7c1.2-0.2,2.3-0.2,3.3-0.2C402.3,188.5,404,188.8,405.3,189.3z M402.6,183.2c-0.5-0.2-1.1-0.4-1.8-0.8
			c-0.6-0.3-1.1-0.5-1.5-0.7s-0.8-0.2-1.2-0.2c-0.7,0-1.3,0.1-1.9,0.4s-1.1,0.7-1.7,1.4v-3.1c0.9-1,2.1-1.6,3.6-1.6
			c0.5,0,1.1,0.1,1.6,0.3c0.5,0.2,1.1,0.4,1.8,0.8c0.6,0.3,1.1,0.5,1.5,0.7s0.8,0.2,1.2,0.2c0.7,0,1.3-0.1,1.9-0.4
			c0.6-0.3,1.1-0.7,1.6-1.4v3.1c-0.9,1.1-2.1,1.6-3.6,1.6C403.6,183.5,403.1,183.4,402.6,183.2z M402.8,209.8c0.8-0.4,1.5-1.1,2-2
			V202l-3.7,0.4c-1.5,0.1-2.6,0.6-3.3,1.3c-0.7,0.7-1.1,1.7-1.1,2.9c0,1.3,0.3,2.3,1,2.9c0.6,0.6,1.5,1,2.7,1
			C401.2,210.4,402,210.2,402.8,209.8z"/>
		<path class="st3" d="M415.5,210.8c-1.6-2-2.4-5.2-2.4-9.6c0-4.4,0.8-7.6,2.4-9.6c1.6-2,3.9-3.1,7-3.1c3,0,5.3,1,7,3.1
			c1.6,2.1,2.4,5.3,2.4,9.6c0,8.4-3.1,12.6-9.4,12.6C419.5,213.8,417.2,212.8,415.5,210.8z M425.2,209.6c0.7-0.5,1.3-1.5,1.6-2.8
			c0.4-1.3,0.6-3.2,0.6-5.5c0-2.4-0.2-4.3-0.6-5.6c-0.4-1.4-0.9-2.3-1.6-2.9s-1.6-0.8-2.7-0.8c-1.1,0-2,0.3-2.7,0.8
			c-0.7,0.5-1.3,1.5-1.7,2.8c-0.4,1.3-0.6,3.2-0.6,5.5c0,2.4,0.2,4.3,0.6,5.6c0.4,1.4,0.9,2.3,1.6,2.8c0.7,0.5,1.6,0.8,2.7,0.8
			C423.6,210.4,424.5,210.1,425.2,209.6z"/>
		<path class="st3" d="M445.7,183.4c-0.5-0.5-0.7-1.1-0.7-2c0-0.9,0.2-1.5,0.7-2c0.5-0.5,1.2-0.7,2.2-0.7c1,0,1.7,0.2,2.2,0.7
			c0.5,0.5,0.7,1.1,0.7,2c0,0.8-0.2,1.5-0.7,2c-0.5,0.5-1.2,0.7-2.2,0.7C446.9,184.1,446.2,183.9,445.7,183.4z M445.7,213.4v-24.5
			h4.4v24.5H445.7z"/>
		<path class="st3" d="M455.3,188.9h3.7l0.3,2.7h0.2c0.8-1,1.7-1.7,2.8-2.3c1.1-0.5,2.3-0.8,3.6-0.8c2.1,0,3.7,0.6,4.9,1.9
			c1.2,1.3,1.8,3.3,1.8,6.1v16.9h-4.4v-16.6c0-1.6-0.3-2.7-0.9-3.4c-0.6-0.7-1.5-1-2.7-1c-0.9,0-1.8,0.2-2.7,0.7
			c-0.9,0.5-1.6,1.2-2.2,2.1v18.1h-4.4V188.9z"/>
		<path class="st3" d="M491.7,188.9h4.4l-7.6,24.5h-5.7l-7.6-24.5h4.6l6,20.2L491.7,188.9z"/>
		<path class="st3" d="M498.8,183.4c-0.5-0.5-0.7-1.1-0.7-2c0-0.9,0.2-1.5,0.7-2c0.5-0.5,1.2-0.7,2.2-0.7c1,0,1.7,0.2,2.2,0.7
			c0.5,0.5,0.7,1.1,0.7,2c0,0.8-0.2,1.5-0.7,2c-0.5,0.5-1.2,0.7-2.2,0.7C500,184.1,499.3,183.9,498.8,183.4z M498.8,213.4v-24.5h4.4
			v24.5H498.8z"/>
		<path class="st3" d="M507.7,212.9v-3.6c1.9,0.6,3.8,1,5.7,1c1.6,0,2.8-0.3,3.6-0.9c0.8-0.6,1.2-1.5,1.2-2.7c0-1-0.2-1.7-0.7-2.3
			c-0.5-0.5-1.2-0.9-2.2-1.2l-2.7-0.7c-1.9-0.5-3.3-1.3-4.2-2.4c-0.9-1.1-1.3-2.5-1.3-4.3c0-1.4,0.3-2.7,1-3.8
			c0.7-1.1,1.7-1.9,3.1-2.5c1.3-0.6,3-0.9,4.9-0.9c1.7,0,3.3,0.2,4.9,0.6v3.6c-0.8-0.2-1.6-0.4-2.3-0.4c-0.7-0.1-1.5-0.1-2.4-0.1
			c-1.7,0-3,0.3-3.9,1c-0.8,0.7-1.3,1.5-1.3,2.6c0,0.9,0.2,1.6,0.7,2.1c0.5,0.5,1.2,0.9,2.1,1.2l2.7,0.7c2,0.5,3.4,1.3,4.3,2.4
			c0.9,1.1,1.3,2.6,1.3,4.4c0,1.5-0.3,2.8-1,3.9c-0.7,1.1-1.7,2-3,2.5c-1.3,0.6-2.9,0.9-4.7,0.9
			C511.4,213.8,509.5,213.5,507.7,212.9z"/>
		<path class="st3" d="M537.8,209.7v3.7c-1.2,0.3-2.3,0.4-3.4,0.4c-2.4,0-4.2-0.6-5.5-1.9c-1.3-1.3-1.9-3.3-1.9-6.1v-13.3h-4v-3.6h4
			l0.8-8.8h3.6v8.8h6.1v3.6h-6.1v12.8c0,1.2,0.1,2.1,0.4,2.8s0.7,1.2,1.3,1.5s1.3,0.4,2.3,0.4C536,210,536.8,209.9,537.8,209.7z"/>
		<path class="st3" d="M552.4,189.3c1.3,0.6,2.2,1.5,2.9,2.8s1,3,1,5.2v16h-3.6l-0.3-2.7H552c-0.6,1-1.4,1.8-2.5,2.3
			s-2.1,0.8-3.4,0.8c-1.3,0-2.5-0.3-3.5-0.8s-1.8-1.3-2.3-2.3c-0.6-1-0.8-2.2-0.8-3.6c0-2.3,0.7-4,2-5.2c1.3-1.2,3.5-2,6.3-2.2
			l4.1-0.4v-2c0-1.3-0.2-2.3-0.6-3s-0.9-1.2-1.7-1.6c-0.8-0.3-1.7-0.5-3-0.5c-0.8,0-1.8,0.1-2.8,0.2c-1,0.2-2,0.4-2.9,0.7v-3.6
			c0.9-0.3,2-0.5,3.1-0.7c1.2-0.2,2.3-0.2,3.3-0.2C549.5,188.5,551.1,188.8,552.4,189.3z M549.9,209.8c0.8-0.4,1.5-1.1,2-2V202
			l-3.7,0.4c-1.5,0.1-2.6,0.6-3.3,1.3c-0.7,0.7-1.1,1.7-1.1,2.9c0,1.3,0.3,2.3,1,2.9c0.6,0.6,1.5,1,2.7,1
			C548.3,210.4,549.1,210.2,549.9,209.8z"/>
		<path class="st3" d="M587.3,202.6h-13.1c0,1.9,0.3,3.4,0.8,4.5c0.5,1.1,1.2,1.9,2.1,2.4s2.2,0.7,3.8,0.7c1.5,0,3.3-0.3,5.3-0.9
			v3.6c-2,0.6-3.9,0.9-5.8,0.9c-2.5,0-4.5-0.4-6-1.3c-1.6-0.8-2.7-2.2-3.5-4.1c-0.8-1.9-1.2-4.3-1.2-7.4c0-4.3,0.8-7.4,2.4-9.5
			s3.8-3.1,6.7-3.1c2.8,0,4.9,1,6.3,3.1c1.4,2,2.2,5.2,2.2,9.6V202.6z M575.5,193.4c-0.8,1.2-1.2,3.3-1.2,6.3h8.9
			c0-2.1-0.2-3.7-0.6-4.8c-0.3-1.2-0.8-2-1.5-2.5c-0.6-0.5-1.4-0.7-2.3-0.7C577.4,191.6,576.3,192.2,575.5,193.4z"/>
		<path class="st3" d="M251.2,277.5c-1.1-0.2-2.1-0.4-3-0.7v-3.6c2,0.6,3.9,0.9,5.8,0.9c1.4,0,2.6-0.2,3.5-0.7
			c0.9-0.4,1.6-1.1,2.1-2.1s0.7-2.3,0.7-3.9v-2.5h-0.2c-0.5,0.8-1.3,1.5-2.2,2c-0.9,0.5-2,0.8-3.2,0.8c-1.5,0-2.8-0.4-4-1.2
			c-1.2-0.8-2.2-2.1-2.9-3.9c-0.7-1.8-1.1-4.1-1.1-7c0-4.4,0.9-7.7,2.8-9.8c1.9-2.2,4.7-3.2,8.5-3.3c1.1,0,2.3,0.1,3.5,0.3
			s2.3,0.5,3.2,0.8v23.1c0,3.9-0.9,6.7-2.6,8.4c-1.7,1.7-4.3,2.6-7.8,2.6C253.3,277.7,252.3,277.6,251.2,277.5z M258.6,263.4
			c0.7-0.4,1.3-0.9,1.7-1.6v-15.4c-1-0.2-1.8-0.3-2.6-0.3c-2.2,0-3.8,0.7-4.9,2.1c-1.1,1.4-1.6,3.8-1.6,7.1c0,2.3,0.2,4.1,0.6,5.4
			c0.4,1.3,1,2.2,1.8,2.7c0.8,0.5,1.7,0.7,2.8,0.7C257.1,264,257.9,263.8,258.6,263.4z"/>
		<path class="st3" d="M281.6,243.3c1.3,0.6,2.2,1.5,2.9,2.8s1,3,1,5.2v16h-3.6l-0.3-2.7h-0.2c-0.6,1-1.4,1.8-2.5,2.3
			s-2.1,0.8-3.4,0.8c-1.3,0-2.5-0.3-3.5-0.8s-1.8-1.3-2.3-2.3c-0.6-1-0.8-2.2-0.8-3.6c0-2.3,0.7-4,2-5.2c1.3-1.2,3.5-2,6.3-2.2
			l4.1-0.4v-2c0-1.3-0.2-2.3-0.6-3s-0.9-1.2-1.7-1.6c-0.8-0.3-1.7-0.5-3-0.5c-0.8,0-1.8,0.1-2.8,0.2c-1,0.2-2,0.4-2.9,0.7v-3.6
			c0.9-0.3,2-0.5,3.1-0.7c1.2-0.2,2.3-0.2,3.3-0.2C278.7,242.5,280.3,242.8,281.6,243.3z M279.1,263.8c0.8-0.4,1.5-1.1,2-2V256
			l-3.7,0.4c-1.5,0.1-2.6,0.6-3.3,1.3c-0.7,0.7-1.1,1.7-1.1,2.9c0,1.3,0.3,2.3,1,2.9c0.6,0.6,1.5,1,2.7,1
			C277.5,264.4,278.3,264.2,279.1,263.8z"/>
		<path class="st3" d="M290.6,242.9h3.6l0.4,3.4h0.2c0.7-1.2,1.5-2.1,2.6-2.7c1-0.6,2.2-0.9,3.5-0.9c0.5,0,1,0,1.5,0.1v4.1
			c-0.5-0.1-1-0.1-1.7-0.1c-1.1,0-2.2,0.3-3.3,0.9s-1.8,1.4-2.4,2.4v17.4h-4.4V242.9z"/>
		<path class="st3" d="M316.1,243.3c1.3,0.6,2.2,1.5,2.9,2.8s1,3,1,5.2v16h-3.6l-0.3-2.7h-0.2c-0.6,1-1.4,1.8-2.5,2.3
			s-2.1,0.8-3.4,0.8c-1.3,0-2.5-0.3-3.5-0.8s-1.8-1.3-2.3-2.3c-0.6-1-0.8-2.2-0.8-3.6c0-2.3,0.7-4,2-5.2c1.3-1.2,3.5-2,6.3-2.2
			l4.1-0.4v-2c0-1.3-0.2-2.3-0.6-3s-0.9-1.2-1.7-1.6c-0.8-0.3-1.7-0.5-3-0.5c-0.8,0-1.8,0.1-2.8,0.2c-1,0.2-2,0.4-2.9,0.7v-3.6
			c0.9-0.3,2-0.5,3.1-0.7c1.2-0.2,2.3-0.2,3.3-0.2C313.2,242.5,314.8,242.8,316.1,243.3z M313.6,263.8c0.8-0.4,1.5-1.1,2-2V256
			l-3.7,0.4c-1.5,0.1-2.6,0.6-3.3,1.3c-0.7,0.7-1.1,1.7-1.1,2.9c0,1.3,0.3,2.3,1,2.9c0.6,0.6,1.5,1,2.7,1
			C312.1,264.4,312.9,264.2,313.6,263.8z"/>
		<path class="st3" d="M325.1,242.9h3.7l0.3,2.7h0.2c0.8-1,1.7-1.7,2.8-2.3c1.1-0.5,2.3-0.8,3.6-0.8c2.1,0,3.7,0.6,4.9,1.9
			c1.2,1.3,1.8,3.3,1.8,6.1v16.9H338v-16.6c0-1.6-0.3-2.7-0.9-3.4c-0.6-0.7-1.5-1-2.7-1c-0.9,0-1.8,0.2-2.7,0.7
			c-0.9,0.5-1.6,1.2-2.2,2.1v18.1h-4.4V242.9z"/>
		<path class="st3" d="M359.6,263.7v3.7c-1.2,0.3-2.3,0.4-3.4,0.4c-2.4,0-4.2-0.6-5.5-1.9c-1.3-1.3-1.9-3.3-1.9-6.1v-13.3h-4v-3.6h4
			l0.8-8.8h3.6v8.8h6.1v3.6h-6.1v12.8c0,1.2,0.1,2.1,0.4,2.8s0.7,1.2,1.3,1.5s1.3,0.4,2.3,0.4C357.8,264,358.6,263.9,359.6,263.7z"
			/>
		<path class="st3" d="M374.2,243.3c1.3,0.6,2.2,1.5,2.9,2.8s1,3,1,5.2v16h-3.6l-0.3-2.7h-0.2c-0.6,1-1.4,1.8-2.5,2.3
			s-2.1,0.8-3.4,0.8c-1.3,0-2.5-0.3-3.5-0.8s-1.8-1.3-2.3-2.3c-0.6-1-0.8-2.2-0.8-3.6c0-2.3,0.7-4,2-5.2c1.3-1.2,3.5-2,6.3-2.2
			l4.1-0.4v-2c0-1.3-0.2-2.3-0.6-3s-0.9-1.2-1.7-1.6c-0.8-0.3-1.7-0.5-3-0.5c-0.8,0-1.8,0.1-2.8,0.2c-1,0.2-2,0.4-2.9,0.7v-3.6
			c0.9-0.3,2-0.5,3.1-0.7c1.2-0.2,2.3-0.2,3.3-0.2C371.3,242.5,372.9,242.8,374.2,243.3z M371.7,263.8c0.8-0.4,1.5-1.1,2-2V256
			l-3.7,0.4c-1.5,0.1-2.6,0.6-3.3,1.3c-0.7,0.7-1.1,1.7-1.1,2.9c0,1.3,0.3,2.3,1,2.9c0.6,0.6,1.5,1,2.7,1
			C370.1,264.4,370.9,264.2,371.7,263.8z"/>
		<path class="st3" d="M405.3,265H405c-0.5,0.8-1.3,1.5-2.2,2c-0.9,0.5-2,0.8-3.2,0.8c-1.5,0-2.9-0.4-4.1-1.2
			c-1.2-0.8-2.2-2.1-2.9-3.9c-0.7-1.8-1.1-4.2-1.1-7.1c0-4.4,0.9-7.7,2.8-9.8c1.9-2.2,4.7-3.2,8.5-3.2c1.1,0,2.3,0.1,3.5,0.3
			c1.2,0.2,2.3,0.5,3.2,0.8v33.7h-4.4V265z M403.5,263.4c0.7-0.4,1.3-0.9,1.7-1.6v-15.5c-1-0.2-1.8-0.3-2.6-0.3
			c-2.2,0-3.8,0.7-4.9,2.1c-1.1,1.4-1.6,3.8-1.6,7c0,2.3,0.2,4.1,0.6,5.4c0.4,1.3,1,2.2,1.8,2.7c0.8,0.5,1.7,0.7,2.7,0.7
			C402,264,402.8,263.8,403.5,263.4z"/>
		<path class="st3" d="M416.5,265.9c-1.2-1.3-1.8-3.3-1.8-6.2v-16.9h4.4v16.6c0,1.6,0.3,2.7,0.9,3.4c0.6,0.7,1.5,1,2.6,1
			c0.9,0,1.7-0.2,2.6-0.7c0.9-0.5,1.6-1.1,2.2-2.1v-18.2h4.4v24.5h-3.7l-0.3-2.6h-0.2c-0.8,1-1.8,1.8-2.8,2.3s-2.2,0.8-3.4,0.8
			C419.3,267.8,417.7,267.2,416.5,265.9z"/>
		<path class="st3" d="M453.6,256.6h-13.1c0,1.9,0.3,3.4,0.8,4.5c0.5,1.1,1.2,1.9,2.1,2.4s2.2,0.7,3.8,0.7c1.5,0,3.3-0.3,5.3-0.9
			v3.6c-2,0.6-3.9,0.9-5.8,0.9c-2.5,0-4.5-0.4-6-1.3c-1.6-0.8-2.7-2.2-3.5-4.1c-0.8-1.9-1.2-4.3-1.2-7.4c0-4.3,0.8-7.4,2.4-9.5
			s3.8-3.1,6.7-3.1c2.8,0,4.9,1,6.3,3.1c1.4,2,2.2,5.2,2.2,9.6V256.6z M441.7,247.4c-0.8,1.2-1.2,3.3-1.2,6.3h8.9
			c0-2.1-0.2-3.7-0.6-4.8c-0.3-1.2-0.8-2-1.5-2.5c-0.6-0.5-1.4-0.7-2.3-0.7C443.6,245.6,442.5,246.2,441.7,247.4z"/>
		<path class="st3" d="M483.6,256.6h-13.1c0,1.9,0.3,3.4,0.8,4.5c0.5,1.1,1.2,1.9,2.1,2.4s2.2,0.7,3.8,0.7c1.5,0,3.3-0.3,5.3-0.9
			v3.6c-2,0.6-3.9,0.9-5.8,0.9c-2.5,0-4.5-0.4-6-1.3c-1.6-0.8-2.7-2.2-3.5-4.1c-0.8-1.9-1.2-4.3-1.2-7.4c0-4.3,0.8-7.4,2.4-9.5
			s3.8-3.1,6.7-3.1c2.8,0,4.9,1,6.3,3.1c1.4,2,2.2,5.2,2.2,9.6V256.6z M471.7,247.4c-0.8,1.2-1.2,3.3-1.2,6.3h8.9
			c0-2.1-0.2-3.7-0.6-4.8c-0.3-1.2-0.8-2-1.5-2.5c-0.6-0.5-1.4-0.7-2.3-0.7C473.6,245.6,472.5,246.2,471.7,247.4z"/>
		<path class="st3" d="M487.5,267.4V231h4.4v36.4H487.5z"/>
		<path class="st3" d="M513.6,256.6h-13.1c0,1.9,0.3,3.4,0.8,4.5c0.5,1.1,1.2,1.9,2.1,2.4s2.2,0.7,3.8,0.7c1.5,0,3.3-0.3,5.3-0.9
			v3.6c-2,0.6-3.9,0.9-5.8,0.9c-2.5,0-4.5-0.4-6-1.3c-1.6-0.8-2.7-2.2-3.5-4.1c-0.8-1.9-1.2-4.3-1.2-7.4c0-4.3,0.8-7.4,2.4-9.5
			s3.8-3.1,6.7-3.1c2.8,0,4.9,1,6.3,3.1c1.4,2,2.2,5.2,2.2,9.6V256.6z M501.8,247.4c-0.8,1.2-1.2,3.3-1.2,6.3h8.9
			c0-2.1-0.2-3.7-0.6-4.8c-0.3-1.2-0.8-2-1.5-2.5c-0.6-0.5-1.4-0.7-2.3-0.7C503.7,245.6,502.6,246.2,501.8,247.4z"/>
		<path class="st3" d="M274.4,296.9h3.7l0.3,2.7h0.2c0.8-1,1.7-1.7,2.8-2.3c1.1-0.5,2.3-0.8,3.6-0.8c2.1,0,3.7,0.6,4.9,1.9
			c1.2,1.3,1.8,3.3,1.8,6.1v16.9h-4.4v-16.6c0-1.6-0.3-2.7-0.9-3.4c-0.6-0.7-1.5-1-2.7-1c-0.9,0-1.8,0.2-2.7,0.7
			c-0.9,0.5-1.6,1.2-2.2,2.1v18.1h-4.4V296.9z"/>
		<path class="st3" d="M308.4,297.3c1.3,0.6,2.2,1.5,2.9,2.8s1,3,1,5.2v16h-3.6l-0.3-2.7h-0.2c-0.6,1-1.4,1.8-2.5,2.3
			s-2.1,0.8-3.4,0.8c-1.3,0-2.5-0.3-3.5-0.8s-1.8-1.3-2.3-2.3c-0.6-1-0.8-2.2-0.8-3.6c0-2.3,0.7-4,2-5.2c1.3-1.2,3.5-2,6.3-2.2
			l4.1-0.4v-2c0-1.3-0.2-2.3-0.6-3s-0.9-1.2-1.7-1.6c-0.8-0.3-1.7-0.5-3-0.5c-0.8,0-1.8,0.1-2.8,0.2c-1,0.2-2,0.4-2.9,0.7v-3.6
			c0.9-0.3,2-0.5,3.1-0.7c1.2-0.2,2.3-0.2,3.3-0.2C305.5,296.5,307.2,296.8,308.4,297.3z M305.8,291.2c-0.5-0.2-1.1-0.4-1.8-0.8
			c-0.6-0.3-1.1-0.5-1.5-0.7s-0.8-0.2-1.2-0.2c-0.7,0-1.3,0.1-1.9,0.4s-1.1,0.7-1.7,1.4v-3.1c0.9-1,2.1-1.6,3.6-1.6
			c0.5,0,1.1,0.1,1.6,0.3c0.5,0.2,1.1,0.4,1.8,0.8c0.6,0.3,1.1,0.5,1.5,0.7s0.8,0.2,1.2,0.2c0.7,0,1.3-0.1,1.9-0.4
			c0.6-0.3,1.1-0.7,1.6-1.4v3.1c-0.9,1.1-2.1,1.6-3.6,1.6C306.8,291.5,306.3,291.4,305.8,291.2z M306,317.8c0.8-0.4,1.5-1.1,2-2V310
			l-3.7,0.4c-1.5,0.1-2.6,0.6-3.3,1.3c-0.7,0.7-1.1,1.7-1.1,2.9c0,1.3,0.3,2.3,1,2.9c0.6,0.6,1.5,1,2.7,1
			C304.4,318.4,305.2,318.2,306,317.8z"/>
		<path class="st3" d="M318.7,318.8c-1.6-2-2.4-5.2-2.4-9.6c0-4.4,0.8-7.6,2.4-9.6c1.6-2,3.9-3.1,7-3.1c3,0,5.3,1,7,3.1
			c1.6,2.1,2.4,5.3,2.4,9.6c0,8.4-3.1,12.6-9.4,12.6C322.7,321.8,320.4,320.8,318.7,318.8z M328.4,317.6c0.7-0.5,1.3-1.5,1.6-2.8
			c0.4-1.3,0.6-3.2,0.6-5.5c0-2.4-0.2-4.3-0.6-5.6c-0.4-1.4-0.9-2.3-1.6-2.9s-1.6-0.8-2.7-0.8c-1.1,0-2,0.3-2.7,0.8
			c-0.7,0.5-1.3,1.5-1.7,2.8c-0.4,1.3-0.6,3.2-0.6,5.5c0,2.4,0.2,4.3,0.6,5.6c0.4,1.4,0.9,2.3,1.6,2.8c0.7,0.5,1.6,0.8,2.7,0.8
			C326.8,318.4,327.7,318.1,328.4,317.6z"/>
		<path class="st3" d="M348,320.9v-3.6c1.9,0.6,3.8,1,5.7,1c1.6,0,2.8-0.3,3.6-0.9c0.8-0.6,1.2-1.5,1.2-2.7c0-1-0.2-1.7-0.7-2.3
			c-0.5-0.5-1.2-0.9-2.2-1.2l-2.7-0.7c-1.9-0.5-3.3-1.3-4.2-2.4c-0.9-1.1-1.3-2.5-1.3-4.3c0-1.4,0.3-2.7,1-3.8
			c0.7-1.1,1.7-1.9,3.1-2.5c1.3-0.6,3-0.9,4.9-0.9c1.7,0,3.3,0.2,4.9,0.6v3.6c-0.8-0.2-1.6-0.4-2.3-0.4c-0.7-0.1-1.5-0.1-2.4-0.1
			c-1.7,0-3,0.3-3.9,1c-0.8,0.7-1.3,1.5-1.3,2.6c0,0.9,0.2,1.6,0.7,2.1c0.5,0.5,1.2,0.9,2.1,1.2l2.7,0.7c2,0.5,3.4,1.3,4.3,2.4
			c0.9,1.1,1.3,2.6,1.3,4.4c0,1.5-0.3,2.8-1,3.9c-0.7,1.1-1.7,2-3,2.5c-1.3,0.6-2.9,0.9-4.7,0.9C351.8,321.8,349.8,321.5,348,320.9z
			"/>
		<path class="st3" d="M382.8,310.6h-13.1c0,1.9,0.3,3.4,0.8,4.5c0.5,1.1,1.2,1.9,2.1,2.4s2.2,0.7,3.8,0.7c1.5,0,3.3-0.3,5.3-0.9
			v3.6c-2,0.6-3.9,0.9-5.8,0.9c-2.5,0-4.5-0.4-6-1.3c-1.6-0.8-2.7-2.2-3.5-4.1c-0.8-1.9-1.2-4.3-1.2-7.4c0-4.3,0.8-7.4,2.4-9.5
			s3.8-3.1,6.7-3.1c2.8,0,4.9,1,6.3,3.1c1.4,2,2.2,5.2,2.2,9.6V310.6z M370.9,301.4c-0.8,1.2-1.2,3.3-1.2,6.3h8.9
			c0-2.1-0.2-3.7-0.6-4.8c-0.3-1.2-0.8-2-1.5-2.5c-0.6-0.5-1.4-0.7-2.3-0.7C372.8,299.6,371.7,300.2,370.9,301.4z"/>
		<path class="st3" d="M396.2,296.9h3.7l0.3,2.6h0.2c0.5-0.9,1.3-1.6,2.2-2.1c0.9-0.5,2-0.8,3.2-0.8c1.6,0,3,0.4,4.2,1.2
			s2.2,2.1,3,3.9s1.1,4.2,1.1,7c0,4.4-0.9,7.7-2.8,9.9c-1.9,2.2-4.8,3.2-8.6,3.2c-0.6,0-1.3,0-2.2-0.1v9.6h-4.4V296.9z M406.8,317.4
			c1-0.6,1.7-1.6,2.2-2.9c0.5-1.4,0.8-3.1,0.8-5.4c0-2.3-0.2-4.1-0.6-5.4c-0.4-1.3-1-2.2-1.7-2.7c-0.7-0.5-1.6-0.7-2.7-0.7
			c-0.8,0-1.6,0.2-2.4,0.6c-0.8,0.4-1.3,1-1.8,1.7v15.4c0.3,0.1,0.7,0.1,1.2,0.2s0.9,0.1,1.3,0.1C404.6,318.3,405.9,318,406.8,317.4
			z"/>
		<path class="st3" d="M435.1,310.6H422c0,1.9,0.3,3.4,0.8,4.5c0.5,1.1,1.2,1.9,2.1,2.4s2.2,0.7,3.8,0.7c1.5,0,3.3-0.3,5.3-0.9v3.6
			c-2,0.6-3.9,0.9-5.8,0.9c-2.5,0-4.5-0.4-6-1.3c-1.6-0.8-2.7-2.2-3.5-4.1c-0.8-1.9-1.2-4.3-1.2-7.4c0-4.3,0.8-7.4,2.4-9.5
			s3.8-3.1,6.7-3.1c2.8,0,4.9,1,6.3,3.1c1.4,2,2.2,5.2,2.2,9.6V310.6z M423.3,301.4c-0.8,1.2-1.2,3.3-1.2,6.3h8.9
			c0-2.1-0.2-3.7-0.6-4.8c-0.3-1.2-0.8-2-1.5-2.5c-0.6-0.5-1.4-0.7-2.3-0.7C425.2,299.6,424.1,300.2,423.3,301.4z"/>
		<path class="st3" d="M439.1,296.9h3.6l0.4,3.4h0.2c0.7-1.2,1.5-2.1,2.6-2.7c1-0.6,2.2-0.9,3.5-0.9c0.5,0,1,0,1.5,0.1v4.1
			c-0.5-0.1-1-0.1-1.7-0.1c-1.1,0-2.2,0.3-3.3,0.9s-1.8,1.4-2.4,2.4v17.4h-4.4V296.9z"/>
		<path class="st3" d="M454.7,318.8c-1.7-2-2.5-5.2-2.5-9.7c0-4.5,0.9-7.7,2.7-9.7c1.8-2,4.5-3,8.1-3c1.5,0,2.9,0.2,4.2,0.5v3.7
			c-1.2-0.3-2.3-0.4-3.4-0.4c-1.6,0-3,0.3-4,0.8s-1.8,1.4-2.3,2.7s-0.7,3-0.7,5.2c0,2.3,0.2,4.1,0.7,5.4c0.5,1.3,1.1,2.2,2,2.8
			c0.9,0.6,2.1,0.8,3.5,0.8c1.2,0,2.6-0.3,4.2-0.8v3.7c-1.7,0.6-3.4,0.9-5.1,0.9C458.8,321.8,456.3,320.8,454.7,318.8z"/>
		<path class="st3" d="M482,297.3c1.3,0.6,2.2,1.5,2.9,2.8s1,3,1,5.2v16h-3.6l-0.3-2.7h-0.2c-0.6,1-1.4,1.8-2.5,2.3
			s-2.1,0.8-3.4,0.8c-1.3,0-2.5-0.3-3.5-0.8s-1.8-1.3-2.3-2.3c-0.6-1-0.8-2.2-0.8-3.6c0-2.3,0.7-4,2-5.2c1.3-1.2,3.5-2,6.3-2.2
			l4.1-0.4v-2c0-1.3-0.2-2.3-0.6-3s-0.9-1.2-1.7-1.6c-0.8-0.3-1.7-0.5-3-0.5c-0.8,0-1.8,0.1-2.8,0.2c-1,0.2-2,0.4-2.9,0.7v-3.6
			c0.9-0.3,2-0.5,3.1-0.7c1.2-0.2,2.3-0.2,3.3-0.2C479,296.5,480.7,296.8,482,297.3z M479.5,317.8c0.8-0.4,1.5-1.1,2-2V310l-3.7,0.4
			c-1.5,0.1-2.6,0.6-3.3,1.3c-0.7,0.7-1.1,1.7-1.1,2.9c0,1.3,0.3,2.3,1,2.9c0.6,0.6,1.5,1,2.7,1
			C477.9,318.4,478.7,318.2,479.5,317.8z"/>
	</g>
</g>
</svg>
