<?xml version="1.0" encoding="utf-8"?>
<!-- Generator: Adobe Illustrator 21.1.0, SVG Export Plug-In . SVG Version: 6.00 Build 0)  -->
<svg version="1.1" xmlns="http://www.w3.org/2000/svg" xmlns:xlink="http://www.w3.org/1999/xlink" x="0px" y="0px"
	 viewBox="0 0 750 620" style="enable-background:new 0 0 750 620;" xml:space="preserve">
<style type="text/css">
	.st0{display:none;}
	.st1{display:inline;}
	.st2{fill:#80CBC4;}
	.st3{fill:#102027;}
	.st4{fill:#FFAB00;}
	.st5{fill:#009688;}
	.st6{fill:#F57C00;}
	.st7{fill:#1D1D1B;}
	.st8{fill:#1B5E20;}
	.st9{fill:#E65100;}
	.st10{fill:#3E2723;}
	.st11{fill:#FDFDFC;}
	.st12{fill:#FFFFFF;}
	.st13{fill:#37474F;}
	.st14{fill:#62727B;}
	.st15{fill:#FFDD4B;}
	.st16{fill:#C67C00;}
	.st17{fill:#72370F;}
</style>
<g id="Camada_2" class="st0">
	<g class="st1">
		<rect x="-0.7" y="-460.5" class="st2" width="750.5" height="1337"/>
	</g>
</g>
<g id="Camada_1">
	<g>
		<g>
			<circle class="st9" cx="566.7" cy="417.3" r="59.3"/>
		</g>
		<path class="st7" d="M560.5,396.2c-0.1-6.5,1.1-13,3.4-19.2l2-4.6l2.3-4.4l2.7-4.2l3.1-4c1.1-1.2,2.2-2.5,3.3-3.8l3.6-3.6
			c1.3-1.1,2.6-2.2,4-3.2c1.4-0.9,2.9-1.7,4.4-2.5c1.6-0.7,3.1-1.3,4.7-1.9c1.6-0.5,3.3-0.9,4.9-1.3c1.7-0.2,3.4-0.4,5-0.5
			c1.7,0,3.4,0.1,5,0.3l0.1,0.7c-1.5,0.9-2.9,1.6-4.3,2.2c-1.4,0.8-2.8,1.5-4.1,2.2c-1.3,0.8-2.6,1.6-4,2.3
			c-1.3,0.8-2.5,1.6-3.8,2.4c-1.2,0.9-2.5,1.7-3.7,2.5c-1.2,0.9-2.5,1.7-3.7,2.5l-3.7,2.6c-1.2,1-2.3,2-3.4,3l-3.1,3.3l-2.9,3.6
			l-2.7,3.8l-2.3,4c-3,5.4-5,11.4-6,17.7L560.5,396.2z"/>
		<path class="st8" d="M574.1,341.8c0,0-2.1-15.3-6-21c-3.9-5.7-23.5-6.9-23.5-6.9l0,0c0,0,2.1,19.6,8,23.2c5.9,3.6,21.3,5,21.3,5
			L574.1,341.8z"/>
	</g>
	<g>
		<rect x="556" y="182" class="st10" width="18" height="264"/>
	</g>
	<g>
		<polygon class="st5" points="452.9,599 682,599 613.5,582.7 511.1,582.7 		"/>
	</g>
	<g>
		<ellipse class="st5" cx="224" cy="588.5" rx="132" ry="35.5"/>
	</g>
	<rect x="452.9" y="545.2" class="st3" width="22.1" height="53.8"/>
	<rect x="511.1" y="545.2" class="st3" width="22.1" height="37.6"/>
	<rect x="591.4" y="545.2" class="st3" width="22.1" height="37.6"/>
	<rect x="659.9" y="545.2" class="st3" width="22.1" height="53.8"/>
	<path class="st7" d="M137.3,122.6c-8.2,0-14.8,6.6-14.8,14.8v79.9l29.6-5.7v-74.1C152.1,129.2,145.5,122.6,137.3,122.6z"/>
	<g>
		<path class="st11" d="M287.3,396.6H161.4c-44.7,0-81-36.3-81-81v0c0-73.9,59.9-133.8,133.8-133.8h20.2
			c73.9,0,133.8,59.9,133.8,133.8v0C368.2,360.3,332,396.6,287.3,396.6z"/>
		<path class="st7" d="M287.3,400.2H161.4c-46.6,0-84.6-37.9-84.6-84.6c0-75.8,61.6-137.4,137.4-137.4h20.2
			c75.8,0,137.4,61.6,137.4,137.4C371.8,362.2,333.9,400.2,287.3,400.2z M214.2,185.4C142.4,185.4,84,243.8,84,315.6
			c0,42.7,34.7,77.4,77.4,77.4h125.9c42.7,0,77.4-34.7,77.4-77.4c0-71.8-58.4-130.2-130.2-130.2H214.2z"/>
	</g>
	<path class="st7" d="M291,363.3H157.7c-31.9,0-57.8-25.9-57.8-57.8v0c0-31.9,25.9-57.8,57.8-57.8H291c31.9,0,57.8,25.9,57.8,57.8v0
		C348.8,337.4,322.9,363.3,291,363.3z"/>
	<g>
		<g>
			<g>
				<g>
					<g>
						<circle class="st12" cx="299.9" cy="305.5" r="25.1"/>
						<path class="st7" d="M299.9,332.6c-14.9,0-27.1-12.1-27.1-27.1s12.1-27.1,27.1-27.1s27.1,12.1,27.1,27.1
							S314.8,332.6,299.9,332.6z M299.9,282.4c-12.7,0-23.1,10.4-23.1,23.1s10.4,23.1,23.1,23.1s23.1-10.4,23.1-23.1
							S312.6,282.4,299.9,282.4z"/>
					</g>
				</g>
			</g>
		</g>
		<g>
			<g>
				<g>
					<g>
						<circle class="st12" cx="148.8" cy="305.5" r="25.1"/>
						<path class="st7" d="M148.8,332.6c-14.9,0-27.1-12.1-27.1-27.1s12.1-27.1,27.1-27.1s27.1,12.1,27.1,27.1
							S163.7,332.6,148.8,332.6z M148.8,282.4c-12.7,0-23.1,10.4-23.1,23.1s10.4,23.1,23.1,23.1s23.1-10.4,23.1-23.1
							S161.5,282.4,148.8,282.4z"/>
					</g>
				</g>
			</g>
		</g>
	</g>
	<g>
		<g>
			<circle class="st6" cx="512.2" cy="454.2" r="59.3"/>
		</g>
		<path class="st7" d="M506,433.1c-0.1-6.5,1.1-13,3.4-19.2l2-4.6l2.3-4.4l2.7-4.2l3.1-4c1.1-1.2,2.2-2.5,3.3-3.8l3.6-3.6
			c1.3-1.1,2.6-2.2,4-3.2c1.4-0.9,2.9-1.7,4.4-2.5c1.6-0.7,3.1-1.3,4.7-1.9c1.6-0.5,3.3-0.9,4.9-1.3c1.7-0.2,3.4-0.4,5-0.5
			c1.7,0,3.4,0.1,5,0.3l0.1,0.7c-1.5,0.9-2.9,1.6-4.3,2.2c-1.4,0.8-2.8,1.5-4.1,2.2c-1.3,0.8-2.6,1.6-4,2.3
			c-1.3,0.8-2.5,1.6-3.8,2.4c-1.2,0.9-2.5,1.7-3.7,2.5c-1.2,0.9-2.5,1.7-3.7,2.5l-3.7,2.6c-1.2,1-2.3,2-3.4,3l-3.1,3.3l-2.9,3.6
			l-2.7,3.8l-2.3,4c-3,5.4-5,11.4-6,17.7L506,433.1z"/>
		<path class="st8" d="M519.5,378.6c0,0-2.1-15.3-6-21c-3.9-5.7-23.5-6.9-23.5-6.9l0,0c0,0,2.1,19.6,8,23.2c5.9,3.6,21.3,5,21.3,5
			L519.5,378.6z"/>
	</g>
	<g>
		<g>
			<circle class="st6" cx="613.8" cy="454.9" r="59.3"/>
		</g>
		<path class="st7" d="M607.7,433.8c-0.1-6.5,1.1-13,3.4-19.2l2-4.6l2.3-4.4l2.7-4.2l3.1-4c1.1-1.2,2.2-2.5,3.3-3.8l3.6-3.6
			c1.3-1.1,2.6-2.2,4-3.2c1.4-0.9,2.9-1.7,4.4-2.5c1.6-0.7,3.1-1.3,4.7-1.9c1.6-0.5,3.3-0.9,4.9-1.3c1.7-0.2,3.4-0.4,5-0.5
			c1.7,0,3.4,0.1,5,0.3l0.1,0.7c-1.5,0.9-2.9,1.6-4.3,2.2c-1.4,0.8-2.8,1.5-4.1,2.2c-1.3,0.8-2.6,1.6-4,2.3
			c-1.3,0.8-2.5,1.6-3.8,2.4c-1.2,0.9-2.5,1.7-3.7,2.5c-1.2,0.9-2.5,1.7-3.7,2.5l-3.7,2.6c-1.2,1-2.3,2-3.4,3l-3.1,3.3l-2.9,3.6
			l-2.7,3.8l-2.3,4c-3,5.4-5,11.4-6,17.7L607.7,433.8z"/>
		<path class="st8" d="M621.2,379.4c0,0-2.1-15.3-6-21c-3.9-5.7-23.5-6.9-23.5-6.9l0,0c0,0,2.1,19.6,8,23.2c5.9,3.6,21.3,5,21.3,5
			L621.2,379.4z"/>
	</g>
	<g>
		<path class="st12" d="M197.3,420.3c-23,0-50.1,41.9-55,88.2c-4.9,46.2,24,81.7,24,81.7h14.3c0,0,5-10.8,17.1-18.3
			c12.1-7.5,41.2-7.5,53.3,0c12.1,7.5,17.1,18.3,17.1,18.3h14.3c0,0,28.9-35.5,24-81.7c-4.9-46.2-32-88.2-55-88.2H197.3z"/>
		<path class="st7" d="M283.9,593.5h-18l-0.9-1.9c0-0.1-4.8-10-15.8-16.9c-10.9-6.8-38.8-6.8-49.7,0c-11,6.9-15.8,16.8-15.8,16.9
			l-0.9,1.9l-2.1,0h-15.8l-1-1.2c-1.2-1.5-29.7-37.1-24.7-84.2c5.1-47.7,32.9-91.2,58.3-91.2h53.9c25.4,0,53.2,43.4,58.3,91.2
			c5,47.1-23.5,82.7-24.7,84.2L283.9,593.5z M270,586.9h10.6c4.8-6.5,26.5-38.5,22.3-78c-5-47.2-32.4-85.2-51.7-85.2h-53.9
			c-19.3,0-46.7,38-51.7,85.2c-4.2,39.6,17.5,71.5,22.3,78h10.6c2.1-3.6,7.6-11.7,17.3-17.8c13-8.1,43.8-8.1,56.8,0
			C262.5,575.2,267.9,583.2,270,586.9z"/>
	</g>
	<path class="st7" d="M241.7,568.5l-2.7-1.1c0.6-1.5,15.1-36.7,39.2-43.7c9.5-2.8,19.2-0.7,28.8,6.1l-1.7,2.3
		c-8.8-6.3-17.7-8.2-26.3-5.7C256.3,533.1,241.9,568.1,241.7,568.5z"/>
	<path class="st7" d="M206.2,568.5c-0.1-0.4-14.6-35.4-37.3-42c-8.6-2.5-17.5-0.6-26.3,5.7l-1.7-2.3c9.6-6.8,19.3-8.9,28.8-6.1
		c24.1,7,38.6,42.2,39.2,43.7L206.2,568.5z"/>
	<g>
		<g>
			<circle class="st3" cx="224.3" cy="453" r="80.5"/>
			<path class="st4" d="M224.3,537c-46.3,0-84-37.7-84-84s37.7-84,84-84s84,37.7,84,84S270.6,537,224.3,537z M224.3,376
				c-42.5,0-77,34.5-77,77s34.5,77,77,77s77-34.5,77-77S266.7,376,224.3,376z"/>
		</g>
		<g>
			<g>
				<path class="st4" d="M197.7,479.7c0.1-2.2,0.8-4.7,2-7.3c1.3-2.6,2.8-4.4,4.5-5.4c8,4.2,14.9,6.3,20.6,6.3
					c2.3,0,4.2-0.4,5.6-1.3c1.4-0.9,2.1-2.1,2.1-3.8c0-2.7-1.9-4.7-5.7-6l-11-3.9c-10.3-3.9-15.4-10.1-15.4-18.4
					c0-5,1.6-9.3,4.9-12.8c3.3-3.5,7.6-5.8,12.9-6.8v-9.4c1.5-0.3,3.5-0.5,6.2-0.5c2.7,0,4.8,0.2,6.3,0.5v9.2
					c5.6,0.6,11.7,2.3,18.2,5.1c0,2.5-0.5,4.9-1.6,7.4c-1.1,2.4-2.5,4.4-4.3,6c-7.7-3.1-13.8-4.6-18.2-4.6c-2,0-3.6,0.4-4.8,1.3
					c-1.2,0.9-1.8,2.1-1.8,3.5c0,1.9,1.9,3.6,5.8,4.9l10.8,4.2c10.6,3.9,15.9,10.5,15.9,19.8c0,5.1-1.9,9.4-5.6,12.8
					c-3.7,3.4-8.7,5.6-14.8,6.4v8.8c-1.2,0.2-3.3,0.3-6.3,0.3c-3.1,0-5.1-0.1-6.2-0.3v-8.9C209.6,485.4,202.9,483.1,197.7,479.7z"/>
			</g>
		</g>
	</g>
	<g>
		<path class="st12" d="M144.4,411.3c15.6-4.8,23.1-8.2,19.6,4.7c-1.4,5.1-3.8,9.8-7,13.9c-8.1,10.4-12.4,11.6-21.4-3.4
			C128.7,415.2,138,413.3,144.4,411.3z"/>
		<path class="st7" d="M147,441.3c-0.2,0-0.3,0-0.5,0c-4.6-0.3-8.7-4-14-13c-2.8-4.7-3.6-8.7-2.3-12c1.9-5,7.5-6.7,12-8
			c0.4-0.1,0.8-0.2,1.2-0.4l1.1,3.4l-1.1-3.4c1.3-0.4,2.5-0.8,3.6-1.1c9.8-3.1,15.7-5,19.4-1.5c3,2.9,2.2,7.7,1.1,11.6
			c-1.5,5.4-4,10.5-7.7,15.1C156.3,436.6,152.2,441.3,147,441.3z M145.5,414.8c-0.4,0.1-0.8,0.3-1.2,0.4c-2.8,0.8-6.7,2-7.4,3.8
			c-0.4,1.1,0.2,3.2,1.7,5.8c4.9,8.1,7.3,9.4,8.3,9.5c2.1,0.2,5.9-4.8,7.2-6.5c3-3.9,5.2-8.2,6.4-12.6c0.7-2.6,0.8-3.9,0.7-4.5
			c-1.9-0.2-7.5,1.6-12.1,3C148,414,146.7,414.4,145.5,414.8L145.5,414.8z"/>
	</g>
	<g>
		<path class="st12" d="M301.6,411.3c-15.6-4.8-23.1-8.2-19.6,4.7c1.4,5.1,3.8,9.8,7,13.9c8.1,10.4,12.4,11.6,21.4-3.4
			C317.2,415.2,307.9,413.3,301.6,411.3z"/>
		<path class="st7" d="M299,441.3c-5.2,0-9.3-4.8-12.8-9.2c-3.6-4.7-6.2-9.8-7.7-15.1c-1.1-3.9-1.9-8.7,1.1-11.6
			c3.6-3.5,9.6-1.6,19.4,1.5c1.2,0.4,2.4,0.7,3.6,1.1l0,0c0.4,0.1,0.8,0.2,1.2,0.4c4.5,1.3,10,3,12,8c1.3,3.4,0.6,7.3-2.3,12
			c-5.4,8.9-9.4,12.7-14,13C299.3,441.3,299.2,441.3,299,441.3z M284.7,410.6c0,0.6,0,1.8,0.7,4.5c1.2,4.5,3.4,8.7,6.4,12.6
			c1.3,1.6,5.1,6.6,7.2,6.5c1-0.1,3.5-1.4,8.3-9.5c1.5-2.5,2.1-4.6,1.7-5.8c-0.7-1.8-4.5-2.9-7.4-3.8c-0.4-0.1-0.8-0.3-1.2-0.4l0,0
			c-1.3-0.4-2.5-0.8-3.7-1.1C292.3,412.2,286.7,410.4,284.7,410.6z"/>
	</g>
	<g>
		<rect x="452.5" y="463.8" class="st17" width="229.1" height="86.2"/>
	</g>
	<g>
		<rect x="439.5" y="128" class="st10" width="251" height="117"/>
	</g>
	<g>
		<rect x="452.9" y="599" class="st5" width="229.1" height="25"/>
	</g>
	<g>
		<rect x="544.7" y="172.5" class="st4" width="46" height="6"/>
		<rect x="545.2" y="191" class="st4" width="46" height="6"/>
		<g>
			<g>
				<circle class="st6" cx="618.7" cy="171.5" r="15.5"/>
			</g>
			<path class="st7" d="M617.1,166c0-1.7,0.3-3.4,0.9-5l0.5-1.2l0.6-1.2l0.7-1.1l0.8-1c0.3-0.3,0.6-0.7,0.9-1l0.9-0.9
				c0.3-0.3,0.7-0.6,1-0.8c0.4-0.2,0.8-0.5,1.2-0.7c0.4-0.2,0.8-0.3,1.2-0.5c0.4-0.1,0.9-0.2,1.3-0.3c0.4-0.1,0.9-0.1,1.3-0.1
				c0.4,0,0.9,0,1.3,0.1l0,0.2c-0.4,0.2-0.8,0.4-1.1,0.6c-0.4,0.2-0.7,0.4-1.1,0.6c-0.3,0.2-0.7,0.4-1,0.6c-0.3,0.2-0.7,0.4-1,0.6
				c-0.3,0.2-0.6,0.4-1,0.6c-0.3,0.2-0.6,0.4-1,0.7l-1,0.7c-0.3,0.3-0.6,0.5-0.9,0.8l-0.8,0.9l-0.8,0.9l-0.7,1l-0.6,1
				c-0.8,1.4-1.3,3-1.6,4.6L617.1,166z"/>
			<path class="st8" d="M620.7,151.8c0,0-0.5-4-1.6-5.5c-1-1.5-6.2-1.8-6.2-1.8l0,0c0,0,0.6,5.1,2.1,6.1S620.6,151.8,620.7,151.8
				L620.7,151.8z"/>
		</g>
		<g>
			<g>
				<circle class="st6" cx="652.7" cy="209.5" r="15.5"/>
			</g>
			<path class="st7" d="M651.1,204c0-1.7,0.3-3.4,0.9-5l0.5-1.2l0.6-1.2l0.7-1.1l0.8-1c0.3-0.3,0.6-0.7,0.9-1l0.9-0.9
				c0.3-0.3,0.7-0.6,1-0.8c0.4-0.2,0.8-0.5,1.2-0.7c0.4-0.2,0.8-0.3,1.2-0.5c0.4-0.1,0.9-0.2,1.3-0.3c0.4-0.1,0.9-0.1,1.3-0.1
				c0.4,0,0.9,0,1.3,0.1l0,0.2c-0.4,0.2-0.8,0.4-1.1,0.6c-0.4,0.2-0.7,0.4-1.1,0.6c-0.3,0.2-0.7,0.4-1,0.6c-0.3,0.2-0.7,0.4-1,0.6
				c-0.3,0.2-0.6,0.4-1,0.6c-0.3,0.2-0.6,0.4-1,0.7l-1,0.7c-0.3,0.3-0.6,0.5-0.9,0.8l-0.8,0.9l-0.8,0.9l-0.7,1l-0.6,1
				c-0.8,1.4-1.3,3-1.6,4.6L651.1,204z"/>
			<path class="st8" d="M654.7,189.8c0,0-0.5-4-1.6-5.5c-1-1.5-6.2-1.8-6.2-1.8l0,0c0,0,0.6,5.1,2.1,6.1S654.6,189.8,654.7,189.8
				L654.7,189.8z"/>
		</g>
		<g>
			<g>
				<circle class="st3" cx="496.5" cy="186" r="33.3"/>
				<path class="st4" d="M496.5,220.7c-19.1,0-34.7-15.6-34.7-34.7s15.6-34.7,34.7-34.7c19.1,0,34.7,15.6,34.7,34.7
					S515.7,220.7,496.5,220.7z M496.5,154.2c-17.6,0-31.8,14.3-31.8,31.8s14.3,31.8,31.8,31.8s31.8-14.3,31.8-31.8
					S514.1,154.2,496.5,154.2z"/>
			</g>
			<g>
				<g>
					<path class="st4" d="M485.5,197c0-0.9,0.3-1.9,0.8-3c0.5-1.1,1.1-1.8,1.8-2.3c3.3,1.7,6.2,2.6,8.5,2.6c1,0,1.7-0.2,2.3-0.6
						c0.6-0.4,0.9-0.9,0.9-1.6c0-1.1-0.8-1.9-2.3-2.5l-4.6-1.6c-4.2-1.6-6.4-4.2-6.4-7.6c0-2.1,0.7-3.8,2-5.3
						c1.4-1.5,3.1-2.4,5.3-2.8v-3.9c0.6-0.1,1.5-0.2,2.6-0.2c1.1,0,2,0.1,2.6,0.2v3.8c2.3,0.3,4.8,1,7.5,2.1c0,1-0.2,2-0.7,3
						c-0.4,1-1,1.8-1.8,2.5c-3.2-1.3-5.7-1.9-7.5-1.9c-0.8,0-1.5,0.2-2,0.6c-0.5,0.4-0.7,0.9-0.7,1.5c0,0.8,0.8,1.5,2.4,2l4.5,1.7
						c4.4,1.6,6.6,4.4,6.6,8.2c0,2.1-0.8,3.9-2.3,5.3c-1.5,1.4-3.6,2.3-6.1,2.7v3.6c-0.5,0.1-1.3,0.1-2.6,0.1c-1.3,0-2.1,0-2.6-0.1
						v-3.7C490.5,199.4,487.7,198.5,485.5,197z"/>
				</g>
			</g>
		</g>
	</g>
</g>
</svg>
