<?xml version="1.0" encoding="utf-8"?>
<!-- Generator: Adobe Illustrator 21.1.0, SVG Export Plug-In . SVG Version: 6.00 Build 0)  -->
<svg version="1.1" xmlns="http://www.w3.org/2000/svg" xmlns:xlink="http://www.w3.org/1999/xlink" x="0px" y="0px"
	 viewBox="0 0 750.5 620" style="enable-background:new 0 0 750.5 620;" xml:space="preserve">
<style type="text/css">
	.st0{display:none;}
	.st1{display:inline;}
	.st2{fill:#80CBC4;}
	.st3{fill:#102027;}
	.st4{fill:#FFAB00;}
	.st5{fill:#009688;}
	.st6{fill:#F57C00;}
	.st7{fill:#1D1D1B;}
	.st8{fill:#1B5E20;}
	.st9{fill:#E65100;}
	.st10{fill:#3E2723;}
	.st11{fill:#FDFDFC;}
	.st12{fill:#FFFFFF;}
	.st13{fill:#37474F;}
	.st14{fill:#62727B;}
	.st15{fill:#FFDD4B;}
	.st16{fill:#C67C00;}
	.st17{fill:#72370F;}
</style>
<g id="Camada_2" class="st0">
	<g class="st1">
		<rect y="-460.5" class="st2" width="750.5" height="1337"/>
	</g>
</g>
<g id="Camada_1">
	<g>
		<g>
			<ellipse class="st5" cx="379.3" cy="588.5" rx="132" ry="35.5"/>
		</g>
		<g>
			<g>
				<path class="st12" d="M419.8,476.6c-14.8-3.7-23.8-18.8-20.1-33.6c3.7-14.8,18.8-23.8,33.6-20.1c0.3,0.1,0.7,0.2,1,0.3
					c57.7-5.6,79.6-53.5,81.2-27.1C518.5,444.3,427.9,478.6,419.8,476.6z"/>
				<path class="st7" d="M420.6,480.2c-0.6,0-1.2-0.1-1.6-0.2l0,0c-8.1-2-14.9-7.1-19.2-14.3c-4.3-7.2-5.5-15.6-3.5-23.7
					c4.2-16.7,21.2-26.9,38-22.7c0.2,0,0.3,0.1,0.5,0.1c29.5-3.1,48.9-17.3,61.8-26.8c8.3-6.1,13.3-9.8,17.9-7.6
					c3.8,1.8,4.5,6.6,4.8,10.7c1,17-8.2,33.6-27.3,49.5C467.5,465.6,431.1,480.2,420.6,480.2z M420.6,473.1
					c5.2,0.4,46.6-13.7,72.5-38.4c13.3-12.7,19.7-25.6,18.9-38.3c-0.2-2.7-0.5-3.9-0.8-4.5c-1.9,0.5-6.6,3.9-10.5,6.8
					c-12.8,9.4-34.2,25.1-66.1,28.2c-0.5,0-0.9,0-1.3-0.1c-0.2-0.1-0.3-0.1-0.5-0.2c-0.1,0-0.2-0.1-0.3-0.1
					c-12.9-3.2-26,4.6-29.2,17.5c-1.6,6.2-0.6,12.7,2.7,18.2C409.2,467.6,414.4,471.5,420.6,473.1z"/>
			</g>
		</g>
		<g>
			<path class="st12" d="M324.7,476.6c14.8-3.7,23.8-18.8,20.1-33.6s-18.8-23.8-33.6-20.1c-0.3,0.1-0.7,0.2-1,0.3
				c-57.7-5.6-79.6-53.5-81.2-27.1C226,444.3,316.6,478.6,324.7,476.6z"/>
			<path class="st7" d="M324,480.2c-10.5,0-46.9-14.6-71.3-34.8c-19.2-15.9-28.4-32.6-27.3-49.5c0.2-4,1-8.9,4.8-10.7
				c4.6-2.1,9.6,1.5,17.9,7.6c12.9,9.5,32.3,23.7,61.8,26.8c0.2,0,0.3-0.1,0.5-0.1c8.1-2,16.5-0.8,23.7,3.5
				c7.2,4.3,12.2,11.1,14.3,19.2c2,8.1,0.8,16.5-3.5,23.7c-4.3,7.2-11.1,12.2-19.2,14.3l0,0C325.2,480.2,324.6,480.2,324,480.2z
				 M233.3,391.8c-0.2,0.5-0.6,1.7-0.8,4.5c-0.8,12.7,5.6,25.6,18.9,38.3c25.9,24.8,67.3,38.9,72.5,38.4c6.2-1.6,11.4-5.5,14.7-11
				c3.3-5.5,4.3-12,2.7-18.2s-5.5-11.5-11-14.8c-5.5-3.3-12-4.3-18.2-2.7c-0.1,0-0.2,0.1-0.3,0.1c-0.2,0.1-0.3,0.1-0.5,0.2
				c-0.4,0.1-0.9,0.2-1.3,0.1c-31.9-3.1-53.3-18.8-66.1-28.2C240,395.7,235.2,392.3,233.3,391.8z"/>
		</g>
		<g>
			<path class="st12" d="M351.7,420.3c-23,0-50.1,41.9-55,88.2c-4.9,46.2,24,81.7,24,81.7h14.3c0,0,5-10.8,17.1-18.3
				c12.1-7.5,41.2-7.5,53.3,0c12.1,7.5,17.1,18.3,17.1,18.3h14.3c0,0,28.9-35.5,24-81.7c-4.9-46.2-32-88.2-55-88.2H351.7z"/>
			<path class="st7" d="M438.2,593.5h-18l-0.9-1.9c0-0.1-4.8-10-15.8-16.9c-10.9-6.8-38.8-6.8-49.7,0c-11.1,6.9-15.8,16.8-15.8,16.9
				l-0.9,1.9h-18l-1-1.2c-1.2-1.5-29.7-37.1-24.7-84.2c5.1-47.7,32.9-91.2,58.3-91.2h53.9c25.4,0,53.2,43.4,58.3,91.2
				c5,47.1-23.5,82.7-24.7,84.2L438.2,593.5z M424.3,586.9H435c4.8-6.5,26.5-38.5,22.3-78c-5-47.2-32.4-85.2-51.7-85.2h-53.9
				c-19.3,0-46.7,38-51.7,85.2c-4.2,39.6,17.5,71.5,22.3,78h10.6c2.1-3.6,7.6-11.7,17.3-17.8c13-8.1,43.8-8.1,56.8,0
				C416.8,575.2,422.2,583.2,424.3,586.9z"/>
		</g>
		<path class="st7" d="M291.6,122.6c-8.2,0-14.8,6.6-14.8,14.8v79.9l29.6-5.7v-74.1C306.5,129.2,299.8,122.6,291.6,122.6z"/>
		<g>
			<path class="st11" d="M441.6,396.6H315.7c-44.7,0-81-36.3-81-81v0c0-73.9,59.9-133.8,133.8-133.8h20.2
				c73.9,0,133.8,59.9,133.8,133.8v0C522.5,360.3,486.3,396.6,441.6,396.6z"/>
			<path class="st7" d="M441.6,400.2H315.7c-46.6,0-84.6-37.9-84.6-84.6c0-75.8,61.6-137.4,137.4-137.4h20.2
				c75.8,0,137.4,61.6,137.4,137.4C526.1,362.2,488.2,400.2,441.6,400.2z M368.5,185.4c-71.8,0-130.2,58.4-130.2,130.2
				c0,42.7,34.7,77.4,77.4,77.4h125.9c42.7,0,77.4-34.7,77.4-77.4c0-71.8-58.4-130.2-130.2-130.2H368.5z"/>
		</g>
		<path class="st7" d="M445.3,363.3H312c-31.9,0-57.8-25.9-57.8-57.8v0c0-31.9,25.9-57.8,57.8-57.8h133.3
			c31.9,0,57.8,25.9,57.8,57.8v0C503.1,337.4,477.2,363.3,445.3,363.3z"/>
		<g>
			<g>
				<g>
					<g>
						<circle class="st12" cx="454.2" cy="305.5" r="25.1"/>
						<path class="st7" d="M454.2,332.6c-14.9,0-27.1-12.1-27.1-27.1s12.1-27.1,27.1-27.1s27.1,12.1,27.1,27.1
							S469.1,332.6,454.2,332.6z M454.2,282.4c-12.7,0-23.1,10.4-23.1,23.1s10.4,23.1,23.1,23.1s23.1-10.4,23.1-23.1
							S466.9,282.4,454.2,282.4z"/>
					</g>
				</g>
			</g>
		</g>
		<g>
			<g>
				<g>
					<g>
						<circle class="st12" cx="303.1" cy="305.5" r="25.1"/>
						<path class="st7" d="M303.1,332.6c-14.9,0-27.1-12.1-27.1-27.1s12.1-27.1,27.1-27.1s27.1,12.1,27.1,27.1
							S318,332.6,303.1,332.6z M303.1,282.4c-12.7,0-23.1,10.4-23.1,23.1s10.4,23.1,23.1,23.1s23.1-10.4,23.1-23.1
							S315.8,282.4,303.1,282.4z"/>
					</g>
				</g>
			</g>
		</g>
		<path class="st7" d="M396,568.5l-2.7-1.1c0.6-1.5,15.1-36.7,39.2-43.7c9.5-2.8,19.2-0.7,28.8,6.1l-1.7,2.3
			c-8.8-6.3-17.7-8.2-26.3-5.7C410.6,533.1,396.2,568.1,396,568.5z"/>
		<path class="st7" d="M360.5,568.5c-0.1-0.4-14.6-35.4-37.3-42c-8.6-2.5-17.5-0.6-26.3,5.7l-1.7-2.3c9.6-6.8,19.3-8.9,28.8-6.1
			c24.1,7,38.6,42.2,39.2,43.7L360.5,568.5z"/>
		<circle class="st7" cx="302.8" cy="320.5" r="23"/>
		<circle class="st7" cx="454.3" cy="321" r="23"/>
	</g>
	<g>
		<g>
			<circle class="st6" cx="131.2" cy="217.9" r="54.7"/>
		</g>
		<path class="st7" d="M125.5,198.5c-0.1-6,1-12,3.2-17.7l1.8-4.2l2.1-4.1l2.5-3.9l2.8-3.7c1-1.2,2.1-2.3,3.1-3.5l3.3-3.3
			c1.2-1,2.4-2,3.7-2.9c1.3-0.8,2.7-1.6,4.1-2.3c1.4-0.6,2.9-1.2,4.4-1.7c1.5-0.4,3-0.8,4.5-1.2c1.6-0.2,3.1-0.4,4.6-0.5
			c1.6,0,3.1,0.1,4.7,0.3l0.1,0.7c-1.4,0.8-2.7,1.4-4,2c-1.3,0.7-2.6,1.4-3.8,2c-1.2,0.8-2.4,1.4-3.7,2.1c-1.2,0.8-2.3,1.5-3.5,2.2
			c-1.1,0.8-2.3,1.6-3.4,2.3c-1.1,0.8-2.3,1.6-3.4,2.3l-3.4,2.4c-1.1,0.9-2.1,1.8-3.2,2.8l-2.9,3.1l-2.7,3.3l-2.4,3.5l-2.2,3.7
			c-2.7,5-4.6,10.5-5.6,16.3L125.5,198.5z"/>
		<path class="st8" d="M138,148.3c0,0-1.9-14.1-5.5-19.3c-3.6-5.3-21.7-6.4-21.7-6.4l0,0c0,0,2,18,7.4,21.4s19.6,4.6,19.6,4.6
			L138,148.3z"/>
	</g>
	<g>
		<g>
			<circle class="st6" cx="620.2" cy="217.9" r="54.7"/>
		</g>
		<path class="st7" d="M614.5,198.5c-0.1-6,1-12,3.2-17.7l1.8-4.2l2.1-4.1l2.5-3.9l2.8-3.7c1-1.2,2.1-2.3,3.1-3.5l3.3-3.3
			c1.2-1,2.4-2,3.7-2.9c1.3-0.8,2.7-1.6,4.1-2.3c1.4-0.6,2.9-1.2,4.4-1.7c1.5-0.4,3-0.8,4.5-1.2c1.6-0.2,3.1-0.4,4.6-0.5
			c1.6,0,3.1,0.1,4.7,0.3l0.1,0.7c-1.4,0.8-2.7,1.4-4,2c-1.3,0.7-2.6,1.4-3.8,2c-1.2,0.8-2.4,1.4-3.7,2.1c-1.2,0.8-2.3,1.5-3.5,2.2
			c-1.1,0.8-2.3,1.6-3.4,2.3c-1.1,0.8-2.3,1.6-3.4,2.3l-3.4,2.4c-1.1,0.9-2.1,1.8-3.2,2.8l-2.9,3.1l-2.7,3.3l-2.4,3.5l-2.2,3.7
			c-2.7,5-4.6,10.5-5.6,16.3L614.5,198.5z"/>
		<path class="st8" d="M627,148.3c0,0-1.9-14.1-5.5-19.3c-3.6-5.3-21.7-6.4-21.7-6.4l0,0c0,0,2,18,7.4,21.4
			c5.4,3.3,19.6,4.6,19.6,4.6L627,148.3z"/>
	</g>
</g>
</svg>
