<?xml version="1.0" encoding="utf-8"?>
<!-- Generator: Adobe Illustrator 21.1.0, SVG Export Plug-In . SVG Version: 6.00 Build 0)  -->
<svg version="1.1" xmlns="http://www.w3.org/2000/svg" xmlns:xlink="http://www.w3.org/1999/xlink" x="0px" y="0px"
	 viewBox="0 0 750 787" style="enable-background:new 0 0 750 787;" xml:space="preserve">
<style type="text/css">
	.st0{display:none;}
	.st1{display:inline;}
	.st2{fill:#80CBC4;}
	.st3{fill:#102027;}
	.st4{fill:#FFAB00;}
	.st5{fill:#009688;}
	.st6{fill:#F57C00;}
	.st7{fill:#1D1D1B;}
	.st8{fill:#1B5E20;}
	.st9{fill:#E65100;}
	.st10{fill:#3E2723;}
	.st11{fill:#FDFDFC;}
	.st12{fill:#FFFFFF;}
	.st13{fill:#37474F;}
	.st14{fill:#62727B;}
	.st15{fill:#FFDD4B;}
	.st16{fill:#C67C00;}
	.st17{fill:#72370F;}
</style>
<g id="Camada_2" class="st0">
	<g class="st1">
		<rect x="-0.7" y="-209.5" class="st2" width="750.5" height="1337"/>
	</g>
</g>
<g id="Camada_1">
	<g>
		<path class="st3" d="M320.5,515.6c0.2-4.6,1.6-9.6,4.2-15.1c2.6-5.4,5.7-9.2,9.2-11.2c16.6,8.6,30.8,12.9,42.6,12.9
			c4.8,0,8.6-0.9,11.6-2.7c2.9-1.8,4.4-4.4,4.4-7.8c0-5.6-3.9-9.7-11.7-12.4l-22.7-8.1c-21.2-8.1-31.8-20.8-31.8-38
			c0-10.4,3.4-19.2,10.2-26.4c6.8-7.3,15.7-11.9,26.7-14v-19.4c3-0.6,7.3-1,12.8-1c5.5,0,9.8,0.3,13,1v18.9
			c11.6,1.3,24.2,4.8,37.6,10.5c0,5.1-1.1,10.2-3.4,15.2c-2.2,5-5.2,9.1-8.9,12.3c-16-6.4-28.5-9.6-37.6-9.6c-4.1,0-7.5,0.9-9.9,2.8
			c-2.5,1.8-3.7,4.3-3.7,7.3c0,4,4,7.3,12,10l22.3,8.6c21.9,8.1,32.8,21.8,32.8,40.9c0,10.5-3.8,19.3-11.5,26.4
			c-7.7,7.1-17.9,11.5-30.6,13.3v18.2c-2.4,0.5-6.7,0.7-13,0.7c-6.3,0-10.6-0.2-12.8-0.7v-18.4C345,527.5,331.1,522.8,320.5,515.6"
			/>
		<path class="st3" d="M222.4,459c0-75.8,76.9-152.7,152.7-152.7v-20.4c-87.1,0-173.1,86-173.1,173.1H222.4z"/>
		<path class="st3" d="M521.1,459.8c6.2,74.3-69.2,151.9-146,151.9v20.4c88.4,0,173.5-87.5,166.2-173.9L521.1,459.8z"/>
		<polygon class="st3" points="461.5,508.7 536.1,467.9 522.5,464.1 570,545.6 587.6,535.3 540,453.9 535.1,445.3 526.4,450.1 
			451.7,490.8 		"/>
		<polygon class="st3" points="289.2,409.2 207.7,449.9 221.4,454.4 180.7,373 162.4,382.1 203.2,463.6 207.7,472.7 216.8,468.1 
			298.3,427.4 		"/>
	</g>
	<g>
		<path class="st3" d="M206.8,30.1h5.3v33.3H208V36.7l-8.9,21.9h-3.8l-8.9-21.6v26.3h-4.1V30.1h5.4l9.7,23.8L206.8,30.1z"/>
		<path class="st3" d="M229.5,39.3c1.3,0.6,2.2,1.5,2.9,2.8s1,3,1,5.2v16h-3.6l-0.3-2.7h-0.2c-0.6,1-1.4,1.8-2.5,2.3
			s-2.1,0.8-3.4,0.8c-1.3,0-2.5-0.3-3.5-0.8s-1.8-1.3-2.3-2.3c-0.6-1-0.8-2.2-0.8-3.6c0-2.3,0.7-4,2-5.2c1.3-1.2,3.5-2,6.3-2.2
			l4.1-0.4v-2c0-1.3-0.2-2.3-0.6-3s-0.9-1.2-1.7-1.6c-0.8-0.3-1.7-0.5-3-0.5c-0.8,0-1.8,0.1-2.8,0.2c-1,0.2-2,0.4-2.9,0.7v-3.6
			c0.9-0.3,2-0.5,3.1-0.7c1.2-0.2,2.3-0.2,3.3-0.2C226.6,38.5,228.2,38.8,229.5,39.3z M227,59.8c0.8-0.4,1.5-1.1,2-2V52l-3.7,0.4
			c-1.5,0.1-2.6,0.6-3.3,1.3c-0.7,0.7-1.1,1.7-1.1,2.9c0,1.3,0.3,2.3,1,2.9c0.6,0.6,1.5,1,2.7,1C225.5,60.4,226.3,60.2,227,59.8z"/>
		<path class="st3" d="M241.9,73.5c-1.1-0.2-2.1-0.4-3-0.7v-3.6c2,0.6,3.9,0.9,5.8,0.9c1.4,0,2.6-0.2,3.5-0.7
			c0.9-0.4,1.6-1.1,2.1-2.1s0.7-2.3,0.7-3.9v-2.5h-0.2c-0.5,0.8-1.3,1.5-2.2,2c-0.9,0.5-2,0.8-3.2,0.8c-1.5,0-2.8-0.4-4-1.2
			c-1.2-0.8-2.2-2.1-2.9-3.9c-0.7-1.8-1.1-4.1-1.1-7c0-4.4,0.9-7.7,2.8-9.8c1.9-2.2,4.7-3.2,8.5-3.3c1.1,0,2.3,0.1,3.5,0.3
			s2.3,0.5,3.2,0.8v23.1c0,3.9-0.9,6.7-2.6,8.4c-1.7,1.7-4.3,2.6-7.8,2.6C244.1,73.7,243,73.6,241.9,73.5z M249.3,59.4
			c0.7-0.4,1.3-0.9,1.7-1.6V42.3c-1-0.2-1.8-0.3-2.6-0.3c-2.2,0-3.8,0.7-4.9,2.1c-1.1,1.4-1.6,3.8-1.6,7.1c0,2.3,0.2,4.1,0.6,5.4
			c0.4,1.3,1,2.2,1.8,2.7c0.8,0.5,1.7,0.7,2.8,0.7C247.8,60,248.6,59.8,249.3,59.4z"/>
		<path class="st3" d="M260.7,33.4c-0.5-0.5-0.7-1.1-0.7-2c0-0.9,0.2-1.5,0.7-2c0.5-0.5,1.2-0.7,2.2-0.7c1,0,1.7,0.2,2.2,0.7
			c0.5,0.5,0.7,1.1,0.7,2c0,0.8-0.2,1.5-0.7,2c-0.5,0.5-1.2,0.7-2.2,0.7C262,34.1,261.2,33.9,260.7,33.4z M260.7,63.4V38.9h4.4v24.5
			H260.7z"/>
		<path class="st3" d="M282,39.3c1.3,0.6,2.2,1.5,2.9,2.8s1,3,1,5.2v16h-3.6l-0.3-2.7h-0.2c-0.6,1-1.4,1.8-2.5,2.3s-2.1,0.8-3.4,0.8
			c-1.3,0-2.5-0.3-3.5-0.8s-1.8-1.3-2.3-2.3c-0.6-1-0.8-2.2-0.8-3.6c0-2.3,0.7-4,2-5.2c1.3-1.2,3.5-2,6.3-2.2l4.1-0.4v-2
			c0-1.3-0.2-2.3-0.6-3s-0.9-1.2-1.7-1.6c-0.8-0.3-1.7-0.5-3-0.5c-0.8,0-1.8,0.1-2.8,0.2c-1,0.2-2,0.4-2.9,0.7v-3.6
			c0.9-0.3,2-0.5,3.1-0.7c1.2-0.2,2.3-0.2,3.3-0.2C279.1,38.5,280.7,38.8,282,39.3z M279.5,59.8c0.8-0.4,1.5-1.1,2-2V52l-3.7,0.4
			c-1.5,0.1-2.6,0.6-3.3,1.3c-0.7,0.7-1.1,1.7-1.1,2.9c0,1.3,0.3,2.3,1,2.9c0.6,0.6,1.5,1,2.7,1C278,60.4,278.8,60.2,279.5,59.8z"/>
		<path class="st3" d="M303.5,62.6c-1.2-0.8-2.2-2.1-3-3.9c-0.8-1.8-1.1-4.2-1.1-7c0-4.4,1-7.7,2.9-9.9c1.9-2.2,4.8-3.2,8.6-3.2
			c0.8,0,1.5,0,2.2,0.1V27h4.4v36.4h-3.7l-0.3-2.5h-0.2c-0.5,0.9-1.3,1.6-2.2,2.2c-0.9,0.5-2,0.8-3.2,0.8
			C306.2,63.8,304.8,63.4,303.5,62.6z M311.3,59.4c0.8-0.4,1.3-1,1.8-1.7V42.3c-0.3-0.1-0.7-0.1-1.2-0.2c-0.5,0-0.9-0.1-1.3-0.1
			c-1.5,0-2.7,0.3-3.7,0.9c-1,0.6-1.7,1.6-2.2,2.9c-0.5,1.3-0.8,3.1-0.8,5.4c0,2.3,0.2,4.1,0.6,5.4c0.4,1.3,1,2.2,1.7,2.7
			c0.7,0.5,1.6,0.7,2.7,0.7C309.8,60,310.6,59.8,311.3,59.4z"/>
		<path class="st3" d="M324.1,60.8c-1.6-2-2.4-5.2-2.4-9.6c0-4.4,0.8-7.6,2.4-9.6c1.6-2,3.9-3.1,7-3.1c3,0,5.3,1,7,3.1
			c1.6,2.1,2.4,5.3,2.4,9.6c0,8.4-3.1,12.6-9.4,12.6C328,63.8,325.7,62.8,324.1,60.8z M333.8,59.6c0.7-0.5,1.3-1.5,1.6-2.8
			c0.4-1.3,0.6-3.2,0.6-5.5c0-2.4-0.2-4.3-0.6-5.6c-0.4-1.4-0.9-2.3-1.6-2.9s-1.6-0.8-2.7-0.8c-1.1,0-2,0.3-2.7,0.8
			c-0.7,0.5-1.3,1.5-1.7,2.8c-0.4,1.3-0.6,3.2-0.6,5.5c0,2.4,0.2,4.3,0.6,5.6c0.4,1.4,0.9,2.3,1.6,2.8c0.7,0.5,1.6,0.8,2.7,0.8
			C332.1,60.4,333,60.1,333.8,59.6z"/>
		<path class="st3" d="M354.2,33.4c-0.5-0.5-0.7-1.1-0.7-2c0-0.9,0.2-1.5,0.7-2c0.5-0.5,1.2-0.7,2.2-0.7c1,0,1.7,0.2,2.2,0.7
			c0.5,0.5,0.7,1.1,0.7,2c0,0.8-0.2,1.5-0.7,2c-0.5,0.5-1.2,0.7-2.2,0.7C355.4,34.1,354.7,33.9,354.2,33.4z M354.2,63.4V38.9h4.4
			v24.5H354.2z"/>
		<path class="st3" d="M363.9,38.9h3.7l0.3,2.7h0.2c0.8-1,1.7-1.7,2.8-2.3c1.1-0.5,2.3-0.8,3.6-0.8c2.1,0,3.7,0.6,4.9,1.9
			c1.2,1.3,1.8,3.3,1.8,6.1v16.9h-4.4V46.8c0-1.6-0.3-2.7-0.9-3.4c-0.6-0.7-1.5-1-2.7-1c-0.9,0-1.8,0.2-2.7,0.7
			c-0.9,0.5-1.6,1.2-2.2,2.1v18.1h-4.4V38.9z"/>
		<path class="st3" d="M400.2,38.9h4.4l-7.6,24.5h-5.7l-7.6-24.5h4.6l6,20.2L400.2,38.9z"/>
		<path class="st3" d="M423.6,52.6h-13.1c0,1.9,0.3,3.4,0.8,4.5c0.5,1.1,1.2,1.9,2.1,2.4s2.2,0.7,3.8,0.7c1.5,0,3.3-0.3,5.3-0.9v3.6
			c-2,0.6-3.9,0.9-5.8,0.9c-2.5,0-4.5-0.4-6-1.3c-1.6-0.8-2.7-2.2-3.5-4.1c-0.8-1.9-1.2-4.3-1.2-7.4c0-4.3,0.8-7.4,2.4-9.5
			s3.8-3.1,6.7-3.1c2.8,0,4.9,1,6.3,3.1c1.4,2,2.2,5.2,2.2,9.6V52.6z M411.8,43.4c-0.8,1.2-1.2,3.3-1.2,6.3h8.9
			c0-2.1-0.2-3.7-0.6-4.8c-0.3-1.2-0.8-2-1.5-2.5c-0.6-0.5-1.4-0.7-2.3-0.7C413.7,41.6,412.6,42.2,411.8,43.4z"/>
		<path class="st3" d="M426.8,62.9v-3.6c1.9,0.6,3.8,1,5.7,1c1.6,0,2.8-0.3,3.6-0.9c0.8-0.6,1.2-1.5,1.2-2.7c0-1-0.2-1.7-0.7-2.3
			c-0.5-0.5-1.2-0.9-2.2-1.2l-2.7-0.7c-1.9-0.5-3.3-1.3-4.2-2.4c-0.9-1.1-1.3-2.5-1.3-4.3c0-1.4,0.3-2.7,1-3.8
			c0.7-1.1,1.7-1.9,3.1-2.5c1.3-0.6,3-0.9,4.9-0.9c1.7,0,3.3,0.2,4.9,0.6v3.6c-0.8-0.2-1.6-0.4-2.3-0.4c-0.7-0.1-1.5-0.1-2.4-0.1
			c-1.7,0-3,0.3-3.9,1c-0.8,0.7-1.3,1.5-1.3,2.6c0,0.9,0.2,1.6,0.7,2.1c0.5,0.5,1.2,0.9,2.1,1.2l2.7,0.7c2,0.5,3.4,1.3,4.3,2.4
			c0.9,1.1,1.3,2.6,1.3,4.4c0,1.5-0.3,2.8-1,3.9c-0.7,1.1-1.7,2-3,2.5c-1.3,0.6-2.9,0.9-4.7,0.9C430.5,63.8,428.6,63.5,426.8,62.9z"
			/>
		<path class="st3" d="M456.9,59.7v3.7c-1.2,0.3-2.3,0.4-3.4,0.4c-2.4,0-4.2-0.6-5.5-1.9c-1.3-1.3-1.9-3.3-1.9-6.1V42.4h-4v-3.6h4
			l0.8-8.8h3.6v8.8h6.1v3.6h-6.1v12.8c0,1.2,0.1,2.1,0.4,2.8s0.7,1.2,1.3,1.5s1.3,0.4,2.3,0.4C455.1,60,455.9,59.9,456.9,59.7z"/>
		<path class="st3" d="M460,33.4c-0.5-0.5-0.7-1.1-0.7-2c0-0.9,0.2-1.5,0.7-2c0.5-0.5,1.2-0.7,2.2-0.7c1,0,1.7,0.2,2.2,0.7
			c0.5,0.5,0.7,1.1,0.7,2c0,0.8-0.2,1.5-0.7,2c-0.5,0.5-1.2,0.7-2.2,0.7C461.2,34.1,460.5,33.9,460,33.4z M460,63.4V38.9h4.4v24.5
			H460z"/>
		<path class="st3" d="M496.9,40.4c1.2,1.3,1.8,3.3,1.8,6.2v16.7h-4.4V46.8c0-2.9-1.2-4.4-3.5-4.4c-0.8,0-1.6,0.2-2.4,0.6
			c-0.8,0.4-1.5,1.1-2.1,2c0,0.6,0,1,0,1.3v16.9h-4.3V46.8c0-1.6-0.3-2.7-0.9-3.4c-0.6-0.7-1.4-1-2.5-1c-0.8,0-1.7,0.2-2.6,0.7
			c-0.9,0.5-1.6,1.2-2.1,2.2v18h-4.4V38.9h3.7l0.3,2.7h0.2c1.6-2.1,3.7-3.1,6.2-3.1c1.2,0,2.3,0.3,3.3,0.8c0.9,0.5,1.7,1.4,2.2,2.6
			c0.9-1.1,1.9-2,3-2.5c1.1-0.5,2.3-0.8,3.5-0.8C494.1,38.5,495.7,39.1,496.9,40.4z"/>
		<path class="st3" d="M520.3,52.6h-13.1c0,1.9,0.3,3.4,0.8,4.5c0.5,1.1,1.2,1.9,2.1,2.4s2.2,0.7,3.8,0.7c1.5,0,3.3-0.3,5.3-0.9v3.6
			c-2,0.6-3.9,0.9-5.8,0.9c-2.5,0-4.5-0.4-6-1.3c-1.6-0.8-2.7-2.2-3.5-4.1c-0.8-1.9-1.2-4.3-1.2-7.4c0-4.3,0.8-7.4,2.4-9.5
			s3.8-3.1,6.7-3.1c2.8,0,4.9,1,6.3,3.1c1.4,2,2.2,5.2,2.2,9.6V52.6z M508.5,43.4c-0.8,1.2-1.2,3.3-1.2,6.3h8.9
			c0-2.1-0.2-3.7-0.6-4.8c-0.3-1.2-0.8-2-1.5-2.5c-0.6-0.5-1.4-0.7-2.3-0.7C510.4,41.6,509.3,42.2,508.5,43.4z"/>
		<path class="st3" d="M524.3,38.9h3.7l0.3,2.7h0.2c0.8-1,1.7-1.7,2.8-2.3c1.1-0.5,2.3-0.8,3.6-0.8c2.1,0,3.7,0.6,4.9,1.9
			c1.2,1.3,1.8,3.3,1.8,6.1v16.9h-4.4V46.8c0-1.6-0.3-2.7-0.9-3.4c-0.6-0.7-1.5-1-2.7-1c-0.9,0-1.8,0.2-2.7,0.7
			c-0.9,0.5-1.6,1.2-2.2,2.1v18.1h-4.4V38.9z"/>
		<path class="st3" d="M558.8,59.7v3.7c-1.2,0.3-2.3,0.4-3.4,0.4c-2.4,0-4.2-0.6-5.5-1.9c-1.3-1.3-1.9-3.3-1.9-6.1V42.4h-4v-3.6h4
			l0.8-8.8h3.6v8.8h6.1v3.6h-6.1v12.8c0,1.2,0.1,2.1,0.4,2.8s0.7,1.2,1.3,1.5s1.3,0.4,2.3,0.4C557,60,557.8,59.9,558.8,59.7z"/>
		<path class="st3" d="M562.9,60.8c-1.6-2-2.4-5.2-2.4-9.6c0-4.4,0.8-7.6,2.4-9.6c1.6-2,3.9-3.1,7-3.1c3,0,5.3,1,7,3.1
			c1.6,2.1,2.4,5.3,2.4,9.6c0,8.4-3.1,12.6-9.4,12.6C566.8,63.8,564.5,62.8,562.9,60.8z M572.5,59.6c0.7-0.5,1.3-1.5,1.6-2.8
			c0.4-1.3,0.6-3.2,0.6-5.5c0-2.4-0.2-4.3-0.6-5.6c-0.4-1.4-0.9-2.3-1.6-2.9s-1.6-0.8-2.7-0.8c-1.1,0-2,0.3-2.7,0.8
			c-0.7,0.5-1.3,1.5-1.7,2.8c-0.4,1.3-0.6,3.2-0.6,5.5c0,2.4,0.2,4.3,0.6,5.6c0.4,1.4,0.9,2.3,1.6,2.8c0.7,0.5,1.6,0.8,2.7,0.8
			C570.9,60.4,571.8,60.1,572.5,59.6z"/>
	</g>
	<g>
		
			<rect x="56.3" y="711.4" transform="matrix(0.7071 -0.7071 0.7071 0.7071 -461.9996 313.5797)" class="st4" width="182.5" height="6.1"/>
		
			<rect x="599.4" y="623.2" transform="matrix(0.7071 -0.7071 0.7071 0.7071 -328.7474 635.2787)" class="st4" width="6.1" height="182.5"/>
		
			<rect x="144.5" y="112.3" transform="matrix(0.7071 -0.7071 0.7071 0.7071 -100.7067 163.9273)" class="st4" width="6.1" height="182.5"/>
		
			<rect x="511.2" y="200.5" transform="matrix(0.7071 -0.7071 0.7071 0.7071 32.5454 485.6263)" class="st4" width="182.5" height="6.1"/>
	</g>
</g>
</svg>
