<?xml version="1.0" encoding="utf-8"?>
<!-- Generator: Adobe Illustrator 21.1.0, SVG Export Plug-In . SVG Version: 6.00 Build 0)  -->
<svg version="1.1" xmlns="http://www.w3.org/2000/svg" xmlns:xlink="http://www.w3.org/1999/xlink" x="0px" y="0px"
	 viewBox="0 0 750 620" style="enable-background:new 0 0 750 620;" xml:space="preserve">
<style type="text/css">
	.st0{display:none;}
	.st1{display:inline;}
	.st2{fill:#80CBC4;}
	.st3{fill:#102027;}
	.st4{fill:#FFAB00;}
	.st5{fill:#009688;}
	.st6{fill:#F57C00;}
	.st7{fill:#1D1D1B;}
	.st8{fill:#1B5E20;}
	.st9{fill:#E65100;}
	.st10{fill:#3E2723;}
	.st11{fill:#FDFDFC;}
	.st12{fill:#FFFFFF;}
	.st13{fill:#37474F;}
	.st14{fill:#62727B;}
	.st15{fill:#FFDD4B;}
	.st16{fill:#C67C00;}
	.st17{fill:#72370F;}
</style>
<g id="Camada_2" class="st0">
	<g class="st1">
		<rect x="-0.7" y="-460.5" class="st2" width="750.5" height="1337"/>
	</g>
</g>
<g id="Camada_1">
	<g>
		<ellipse class="st5" cx="223" cy="588.5" rx="132" ry="35.5"/>
	</g>
	<path class="st7" d="M136.3,122.6c-8.2,0-14.8,6.6-14.8,14.8v79.9l29.6-5.7v-74.1C151.1,129.2,144.5,122.6,136.3,122.6z"/>
	<g>
		<path class="st11" d="M286.3,396.6H160.4c-44.7,0-81-36.3-81-81v0c0-73.9,59.9-133.8,133.8-133.8h20.2
			c73.9,0,133.8,59.9,133.8,133.8v0C367.2,360.3,331,396.6,286.3,396.6z"/>
		<path class="st7" d="M286.3,400.2H160.4c-46.6,0-84.6-37.9-84.6-84.6c0-75.8,61.6-137.4,137.4-137.4h20.2
			c75.8,0,137.4,61.6,137.4,137.4C370.8,362.2,332.9,400.2,286.3,400.2z M213.2,185.4C141.4,185.4,83,243.8,83,315.6
			c0,42.7,34.7,77.4,77.4,77.4h125.9c42.7,0,77.4-34.7,77.4-77.4c0-71.8-58.4-130.2-130.2-130.2H213.2z"/>
	</g>
	<path class="st7" d="M290,363.3H156.7c-31.9,0-57.8-25.9-57.8-57.8v0c0-31.9,25.9-57.8,57.8-57.8H290c31.9,0,57.8,25.9,57.8,57.8v0
		C347.8,337.4,321.9,363.3,290,363.3z"/>
	<g>
		<g>
			<g>
				<g>
					<g>
						<circle class="st12" cx="298.9" cy="305.5" r="25.1"/>
						<path class="st7" d="M298.9,332.6c-14.9,0-27.1-12.1-27.1-27.1s12.1-27.1,27.1-27.1c14.9,0,27.1,12.1,27.1,27.1
							S313.8,332.6,298.9,332.6z M298.9,282.4c-12.7,0-23.1,10.4-23.1,23.1s10.4,23.1,23.1,23.1s23.1-10.4,23.1-23.1
							S311.6,282.4,298.9,282.4z"/>
					</g>
				</g>
			</g>
		</g>
		<g>
			<g>
				<g>
					<g>
						<circle class="st12" cx="147.8" cy="305.5" r="25.1"/>
						<path class="st7" d="M147.8,332.6c-14.9,0-27.1-12.1-27.1-27.1s12.1-27.1,27.1-27.1s27.1,12.1,27.1,27.1
							S162.7,332.6,147.8,332.6z M147.8,282.4c-12.7,0-23.1,10.4-23.1,23.1s10.4,23.1,23.1,23.1s23.1-10.4,23.1-23.1
							S160.5,282.4,147.8,282.4z"/>
					</g>
				</g>
			</g>
		</g>
	</g>
	<g>
		<path class="st12" d="M196.3,420.3c-23,0-50.1,41.9-55,88.2c-4.9,46.2,24,81.7,24,81.7h14.3c0,0,5-10.8,17.1-18.3
			c12.1-7.5,41.2-7.5,53.3,0c12.1,7.5,17.1,18.3,17.1,18.3h14.3c0,0,28.9-35.5,24-81.7c-4.9-46.2-32-88.2-55-88.2H196.3z"/>
		<path class="st7" d="M282.9,593.5h-18l-0.9-1.9c0-0.1-4.8-10-15.8-16.9c-10.9-6.8-38.8-6.8-49.7,0c-11.1,6.9-15.8,16.8-15.8,16.9
			l-0.9,1.9h-18l-1-1.2c-1.2-1.5-29.7-37.1-24.7-84.2c5.1-47.7,32.9-91.2,58.3-91.2h54c25.4,0,53.2,43.4,58.3,91.2
			c5,47.1-23.5,82.7-24.7,84.2L282.9,593.5z M269,586.9h10.6c4.8-6.5,26.5-38.5,22.3-78c-5-47.2-32.4-85.2-51.7-85.2h-54
			c-19.3,0-46.7,38-51.7,85.2c-4.2,39.6,17.5,71.5,22.3,78h10.6c2.1-3.6,7.6-11.7,17.3-17.8c13-8.1,43.8-8.1,56.8,0
			C261.5,575.2,266.9,583.2,269,586.9z"/>
	</g>
	<path class="st7" d="M240.7,568.5l-2.7-1.1c0.6-1.5,15.1-36.7,39.2-43.7c9.5-2.8,19.2-0.7,28.8,6.1l-1.7,2.3
		c-8.8-6.3-17.7-8.2-26.3-5.7C255.3,533.1,240.9,568.1,240.7,568.5z"/>
	<path class="st7" d="M205.2,568.5c-0.1-0.4-14.6-35.4-37.3-42c-8.6-2.5-17.5-0.6-26.3,5.7l-1.7-2.3c9.6-6.8,19.3-8.9,28.8-6.1
		c24.1,7,38.6,42.2,39.2,43.7L205.2,568.5z"/>
	<g>
		<g>
			<circle class="st3" cx="223.3" cy="453" r="80.5"/>
			<path class="st4" d="M223.3,537c-46.3,0-84-37.7-84-84s37.7-84,84-84s84,37.7,84,84S269.6,537,223.3,537z M223.3,376
				c-42.5,0-77,34.5-77,77s34.5,77,77,77s77-34.5,77-77S265.7,376,223.3,376z"/>
		</g>
		<g>
			<g>
				<path class="st4" d="M196.7,479.7c0.1-2.2,0.8-4.7,2-7.3c1.3-2.6,2.8-4.4,4.5-5.4c8,4.2,14.9,6.3,20.6,6.3
					c2.3,0,4.2-0.4,5.6-1.3c1.4-0.9,2.1-2.1,2.1-3.8c0-2.7-1.9-4.7-5.7-6l-11-3.9c-10.3-3.9-15.4-10.1-15.4-18.4
					c0-5,1.6-9.3,4.9-12.8c3.3-3.5,7.6-5.8,12.9-6.8v-9.4c1.5-0.3,3.5-0.5,6.2-0.5c2.7,0,4.8,0.2,6.3,0.5v9.2
					c5.6,0.6,11.7,2.3,18.2,5.1c0,2.5-0.5,4.9-1.6,7.4c-1.1,2.4-2.5,4.4-4.3,6c-7.7-3.1-13.8-4.6-18.2-4.6c-2,0-3.6,0.4-4.8,1.3
					c-1.2,0.9-1.8,2.1-1.8,3.5c0,1.9,1.9,3.6,5.8,4.9l10.8,4.2c10.6,3.9,15.9,10.5,15.9,19.8c0,5.1-1.9,9.4-5.6,12.8
					c-3.7,3.4-8.7,5.6-14.8,6.4v8.8c-1.2,0.2-3.3,0.3-6.3,0.3c-3.1,0-5.1-0.1-6.2-0.3v-8.9C208.6,485.4,201.9,483.1,196.7,479.7z"/>
			</g>
		</g>
	</g>
	<g>
		<path class="st12" d="M143.4,411.3c15.6-4.8,23.1-8.2,19.6,4.7c-1.4,5.1-3.8,9.8-7,13.9c-8.1,10.4-12.4,11.6-21.4-3.4
			C127.7,415.2,137,413.3,143.4,411.3z"/>
		<path class="st7" d="M146,441.3c-0.2,0-0.3,0-0.5,0c-4.6-0.3-8.7-4-14-13c-2.8-4.7-3.6-8.7-2.3-12c1.9-5,7.5-6.7,12-8
			c0.4-0.1,0.8-0.2,1.2-0.4c1.3-0.4,2.5-0.8,3.6-1.1c9.8-3.1,15.7-5,19.4-1.5c3,2.9,2.2,7.7,1.1,11.6c-1.5,5.4-4,10.5-7.7,15.1
			C155.3,436.6,151.2,441.3,146,441.3z M159.9,410.6c-2.2,0-7.5,1.7-11.8,3c-1.2,0.4-2.4,0.8-3.7,1.1h0c-0.4,0.1-0.8,0.3-1.2,0.4
			c-2.8,0.8-6.7,2-7.4,3.8c-0.4,1.1,0.2,3.2,1.7,5.8c4.9,8.1,7.3,9.4,8.3,9.5c0,0,0.1,0,0.1,0c2.1,0,5.9-4.9,7.1-6.5
			c3-3.9,5.2-8.2,6.4-12.6c0.7-2.6,0.8-3.9,0.7-4.5C160.1,410.6,160,410.6,159.9,410.6z"/>
	</g>
	<g>
		<path class="st12" d="M300.6,411.3c-15.6-4.8-23.1-8.2-19.6,4.7c1.4,5.1,3.8,9.8,7,13.9c8.1,10.4,12.4,11.6,21.4-3.4
			C316.2,415.2,306.9,413.3,300.6,411.3z"/>
		<path class="st7" d="M298,441.3c-5.2,0-9.3-4.8-12.8-9.2c-3.6-4.7-6.2-9.7-7.7-15.1c-1.1-3.9-1.9-8.7,1.1-11.6
			c3.6-3.5,9.6-1.6,19.4,1.5c1.2,0.4,2.4,0.7,3.6,1.1h0c0.4,0.1,0.8,0.2,1.2,0.4c4.5,1.3,10,3,12,8c1.3,3.4,0.6,7.3-2.3,12
			c-5.4,8.9-9.4,12.7-14,13C298.3,441.3,298.2,441.3,298,441.3z M283.7,410.6c0,0.6,0,1.8,0.7,4.5c1.2,4.5,3.4,8.7,6.4,12.6
			c1.2,1.6,5,6.5,7.1,6.5c0,0,0.1,0,0.1,0c1-0.1,3.5-1.4,8.3-9.5c1.5-2.5,2.1-4.6,1.7-5.8c-0.7-1.8-4.5-2.9-7.4-3.8
			c-0.4-0.1-0.8-0.3-1.2-0.4c-1.3-0.4-2.5-0.8-3.7-1.1C291.3,412.2,285.7,410.4,283.7,410.6z"/>
	</g>
	<circle class="st7" cx="148" cy="321" r="25"/>
	<rect x="176" y="13" class="st3" width="227" height="129"/>
	<g>
		<path class="st12" d="M234.8,40.4h-9.2V48h10.7v2.3h-13.5V28.9h13.4v2.3h-10.6v6.9h9.2V40.4z"/>
		<path class="st12" d="M248.6,46.1c0-0.7-0.3-1.3-0.8-1.7s-1.5-0.8-2.9-1c-1.4-0.3-2.5-0.6-3.3-1.1c-0.8-0.4-1.4-0.9-1.8-1.5
			s-0.6-1.2-0.6-2c0-1.3,0.5-2.4,1.6-3.3c1.1-0.9,2.5-1.3,4.2-1.3c1.8,0,3.3,0.5,4.4,1.4c1.1,0.9,1.7,2.1,1.7,3.6h-2.7
			c0-0.7-0.3-1.4-0.9-1.9c-0.6-0.5-1.4-0.8-2.4-0.8c-1,0-1.8,0.2-2.3,0.6s-0.8,1-0.8,1.7c0,0.7,0.3,1.1,0.8,1.5s1.5,0.6,2.8,1
			s2.4,0.7,3.3,1.1s1.5,0.9,1.9,1.5s0.6,1.3,0.6,2.2c0,1.4-0.6,2.6-1.7,3.4s-2.6,1.3-4.4,1.3c-1.3,0-2.4-0.2-3.4-0.7
			s-1.7-1.1-2.3-1.9s-0.8-1.7-0.8-2.6h2.7c0,0.9,0.4,1.6,1.1,2.2c0.7,0.5,1.6,0.8,2.7,0.8c1,0,1.8-0.2,2.5-0.6
			C248.3,47.3,248.6,46.8,248.6,46.1z"/>
		<path class="st12" d="M258.6,30.6v3.8h3v2.1h-3v9.8c0,0.6,0.1,1.1,0.4,1.4s0.7,0.5,1.3,0.5c0.3,0,0.7-0.1,1.3-0.2v2.2
			c-0.7,0.2-1.4,0.3-2.1,0.3c-1.2,0-2.1-0.4-2.7-1.1s-0.9-1.8-0.9-3.1v-9.8H253v-2.1h2.9v-3.8H258.6z"/>
		<path class="st12" d="M274.5,50.3c-0.2-0.3-0.3-0.9-0.4-1.7c-1.3,1.3-2.8,2-4.5,2c-1.6,0-2.8-0.4-3.8-1.3s-1.5-2-1.5-3.4
			c0-1.7,0.6-2.9,1.9-3.8s3-1.4,5.3-1.4h2.6v-1.2c0-0.9-0.3-1.7-0.8-2.3s-1.4-0.8-2.5-0.8c-1,0-1.8,0.2-2.4,0.7s-1,1.1-1,1.8h-2.7
			c0-0.8,0.3-1.6,0.8-2.3c0.6-0.7,1.3-1.3,2.3-1.8c1-0.4,2-0.6,3.2-0.6c1.8,0,3.3,0.5,4.3,1.4s1.6,2.2,1.6,3.8v7.3
			c0,1.5,0.2,2.6,0.6,3.5v0.2H274.5z M270,48.2c0.8,0,1.7-0.2,2.4-0.7s1.3-1,1.7-1.7v-3.3h-2.1c-3.3,0-5,1-5,2.9
			c0,0.8,0.3,1.5,0.8,2S269.1,48.2,270,48.2z M272.5,27.8h3.3l-3.9,4.3l-2.2,0L272.5,27.8z"/>
		<path class="st12" d="M294.8,48.3c1,0,1.8-0.3,2.5-0.9s1.1-1.3,1.2-2.2h2.6c0,0.9-0.4,1.8-0.9,2.6s-1.3,1.5-2.3,2
			c-1,0.5-2,0.7-3.1,0.7c-2.2,0-3.9-0.7-5.1-2.2c-1.3-1.4-1.9-3.4-1.9-5.9V42c0-1.5,0.3-2.9,0.8-4.1s1.4-2.1,2.4-2.8
			c1.1-0.7,2.3-1,3.8-1c1.8,0,3.3,0.5,4.4,1.6s1.8,2.4,1.9,4.1h-2.6c-0.1-1-0.5-1.9-1.2-2.5s-1.6-1-2.6-1c-1.4,0-2.4,0.5-3.2,1.5
			c-0.8,1-1.1,2.4-1.1,4.3v0.5c0,1.8,0.4,3.2,1.1,4.2S293.4,48.3,294.8,48.3z"/>
		<path class="st12" d="M313.9,50.3c-0.2-0.3-0.3-0.9-0.4-1.7c-1.3,1.3-2.8,2-4.5,2c-1.6,0-2.8-0.4-3.8-1.3s-1.5-2-1.5-3.4
			c0-1.7,0.6-2.9,1.9-3.8s3-1.4,5.3-1.4h2.6v-1.2c0-0.9-0.3-1.7-0.8-2.3s-1.4-0.8-2.5-0.8c-1,0-1.8,0.2-2.4,0.7s-1,1.1-1,1.8H304
			c0-0.8,0.3-1.6,0.8-2.3c0.6-0.7,1.3-1.3,2.3-1.8c1-0.4,2-0.6,3.2-0.6c1.8,0,3.3,0.5,4.3,1.4s1.6,2.2,1.6,3.8v7.3
			c0,1.5,0.2,2.6,0.6,3.5v0.2H313.9z M309.4,48.2c0.8,0,1.7-0.2,2.4-0.7s1.3-1,1.7-1.7v-3.3h-2.1c-3.3,0-5,1-5,2.9
			c0,0.8,0.3,1.5,0.8,2S308.5,48.2,309.4,48.2z"/>
		<path class="st12" d="M328.1,36.8c-0.4-0.1-0.9-0.1-1.3-0.1c-1.8,0-3,0.8-3.6,2.3v11.3h-2.7V34.4h2.6l0,1.8
			c0.9-1.4,2.1-2.1,3.8-2.1c0.5,0,0.9,0.1,1.2,0.2V36.8z"/>
		<path class="st12" d="M329.6,42.2c0-1.6,0.3-2.9,0.9-4.2s1.5-2.2,2.5-2.9s2.3-1,3.7-1c2.2,0,3.9,0.7,5.2,2.2c1.3,1.5,2,3.5,2,6
			v0.2c0,1.5-0.3,2.9-0.9,4.2s-1.4,2.2-2.5,2.9c-1.1,0.7-2.4,1-3.8,1c-2.1,0-3.9-0.7-5.2-2.2c-1.3-1.5-2-3.5-2-5.9V42.2z
			 M332.3,42.5c0,1.8,0.4,3.2,1.2,4.2c0.8,1.1,1.9,1.6,3.3,1.6c1.4,0,2.5-0.5,3.3-1.6s1.2-2.6,1.2-4.5c0-1.7-0.4-3.1-1.2-4.2
			c-0.8-1.1-1.9-1.6-3.3-1.6c-1.3,0-2.4,0.5-3.2,1.6S332.3,40.5,332.3,42.5z"/>
		<path class="st12" d="M347.3,54.5l-1.5-1.1c0.9-1.3,1.4-2.6,1.4-4v-2.4h2.7v2.1c0,1-0.2,2-0.7,3C348.7,53.1,348.1,53.9,347.3,54.5
			z"/>
		<path class="st12" d="M214.3,70.4l0.1,1.8c1.2-1.4,2.7-2.1,4.7-2.1c2.2,0,3.7,0.8,4.5,2.5c0.5-0.8,1.2-1.4,2.1-1.8s1.8-0.7,3-0.7
			c3.5,0,5.2,1.8,5.3,5.5v10.6h-2.7V75.8c0-1.1-0.3-2-0.8-2.5s-1.4-0.8-2.6-0.8c-1,0-1.8,0.3-2.5,0.9s-1,1.4-1.2,2.4v10.5h-2.7V75.9
			c0-2.3-1.1-3.5-3.4-3.5c-1.8,0-3,0.8-3.6,2.3v11.6h-2.7V70.4H214.3z"/>
		<path class="st12" d="M247.9,86.3c-0.2-0.3-0.3-0.9-0.4-1.7c-1.3,1.3-2.8,2-4.5,2c-1.6,0-2.8-0.4-3.8-1.3s-1.5-2-1.5-3.4
			c0-1.7,0.6-2.9,1.9-3.8s3-1.4,5.3-1.4h2.6v-1.2c0-0.9-0.3-1.7-0.8-2.3s-1.4-0.8-2.5-0.8c-1,0-1.8,0.2-2.4,0.7s-1,1.1-1,1.8h-2.7
			c0-0.8,0.3-1.6,0.8-2.3c0.6-0.7,1.3-1.3,2.3-1.8c1-0.4,2-0.6,3.2-0.6c1.8,0,3.3,0.5,4.3,1.4s1.6,2.2,1.6,3.8v7.3
			c0,1.5,0.2,2.6,0.6,3.5v0.2H247.9z M243.4,84.2c0.8,0,1.7-0.2,2.4-0.7s1.3-1,1.7-1.7v-3.3h-2.1c-3.3,0-5,1-5,2.9
			c0,0.8,0.3,1.5,0.8,2S242.5,84.2,243.4,84.2z"/>
		<path class="st12" d="M263.6,82.1c0-0.7-0.3-1.3-0.8-1.7s-1.5-0.8-2.9-1c-1.4-0.3-2.5-0.6-3.3-1.1c-0.8-0.4-1.4-0.9-1.8-1.5
			s-0.6-1.2-0.6-2c0-1.3,0.5-2.4,1.6-3.3c1.1-0.9,2.5-1.3,4.2-1.3c1.8,0,3.3,0.5,4.4,1.4c1.1,0.9,1.7,2.1,1.7,3.6h-2.7
			c0-0.7-0.3-1.4-0.9-1.9c-0.6-0.5-1.4-0.8-2.4-0.8c-1,0-1.8,0.2-2.3,0.6s-0.8,1-0.8,1.7c0,0.7,0.3,1.1,0.8,1.5s1.5,0.6,2.8,1
			s2.4,0.7,3.3,1.1s1.5,0.9,1.9,1.5s0.6,1.3,0.6,2.2c0,1.4-0.6,2.6-1.7,3.4s-2.6,1.3-4.4,1.3c-1.3,0-2.4-0.2-3.4-0.7
			s-1.7-1.1-2.3-1.9s-0.8-1.7-0.8-2.6h2.7c0,0.9,0.4,1.6,1.1,2.2c0.7,0.5,1.6,0.8,2.7,0.8c1,0,1.8-0.2,2.5-0.6
			C263.3,83.3,263.6,82.8,263.6,82.1z"/>
		<path class="st12" d="M277.3,66.2c0-0.4,0.1-0.8,0.4-1.1c0.3-0.3,0.7-0.5,1.2-0.5s0.9,0.2,1.2,0.5s0.4,0.7,0.4,1.1
			s-0.1,0.8-0.4,1.1s-0.7,0.4-1.2,0.4s-0.9-0.1-1.2-0.4C277.4,67,277.3,66.7,277.3,66.2z M280.2,86.3h-2.7V70.4h2.7V86.3z"/>
		<path class="st12" d="M287.1,70.4l0.1,2c1.2-1.5,2.8-2.3,4.7-2.3c3.3,0,5,1.9,5.1,5.7v10.5h-2.7V75.8c0-1.1-0.3-2-0.8-2.5
			c-0.5-0.5-1.3-0.8-2.4-0.8c-0.9,0-1.7,0.2-2.3,0.7s-1.2,1.1-1.6,1.8v11.3h-2.7V70.4H287.1z"/>
		<path class="st12" d="M306.3,82.6l3.9-12.2h2.8l-5.7,15.8h-2.1l-5.7-15.8h2.8L306.3,82.6z"/>
		<path class="st12" d="M322,86.6c-2.1,0-3.9-0.7-5.2-2.1s-2-3.3-2-5.7v-0.5c0-1.6,0.3-3,0.9-4.2c0.6-1.2,1.4-2.2,2.5-2.9
			c1.1-0.7,2.2-1,3.5-1c2.1,0,3.7,0.7,4.8,2s1.7,3.3,1.7,5.8v1.1h-10.7c0,1.6,0.5,2.8,1.4,3.8s2,1.4,3.3,1.4c1,0,1.8-0.2,2.4-0.6
			s1.2-0.9,1.7-1.6l1.7,1.3C326.7,85.5,324.7,86.6,322,86.6z M321.7,72.4c-1.1,0-2,0.4-2.8,1.2s-1.2,1.9-1.4,3.3h7.9v-0.2
			c-0.1-1.4-0.4-2.4-1.1-3.2S322.8,72.4,321.7,72.4z"/>
		<path class="st12" d="M340.6,82.1c0-0.7-0.3-1.3-0.8-1.7s-1.5-0.8-2.9-1c-1.4-0.3-2.5-0.6-3.3-1.1c-0.8-0.4-1.4-0.9-1.8-1.5
			s-0.6-1.2-0.6-2c0-1.3,0.5-2.4,1.6-3.3c1.1-0.9,2.5-1.3,4.2-1.3c1.8,0,3.3,0.5,4.4,1.4c1.1,0.9,1.7,2.1,1.7,3.6h-2.7
			c0-0.7-0.3-1.4-0.9-1.9c-0.6-0.5-1.4-0.8-2.4-0.8c-1,0-1.8,0.2-2.3,0.6s-0.8,1-0.8,1.7c0,0.7,0.3,1.1,0.8,1.5s1.5,0.6,2.8,1
			s2.4,0.7,3.3,1.1s1.5,0.9,1.9,1.5s0.6,1.3,0.6,2.2c0,1.4-0.6,2.6-1.7,3.4s-2.6,1.3-4.4,1.3c-1.3,0-2.4-0.2-3.4-0.7
			s-1.7-1.1-2.3-1.9s-0.8-1.7-0.8-2.6h2.7c0,0.9,0.4,1.6,1.1,2.2c0.7,0.5,1.6,0.8,2.7,0.8c1,0,1.8-0.2,2.5-0.6
			C340.3,83.3,340.6,82.8,340.6,82.1z"/>
		<path class="st12" d="M350.5,66.6v3.8h3v2.1h-3v9.8c0,0.6,0.1,1.1,0.4,1.4s0.7,0.5,1.3,0.5c0.3,0,0.7-0.1,1.3-0.2v2.2
			c-0.7,0.2-1.4,0.3-2.1,0.3c-1.2,0-2.1-0.4-2.7-1.1s-0.9-1.8-0.9-3.1v-9.8h-2.9v-2.1h2.9v-3.8H350.5z"/>
		<path class="st12" d="M356.6,66.2c0-0.4,0.1-0.8,0.4-1.1c0.3-0.3,0.7-0.5,1.2-0.5s0.9,0.2,1.2,0.5s0.4,0.7,0.4,1.1
			s-0.1,0.8-0.4,1.1s-0.7,0.4-1.2,0.4s-0.9-0.1-1.2-0.4C356.8,67,356.6,66.7,356.6,66.2z M359.6,86.3h-2.7V70.4h2.7V86.3z"/>
		<path class="st12" d="M203.5,106.4l0.1,1.8c1.2-1.4,2.7-2.1,4.7-2.1c2.2,0,3.7,0.8,4.5,2.5c0.5-0.8,1.2-1.4,2.1-1.8s1.8-0.7,3-0.7
			c3.5,0,5.2,1.8,5.3,5.5v10.6h-2.7v-10.5c0-1.1-0.3-2-0.8-2.5s-1.4-0.8-2.6-0.8c-1,0-1.8,0.3-2.5,0.9s-1,1.4-1.2,2.4v10.5h-2.7
			v-10.4c0-2.3-1.1-3.5-3.4-3.5c-1.8,0-3,0.8-3.6,2.3v11.6h-2.7v-15.8H203.5z"/>
		<path class="st12" d="M233.8,122.6c-2.1,0-3.9-0.7-5.2-2.1s-2-3.3-2-5.7v-0.5c0-1.6,0.3-3,0.9-4.2c0.6-1.2,1.4-2.2,2.5-2.9
			c1.1-0.7,2.2-1,3.5-1c2.1,0,3.7,0.7,4.8,2s1.7,3.3,1.7,5.8v1.1h-10.7c0,1.6,0.5,2.8,1.4,3.8s2,1.4,3.3,1.4c1,0,1.8-0.2,2.4-0.6
			s1.2-0.9,1.7-1.6l1.7,1.3C238.4,121.5,236.4,122.6,233.8,122.6z M233.4,108.4c-1.1,0-2,0.4-2.8,1.2s-1.2,1.9-1.4,3.3h7.9v-0.2
			c-0.1-1.4-0.4-2.4-1.1-3.2S234.6,108.4,233.4,108.4z"/>
		<path class="st12" d="M252.9,120.7c-1.1,1.2-2.6,1.9-4.6,1.9c-1.7,0-3-0.5-3.9-1.5s-1.3-2.4-1.3-4.4v-10.3h2.7v10.2
			c0,2.4,1,3.6,2.9,3.6c2.1,0,3.4-0.8,4.1-2.3v-11.5h2.7v15.8h-2.6L252.9,120.7z"/>
		<path class="st12" d="M266.4,114.2c0-2.4,0.6-4.4,1.7-5.9s2.7-2.2,4.5-2.2c1.9,0,3.3,0.6,4.4,1.9v-8.3h2.7v22.5h-2.5l-0.1-1.7
			c-1.1,1.3-2.6,2-4.5,2c-1.8,0-3.3-0.8-4.5-2.3c-1.2-1.5-1.7-3.5-1.7-5.9V114.2z M269.1,114.5c0,1.8,0.4,3.2,1.1,4.2
			s1.8,1.5,3.1,1.5c1.7,0,3-0.8,3.8-2.3v-7.3c-0.8-1.5-2.1-2.2-3.7-2.2c-1.3,0-2.4,0.5-3.1,1.5S269.1,112.5,269.1,114.5z"/>
		<path class="st12" d="M284,102.2c0-0.4,0.1-0.8,0.4-1.1c0.3-0.3,0.7-0.5,1.2-0.5s0.9,0.2,1.2,0.5s0.4,0.7,0.4,1.1
			s-0.1,0.8-0.4,1.1s-0.7,0.4-1.2,0.4s-0.9-0.1-1.2-0.4C284.1,103,284,102.7,284,102.2z M286.9,122.3h-2.7v-15.8h2.7V122.3z"/>
		<path class="st12" d="M293.8,106.4l0.1,2c1.2-1.5,2.8-2.3,4.7-2.3c3.3,0,5,1.9,5.1,5.7v10.5H301v-10.5c0-1.1-0.3-2-0.8-2.5
			c-0.5-0.5-1.3-0.8-2.4-0.8c-0.9,0-1.7,0.2-2.3,0.7s-1.2,1.1-1.6,1.8v11.3h-2.7v-15.8H293.8z"/>
		<path class="st12" d="M310.5,108.3c1.2-1.5,2.8-2.2,4.7-2.2c3.3,0,5,1.9,5.1,5.7v10.5h-2.7v-10.5c0-1.1-0.3-2-0.8-2.5
			c-0.5-0.5-1.3-0.8-2.4-0.8c-0.9,0-1.7,0.2-2.3,0.7s-1.2,1.1-1.6,1.8v11.3h-2.7V99.8h2.7V108.3z"/>
		<path class="st12" d="M330.9,122.6c-2.1,0-3.9-0.7-5.2-2.1s-2-3.3-2-5.7v-0.5c0-1.6,0.3-3,0.9-4.2c0.6-1.2,1.4-2.2,2.5-2.9
			c1.1-0.7,2.2-1,3.5-1c2.1,0,3.7,0.7,4.8,2s1.7,3.3,1.7,5.8v1.1h-10.7c0,1.6,0.5,2.8,1.4,3.8s2,1.4,3.3,1.4c1,0,1.8-0.2,2.4-0.6
			s1.2-0.9,1.7-1.6l1.7,1.3C335.6,121.5,333.6,122.6,330.9,122.6z M330.6,108.4c-1.1,0-2,0.4-2.8,1.2s-1.2,1.9-1.4,3.3h7.9v-0.2
			c-0.1-1.4-0.4-2.4-1.1-3.2S331.7,108.4,330.6,108.4z"/>
		<path class="st12" d="M340.2,102.2c0-0.4,0.1-0.8,0.4-1.1c0.3-0.3,0.7-0.5,1.2-0.5s0.9,0.2,1.2,0.5s0.4,0.7,0.4,1.1
			s-0.1,0.8-0.4,1.1s-0.7,0.4-1.2,0.4s-0.9-0.1-1.2-0.4C340.4,103,340.2,102.7,340.2,102.2z M343.2,122.3h-2.7v-15.8h2.7V122.3z"/>
		<path class="st12" d="M355.2,108.8c-0.4-0.1-0.9-0.1-1.3-0.1c-1.8,0-3,0.8-3.6,2.3v11.3h-2.7v-15.8h2.6l0,1.8
			c0.9-1.4,2.1-2.1,3.8-2.1c0.5,0,0.9,0.1,1.2,0.2V108.8z"/>
		<path class="st12" d="M356.6,114.2c0-1.6,0.3-2.9,0.9-4.2s1.5-2.2,2.5-2.9s2.3-1,3.7-1c2.2,0,3.9,0.7,5.2,2.2c1.3,1.5,2,3.5,2,6
			v0.2c0,1.5-0.3,2.9-0.9,4.2s-1.4,2.2-2.5,2.9c-1.1,0.7-2.4,1-3.8,1c-2.1,0-3.9-0.7-5.2-2.2c-1.3-1.5-2-3.5-2-5.9V114.2z
			 M359.4,114.5c0,1.8,0.4,3.2,1.2,4.2c0.8,1.1,1.9,1.6,3.3,1.6c1.4,0,2.5-0.5,3.3-1.6s1.2-2.6,1.2-4.5c0-1.7-0.4-3.1-1.2-4.2
			c-0.8-1.1-1.9-1.6-3.3-1.6c-1.3,0-2.4,0.5-3.2,1.6S359.4,112.5,359.4,114.5z"/>
		<path class="st12" d="M374.8,120.9c0-0.4,0.1-0.8,0.4-1.1s0.7-0.5,1.2-0.5s0.9,0.2,1.2,0.5s0.4,0.7,0.4,1.1c0,0.4-0.1,0.8-0.4,1.1
			c-0.3,0.3-0.7,0.4-1.2,0.4s-0.9-0.1-1.2-0.4C374.9,121.7,374.8,121.3,374.8,120.9z M377.5,116.2h-2.4l-0.2-15.3h2.8L377.5,116.2z"
			/>
	</g>
	<polygon class="st3" points="176,132.5 176,167 225,141 	"/>
	<g>
		<g>
			<circle class="st9" cx="556.2" cy="417.3" r="59.3"/>
		</g>
		<path class="st7" d="M550.1,396.2c-0.1-6.5,1.1-13,3.4-19.2l2-4.6l2.3-4.4l2.7-4.2l3.1-4c1.1-1.2,2.2-2.5,3.3-3.8l3.6-3.6
			c1.3-1.1,2.6-2.2,4-3.2c1.4-0.9,2.9-1.7,4.4-2.5c1.6-0.7,3.1-1.3,4.7-1.9c1.6-0.5,3.3-0.9,4.9-1.3c1.7-0.2,3.4-0.4,5-0.5
			c1.7,0,3.4,0.1,5,0.3l0.1,0.7c-1.5,0.9-2.9,1.6-4.3,2.2c-1.4,0.8-2.8,1.5-4.1,2.2c-1.3,0.8-2.6,1.6-4,2.3
			c-1.3,0.8-2.5,1.6-3.8,2.4c-1.2,0.9-2.5,1.7-3.7,2.5c-1.2,0.9-2.5,1.7-3.7,2.5l-3.7,2.6c-1.2,1-2.3,2-3.4,3l-3.1,3.3l-2.9,3.6
			l-2.7,3.8l-2.3,4c-3,5.4-5,11.4-6,17.7L550.1,396.2z"/>
		<path class="st8" d="M563.6,341.8c0,0-2.1-15.3-6-21c-3.9-5.7-23.5-6.9-23.5-6.9l0,0c0,0,2.1,19.6,8,23.2s21.3,5,21.3,5
			L563.6,341.8z"/>
	</g>
	<g>
		<rect x="545.6" y="182" class="st10" width="18" height="264"/>
	</g>
	<g>
		<polygon class="st5" points="442.4,599 671.5,599 603,582.7 500.6,582.7 		"/>
	</g>
	<rect x="442.4" y="545.2" class="st3" width="22.1" height="53.8"/>
	<rect x="500.6" y="545.2" class="st3" width="22.1" height="37.6"/>
	<rect x="580.9" y="545.2" class="st3" width="22.1" height="37.6"/>
	<rect x="649.4" y="545.2" class="st3" width="22.1" height="53.8"/>
	<g>
		<g>
			<circle class="st6" cx="501.7" cy="454.2" r="59.3"/>
		</g>
		<path class="st7" d="M495.6,433.1c-0.1-6.5,1.1-13,3.4-19.2l2-4.6l2.3-4.4l2.7-4.2l3.1-4c1.1-1.2,2.2-2.5,3.3-3.8l3.6-3.6
			c1.3-1.1,2.6-2.2,4-3.2c1.4-0.9,2.9-1.7,4.4-2.5c1.6-0.7,3.1-1.3,4.7-1.9c1.6-0.5,3.3-0.9,4.9-1.3c1.7-0.2,3.4-0.4,5-0.5
			c1.7,0,3.4,0.1,5,0.3l0.1,0.7c-1.5,0.9-2.9,1.6-4.3,2.2c-1.4,0.8-2.8,1.5-4.1,2.2c-1.3,0.8-2.6,1.6-4,2.3
			c-1.3,0.8-2.5,1.6-3.8,2.4c-1.2,0.9-2.5,1.7-3.7,2.5c-1.2,0.9-2.5,1.7-3.7,2.5l-3.7,2.6c-1.2,1-2.3,2-3.4,3l-3.1,3.3l-2.9,3.6
			l-2.7,3.8l-2.3,4c-3,5.4-5,11.4-6,17.7L495.6,433.1z"/>
		<path class="st8" d="M509.1,378.6c0,0-2.1-15.3-6-21c-3.9-5.7-23.5-6.9-23.5-6.9l0,0c0,0,2.1,19.6,8,23.2c5.9,3.6,21.3,5,21.3,5
			L509.1,378.6z"/>
	</g>
	<g>
		<g>
			<circle class="st6" cx="603.4" cy="454.9" r="59.3"/>
		</g>
		<path class="st7" d="M597.2,433.8c-0.1-6.5,1.1-13,3.4-19.2l2-4.6l2.3-4.4l2.7-4.2l3.1-4c1.1-1.2,2.2-2.5,3.3-3.8l3.6-3.6
			c1.3-1.1,2.6-2.2,4-3.2c1.4-0.9,2.9-1.7,4.4-2.5c1.6-0.7,3.1-1.3,4.7-1.9c1.6-0.5,3.3-0.9,4.9-1.3c1.7-0.2,3.4-0.4,5-0.5
			c1.7,0,3.4,0.1,5,0.3l0.1,0.7c-1.5,0.9-2.9,1.6-4.3,2.2c-1.4,0.8-2.8,1.5-4.1,2.2c-1.3,0.8-2.6,1.6-4,2.3
			c-1.3,0.8-2.5,1.6-3.8,2.4c-1.2,0.9-2.5,1.7-3.7,2.5c-1.2,0.9-2.5,1.7-3.7,2.5l-3.7,2.6c-1.2,1-2.3,2-3.4,3l-3.1,3.3l-2.9,3.6
			l-2.7,3.8l-2.3,4c-3,5.4-5,11.4-6,17.7L597.2,433.8z"/>
		<path class="st8" d="M610.8,379.4c0,0-2.1-15.3-6-21c-3.9-5.7-23.5-6.9-23.5-6.9l0,0c0,0,2.1,19.6,8,23.2c5.9,3.6,21.3,5,21.3,5
			L610.8,379.4z"/>
	</g>
	<g>
		<rect x="442" y="463.8" class="st17" width="229.1" height="86.2"/>
	</g>
	<g>
		<rect x="429.1" y="128" class="st10" width="251" height="117"/>
	</g>
	<g>
		<rect x="442.4" y="599" class="st5" width="229.1" height="25"/>
	</g>
	<rect x="534.3" y="172.5" class="st4" width="46" height="6"/>
	<rect x="534.8" y="191" class="st4" width="46" height="6"/>
	<g>
		<g>
			<circle class="st6" cx="631.3" cy="188.3" r="15.5"/>
		</g>
		<path class="st7" d="M629.7,182.8c0-1.7,0.3-3.4,0.9-5l0.5-1.2l0.6-1.2l0.7-1.1l0.8-1c0.3-0.3,0.6-0.7,0.9-1l0.9-0.9
			c0.3-0.3,0.7-0.6,1-0.8c0.4-0.2,0.8-0.5,1.2-0.7c0.4-0.2,0.8-0.3,1.2-0.5c0.4-0.1,0.9-0.2,1.3-0.3c0.4-0.1,0.9-0.1,1.3-0.1
			c0.4,0,0.9,0,1.3,0.1l0,0.2c-0.4,0.2-0.8,0.4-1.1,0.6c-0.4,0.2-0.7,0.4-1.1,0.6c-0.3,0.2-0.7,0.4-1,0.6c-0.3,0.2-0.7,0.4-1,0.6
			c-0.3,0.2-0.6,0.4-1,0.6c-0.3,0.2-0.6,0.4-1,0.7l-1,0.7c-0.3,0.3-0.6,0.5-0.9,0.8l-0.8,0.9l-0.8,0.9l-0.7,1l-0.6,1
			c-0.8,1.4-1.3,3-1.6,4.6L629.7,182.8z"/>
		<path class="st8" d="M633.2,168.5c0,0-0.5-4-1.6-5.5s-6.2-1.8-6.2-1.8l0,0c0,0,0.6,5.1,2.1,6.1
			C629.1,168.2,633.1,168.6,633.2,168.5L633.2,168.5z"/>
	</g>
	<g>
		<g>
			<circle class="st3" cx="471.2" cy="171.1" r="19"/>
			<path class="st4" d="M471.2,191c-10.9,0-19.9-8.9-19.9-19.9s8.9-19.9,19.9-19.9c10.9,0,19.9,8.9,19.9,19.9S482.1,191,471.2,191z
				 M471.2,152.9c-10,0-18.2,8.2-18.2,18.2s8.2,18.2,18.2,18.2c10,0,18.2-8.2,18.2-18.2S481.2,152.9,471.2,152.9z"/>
		</g>
		<g>
			<g>
				<path class="st4" d="M464.9,177.4c0-0.5,0.2-1.1,0.5-1.7c0.3-0.6,0.7-1,1.1-1.3c1.9,1,3.5,1.5,4.9,1.5c0.5,0,1-0.1,1.3-0.3
					c0.3-0.2,0.5-0.5,0.5-0.9c0-0.6-0.4-1.1-1.3-1.4l-2.6-0.9c-2.4-0.9-3.6-2.4-3.6-4.4c0-1.2,0.4-2.2,1.2-3
					c0.8-0.8,1.8-1.4,3.1-1.6v-2.2c0.3-0.1,0.8-0.1,1.5-0.1c0.6,0,1.1,0,1.5,0.1v2.2c1.3,0.1,2.8,0.5,4.3,1.2c0,0.6-0.1,1.2-0.4,1.7
					c-0.3,0.6-0.6,1-1,1.4c-1.8-0.7-3.3-1.1-4.3-1.1c-0.5,0-0.9,0.1-1.1,0.3c-0.3,0.2-0.4,0.5-0.4,0.8c0,0.5,0.5,0.8,1.4,1.2l2.5,1
					c2.5,0.9,3.8,2.5,3.8,4.7c0,1.2-0.4,2.2-1.3,3c-0.9,0.8-2,1.3-3.5,1.5v2.1c-0.3,0.1-0.8,0.1-1.5,0.1c-0.7,0-1.2,0-1.5-0.1v-2.1
					C467.7,178.8,466.1,178.3,464.9,177.4z"/>
			</g>
		</g>
	</g>
	<g>
		<g>
			<circle class="st3" cx="504.2" cy="214.1" r="19"/>
			<path class="st4" d="M504.2,234c-10.9,0-19.9-8.9-19.9-19.9s8.9-19.9,19.9-19.9s19.9,8.9,19.9,19.9S515.1,234,504.2,234z
				 M504.2,195.9c-10,0-18.2,8.2-18.2,18.2s8.2,18.2,18.2,18.2s18.2-8.2,18.2-18.2S514.2,195.9,504.2,195.9z"/>
		</g>
		<g>
			<g>
				<path class="st4" d="M497.9,220.4c0-0.5,0.2-1.1,0.5-1.7c0.3-0.6,0.7-1,1.1-1.3c1.9,1,3.5,1.5,4.9,1.5c0.5,0,1-0.1,1.3-0.3
					c0.3-0.2,0.5-0.5,0.5-0.9c0-0.6-0.4-1.1-1.3-1.4l-2.6-0.9c-2.4-0.9-3.6-2.4-3.6-4.4c0-1.2,0.4-2.2,1.2-3
					c0.8-0.8,1.8-1.4,3.1-1.6v-2.2c0.3-0.1,0.8-0.1,1.5-0.1c0.6,0,1.1,0,1.5,0.1v2.2c1.3,0.1,2.8,0.5,4.3,1.2c0,0.6-0.1,1.2-0.4,1.7
					c-0.3,0.6-0.6,1-1,1.4c-1.8-0.7-3.3-1.1-4.3-1.1c-0.5,0-0.9,0.1-1.1,0.3c-0.3,0.2-0.4,0.5-0.4,0.8c0,0.5,0.5,0.8,1.4,1.2l2.5,1
					c2.5,0.9,3.8,2.5,3.8,4.7c0,1.2-0.4,2.2-1.3,3c-0.9,0.8-2,1.3-3.5,1.5v2.1c-0.3,0.1-0.8,0.1-1.5,0.1c-0.7,0-1.2,0-1.5-0.1v-2.1
					C500.7,221.8,499.1,221.3,497.9,220.4z"/>
			</g>
		</g>
	</g>
</g>
</svg>
