<?xml version="1.0" encoding="utf-8"?>
<!-- Generator: Adobe Illustrator 21.1.0, SVG Export Plug-In . SVG Version: 6.00 Build 0)  -->
<svg version="1.1" id="Camada_1" xmlns="http://www.w3.org/2000/svg" xmlns:xlink="http://www.w3.org/1999/xlink" x="0px" y="0px"
	 viewBox="0 0 400.2 619" style="enable-background:new 0 0 400.2 619;" xml:space="preserve">
<style type="text/css">
	.st0{display:none;}
	.st1{display:inline;}
	.st2{fill:#80CBC4;}
	.st3{fill:#FFFFFF;}
	.st4{fill:#1D1D1B;}
	.st5{fill:#009688;}
	.st6{fill:#FDFDFC;}
	.st7{fill:#102027;}
</style>
<g id="Camada_2" class="st0">
	<g class="st1">
		<rect x="-76.5" y="-461.5" class="st2" width="750.5" height="1337"/>
	</g>
</g>
<g id="Camada_1_1_">
	<g>
		<g>
			<path class="st3" d="M180.1,473.4c-12.8-8.3-16.5-25.4-8.2-38.3c8.3-12.8,25.4-16.5,38.3-8.2c0.3,0.2,0.6,0.4,0.8,0.6
				c56.4,13.3,92.6-25.1,85.7,0.4C283.9,474.6,187.1,478,180.1,473.4z"/>
			<path class="st4" d="M194,478.6c-7.9,0-13.7-0.8-15.8-2.1l0,0c-7-4.5-11.8-11.5-13.6-19.7c-1.8-8.2-0.2-16.5,4.3-23.5
				c9.4-14.5,28.8-18.6,43.2-9.3c0.1,0.1,0.3,0.2,0.4,0.3c28.9,6.6,51.9-0.7,67.1-5.5c9.8-3.1,15.7-5,19.4-1.5
				c3,2.9,2.2,7.7,1.1,11.6c-4.5,16.4-18.5,29.2-41.8,38.1C237,475.2,210.8,478.6,194,478.6z M182,470.4c4.8,2.1,48.5,2,81-13.1
				c16.7-7.8,26.8-17.9,30.2-30.2c0.7-2.6,0.8-3.9,0.7-4.5c-2-0.2-7.5,1.6-12.1,3c-15.1,4.8-40.5,12.8-71.6,5.4
				c-0.4-0.1-0.9-0.3-1.2-0.6c-0.1-0.1-0.3-0.2-0.4-0.3c-0.1-0.1-0.2-0.2-0.3-0.2c-5.4-3.5-11.8-4.7-18.1-3.3
				c-6.3,1.3-11.7,5.1-15.2,10.5C167.7,448.2,170.9,463.1,182,470.4z M182,470.4C182,470.4,182.1,470.4,182,470.4L182,470.4
				C182.1,470.4,182,470.4,182,470.4z"/>
		</g>
	</g>
	<g>
		<g>
			<path class="st3" d="M97.4,421.1c15.3-0.4,28,11.6,28.4,26.9s-11.6,28-26.9,28.4c-0.3,0-0.7,0-1,0c-54,21-62.1,73.1-70.8,48.1
				C11.2,478.9,89.1,421.4,97.4,421.1z"/>
			<path class="st4" d="M32.3,534.8c-0.4,0-0.7,0-1.1-0.1c-4.1-0.7-6.2-5.1-7.5-9c-5.6-16-1.3-34.6,12.9-55.1
				c19.1-27.6,52.9-52.9,60.7-53.1l0,0c17.2-0.5,31.6,13.1,32.1,30.4c0.5,17.2-13.1,31.6-30.4,32.1c-0.2,0-0.3,0-0.5,0
				c-27.5,11-42.3,30-52.2,42.6C40.5,530.1,36.8,534.8,32.3,534.8z M97.6,424.7c-5.1,1-41.1,25.8-59.4,56.7c-9.4,15.8-12,30-7.8,42
				c0.9,2.6,1.6,3.7,1.9,4.1c1.7-1,5.3-5.6,8.3-9.3c9.8-12.5,26.1-33.4,56-45c0.4-0.2,0.9-0.2,1.3-0.2c0.2,0,0.4,0,0.5,0
				s0.2,0,0.4,0c13.3-0.4,23.8-11.5,23.4-24.8C121.9,434.9,110.9,424.4,97.6,424.7z M97.5,424.7L97.5,424.7L97.5,424.7L97.5,424.7z"
				/>
		</g>
	</g>
	<g>
		<ellipse class="st5" cx="147.2" cy="585.5" rx="132" ry="35.5"/>
	</g>
	<path class="st4" d="M60.5,119.6c-8.2,0-14.8,6.6-14.8,14.8v79.9l29.6-5.7v-74.1C75.3,126.2,68.7,119.6,60.5,119.6z"/>
	<g>
		<path class="st6" d="M210.5,393.6H84.6c-44.7,0-81-36.3-81-81l0,0c0-73.9,59.9-133.8,133.8-133.8h20.2
			c73.9,0,133.8,59.9,133.8,133.8l0,0C291.4,357.3,255.2,393.6,210.5,393.6z"/>
		<path class="st4" d="M210.5,397.2H84.6C38,397.2,0,359.3,0,312.6c0-75.8,61.6-137.4,137.4-137.4h20.2
			c75.8,0,137.4,61.6,137.4,137.4C295,359.2,257.1,397.2,210.5,397.2z M137.4,182.4c-71.8,0-130.2,58.4-130.2,130.2
			c0,42.7,34.7,77.4,77.4,77.4h125.9c42.7,0,77.4-34.7,77.4-77.4c0-71.8-58.4-130.2-130.2-130.2L137.4,182.4L137.4,182.4z"/>
	</g>
	<path class="st4" d="M214.2,360.3H80.9c-31.9,0-57.8-25.9-57.8-57.8l0,0c0-31.9,25.9-57.8,57.8-57.8h133.3
		c31.9,0,57.8,25.9,57.8,57.8l0,0C272,334.4,246.1,360.3,214.2,360.3z"/>
	<g>
		<g>
			<g>
				<g>
					<g>
						<circle class="st3" cx="223.1" cy="302.5" r="25.1"/>
						<path class="st4" d="M223.1,329.6c-14.9,0-27.1-12.1-27.1-27.1s12.1-27.1,27.1-27.1c14.9,0,27.1,12.1,27.1,27.1
							S238,329.6,223.1,329.6z M223.1,279.4c-12.7,0-23.1,10.4-23.1,23.1s10.4,23.1,23.1,23.1s23.1-10.4,23.1-23.1
							S235.8,279.4,223.1,279.4z"/>
					</g>
				</g>
			</g>
		</g>
		<g>
			<g>
				<g>
					<g>
						<circle class="st3" cx="72" cy="302.5" r="25.1"/>
						<path class="st4" d="M72,329.6c-14.9,0-27.1-12.1-27.1-27.1S57,275.4,72,275.4s27.1,12.1,27.1,27.1S86.9,329.6,72,329.6z
							 M72,279.4c-12.7,0-23.1,10.4-23.1,23.1s10.4,23.1,23.1,23.1s23.1-10.4,23.1-23.1S84.7,279.4,72,279.4z"/>
					</g>
				</g>
			</g>
		</g>
	</g>
	<g>
		<path class="st3" d="M120.5,417.3c-23,0-50.1,41.9-55,88.2c-4.9,46.2,24,81.7,24,81.7h14.3c0,0,5-10.8,17.1-18.3s41.2-7.5,53.3,0
			s17.1,18.3,17.1,18.3h14.3c0,0,28.9-35.5,24-81.7s-32-88.2-55-88.2H120.5z"/>
		<path class="st4" d="M207.1,590.5h-18l-0.9-1.9c0-0.1-4.8-10-15.8-16.9c-10.9-6.8-38.8-6.8-49.7,0c-11.1,6.9-15.8,16.8-15.8,16.9
			l-0.9,1.9H88l-1-1.2c-1.2-1.5-29.7-37.1-24.7-84.2c5.1-47.7,32.9-91.2,58.3-91.2h54c25.4,0,53.2,43.4,58.3,91.2
			c5,47.1-23.5,82.7-24.7,84.2L207.1,590.5z M193.2,583.9h10.6c4.8-6.5,26.5-38.5,22.3-78c-5-47.2-32.4-85.2-51.7-85.2h-54
			c-19.3,0-46.7,38-51.7,85.2c-4.2,39.6,17.5,71.5,22.3,78h10.6c2.1-3.6,7.6-11.7,17.3-17.8c13-8.1,43.8-8.1,56.8,0
			C185.7,572.2,191.1,580.2,193.2,583.9z"/>
	</g>
	<path class="st4" d="M164.9,565.5l-2.7-1.1c0.6-1.5,15.1-36.7,39.2-43.7c9.5-2.8,19.2-0.7,28.8,6.1l-1.7,2.3
		c-8.8-6.3-17.7-8.2-26.3-5.7C179.5,530.1,165.1,565.1,164.9,565.5z"/>
	<path class="st4" d="M129.4,565.5c-0.1-0.4-14.6-35.4-37.3-42c-8.6-2.5-17.5-0.6-26.3,5.7l-1.7-2.3c9.6-6.8,19.3-8.9,28.8-6.1
		c24.1,7,38.6,42.2,39.2,43.7L129.4,565.5z"/>
	<rect x="115.2" y="15" class="st7" width="285" height="129"/>
	<g>
		<path class="st3" d="M192.2,60.3c0,2.1-0.3,3.8-1,5.3s-1.6,2.7-2.8,3.5l3.8,3l-1.9,1.8l-4.5-3.6c-0.7,0.2-1.4,0.3-2.2,0.3
			c-1.7,0-3.2-0.4-4.5-1.2s-2.3-2-3-3.5c-0.7-1.5-1.1-3.3-1.1-5.3v-1.5c0-2.1,0.4-3.9,1.1-5.4s1.7-2.8,3-3.6
			c1.3-0.8,2.8-1.3,4.5-1.3s3.2,0.4,4.5,1.2s2.3,2,3,3.6s1.1,3.4,1.1,5.5V60.3z M189.4,58.9c0-2.5-0.5-4.4-1.5-5.8
			c-1-1.4-2.4-2-4.3-2c-1.8,0-3.2,0.7-4.2,2c-1,1.4-1.5,3.2-1.6,5.6v1.6c0,2.4,0.5,4.4,1.5,5.8c1,1.4,2.4,2.1,4.3,2.1s3.2-0.7,4.2-2
			s1.5-3.2,1.5-5.7L189.4,58.9L189.4,58.9z"/>
		<path class="st3" d="M205.9,68.7c-1.1,1.2-2.6,1.9-4.6,1.9c-1.7,0-3-0.5-3.9-1.5s-1.3-2.4-1.3-4.4V54.4h2.7v10.2
			c0,2.4,1,3.6,2.9,3.6c2.1,0,3.4-0.8,4.1-2.3V54.4h2.7v15.8h-2.6L205.9,68.7z"/>
		<path class="st3" d="M222.5,70.3c-0.2-0.3-0.3-0.9-0.4-1.7c-1.3,1.3-2.8,2-4.5,2c-1.6,0-2.8-0.4-3.8-1.3s-1.5-2-1.5-3.4
			c0-1.7,0.6-2.9,1.9-3.8c1.3-0.9,3-1.4,5.3-1.4h2.6v-1.2c0-0.9-0.3-1.7-0.8-2.3s-1.4-0.8-2.5-0.8c-1,0-1.8,0.2-2.4,0.7
			s-1,1.1-1,1.8h-2.7c0-0.8,0.3-1.6,0.8-2.3c0.6-0.7,1.3-1.3,2.3-1.8c1-0.4,2-0.6,3.2-0.6c1.8,0,3.3,0.5,4.3,1.4s1.6,2.2,1.6,3.8
			v7.3c0,1.5,0.2,2.6,0.6,3.5v0.2L222.5,70.3L222.5,70.3z M218,68.2c0.8,0,1.7-0.2,2.4-0.7s1.3-1,1.7-1.7v-3.3H220c-3.3,0-5,1-5,2.9
			c0,0.8,0.3,1.5,0.8,2S217.1,68.2,218,68.2z"/>
		<path class="st3" d="M231.9,70.3h-2.7V47.8h2.7V70.3z"/>
		<path class="st3" d="M243,62.2c0-1.6,0.3-2.9,0.9-4.2c0.6-1.2,1.5-2.2,2.5-2.9c1.1-0.7,2.3-1,3.7-1c2.2,0,3.9,0.7,5.2,2.2
			c1.3,1.5,2,3.5,2,6v0.2c0,1.5-0.3,2.9-0.9,4.2c-0.6,1.2-1.4,2.2-2.5,2.9c-1.1,0.7-2.4,1-3.8,1c-2.1,0-3.9-0.7-5.2-2.2
			c-1.3-1.5-2-3.5-2-5.9L243,62.2L243,62.2z M245.7,62.5c0,1.8,0.4,3.2,1.2,4.2c0.8,1.1,1.9,1.6,3.3,1.6s2.5-0.5,3.3-1.6
			s1.2-2.6,1.2-4.5c0-1.7-0.4-3.1-1.2-4.2c-0.8-1.1-1.9-1.6-3.3-1.6c-1.3,0-2.4,0.5-3.2,1.6S245.7,60.5,245.7,62.5z"/>
		<path class="st3" d="M274.8,70.6c-2.1,0-3.9-0.7-5.2-2.1s-2-3.3-2-5.7v-0.5c0-1.6,0.3-3,0.9-4.2s1.4-2.2,2.5-2.9s2.2-1,3.5-1
			c2.1,0,3.7,0.7,4.8,2s1.7,3.3,1.7,5.8v1.1h-10.7c0,1.6,0.5,2.8,1.4,3.8s2,1.4,3.3,1.4c1,0,1.8-0.2,2.4-0.6s1.2-0.9,1.7-1.6
			l1.7,1.3C279.5,69.5,277.5,70.6,274.8,70.6z M274.5,56.4c-1.1,0-2,0.4-2.8,1.2s-1.2,1.9-1.4,3.3h7.9v-0.2
			c-0.1-1.4-0.4-2.4-1.1-3.2S275.6,56.4,274.5,56.4z"/>
		<path class="st3" d="M285.5,70.3V56.5H283v-2.1h2.5v-1.6c0-1.7,0.5-3,1.4-3.9s2.2-1.4,3.9-1.4c0.6,0,1.2,0.1,1.9,0.2l-0.1,2.2
			c-0.5-0.1-0.9-0.1-1.5-0.1c-0.9,0-1.6,0.3-2,0.8s-0.7,1.3-0.7,2.2v1.7h3.4v2.1h-3.6v13.8L285.5,70.3L285.5,70.3z"/>
		<path class="st3" d="M300.8,70.6c-2.1,0-3.9-0.7-5.2-2.1s-2-3.3-2-5.7v-0.5c0-1.6,0.3-3,0.9-4.2s1.4-2.2,2.5-2.9s2.2-1,3.5-1
			c2.1,0,3.7,0.7,4.8,2s1.7,3.3,1.7,5.8v1.1h-10.8c0,1.6,0.5,2.8,1.4,3.8s2,1.4,3.3,1.4c1,0,1.8-0.2,2.4-0.6s1.2-0.9,1.7-1.6
			l1.7,1.3C305.4,69.5,303.4,70.6,300.8,70.6z M300.4,56.4c-1.1,0-2,0.4-2.8,1.2s-1.2,1.9-1.4,3.3h7.9v-0.2
			c-0.1-1.4-0.4-2.4-1.1-3.2S301.6,56.4,300.4,56.4z"/>
		<path class="st3" d="M310.1,50.2c0-0.4,0.1-0.8,0.4-1.1s0.7-0.5,1.2-0.5s0.9,0.2,1.2,0.5s0.4,0.7,0.4,1.1s-0.1,0.8-0.4,1.1
			s-0.7,0.4-1.2,0.4s-0.9-0.1-1.2-0.4C310.2,51,310.1,50.7,310.1,50.2z M313,70.3h-2.7V54.4h2.7V70.3z"/>
		<path class="st3" d="M321,50.6v3.8h3v2.1h-3v9.8c0,0.6,0.1,1.1,0.4,1.4s0.7,0.5,1.3,0.5c0.3,0,0.7-0.1,1.3-0.2v2.2
			c-0.7,0.2-1.4,0.3-2.1,0.3c-1.2,0-2.1-0.4-2.7-1.1s-0.9-1.8-0.9-3.1v-9.8h-2.9v-2.1h2.9v-3.8C318.3,50.6,321,50.6,321,50.6z"/>
		<path class="st3" d="M326.2,62.2c0-1.6,0.3-2.9,0.9-4.2c0.6-1.2,1.5-2.2,2.5-2.9c1.1-0.7,2.3-1,3.7-1c2.2,0,3.9,0.7,5.2,2.2
			c1.3,1.5,2,3.5,2,6v0.2c0,1.5-0.3,2.9-0.9,4.2c-0.6,1.2-1.4,2.2-2.5,2.9c-1.1,0.7-2.4,1-3.8,1c-2.1,0-3.9-0.7-5.2-2.2
			c-1.3-1.5-2-3.5-2-5.9L326.2,62.2L326.2,62.2z M328.9,62.5c0,1.8,0.4,3.2,1.2,4.2c0.8,1.1,1.9,1.6,3.3,1.6s2.5-0.5,3.3-1.6
			s1.2-2.6,1.2-4.5c0-1.7-0.4-3.1-1.2-4.2c-0.8-1.1-1.9-1.6-3.3-1.6c-1.3,0-2.4,0.5-3.2,1.6S328.9,60.5,328.9,62.5z"/>
		<path class="st3" d="M178.2,98.2c0-2.4,0.6-4.4,1.7-5.9c1.1-1.5,2.7-2.2,4.5-2.2c1.9,0,3.3,0.6,4.4,1.9v-8.3h2.7v22.5H189
			l-0.1-1.7c-1.1,1.3-2.6,2-4.5,2c-1.8,0-3.3-0.8-4.5-2.3S178.2,100.7,178.2,98.2L178.2,98.2L178.2,98.2z M180.9,98.5
			c0,1.8,0.4,3.2,1.1,4.2s1.8,1.5,3.1,1.5c1.7,0,3-0.8,3.8-2.3v-7.3c-0.8-1.5-2.1-2.2-3.7-2.2c-1.3,0-2.4,0.5-3.1,1.5
			S180.9,96.5,180.9,98.5z"/>
		<path class="st3" d="M205.6,106.3c-0.2-0.3-0.3-0.9-0.4-1.7c-1.3,1.3-2.8,2-4.5,2c-1.6,0-2.8-0.4-3.8-1.3s-1.5-2-1.5-3.4
			c0-1.7,0.6-2.9,1.9-3.8s3-1.4,5.3-1.4h2.6v-1.2c0-0.9-0.3-1.7-0.8-2.3s-1.4-0.8-2.5-0.8c-1,0-1.8,0.2-2.4,0.7s-1,1.1-1,1.8h-2.7
			c0-0.8,0.3-1.6,0.8-2.3c0.6-0.7,1.3-1.3,2.3-1.8c1-0.4,2-0.6,3.2-0.6c1.8,0,3.3,0.5,4.3,1.4s1.6,2.2,1.6,3.8v7.3
			c0,1.5,0.2,2.6,0.6,3.5v0.2L205.6,106.3L205.6,106.3z M201.1,104.2c0.8,0,1.7-0.2,2.4-0.7s1.3-1,1.7-1.7v-3.3h-2.1
			c-3.3,0-5,1-5,2.9c0,0.8,0.3,1.5,0.8,2S200.2,104.2,201.1,104.2z"/>
		<path class="st3" d="M219.5,86.2c0-0.4,0.1-0.8,0.4-1.1c0.3-0.3,0.7-0.5,1.2-0.5s0.9,0.2,1.2,0.5s0.4,0.7,0.4,1.1
			s-0.1,0.8-0.4,1.1s-0.7,0.4-1.2,0.4s-0.9-0.1-1.2-0.4C219.7,87,219.5,86.7,219.5,86.2z M222.5,106.3h-2.7V90.4h2.7V106.3z"/>
		<path class="st3" d="M229.4,90.4l0.1,2c1.2-1.5,2.8-2.3,4.7-2.3c3.3,0,5,1.9,5.1,5.7v10.5h-2.7V95.8c0-1.1-0.3-2-0.8-2.5
			s-1.3-0.8-2.4-0.8c-0.9,0-1.7,0.2-2.3,0.7s-1.2,1.1-1.6,1.8v11.3h-2.7V90.4H229.4z"/>
		<path class="st3" d="M244.7,106.3V92.5h-2.5v-2.1h2.5v-1.6c0-1.7,0.5-3,1.4-3.9s2.2-1.4,3.9-1.4c0.6,0,1.2,0.1,1.9,0.2l-0.1,2.2
			c-0.5-0.1-0.9-0.1-1.5-0.1c-0.9,0-1.6,0.3-2,0.8s-0.7,1.3-0.7,2.2v1.7h3.4v2.1h-3.4v13.8L244.7,106.3L244.7,106.3z"/>
		<path class="st3" d="M256.7,106.3H254V83.8h2.7V106.3z"/>
		<path class="st3" d="M270.8,106.3c-0.2-0.3-0.3-0.9-0.4-1.7c-1.3,1.3-2.8,2-4.5,2c-1.6,0-2.8-0.4-3.8-1.3s-1.5-2-1.5-3.4
			c0-1.7,0.6-2.9,1.9-3.8s3-1.4,5.3-1.4h2.6v-1.2c0-0.9-0.3-1.7-0.8-2.3s-1.4-0.8-2.5-0.8c-1,0-1.8,0.2-2.4,0.7s-1,1.1-1,1.8H261
			c0-0.8,0.3-1.6,0.8-2.3c0.6-0.7,1.3-1.3,2.3-1.8c1-0.4,2-0.6,3.2-0.6c1.8,0,3.3,0.5,4.3,1.4s1.6,2.2,1.6,3.8v7.3
			c0,1.5,0.2,2.6,0.6,3.5v0.2L270.8,106.3L270.8,106.3z M266.3,104.2c0.8,0,1.7-0.2,2.4-0.7s1.3-1,1.7-1.7v-3.3h-2.1
			c-3.3,0-5,1-5,2.9c0,0.8,0.3,1.5,0.8,2S265.4,104.2,266.3,104.2z"/>
		<path class="st3" d="M283.7,104.3c1,0,1.8-0.3,2.5-0.9s1.1-1.3,1.2-2.2h2.6c0,0.9-0.4,1.8-0.9,2.6s-1.3,1.5-2.3,2s-2,0.7-3.1,0.7
			c-2.2,0-3.9-0.7-5.1-2.2c-1.3-1.4-1.9-3.4-1.9-5.9V98c0-1.5,0.3-2.9,0.8-4.1s1.4-2.1,2.4-2.8c1.1-0.7,2.3-1,3.8-1
			c1.8,0,3.3,0.5,4.4,1.6c1.2,1.1,1.8,2.4,1.9,4.1h-2.6c-0.1-1-0.5-1.9-1.2-2.5c-0.7-0.7-1.6-1-2.6-1c-1.4,0-2.4,0.5-3.2,1.5
			c-0.8,1-1.1,2.4-1.1,4.3v0.5c0,1.8,0.4,3.2,1.1,4.2S282.3,104.3,283.7,104.3z M284.2,106.4l-0.2,0.8c1.5,0.3,2.2,1.1,2.2,2.5
			c0,0.9-0.4,1.7-1.2,2.2s-1.9,0.8-3.3,0.8l-0.1-1.6c0.8,0,1.4-0.1,1.8-0.4s0.6-0.6,0.6-1.1c0-0.4-0.2-0.7-0.5-1s-0.9-0.4-1.9-0.4
			l0.5-2h2.1V106.4z"/>
		<path class="st3" d="M302.8,106.3c-0.2-0.3-0.3-0.9-0.4-1.7c-1.3,1.3-2.8,2-4.5,2c-1.6,0-2.8-0.4-3.8-1.3s-1.5-2-1.5-3.4
			c0-1.7,0.6-2.9,1.9-3.8s3-1.4,5.3-1.4h2.6v-1.2c0-0.9-0.3-1.7-0.8-2.3s-1.4-0.8-2.5-0.8c-1,0-1.8,0.2-2.4,0.7s-1,1.1-1,1.8H293
			c0-0.8,0.3-1.6,0.8-2.3c0.6-0.7,1.3-1.3,2.3-1.8c1-0.4,2-0.6,3.2-0.6c1.8,0,3.3,0.5,4.3,1.4s1.6,2.2,1.6,3.8v7.3
			c0,1.5,0.2,2.6,0.6,3.5v0.2L302.8,106.3L302.8,106.3z M304.7,84.2c0,1.1-0.3,1.9-0.9,2.6s-1.4,1-2.3,1c-0.4,0-0.7,0-1-0.1
			s-0.7-0.3-1.2-0.6c-0.5-0.3-0.8-0.5-1-0.5c-0.2-0.1-0.5-0.1-0.7-0.1c-0.4,0-0.7,0.2-1,0.5s-0.4,0.6-0.4,1l-1.8-0.1
			c0-1,0.3-1.9,0.9-2.6s1.3-1,2.2-1c0.3,0,0.7,0,0.9,0.1s0.6,0.3,1.1,0.6s0.8,0.5,1.1,0.6c0.3,0.1,0.5,0.1,0.8,0.1
			c0.4,0,0.8-0.2,1-0.5c0.3-0.3,0.4-0.7,0.4-1.2L304.7,84.2z M298.3,104.2c0.8,0,1.7-0.2,2.4-0.7s1.3-1,1.7-1.7v-3.3h-2.1
			c-3.3,0-5,1-5,2.9c0,0.8,0.3,1.5,0.8,2S297.5,104.2,298.3,104.2z"/>
		<path class="st3" d="M308.7,98.2c0-1.6,0.3-2.9,0.9-4.2c0.6-1.2,1.5-2.2,2.5-2.9c1.1-0.7,2.3-1,3.7-1c2.2,0,3.9,0.7,5.2,2.2
			c1.3,1.5,2,3.5,2,6v0.2c0,1.5-0.3,2.9-0.9,4.2c-0.6,1.2-1.4,2.2-2.5,2.9c-1.1,0.7-2.4,1-3.8,1c-2.1,0-3.9-0.7-5.2-2.2
			c-1.3-1.5-2-3.5-2-5.9L308.7,98.2L308.7,98.2z M311.4,98.5c0,1.8,0.4,3.2,1.2,4.2c0.8,1.1,1.9,1.6,3.3,1.6s2.5-0.5,3.3-1.6
			s1.2-2.6,1.2-4.5c0-1.7-0.4-3.1-1.2-4.2c-0.8-1.1-1.9-1.6-3.3-1.6c-1.3,0-2.4,0.5-3.2,1.6S311.4,96.5,311.4,98.5z"/>
		<path class="st3" d="M329.7,100.2c0-1.2,0.2-2.1,0.4-2.7s0.7-1.4,1.5-2.2l1.9-2c0.8-0.9,1.2-1.9,1.2-3c0-1-0.3-1.8-0.8-2.4
			s-1.3-0.9-2.3-0.9s-1.8,0.3-2.4,0.8s-1,1.2-1,2.1h-2.7c0-1.6,0.6-2.9,1.7-3.8c1.1-1,2.6-1.5,4.3-1.5c1.8,0,3.3,0.5,4.3,1.5
			s1.5,2.3,1.5,4.1c0,1.7-0.8,3.4-2.4,5l-1.6,1.6c-0.7,0.8-1.1,1.9-1.1,3.4H329.7z M329.5,104.9c0-0.4,0.1-0.8,0.4-1.1
			c0.3-0.3,0.7-0.5,1.2-0.5s0.9,0.2,1.2,0.5s0.4,0.7,0.4,1.1s-0.1,0.8-0.4,1.1c-0.3,0.3-0.7,0.4-1.2,0.4s-0.9-0.1-1.2-0.4
			C329.7,105.7,329.5,105.3,329.5,104.9z"/>
	</g>
	<polygon class="st7" points="115.2,134.5 115.2,169 164.2,143 	"/>
</g>
</svg>
