<?xml version="1.0" encoding="utf-8"?>
<!-- Generator: Adobe Illustrator 21.1.0, SVG Export Plug-In . SVG Version: 6.00 Build 0)  -->
<svg version="1.1" xmlns="http://www.w3.org/2000/svg" xmlns:xlink="http://www.w3.org/1999/xlink" x="0px" y="0px"
	 viewBox="0 0 750 724" style="enable-background:new 0 0 750 724;" xml:space="preserve">
<style type="text/css">
	.st0{display:none;}
	.st1{display:inline;}
	.st2{fill:#80CBC4;}
	.st3{fill:#102027;}
	.st4{fill:#FFAB00;}
	.st5{fill:#009688;}
	.st6{fill:#F57C00;}
	.st7{fill:#1D1D1B;}
	.st8{fill:#1B5E20;}
	.st9{fill:#E65100;}
	.st10{fill:#3E2723;}
	.st11{fill:#FDFDFC;}
	.st12{fill:#FFFFFF;}
	.st13{fill:#37474F;}
	.st14{fill:#62727B;}
	.st15{fill:#FFDD4B;}
	.st16{fill:#C67C00;}
	.st17{fill:#72370F;}
</style>
<g id="Camada_2" class="st0">
	<g class="st1">
		<rect x="-0.7" y="-268.5" class="st2" width="750.5" height="1337"/>
	</g>
	<g class="st1">
		<ellipse class="st5" cx="374.2" cy="721.2" rx="132" ry="35.5"/>
	</g>
</g>
<g id="Camada_1">
	<g>
		<g>
			<g>
				<g>
					<path class="st12" d="M404.3,609c-12.5-8.1-16.1-24.8-8-37.3c8.1-12.5,24.8-16.1,37.3-8c0.3,0.2,0.5,0.4,0.8,0.6
						c55,12.9,90.4-24.5,83.6,0.4C505.6,610.2,411.1,613.5,404.3,609z"/>
					<path class="st7" d="M417.8,614c-7.7,0-13.4-0.7-15.4-2.1l0,0c-14.1-9.1-18.2-28.1-9.1-42.2c4.4-6.8,11.2-11.6,19.2-13.3
						c8-1.7,16.1-0.2,23,4.2c0.1,0.1,0.3,0.2,0.4,0.3c28.2,6.4,50.6-0.6,65.5-5.3c9.6-3,15.3-4.8,18.9-1.4c2.9,2.8,2.1,7.5,1.1,11.3
						c-4.4,16-18.1,28.5-40.8,37.2C459.8,610.7,434.2,614,417.8,614z M406.1,606c4.7,2,47.3,2,79-12.8c16.3-7.6,26.2-17.5,29.5-29.5
						c0.7-2.6,0.7-3.8,0.7-4.4c-1.9-0.2-7.4,1.6-11.8,3c-14.8,4.7-39.5,12.5-69.9,5.3c-0.4-0.1-0.8-0.3-1.2-0.5
						c-0.1-0.1-0.3-0.2-0.4-0.3c-0.1-0.1-0.2-0.1-0.3-0.2c-5.3-3.4-11.6-4.6-17.7-3.2c-6.1,1.3-11.4,4.9-14.8,10.2
						C392.2,584.4,395.3,599,406.1,606z M406.2,606.1C406.2,606.1,406.2,606.1,406.2,606.1L406.2,606.1
						C406.2,606.1,406.2,606.1,406.2,606.1z"/>
				</g>
			</g>
			<g>
				<g>
					<path class="st12" d="M340.7,609c12.5-8.1,16.1-24.8,8-37.3c-8.1-12.5-24.8-16.1-37.3-8c-0.3,0.2-0.5,0.4-0.8,0.6
						c-55,12.9-90.4-24.5-83.6,0.4C239.4,610.2,333.8,613.5,340.7,609z"/>
					<path class="st7" d="M327.1,614c-16.3,0-42-3.3-62.8-11.3c-22.7-8.7-36.4-21.2-40.8-37.2c-1-3.8-1.9-8.5,1.1-11.3
						c3.6-3.4,9.3-1.6,18.9,1.4c14.9,4.7,37.3,11.8,65.5,5.3c0.1-0.1,0.3-0.2,0.4-0.3c6.8-4.4,15-5.9,23-4.2
						c8,1.7,14.8,6.4,19.2,13.3c9.1,14.1,5.1,33-9.1,42.2l0,0C340.5,613.3,334.9,614,327.1,614z M229.6,559.4c0,0.5,0,1.8,0.7,4.4
						c3.3,12,13.2,21.9,29.5,29.5c31.7,14.8,74.4,14.8,79,12.8c10.8-7.1,13.9-21.6,6.9-32.4c-7-10.9-21.6-14-32.5-7
						c-0.1,0.1-0.2,0.1-0.3,0.2c-0.1,0.1-0.3,0.2-0.4,0.3c-0.4,0.3-0.8,0.4-1.2,0.5c-30.4,7.1-55.1-0.6-69.9-5.3
						C237,561,231.5,559.2,229.6,559.4z M338.8,606.1C338.8,606.1,338.8,606.1,338.8,606.1C338.8,606.1,338.8,606.1,338.8,606.1z"/>
				</g>
			</g>
			<g>
				<path class="st12" d="M345.5,555.2c-22.4,0-48.9,40.9-53.7,86s23.4,79.7,23.4,79.7h13.9c0,0,4.9-10.5,16.7-17.8
					c11.8-7.3,40.2-7.3,52,0c11.8,7.3,16.7,17.8,16.7,17.8h13.9c0,0,28.2-34.6,23.4-79.7s-31.2-86-53.7-86H345.5z"/>
				<path class="st7" d="M429.9,724.3h-17.5l-0.9-1.9c0-0.1-4.7-9.8-15.5-16.5c-10.7-6.7-37.9-6.7-48.5,0
					c-10.8,6.8-15.4,16.4-15.5,16.5l-0.9,1.9h-17.5l-1-1.2c-1.2-1.5-29-36.2-24.1-82.1c5-46.5,32.1-88.9,56.9-88.9h52.6
					c24.8,0,51.9,42.4,56.9,88.9c4.9,45.9-22.9,80.7-24.1,82.1L429.9,724.3z M416.4,717.7h10.4c4.7-6.4,25.9-37.5,21.8-76.1
					c-4.9-46-31.6-83.1-50.4-83.1h-52.6c-18.8,0-45.5,37.1-50.4,83.1c-4.1,38.7,17,69.8,21.8,76.1h10.4c2.1-3.5,7.4-11.4,16.9-17.3
					c12.7-7.9,42.7-7.9,55.4,0C409.1,706.4,414.4,714.2,416.4,717.7z"/>
			</g>
			<path class="st7" d="M286.9,264.8c-8,0-14.5,6.5-14.5,14.5v77.9l28.9-5.6v-72.3C301.4,271.3,294.9,264.8,286.9,264.8z"/>
			<path class="st7" d="M436.8,499.7H306.8c-31.2,0-56.4-25.3-56.4-56.4v0c0-31.2,25.3-56.4,56.4-56.4h130.1
				c31.2,0,56.4,25.3,56.4,56.4v0C493.3,474.4,468,499.7,436.8,499.7z"/>
			<g>
				<g>
					<g>
						<g>
							<g>
								<circle class="st12" cx="445.5" cy="443.2" r="24.5"/>
								<path class="st7" d="M445.5,469.7c-14.6,0-26.4-11.9-26.4-26.4s11.9-26.4,26.4-26.4s26.4,11.9,26.4,26.4
									S460.1,469.7,445.5,469.7z M445.5,420.7c-12.4,0-22.6,10.1-22.6,22.6s10.1,22.6,22.6,22.6s22.6-10.1,22.6-22.6
									S458,420.7,445.5,420.7z"/>
							</g>
						</g>
					</g>
				</g>
				<g>
					<g>
						<g>
							<g>
								<circle class="st12" cx="298.1" cy="443.2" r="24.5"/>
								<path class="st7" d="M298.1,469.7c-14.6,0-26.4-11.9-26.4-26.4s11.9-26.4,26.4-26.4s26.4,11.9,26.4,26.4
									S312.7,469.7,298.1,469.7z M298.1,420.7c-12.4,0-22.6,10.1-22.6,22.6s10.1,22.6,22.6,22.6s22.6-10.1,22.6-22.6
									S310.6,420.7,298.1,420.7z"/>
							</g>
						</g>
					</g>
				</g>
			</g>
			<path class="st7" d="M388.8,699.8l-2.6-1.1c0.6-1.5,14.7-35.8,38.2-42.7c9.3-2.7,18.7-0.7,28.1,5.9l-1.6,2.3
				c-8.6-6.1-17.2-8-25.7-5.5C403,665.3,389,699.5,388.8,699.8z"/>
			<path class="st7" d="M354.2,699.8c-0.1-0.3-14.2-34.5-36.4-41c-8.4-2.5-17-0.6-25.7,5.5l-1.6-2.3c9.3-6.7,18.8-8.7,28.1-5.9
				c23.5,6.9,37.6,41.2,38.2,42.7L354.2,699.8z"/>
		</g>
		<path class="st6" d="M394.6,555.1h-44.4c-71.7,0-129.9-58.2-129.9-129.9v-13.9c0-53.7,43.5-97.2,97.2-97.2h109.8
			c53.7,0,97.2,43.5,97.2,97.2v13.9C524.5,496.9,466.3,555.1,394.6,555.1z"/>
		<path class="st8" d="M256.9,308.9c0,0-4.4-31.8-12.4-43.6c-8.1-11.8-48.9-14.3-48.9-14.3l0,0c0,0,4.4,40.6,16.6,48.1
			c12.2,7.5,44.1,10.4,44.1,10.4L256.9,308.9z"/>
		<path class="st10" d="M286.9,264.8c-8,0-14.5,6.5-14.5,14.5v77.9l28.9-5.6v-72.3C301.4,271.3,294.9,264.8,286.9,264.8z"/>
		<path class="st12" d="M438.5,511.1H305.1c-35.5,0-64.2-28.8-64.2-64.2v-7.2c0-35.5,28.8-64.2,64.2-64.2h133.4
			c35.5,0,64.2,28.8,64.2,64.2v7.2C502.7,482.3,474,511.1,438.5,511.1z"/>
		<path class="st7" d="M436.8,499.7H306.8c-31.2,0-56.4-25.3-56.4-56.4v0c0-31.2,25.3-56.4,56.4-56.4h130.1
			c31.2,0,56.4,25.3,56.4,56.4v0C493.3,474.4,468,499.7,436.8,499.7z"/>
		<g>
			<g>
				<g>
					<g>
						<g>
							<circle class="st12" cx="445.5" cy="443.2" r="24.5"/>
							<path class="st7" d="M445.5,469.7c-14.6,0-26.4-11.9-26.4-26.4s11.9-26.4,26.4-26.4s26.4,11.9,26.4,26.4
								S460.1,469.7,445.5,469.7z M445.5,420.7c-12.4,0-22.6,10.1-22.6,22.6s10.1,22.6,22.6,22.6s22.6-10.1,22.6-22.6
								S458,420.7,445.5,420.7z"/>
						</g>
					</g>
				</g>
			</g>
			<g>
				<g>
					<g>
						<g>
							<circle class="st12" cx="298.1" cy="443.2" r="24.5"/>
							<path class="st7" d="M298.1,469.7c-14.6,0-26.4-11.9-26.4-26.4s11.9-26.4,26.4-26.4s26.4,11.9,26.4,26.4
								S312.7,469.7,298.1,469.7z M298.1,420.7c-12.4,0-22.6,10.1-22.6,22.6s10.1,22.6,22.6,22.6s22.6-10.1,22.6-22.6
								S310.6,420.7,298.1,420.7z"/>
						</g>
					</g>
				</g>
			</g>
		</g>
	</g>
	<rect x="39.7" y="81.5" class="st3" width="159" height="111"/>
	<polygon class="st13" points="198.7,192.5 198.7,163.5 130.7,163.5 	"/>
	<rect x="551.7" y="81.5" class="st3" width="159" height="111"/>
	<polygon class="st13" points="551.7,192.5 551.7,163.5 619.7,163.5 	"/>
	<rect x="121.7" y="-0.5" class="st3" width="510" height="164"/>
	<g>
		<path class="st4" d="M270.5,53.1c2.5-0.5,4.8-0.8,6.9-0.8c3.8-0.1,6.6,0.7,8.5,2.4s2.9,4.2,2.9,7.7c0.1,3.4-0.8,5.9-2.7,7.7
			c-1.9,1.8-4.7,2.7-8.5,2.7c-0.8,0-1.8,0-2.9,0l0.2,9.5l-3.9,0.1L270.5,53.1z M283.3,67.7c1.2-1.1,1.8-2.9,1.7-5.3
			c0-2.5-0.6-4.3-1.8-5.4c-1.2-1.1-3-1.6-5.4-1.6c-1.2,0-2.3,0.1-3.3,0.3l0.2,13.5c0.8,0.1,1.8,0.1,3,0.1
			C280.3,69.5,282.1,68.9,283.3,67.7z"/>
		<path class="st4" d="M311.2,82l-2.8-9.1l-10.3,0.2l-2.5,9.1l-3.9,0.1l8.3-29.8l5.7-0.1l9.4,29.4L311.2,82z M299,69.7l8.3-0.1
			l-4.4-14.1L299,69.7z"/>
		<path class="st4" d="M334.9,82l-8.2-11.8c-0.6,0-1,0.1-1.4,0.1c-0.8,0-1.8,0-3,0l0.2,11.9l-3.9,0.1l-0.5-29.2
			c2.5-0.5,4.9-0.8,7.2-0.8c3.7-0.1,6.4,0.6,8.3,2.1c1.8,1.5,2.8,3.7,2.8,6.7c0.1,2.2-0.4,4-1.5,5.4s-2.6,2.5-4.6,3.1l8.7,12.4
			L334.9,82z M331,65.6c1.2-1,1.8-2.5,1.8-4.5c0-2-0.6-3.4-1.7-4.4c-1.1-0.9-2.8-1.4-5.2-1.3c-1.3,0-2.6,0.1-3.7,0.4l0.2,11.3
			c1.1,0.1,2.1,0.1,2.9,0.1C327.9,67.1,329.8,66.6,331,65.6z"/>
		<path class="st4" d="M360.1,82l-2.8-9.1L347,73.1l-2.5,9.1l-3.9,0.1l8.3-29.8l5.7-0.1l9.4,29.4L360.1,82z M347.9,69.7l8.3-0.1
			l-4.4-14.1L347.9,69.7z"/>
		<path class="st4" d="M385.2,69.1c1,1.2,1.5,2.8,1.6,4.8c0,2.8-0.9,4.9-2.9,6.3c-2,1.4-5.1,2.2-9.5,2.2c-2.3,0-4.5-0.1-6.7-0.3
			l-0.5-29c2.4-0.5,4.9-0.8,7.4-0.8c2.5,0,4.6,0.2,6.2,0.7c1.6,0.5,2.8,1.4,3.6,2.5c0.8,1.1,1.2,2.6,1.2,4.5c0,1.6-0.4,3.1-1.1,4.3
			c-0.8,1.2-2,2.1-3.7,2.5C382.7,67.1,384.2,67.9,385.2,69.1z M371.1,55.8l0.2,9.6l4.1-0.1c1.7,0,3-0.2,3.9-0.6c1-0.4,1.6-1,2-1.7
			s0.6-1.7,0.6-2.8c0-1.2-0.3-2.2-0.7-2.9c-0.5-0.7-1.2-1.2-2.1-1.5c-1-0.3-2.3-0.5-3.9-0.4C373.7,55.4,372.4,55.5,371.1,55.8z
			 M379.8,78.6c1.1-0.4,2-1,2.5-1.7c0.5-0.8,0.8-1.8,0.7-3c0-1.8-0.6-3.2-1.7-4c-1.1-0.9-2.8-1.3-5.2-1.2l-4.8,0.1l0.2,10.5
			c1.2,0.1,2.4,0.1,3.8,0.1C377.1,79.2,378.7,79,379.8,78.6z"/>
		<path class="st4" d="M395.2,78.8l12.9-0.2l0.1,3.4l-16.8,0.3l-0.5-29.6l16.6-0.3l0.1,3.4L394.8,56l0.2,9.3l10.8-0.2l0.1,3.4
			L395,68.7L395.2,78.8z M397.9,50.1l2.7-5.8l4-0.1l-3.4,5.9L397.9,50.1z"/>
		<path class="st4" d="M428.9,52.4l3.7-0.1l0.5,29.6l-4,0.1l-13.3-22.8l0.4,23l-3.7,0.1l-0.5-29.6l4-0.1l13.4,22.8L428.9,52.4z"/>
		<path class="st4" d="M441.1,82.3c-1.2-0.2-2.2-0.4-3.2-0.8l-0.1-3.4c2.2,0.7,4.4,1,6.4,1c2,0,3.4-0.5,4.4-1.3c1-0.8,1.4-2,1.4-3.6
			c0-0.9-0.2-1.6-0.5-2.2c-0.3-0.6-0.8-1.1-1.5-1.6c-0.7-0.4-1.6-0.9-2.8-1.3l-1.6-0.5c-2.1-0.7-3.7-1.7-4.9-3
			c-1.1-1.3-1.7-3-1.8-5.1c0-1.7,0.3-3.2,1.1-4.5s1.8-2.2,3.3-2.9c1.5-0.7,3.3-1.1,5.5-1.1c1,0,2,0,2.9,0.1c1,0.1,1.9,0.3,2.6,0.5
			l0.1,3.4c-1.6-0.5-3.4-0.7-5.3-0.7c-4.2,0.1-6.2,1.7-6.2,4.8c0,0.9,0.2,1.6,0.5,2.1c0.3,0.6,0.8,1.1,1.4,1.5s1.5,0.8,2.7,1.2
			l1.6,0.5c2.3,0.7,4,1.7,5.1,3c1.2,1.3,1.8,3,1.8,5.2c0,1.8-0.3,3.3-1.1,4.6c-0.8,1.3-1.9,2.3-3.3,3c-1.5,0.7-3.2,1.1-5.3,1.1
			C443.4,82.6,442.3,82.5,441.1,82.3z"/>
		<path class="st4" d="M458.7,81.7c-0.5-0.5-0.8-1.1-0.8-1.9c0-0.8,0.2-1.4,0.7-1.9s1.1-0.7,1.9-0.8c0.8,0,1.5,0.2,2,0.7
			c0.5,0.5,0.8,1.1,0.8,1.9c0,0.8-0.2,1.4-0.7,1.9c-0.5,0.5-1.1,0.8-1.9,0.8S459.2,82.2,458.7,81.7z M459.3,74.1l-1.1-10.6l-0.2-11
			l4.2-0.1l0.2,11l-0.7,10.6L459.3,74.1z"/>
		<path class="st4" d="M468.9,81.7c-0.5-0.5-0.8-1.1-0.8-1.9c0-0.8,0.2-1.4,0.7-1.9s1.1-0.7,1.9-0.8c0.8,0,1.5,0.2,2,0.7
			c0.5,0.5,0.8,1.1,0.8,1.9c0,0.8-0.2,1.4-0.7,1.9c-0.5,0.5-1.1,0.8-1.9,0.8C470,82.4,469.4,82.2,468.9,81.7z M469.5,74.1l-1.1-10.6
			l-0.2-11l4.2-0.1l0.2,11l-0.7,10.6L469.5,74.1z"/>
		<path class="st4" d="M479,81.7c-0.5-0.5-0.8-1.1-0.8-1.9c0-0.8,0.2-1.4,0.7-1.9s1.1-0.7,1.9-0.8c0.8,0,1.5,0.2,2,0.7
			c0.5,0.5,0.8,1.1,0.8,1.9c0,0.8-0.2,1.4-0.7,1.9c-0.5,0.5-1.1,0.8-1.9,0.8C480.2,82.4,479.5,82.2,479,81.7z M479.6,74.1l-1.1-10.6
			l-0.2-11l4.2-0.1l0.2,11l-0.7,10.6L479.6,74.1z"/>
		<path class="st4" d="M277.6,110.5c0.8,0,1.5-0.3,2.1-0.8c0.6-0.5,0.9-1.1,1-1.8l2.1,0c0,0.8-0.3,1.5-0.7,2.2
			c-0.5,0.7-1.1,1.2-1.9,1.7s-1.6,0.6-2.5,0.7c-1.8,0-3.2-0.5-4.3-1.7s-1.6-2.8-1.7-4.9l0-0.4c0-1.3,0.2-2.4,0.6-3.4
			c0.5-1,1.1-1.8,2-2.4c0.9-0.6,1.9-0.9,3.1-0.9c1.5,0,2.7,0.4,3.7,1.3c1,0.9,1.5,2,1.6,3.4l-2.1,0c-0.1-0.9-0.4-1.5-1-2.1
			c-0.6-0.5-1.3-0.8-2.2-0.8c-1.1,0-2,0.4-2.6,1.3c-0.6,0.8-0.9,2-0.9,3.6l0,0.4c0,1.5,0.4,2.7,1,3.5
			C275.5,110.1,276.4,110.5,277.6,110.5z"/>
		<path class="st4" d="M285.1,105.5c0-1.3,0.2-2.5,0.7-3.5c0.5-1,1.2-1.9,2.1-2.4c0.9-0.6,1.9-0.9,3.1-0.9c1.8,0,3.3,0.6,4.4,1.8
			c1.1,1.2,1.7,2.9,1.8,4.9l0,0.2c0,1.3-0.2,2.4-0.7,3.5c-0.5,1-1.2,1.8-2.1,2.4c-0.9,0.6-2,0.9-3.1,0.9c-1.8,0-3.3-0.6-4.4-1.8
			s-1.7-2.9-1.8-4.9L285.1,105.5z M287.4,105.7c0,1.5,0.4,2.6,1.1,3.5c0.7,0.9,1.6,1.3,2.8,1.3c1.1,0,2.1-0.5,2.7-1.4
			c0.7-0.9,1-2.2,0.9-3.8c0-1.4-0.4-2.6-1.1-3.5c-0.7-0.9-1.6-1.3-2.8-1.3c-1.1,0-2,0.5-2.7,1.4
			C287.7,102.8,287.4,104.1,287.4,105.7z"/>
		<path class="st4" d="M302.4,99l0.1,1.7c1-1.3,2.3-1.9,3.9-2c2.8,0,4.2,1.5,4.3,4.6l0.2,8.7l-2.3,0l-0.2-8.7c0-1-0.3-1.7-0.7-2.1
			s-1.1-0.7-2-0.6c-0.7,0-1.4,0.2-1.9,0.6s-1,0.9-1.3,1.6l0.2,9.4l-2.3,0L300.3,99L302.4,99z"/>
		<path class="st4" d="M314.1,105.5c0-2.1,0.4-3.7,1.3-4.9c0.9-1.2,2.2-1.9,3.8-1.9c1.6,0,2.8,0.5,3.7,1.5l0.1-1.3l2.1,0l0.3,18.3
			l-2.3,0l-0.1-6.3c-0.9,1-2.1,1.5-3.6,1.5c-1.6,0-2.9-0.6-3.8-1.8c-1-1.2-1.5-2.9-1.5-4.9L314.1,105.5z M316.4,105.7
			c0,1.5,0.4,2.7,1,3.5c0.7,0.9,1.5,1.3,2.6,1.2c1.3,0,2.4-0.6,3-1.8l-0.1-6.5c-0.7-1.2-1.8-1.7-3.1-1.7c-1.1,0-1.9,0.5-2.6,1.3
			C316.6,102.8,316.3,104,316.4,105.7z"/>
		<path class="st4" d="M337.5,110.8c-0.9,1-2.1,1.6-3.8,1.6c-1.4,0-2.5-0.4-3.2-1.2c-0.8-0.8-1.1-2-1.2-3.6l-0.2-8.6l2.3,0l0.1,8.5
			c0,2,0.9,3,2.5,3c1.7,0,2.9-0.7,3.4-2l-0.2-9.6l2.3,0l0.2,13.2l-2.1,0L337.5,110.8z"/>
		<path class="st4" d="M343.3,95.4c0-0.4,0.1-0.7,0.3-0.9c0.2-0.3,0.5-0.4,1-0.4s0.8,0.1,1,0.4c0.2,0.2,0.4,0.6,0.4,0.9
			s-0.1,0.7-0.3,0.9c-0.2,0.2-0.6,0.4-1,0.4c-0.4,0-0.8-0.1-1-0.3S343.4,95.8,343.3,95.4z M346.1,112.1l-2.3,0l-0.2-13.2l2.3,0
			L346.1,112.1z"/>
		<path class="st4" d="M357.8,108.6c0-0.6-0.2-1.1-0.7-1.4c-0.5-0.3-1.3-0.6-2.4-0.8c-1.1-0.2-2.1-0.5-2.7-0.8
			c-0.7-0.3-1.2-0.7-1.5-1.2c-0.3-0.5-0.5-1-0.5-1.7c0-1.1,0.4-2,1.3-2.8s2.1-1.2,3.5-1.2c1.5,0,2.7,0.3,3.7,1.1s1.4,1.7,1.4,2.9
			l-2.3,0c0-0.6-0.3-1.1-0.8-1.6c-0.5-0.4-1.2-0.7-2-0.6c-0.8,0-1.5,0.2-1.9,0.6s-0.7,0.8-0.7,1.4c0,0.5,0.2,1,0.7,1.2
			c0.4,0.3,1.2,0.5,2.4,0.8s2,0.5,2.8,0.9s1.2,0.8,1.6,1.2s0.5,1.1,0.5,1.8c0,1.2-0.4,2.1-1.4,2.9c-0.9,0.7-2.1,1.1-3.7,1.1
			c-1.1,0-2-0.2-2.8-0.5c-0.8-0.4-1.5-0.9-1.9-1.5c-0.5-0.7-0.7-1.4-0.7-2.2l2.3,0c0.1,0.8,0.4,1.4,0.9,1.8c0.6,0.4,1.3,0.6,2.3,0.6
			c0.9,0,1.5-0.2,2-0.6C357.5,109.6,357.8,109.2,357.8,108.6z"/>
		<path class="st4" d="M366.2,95.7l0.1,3.2l2.5,0l0,1.7l-2.5,0l0.1,8.2c0,0.5,0.1,0.9,0.4,1.2s0.6,0.4,1.1,0.4
			c0.3,0,0.6-0.1,1.1-0.2l0,1.8c-0.6,0.2-1.2,0.3-1.7,0.3c-1,0-1.8-0.3-2.3-0.9c-0.5-0.6-0.8-1.5-0.8-2.6l-0.1-8.2l-2.4,0l0-1.7
			l2.4,0l-0.1-3.2L366.2,95.7z"/>
		<path class="st4" d="M380.2,112.1c-0.1-0.3-0.2-0.7-0.3-1.4c-1,1.1-2.3,1.7-3.7,1.7c-1.3,0-2.4-0.3-3.2-1
			c-0.8-0.7-1.3-1.6-1.3-2.8c0-1.4,0.5-2.5,1.5-3.2c1-0.8,2.5-1.2,4.4-1.2l2.2,0l0-1c0-0.8-0.3-1.4-0.7-1.9s-1.2-0.7-2.1-0.7
			c-0.8,0-1.5,0.2-2,0.6c-0.5,0.4-0.8,0.9-0.8,1.5l-2.3,0c0-0.7,0.2-1.3,0.7-1.9c0.5-0.6,1.1-1.1,1.9-1.5c0.8-0.4,1.7-0.6,2.6-0.6
			c1.5,0,2.7,0.3,3.6,1.1c0.9,0.7,1.3,1.8,1.4,3.1l0.1,6.1c0,1.2,0.2,2.2,0.5,2.9l0,0.2L380.2,112.1z M376.4,110.4
			c0.7,0,1.4-0.2,2-0.6c0.6-0.4,1.1-0.9,1.4-1.5l0-2.7l-1.8,0c-2.8,0-4.1,0.9-4.1,2.5c0,0.7,0.3,1.3,0.7,1.6
			S375.7,110.4,376.4,110.4z"/>
		<path class="st4" d="M395.2,112.1l-2.3,0l-0.3-18.7l2.3,0L395.2,112.1z"/>
		<path class="st4" d="M398.9,95.4c0-0.4,0.1-0.7,0.3-0.9c0.2-0.3,0.5-0.4,1-0.4s0.8,0.1,1,0.4c0.2,0.2,0.4,0.6,0.4,0.9
			c0,0.4-0.1,0.7-0.3,0.9s-0.6,0.4-1,0.4c-0.4,0-0.8-0.1-1-0.3C399.1,96.1,398.9,95.8,398.9,95.4z M401.7,112.1l-2.3,0l-0.2-13.2
			l2.3,0L401.7,112.1z"/>
		<path class="st4" d="M416.8,105.6c0,2-0.4,3.6-1.3,4.9c-0.9,1.2-2.1,1.9-3.7,1.9c-1.7,0-3-0.5-3.9-1.7l-0.1,1.5l-2.1,0l-0.3-18.7
			l2.3,0l0.1,7c0.9-1.1,2.1-1.7,3.7-1.8c1.6,0,2.9,0.6,3.8,1.8s1.4,2.8,1.5,5L416.8,105.6z M414.5,105.4c0-1.5-0.3-2.7-1-3.5
			c-0.6-0.8-1.5-1.2-2.6-1.2c-1.5,0-2.5,0.7-3.2,2.1l0.1,5.7c0.7,1.4,1.8,2,3.3,2c1.1,0,1.9-0.5,2.5-1.3
			C414.3,108.3,414.6,107,414.5,105.4z"/>
		<path class="st4" d="M425.7,112.4c-1.8,0-3.3-0.5-4.4-1.7c-1.1-1.2-1.7-2.7-1.8-4.7l0-0.4c0-1.3,0.2-2.5,0.7-3.5s1.2-1.9,2.1-2.5
			c0.9-0.6,1.9-0.9,2.9-0.9c1.7,0,3.1,0.5,4,1.6c1,1.1,1.5,2.7,1.5,4.8l0,0.9l-8.9,0.2c0.1,1.3,0.5,2.3,1.2,3.1
			c0.7,0.8,1.7,1.2,2.8,1.2c0.8,0,1.5-0.2,2-0.5s1-0.8,1.4-1.3l1.4,1C429.5,111.4,427.9,112.3,425.7,112.4z M425.2,100.5
			c-0.9,0-1.7,0.4-2.3,1c-0.6,0.7-1,1.6-1.1,2.8l6.6-0.1l0-0.2c-0.1-1.1-0.4-2-1-2.7C426.9,100.8,426.1,100.5,425.2,100.5z"/>
		<path class="st4" d="M440,100.9c-0.3-0.1-0.7-0.1-1.1-0.1c-1.5,0-2.5,0.7-3,1.9l0.2,9.4l-2.3,0L433.6,99l2.2,0l0.1,1.5
			c0.7-1.2,1.8-1.8,3.1-1.8c0.4,0,0.8,0,1,0.2L440,100.9z"/>
		<path class="st4" d="M450.9,112.1c-0.1-0.3-0.2-0.7-0.3-1.4c-1,1.1-2.3,1.7-3.7,1.7c-1.3,0-2.4-0.3-3.2-1
			c-0.8-0.7-1.3-1.6-1.3-2.8c0-1.4,0.5-2.5,1.5-3.2c1-0.8,2.5-1.2,4.4-1.2l2.2,0l0-1c0-0.8-0.3-1.4-0.7-1.9s-1.2-0.7-2.1-0.7
			c-0.8,0-1.5,0.2-2,0.6c-0.5,0.4-0.8,0.9-0.8,1.5l-2.3,0c0-0.7,0.2-1.3,0.7-1.9c0.5-0.6,1.1-1.1,1.9-1.5c0.8-0.4,1.7-0.6,2.6-0.6
			c1.5,0,2.7,0.3,3.6,1.1c0.9,0.7,1.3,1.8,1.4,3.1l0.1,6.1c0,1.2,0.2,2.2,0.5,2.9l0,0.2L450.9,112.1z M447.1,110.4
			c0.7,0,1.4-0.2,2-0.6c0.6-0.4,1.1-0.9,1.4-1.5l0-2.7l-1.8,0c-2.8,0-4.1,0.9-4.1,2.5c0,0.7,0.3,1.3,0.7,1.6
			S446.4,110.4,447.1,110.4z"/>
		<path class="st4" d="M456.1,105.5c0-2,0.4-3.7,1.4-4.9c0.9-1.3,2.2-1.9,3.7-1.9c1.5,0,2.8,0.5,3.7,1.5l-0.1-6.9l2.3,0l0.3,18.7
			l-2.1,0l-0.1-1.4c-0.9,1.1-2.1,1.7-3.7,1.7c-1.5,0-2.8-0.6-3.8-1.8c-1-1.2-1.5-2.9-1.5-4.9L456.1,105.5z M458.4,105.7
			c0,1.5,0.4,2.7,1,3.5c0.6,0.8,1.5,1.2,2.6,1.2c1.4,0,2.5-0.7,3.1-2l-0.1-6.1c-0.7-1.2-1.7-1.8-3.1-1.8c-1.1,0-2,0.5-2.6,1.3
			S458.3,104.1,458.4,105.7z"/>
		<path class="st4" d="M479.5,112.1c-0.1-0.3-0.2-0.7-0.3-1.4c-1,1.1-2.3,1.7-3.7,1.7c-1.3,0-2.4-0.3-3.2-1
			c-0.8-0.7-1.3-1.6-1.3-2.8c0-1.4,0.5-2.5,1.5-3.2c1-0.8,2.5-1.2,4.4-1.2l2.2,0l0-1c0-0.8-0.3-1.4-0.7-1.9s-1.2-0.7-2.1-0.7
			c-0.8,0-1.5,0.2-2,0.6c-0.5,0.4-0.8,0.9-0.8,1.5l-2.3,0c0-0.7,0.2-1.3,0.7-1.9c0.5-0.6,1.1-1.1,1.9-1.5c0.8-0.4,1.7-0.6,2.6-0.6
			c1.5,0,2.7,0.3,3.6,1.1c0.9,0.7,1.3,1.8,1.4,3.1l0.1,6.1c0,1.2,0.2,2.2,0.5,2.9l0,0.2L479.5,112.1z M475.7,110.4
			c0.7,0,1.4-0.2,2-0.6c0.6-0.4,1.1-0.9,1.4-1.5l0-2.7l-1.8,0c-2.8,0-4.1,0.9-4.1,2.5c0,0.7,0.3,1.3,0.7,1.6S475,110.4,475.7,110.4z
			"/>
	</g>
</g>
</svg>
