<?xml version="1.0" encoding="utf-8"?>
<!-- Generator: Adobe Illustrator 21.1.0, SVG Export Plug-In . SVG Version: 6.00 Build 0)  -->
<svg version="1.1" xmlns="http://www.w3.org/2000/svg" xmlns:xlink="http://www.w3.org/1999/xlink" x="0px" y="0px"
	 viewBox="0 0 750 757" style="enable-background:new 0 0 750 757;" xml:space="preserve">
<style type="text/css">
	.st0{display:none;}
	.st1{display:inline;}
	.st2{fill:#80CBC4;}
	.st3{fill:#102027;}
	.st4{fill:#FFAB00;}
	.st5{fill:#009688;}
	.st6{fill:#F57C00;}
	.st7{fill:#1D1D1B;}
	.st8{fill:#1B5E20;}
	.st9{fill:#E65100;}
	.st10{fill:#3E2723;}
	.st11{fill:#FDFDFC;}
	.st12{fill:#FFFFFF;}
	.st13{fill:#37474F;}
	.st14{fill:#62727B;}
	.st15{fill:#FFDD4B;}
	.st16{fill:#C67C00;}
	.st17{fill:#72370F;}
</style>
<g id="Camada_2" class="st0">
	<g class="st1">
		<rect x="-0.7" y="-268.5" class="st2" width="750.5" height="1337"/>
	</g>
</g>
<g id="Camada_1">
	<rect x="39.7" y="81.5" class="st3" width="159" height="111"/>
	<polygon class="st13" points="198.7,192.5 198.7,163.5 130.7,163.5 	"/>
	<rect x="551.7" y="81.5" class="st3" width="159" height="111"/>
	<polygon class="st13" points="551.7,192.5 551.7,163.5 619.7,163.5 	"/>
	<rect x="121.7" y="-0.5" class="st3" width="510" height="164"/>
	<g>
		<path class="st4" d="M324.1,67c-2-2.4-3-6.2-3.1-11.5c-0.1-5.3,0.8-9.1,2.7-11.6c1.9-2.5,4.5-3.7,8-3.8s6.2,1.1,8.1,3.5
			c2,2.4,3,6.2,3.1,11.5s-0.8,9.1-2.7,11.6c-1.9,2.5-4.5,3.7-8,3.8C328.8,70.6,326.1,69.4,324.1,67z M335.9,66c1-0.8,1.7-2,2.3-3.7
			c0.5-1.7,0.8-4,0.7-6.9c-0.1-3-0.4-5.3-0.9-7.1c-0.6-1.8-1.4-3-2.4-3.7c-1-0.7-2.3-1.1-3.7-1c-1.5,0-2.7,0.4-3.7,1.2
			c-1,0.8-1.7,2-2.3,3.7s-0.7,4-0.7,6.9c0.1,3,0.4,5.3,0.9,7.1c0.6,1.8,1.4,3,2.4,3.7c1,0.7,2.3,1.1,3.7,1
			C333.7,67.1,334.9,66.8,335.9,66z"/>
		<path class="st4" d="M347.3,38l3.9-0.1l0.2,12.9l0.2,0c1.3-1.8,3.2-2.8,5.5-2.8c1.7,0,3.2,0.5,4.2,1.6c1.1,1.1,1.6,2.9,1.7,5.5
			l0.3,14.9l-3.9,0.1l-0.3-14.7c0-1.4-0.3-2.4-0.9-3c-0.6-0.6-1.4-0.9-2.4-0.8c-0.8,0-1.6,0.2-2.4,0.6c-0.8,0.4-1.4,1-1.9,1.9
			l0.3,16.1l-3.9,0.1L347.3,38z"/>
		<path class="st4" d="M377.3,48.5l3.3-0.1l0.3,2.4l0.2,0c0.7-0.9,1.5-1.6,2.5-2.1s2-0.7,3.1-0.8c1.8,0,3.3,0.5,4.4,1.6
			c1.1,1.1,1.6,2.9,1.7,5.4l0.3,15l-3.9,0.1l-0.3-14.7c0-1.4-0.3-2.4-0.9-3s-1.4-0.9-2.4-0.8c-0.8,0-1.6,0.2-2.4,0.7
			c-0.8,0.4-1.4,1.1-1.9,1.9l0.3,16.1l-3.9,0.1L377.3,48.5z"/>
		<path class="st4" d="M408.2,48.7c1.1,0.5,2,1.3,2.6,2.4c0.6,1.1,0.9,2.7,0.9,4.6L412,70l-3.2,0.1l-0.3-2.4l-0.2,0
			c-0.5,0.9-1.3,1.6-2.1,2.1c-0.9,0.5-1.9,0.7-3,0.7c-1.2,0-2.2-0.2-3.1-0.7c-0.9-0.5-1.6-1.1-2.1-2c-0.5-0.9-0.8-2-0.8-3.2
			c0-2,0.5-3.6,1.7-4.7c1.2-1.1,3-1.8,5.6-2.1l3.6-0.4l0-1.8c0-1.1-0.2-2-0.5-2.7c-0.3-0.6-0.8-1.1-1.5-1.4s-1.6-0.4-2.7-0.4
			c-0.7,0-1.6,0.1-2.5,0.3s-1.8,0.4-2.6,0.7l-0.1-3.2c0.8-0.3,1.7-0.5,2.8-0.7c1-0.2,2-0.3,3-0.3C405.6,48,407.1,48.3,408.2,48.7z
			 M405.8,43.3c-0.4-0.1-1-0.4-1.6-0.7c-0.5-0.3-1-0.5-1.3-0.6c-0.4-0.1-0.7-0.2-1.1-0.2c-0.6,0-1.2,0.2-1.7,0.4
			c-0.5,0.3-1,0.7-1.5,1.2l0-2.8c0.8-0.9,1.8-1.4,3.1-1.5c0.5,0,0.9,0.1,1.4,0.2c0.4,0.1,1,0.4,1.6,0.7c0.5,0.3,1,0.4,1.3,0.6
			c0.4,0.1,0.7,0.2,1.1,0.2c0.6,0,1.2-0.1,1.7-0.4c0.5-0.3,1-0.7,1.4-1.2l0,2.8c-0.8,0.9-1.8,1.4-3.1,1.5
			C406.7,43.6,406.2,43.5,405.8,43.3z M406.3,66.9c0.7-0.4,1.3-1,1.8-1.8L408,60l-3.3,0.4c-1.3,0.2-2.3,0.5-2.9,1.2
			s-0.9,1.5-0.9,2.6c0,1.1,0.3,2,0.9,2.6s1.4,0.8,2.4,0.8C405,67.5,405.7,67.3,406.3,66.9z"/>
		<path class="st4" d="M418.4,67.9c-1.5-1.8-2.3-4.6-2.3-8.5c-0.1-3.9,0.6-6.8,2-8.6s3.5-2.8,6.2-2.8c2.7,0,4.8,0.8,6.2,2.6
			c1.5,1.8,2.3,4.6,2.3,8.5c0.1,7.5-2.6,11.3-8.2,11.4C422,70.6,419.9,69.7,418.4,67.9z M427,66.7c0.6-0.5,1.1-1.3,1.4-2.5
			c0.3-1.2,0.5-2.8,0.4-4.9c0-2.1-0.2-3.8-0.6-5c-0.4-1.2-0.9-2-1.5-2.5s-1.4-0.7-2.4-0.7c-0.9,0-1.7,0.3-2.4,0.8
			c-0.6,0.5-1.1,1.3-1.4,2.5c-0.3,1.2-0.5,2.8-0.4,4.9c0,2.1,0.2,3.8,0.6,5c0.4,1.2,0.9,2,1.5,2.5c0.6,0.5,1.4,0.7,2.4,0.7
			C425.6,67.5,426.3,67.2,427,66.7z"/>
		<path class="st4" d="M266.9,114.8l0.1,3.3c-1,0.3-2.1,0.4-3,0.4c-2.1,0-3.8-0.5-4.9-1.6c-1.1-1.1-1.7-2.9-1.8-5.4L257,99.6
			l-3.5,0.1l-0.1-3.2l3.5-0.1l0.5-7.9l3.2-0.1l0.1,7.8l5.4-0.1l0.1,3.2l-5.4,0.1l0.2,11.4c0,1.1,0.2,1.9,0.4,2.5
			c0.3,0.6,0.6,1,1.2,1.3c0.5,0.3,1.2,0.4,2,0.4C265.3,115,266,114.9,266.9,114.8z"/>
		<path class="st4" d="M284.8,108.4l-11.7,0.2c0.1,1.7,0.3,3,0.8,4s1.1,1.7,1.9,2.1c0.9,0.4,2,0.6,3.4,0.6c1.4,0,2.9-0.3,4.7-0.8
			l0.1,3.2c-1.7,0.5-3.4,0.8-5.1,0.9c-2.2,0-4-0.3-5.4-1c-1.4-0.7-2.4-1.9-3.2-3.6c-0.7-1.6-1.1-3.8-1.1-6.6c-0.1-3.8,0.6-6.6,2-8.5
			c1.4-1.9,3.3-2.8,5.9-2.9c2.5,0,4.4,0.8,5.7,2.6s2,4.6,2.1,8.5L284.8,108.4z M274.1,100.4c-0.7,1.1-1,2.9-1,5.6l7.9-0.1
			c-0.1-1.8-0.3-3.3-0.6-4.3c-0.3-1-0.8-1.8-1.3-2.2s-1.3-0.6-2.1-0.6C275.7,98.8,274.8,99.4,274.1,100.4z"/>
		<path class="st4" d="M288.8,96.5l3.3-0.1l0.3,2.4l0.2,0c0.7-0.9,1.5-1.6,2.5-2.1c1-0.5,2-0.7,3.1-0.8c1.8,0,3.3,0.5,4.4,1.6
			c1.1,1.1,1.6,2.9,1.7,5.4l0.3,15l-3.9,0.1l-0.3-14.7c0-1.4-0.3-2.4-0.9-3c-0.6-0.6-1.4-0.9-2.4-0.8c-0.8,0-1.6,0.2-2.4,0.7
			c-0.8,0.4-1.4,1.1-1.9,1.9l0.3,16.1l-3.9,0.1L288.8,96.5z"/>
		<path class="st4" d="M320.5,114.8l0.1,3.3c-1,0.3-2.1,0.4-3,0.4c-2.1,0-3.8-0.5-4.9-1.6c-1.1-1.1-1.7-2.9-1.8-5.4l-0.2-11.9
			l-3.5,0.1l-0.1-3.2l3.5-0.1l0.5-7.9l3.2-0.1l0.1,7.8l5.4-0.1l0.1,3.2l-5.4,0.1l0.2,11.4c0,1.1,0.2,1.9,0.4,2.5
			c0.3,0.6,0.6,1,1.2,1.3s1.2,0.4,2,0.4C318.9,115,319.6,114.9,320.5,114.8z"/>
		<path class="st4" d="M338.3,108.4l-11.7,0.2c0.1,1.7,0.3,3,0.8,4c0.4,1,1.1,1.7,1.9,2.1c0.9,0.4,2,0.6,3.4,0.6
			c1.4,0,2.9-0.3,4.7-0.8l0.1,3.2c-1.7,0.5-3.4,0.8-5.1,0.9c-2.2,0-4-0.3-5.4-1c-1.4-0.7-2.4-1.9-3.2-3.6c-0.7-1.6-1.1-3.8-1.1-6.6
			c-0.1-3.8,0.6-6.6,2-8.5c1.4-1.9,3.3-2.8,5.9-2.9c2.5,0,4.4,0.8,5.7,2.6s2,4.6,2.1,8.5L338.3,108.4z M327.6,100.4
			c-0.7,1.1-1,2.9-1,5.6l7.9-0.1c-0.1-1.8-0.3-3.3-0.6-4.3c-0.3-1-0.8-1.8-1.3-2.2s-1.3-0.6-2.1-0.6
			C329.3,98.8,328.3,99.4,327.6,100.4z"/>
		<path class="st4" d="M353,115.9c-1.5-1.8-2.3-4.6-2.3-8.5c-0.1-3.9,0.6-6.8,2-8.6s3.5-2.8,6.2-2.8c2.7,0,4.8,0.8,6.2,2.6
			c1.5,1.8,2.3,4.6,2.3,8.5c0.1,7.5-2.6,11.3-8.2,11.4C356.6,118.6,354.5,117.7,353,115.9z M361.6,114.7c0.6-0.5,1.1-1.3,1.4-2.5
			c0.3-1.2,0.5-2.8,0.4-4.9c0-2.1-0.2-3.8-0.6-5s-0.9-2-1.5-2.5s-1.4-0.7-2.4-0.7c-0.9,0-1.7,0.3-2.4,0.8c-0.6,0.5-1.1,1.3-1.4,2.5
			s-0.5,2.8-0.4,4.9c0,2.1,0.2,3.8,0.6,5c0.4,1.2,0.9,2,1.5,2.5c0.6,0.5,1.4,0.7,2.4,0.7C360.2,115.5,361,115.2,361.6,114.7z"/>
		<path class="st4" d="M373.5,117c-1.1-1.1-1.6-2.9-1.7-5.5l-0.3-15l3.9-0.1l0.3,14.7c0,1.4,0.3,2.4,0.9,3c0.6,0.6,1.4,0.9,2.4,0.9
			c0.8,0,1.5-0.2,2.3-0.6s1.4-1,1.9-1.9l-0.3-16.2l3.9-0.1l0.4,21.8l-3.3,0.1l-0.3-2.3l-0.2,0c-0.7,0.9-1.5,1.6-2.5,2.1
			c-0.9,0.5-1.9,0.7-3,0.7C376,118.6,374.5,118.1,373.5,117z"/>
		<path class="st4" d="M403.2,114.8l0.1,3.3c-1,0.3-2.1,0.4-3,0.4c-2.1,0-3.8-0.5-4.9-1.6c-1.1-1.1-1.7-2.9-1.8-5.4l-0.2-11.9
			l-3.5,0.1l-0.1-3.2l3.5-0.1l0.5-7.9l3.2-0.1l0.1,7.8l5.4-0.1l0.1,3.2l-5.4,0.1l0.2,11.4c0,1.1,0.2,1.9,0.4,2.5
			c0.3,0.6,0.6,1,1.2,1.3c0.5,0.3,1.2,0.4,2,0.4C401.6,115,402.3,114.9,403.2,114.8z"/>
		<path class="st4" d="M406.2,96.5l3.2-0.1l0.4,3l0.2,0c0.6-1.1,1.3-1.9,2.2-2.5c0.9-0.5,1.9-0.8,3.1-0.9c0.4,0,0.9,0,1.3,0.1
			l0.1,3.7c-0.4-0.1-0.9-0.1-1.5-0.1c-1,0-2,0.3-2.9,0.8s-1.6,1.2-2.1,2.1l0.3,15.5l-3.9,0.1L406.2,96.5z"/>
		<path class="st4" d="M430.2,96.7c1.1,0.5,2,1.3,2.6,2.4c0.6,1.1,0.9,2.7,0.9,4.6L434,118l-3.2,0.1l-0.3-2.4l-0.2,0
			c-0.5,0.9-1.3,1.6-2.1,2.1c-0.9,0.5-1.9,0.7-3,0.7c-1.2,0-2.2-0.2-3.1-0.7c-0.9-0.5-1.6-1.1-2.1-2c-0.5-0.9-0.8-2-0.8-3.2
			c0-2,0.5-3.6,1.7-4.7c1.2-1.1,3-1.8,5.6-2.1l3.6-0.4l0-1.8c0-1.1-0.2-2-0.5-2.7c-0.3-0.6-0.8-1.1-1.5-1.4s-1.6-0.4-2.7-0.4
			c-0.7,0-1.6,0.1-2.5,0.3s-1.8,0.4-2.6,0.7l-0.1-3.2c0.8-0.3,1.7-0.5,2.8-0.7c1-0.2,2-0.3,3-0.3C427.6,96,429.1,96.3,430.2,96.7z
			 M428.3,114.9c0.7-0.4,1.3-1,1.8-1.8L430,108l-3.3,0.4c-1.3,0.2-2.3,0.5-2.9,1.2s-0.9,1.5-0.9,2.6c0,1.1,0.3,2,0.9,2.6
			s1.4,0.8,2.4,0.8C426.9,115.5,427.7,115.3,428.3,114.9z"/>
		<path class="st4" d="M460.4,96.3l3.9-0.1l-6.4,21.9l-5.1,0.1l-7.1-21.6l4.1-0.1l5.6,17.9L460.4,96.3z"/>
		<path class="st4" d="M482.3,108.4l-11.7,0.2c0.1,1.7,0.3,3,0.8,4c0.4,1,1.1,1.7,1.9,2.1c0.9,0.4,2,0.6,3.4,0.6
			c1.4,0,2.9-0.3,4.7-0.8l0.1,3.2c-1.7,0.5-3.4,0.8-5.1,0.9c-2.2,0-4-0.3-5.4-1c-1.4-0.7-2.4-1.9-3.2-3.6c-0.7-1.6-1.1-3.8-1.1-6.6
			c-0.1-3.8,0.6-6.6,2-8.5c1.4-1.9,3.3-2.8,5.9-2.9c2.5,0,4.4,0.8,5.7,2.6s2,4.6,2.1,8.5L482.3,108.4z M471.6,100.4
			c-0.7,1.1-1,2.9-1,5.6l7.9-0.1c-0.1-1.8-0.3-3.3-0.6-4.3c-0.3-1-0.8-1.8-1.3-2.2c-0.6-0.4-1.3-0.6-2.1-0.6
			C473.3,98.8,472.3,99.4,471.6,100.4z"/>
		<path class="st4" d="M489.6,115l9.7-0.2l0.1,3.2l-14.1,0.2l0-2.4l9.2-16.4l-9.3,0.2l-0.1-3.2l13.7-0.2l0,2.4L489.6,115z"/>
	</g>
	<g>
		<g>
			<g>
				<path class="st12" d="M417,612.5c-15.2-1.7-26.1-15.4-24.4-30.6c1.7-15.2,15.4-26.1,30.6-24.4c0.3,0,0.7,0.1,1,0.2
					c56.4-13.2,71.8-63.6,76.9-37.7C510.6,567.4,425.3,613.4,417,612.5z"/>
				<path class="st7" d="M417.1,616.1c-0.2,0-0.4,0-0.5,0h0c-17.1-1.9-29.5-17.5-27.5-34.6c2-17.1,17.5-29.5,34.6-27.5
					c0.2,0,0.3,0,0.5,0.1c28.8-6.9,46.2-23.7,57.7-34.7c7.4-7.1,11.9-11.4,16.7-9.9c4,1.3,5.4,6,6.2,9.9
					c3.3,16.7-3.6,34.4-20.5,52.7C462,596.1,426,616.1,417.1,616.1z M420.1,560.9c-12.1,0-22.5,9.1-23.9,21.4
					c-1.5,13.2,8,25.1,21.1,26.6c5.2-0.3,44.4-19.7,66.8-47.7c11.5-14.4,16.1-28,13.6-40.5c-0.5-2.7-1.1-3.8-1.3-4.3
					c-1.8,0.7-6,4.8-9.5,8.1c-11.4,11-30.6,29.4-61.7,36.7c-0.4,0.1-0.9,0.1-1.4,0.1c-0.2,0-0.4-0.1-0.5-0.1c-0.1,0-0.2,0-0.4-0.1
					C421.9,560.9,421,560.9,420.1,560.9z"/>
			</g>
		</g>
		<g>
			<g>
				<path class="st12" d="M332.4,612.5c15.2-1.7,26.1-15.4,24.4-30.6c-1.7-15.2-15.4-26.1-30.6-24.4c-0.3,0-0.7,0.1-1,0.2
					c-56.4-13.2-71.8-63.6-76.9-37.7C238.8,567.4,324.1,613.4,332.4,612.5z"/>
				<path class="st7" d="M332.2,616.1c-8.9,0-44.8-19.9-67.1-44.1c-16.9-18.3-23.8-36.1-20.5-52.7c0.8-4,2.2-8.7,6.2-9.9
					c4.8-1.5,9.3,2.8,16.7,9.9c11.5,11.1,28.9,27.8,57.7,34.7c0.2,0,0.3-0.1,0.5-0.1c17.1-2,32.7,10.4,34.6,27.5
					c0.9,8.3-1.4,16.5-6.6,23c-5.2,6.5-12.6,10.7-20.9,11.6h0C332.6,616.1,332.4,616.1,332.2,616.1z M253,516.3
					c-0.3,0.5-0.8,1.7-1.3,4.3c-2.5,12.5,2.1,26.1,13.6,40.5c22.4,28,61.5,47.5,66.8,47.7c6.4-0.7,12-3.9,16-8.9
					c4-5,5.8-11.3,5.1-17.7c-1.5-13.2-13.5-22.7-26.7-21.2c-0.1,0-0.2,0-0.4,0.1c-0.2,0-0.3,0.1-0.5,0.1c-0.5,0.1-0.9,0.1-1.4-0.1
					c-31.2-7.3-50.3-25.7-61.7-36.7C259.1,521.1,254.9,517,253,516.3z"/>
			</g>
		</g>
		<g>
			<ellipse class="st5" cx="374.2" cy="721.2" rx="132" ry="35.5"/>
		</g>
		<path class="st7" d="M287.5,255.3c-8.2,0-14.8,6.6-14.8,14.8V350l29.6-5.7v-74.1C302.4,261.9,295.7,255.3,287.5,255.3z"/>
		<g>
			<path class="st11" d="M437.5,529.3H311.6c-44.7,0-81-36.3-81-81v0c0-73.9,59.9-133.8,133.8-133.8h20.2
				c73.9,0,133.8,59.9,133.8,133.8v0C518.4,493,482.2,529.3,437.5,529.3z"/>
			<path class="st7" d="M437.5,532.9H311.6c-46.6,0-84.6-37.9-84.6-84.6c0-75.8,61.6-137.4,137.4-137.4h20.2
				c75.8,0,137.4,61.6,137.4,137.4C522,494.9,484.1,532.9,437.5,532.9z M364.4,318.1c-71.8,0-130.2,58.4-130.2,130.2
				c0,42.7,34.7,77.4,77.4,77.4h125.9c42.7,0,77.4-34.7,77.4-77.4c0-71.8-58.4-130.2-130.2-130.2H364.4z"/>
		</g>
		<path class="st7" d="M441.2,496H307.9c-31.9,0-57.8-25.9-57.8-57.8v0c0-31.9,25.9-57.8,57.8-57.8h133.3
			c31.9,0,57.8,25.9,57.8,57.8v0C499,470.1,473.1,496,441.2,496z"/>
		<g>
			<g>
				<g>
					<g>
						<g>
							<circle class="st12" cx="450.1" cy="438.2" r="25.1"/>
							<path class="st7" d="M450.1,465.3c-14.9,0-27.1-12.1-27.1-27.1s12.1-27.1,27.1-27.1s27.1,12.1,27.1,27.1
								S465,465.3,450.1,465.3z M450.1,415.1c-12.7,0-23.1,10.4-23.1,23.1s10.4,23.1,23.1,23.1s23.1-10.4,23.1-23.1
								S462.8,415.1,450.1,415.1z"/>
						</g>
					</g>
				</g>
			</g>
			<g>
				<g>
					<g>
						<g>
							<circle class="st12" cx="299" cy="438.2" r="25.1"/>
							<path class="st7" d="M299,465.3c-14.9,0-27.1-12.1-27.1-27.1s12.1-27.1,27.1-27.1s27.1,12.1,27.1,27.1S313.9,465.3,299,465.3
								z M299,415.1c-12.7,0-23.1,10.4-23.1,23.1s10.4,23.1,23.1,23.1s23.1-10.4,23.1-23.1S311.7,415.1,299,415.1z"/>
						</g>
					</g>
				</g>
			</g>
		</g>
		<g>
			<path class="st12" d="M347.5,553c-23,0-50.1,41.9-55,88.2c-4.9,46.2,24,81.7,24,81.7h14.3c0,0,5-10.8,17.1-18.3
				c12.1-7.5,41.2-7.5,53.3,0c12.1,7.5,17.1,18.3,17.1,18.3h14.3c0,0,28.9-35.5,24-81.7c-4.9-46.2-32-88.2-55-88.2H347.5z"/>
			<path class="st7" d="M434.1,726.2h-18l-0.9-1.9c0-0.1-4.8-10-15.8-16.9c-10.9-6.8-38.8-6.8-49.7,0c-11.1,6.9-15.8,16.8-15.8,16.9
				l-0.9,1.9h-18l-1-1.2c-1.2-1.5-29.7-37.1-24.7-84.2c5.1-47.7,32.9-91.2,58.3-91.2h53.9c25.4,0,53.2,43.4,58.3,91.2
				c5,47.1-23.5,82.7-24.7,84.2L434.1,726.2z M420.2,719.6h10.6c4.8-6.5,26.5-38.5,22.3-78c-5-47.2-32.4-85.2-51.7-85.2h-53.9
				c-19.3,0-46.7,38-51.7,85.2c-4.2,39.6,17.5,71.5,22.3,78h10.6c2.1-3.6,7.6-11.7,17.3-17.8c13-8.1,43.8-8.1,56.8,0
				C412.7,707.9,418.1,715.9,420.2,719.6z"/>
		</g>
		<path class="st7" d="M391.9,701.2l-2.7-1.1c0.6-1.5,15.1-36.7,39.2-43.7c9.5-2.8,19.2-0.7,28.8,6.1l-1.7,2.3
			c-8.8-6.3-17.7-8.2-26.3-5.7C406.5,665.8,392.1,700.8,391.9,701.2z"/>
		<path class="st7" d="M356.4,701.2c-0.1-0.4-14.6-35.4-37.3-42c-8.6-2.5-17.5-0.6-26.3,5.7l-1.7-2.3c9.6-6.8,19.3-8.9,28.8-6.1
			c24.1,7,38.6,42.2,39.2,43.7L356.4,701.2z"/>
		<polygon class="st7" points="325.2,415.7 268.2,445.7 280.2,404.7 		"/>
		<polygon class="st7" points="421.2,415.7 478.2,445.7 466.2,404.7 		"/>
	</g>
</g>
</svg>
