<?xml version="1.0" encoding="utf-8"?>
<!-- Generator: Adobe Illustrator 21.1.0, SVG Export Plug-In . SVG Version: 6.00 Build 0)  -->
<svg version="1.1" id="Camada_1" xmlns="http://www.w3.org/2000/svg" xmlns:xlink="http://www.w3.org/1999/xlink" x="0px" y="0px"
	 viewBox="0 0 654 260" style="enable-background:new 0 0 654 260;" xml:space="preserve">
<style type="text/css">
	.st0{fill:#FFFFFF;stroke:#1E1E1C;stroke-width:3.5468;stroke-linejoin:round;stroke-miterlimit:10;}
	.st1{fill:#FFFFFF;stroke:#1E1E1C;stroke-width:3.2961;stroke-miterlimit:10;}
	.st2{fill:#1E1E1C;}
	.st3{fill:#FEFFFD;stroke:#1E1E1C;stroke-width:3.5468;stroke-miterlimit:10;}
	.st4{fill:#FFFFFF;stroke:#1E1E1C;stroke-width:1.9603;stroke-miterlimit:10;}
	.st5{fill:none;stroke:#1E1E1C;stroke-width:1.4187;stroke-miterlimit:10;}
	.st6{fill:#1E1E1C;stroke:#1E1E1C;stroke-width:3.2961;stroke-miterlimit:10;}
	.st7{fill:none;stroke:#FFFFFF;stroke-width:1.4187;stroke-miterlimit:10;}
	.st8{fill:#F8AA14;}
	.st9{fill:#E2770A;}
	.st10{fill:#68B547;}
	.st11{fill:#FFFFFF;}
	.st12{fill:#E4003B;}
	.st13{fill:#1E1E1C;stroke:#FFFFFF;stroke-width:3;stroke-miterlimit:10;}
	.st14{fill:#E4003B;stroke:#1E1E1C;stroke-width:3.5468;stroke-linejoin:round;stroke-miterlimit:10;}
	.st15{fill:#C57D11;}
	.st16{font-family:'Roboto-Black';}
	.st17{font-size:15px;}
</style>
<g>
	<g>
		<g>
			<path class="st0" d="M99.6,192.3c-6.3-4.1-8.2-12.6-4.1-18.9c4.1-6.3,12.6-8.2,18.9-4.1c0.1,0.1,0.3,0.2,0.4,0.3
				c27.9,6.5,45.8-12.4,42.3,0.2C150.9,192.8,103.1,194.4,99.6,192.3z"/>
		</g>
		<g>
			<path class="st0" d="M67.4,192.3c6.3-4.1,8.2-12.6,4.1-18.9c-4.1-6.3-12.6-8.2-18.9-4.1c-0.1,0.1-0.3,0.2-0.4,0.3
				c-27.9,6.5-45.8-12.4-42.3,0.2C16.1,192.8,64,194.4,67.4,192.3z"/>
		</g>
		<path class="st1" d="M69.9,165.1c-11.3,0-24.7,20.7-27.2,43.6c-2.4,22.8,11.8,40.4,11.8,40.4h7c0,0,2.5-5.3,8.4-9
			c6-3.7,20.4-3.7,26.3,0c6,3.7,8.4,9,8.4,9h7c0,0,14.3-17.5,11.8-40.4s-15.8-43.6-27.2-43.6H69.9z"/>
		<path class="st2" d="M40.2,17.9c-4,0-7.3,3.3-7.3,7.3v39.5l14.6-2.8V25.2C47.6,21.2,44.3,17.9,40.2,17.9z"/>
		<path class="st3" d="M114.3,153.3H52.1c-22.1,0-40-17.9-40-40l0,0c0-36.5,29.6-66.1,66.1-66.1h10c36.5,0,66.1,29.6,66.1,66.1l0,0
			C154.3,135.3,136.4,153.3,114.3,153.3z"/>
		<path class="st2" d="M116.1,136.8H50.2c-15.8,0-28.6-12.8-28.6-28.6l0,0c0-15.8,12.8-28.6,28.6-28.6h65.9
			c15.8,0,28.6,12.8,28.6,28.6l0,0C144.7,124,131.9,136.8,116.1,136.8z"/>
		<g>
			<g>
				<g>
					<g>
						<circle class="st4" cx="120.5" cy="108.3" r="12.4"/>
					</g>
				</g>
			</g>
			<g>
				<g>
					<g>
						<circle class="st4" cx="45.9" cy="108.3" r="12.4"/>
					</g>
				</g>
			</g>
		</g>
		<path class="st5" d="M91.2,237.9c0,0,13-32.1,32.5-18.3"/>
		<path class="st5" d="M74.9,237.9c0,0-13-32.1-32.5-18.3"/>
	</g>
	<g>
		<g>
			<path class="st0" d="M343.1,192.3c-6.3-4.1-8.2-12.6-4.1-18.9c4.1-6.3,12.6-8.2,18.9-4.1c0.1,0.1,0.3,0.2,0.4,0.3
				c27.9,6.5,45.8-12.4,42.3,0.2C394.4,192.8,346.6,194.4,343.1,192.3z"/>
		</g>
		<g>
			<path class="st0" d="M310.9,192.3c6.3-4.1,8.2-12.6,4.1-18.9c-4.1-6.3-12.6-8.2-18.9-4.1c-0.1,0.1-0.3,0.2-0.4,0.3
				c-27.9,6.5-45.8-12.4-42.3,0.2C259.6,192.8,307.5,194.4,310.9,192.3z"/>
		</g>
		<path class="st1" d="M313.4,165.1c-11.3,0-24.7,20.7-27.2,43.6c-2.4,22.8,11.8,40.4,11.8,40.4h7c0,0,2.5-5.3,8.4-9
			c6-3.7,20.4-3.7,26.3,0c6,3.7,8.4,9,8.4,9h7c0,0,14.3-17.5,11.8-40.4s-15.8-43.6-27.2-43.6H313.4z"/>
		<path class="st2" d="M283.7,17.9c-4,0-7.3,3.3-7.3,7.3v39.5l14.6-2.8V25.2C291.1,21.2,287.8,17.9,283.7,17.9z"/>
		<path class="st3" d="M357.8,153.3h-62.2c-22.1,0-40-17.9-40-40l0,0c0-36.5,29.6-66.1,66.1-66.1h10c36.5,0,66.1,29.6,66.1,66.1l0,0
			C397.8,135.3,379.9,153.3,357.8,153.3z"/>
		<path class="st2" d="M359.6,136.8h-65.9c-15.8,0-28.6-12.8-28.6-28.6l0,0c0-15.8,12.8-28.6,28.6-28.6h65.9
			c15.8,0,28.6,12.8,28.6,28.6l0,0C388.2,124,375.4,136.8,359.6,136.8z"/>
		<g>
			<g>
				<g>
					<g>
						<circle class="st4" cx="364" cy="108.3" r="12.4"/>
					</g>
				</g>
			</g>
			<g>
				<g>
					<g>
						<circle class="st4" cx="289.4" cy="108.3" r="12.4"/>
					</g>
				</g>
			</g>
		</g>
		<path class="st5" d="M334.7,237.9c0,0,13-32.1,32.5-18.3"/>
		<path class="st5" d="M318.4,237.9c0,0-13-32.1-32.5-18.3"/>
	</g>
	<g>
		<g>
			<path class="st0" d="M586.6,192.3c-6.3-4.1-8.2-12.6-4.1-18.9c4.1-6.3,12.6-8.2,18.9-4.1c0.1,0.1,0.3,0.2,0.4,0.3
				c27.9,6.5,45.8-12.4,42.3,0.2C637.9,192.8,590.1,194.4,586.6,192.3z"/>
		</g>
		<g>
			<path class="st0" d="M554.4,192.3c6.3-4.1,8.2-12.6,4.1-18.9c-4.1-6.3-12.6-8.2-18.9-4.1c-0.1,0.1-0.3,0.2-0.4,0.3
				c-27.9,6.5-45.8-12.4-42.3,0.2C503.1,192.8,551,194.4,554.4,192.3z"/>
		</g>
		<path class="st1" d="M556.9,165.1c-11.3,0-24.7,20.7-27.2,43.6c-2.4,22.8,11.8,40.4,11.8,40.4h7c0,0,2.5-5.3,8.4-9
			c6-3.7,20.4-3.7,26.3,0c6,3.7,8.4,9,8.4,9h7c0,0,14.3-17.5,11.8-40.4c-2.4-22.8-15.8-43.6-27.2-43.6H556.9z"/>
		<path class="st2" d="M527.2,17.9c-4,0-7.3,3.3-7.3,7.3v39.5l14.6-2.8V25.2C534.6,21.2,531.3,17.9,527.2,17.9z"/>
		<path class="st3" d="M601.3,153.3h-62.2c-22.1,0-40-17.9-40-40l0,0c0-36.5,29.6-66.1,66.1-66.1h10c36.5,0,66.1,29.6,66.1,66.1l0,0
			C641.3,135.3,623.4,153.3,601.3,153.3z"/>
		<path class="st2" d="M603.1,136.8h-65.9c-15.8,0-28.6-12.8-28.6-28.6l0,0c0-15.8,12.8-28.6,28.6-28.6h65.9
			c15.8,0,28.6,12.8,28.6,28.6l0,0C631.7,124,618.9,136.8,603.1,136.8z"/>
		<g>
			<g>
				<g>
					<g>
						<circle class="st4" cx="607.5" cy="108.3" r="12.4"/>
					</g>
				</g>
			</g>
			<g>
				<g>
					<g>
						<circle class="st4" cx="532.9" cy="108.3" r="12.4"/>
					</g>
				</g>
			</g>
		</g>
		<path class="st5" d="M578.2,237.9c0,0,13-32.1,32.5-18.3"/>
		<path class="st5" d="M561.9,237.9c0,0-13-32.1-32.5-18.3"/>
	</g>
	<g>
		<path class="st2" d="M67.4,192.3c6.3-4.1,8.2-12.6,4.1-18.9c-4.1-6.3-12.6-8.2-18.9-4.1c-0.1,0.1-0.3,0.2-0.4,0.3
			c-10,2.4-14.3,2.9-21.2,1.4c-6.5-1.5-5.7-6-8,2c-2,7-4,10,3,13C43.6,193.4,64.8,193.9,67.4,192.3z"/>
	</g>
	<g>
		<path class="st2" d="M100.4,192.3c-6.3-4.1-8.2-12.6-4.1-18.9c4.1-6.3,12.6-8.2,18.9-4.1c0.1,0.1,0.3,0.2,0.4,0.3
			c10,2.4,14.3,2.9,21.2,1.4c6.5-1.5,5.7-6,8,2c2,7,4,10-3,13C124.2,193.4,103,193.9,100.4,192.3z"/>
	</g>
	<path class="st6" d="M69.9,165.1c-11.3,0-24.7,20.7-27.2,43.6c-2.4,22.8,11.8,40.4,11.8,40.4h7c0,0,2.5-5.3,8.4-9
		c6-3.7,20.4-3.7,26.3,0c6,3.7,8.4,9,8.4,9h7c0,0,14.3-17.5,11.8-40.4s-15.8-43.6-27.2-43.6H69.9z"/>
	<path class="st7" d="M91.2,237.9c0,0,13-32.1,32.5-18.3"/>
	<path class="st7" d="M74.9,237.9c0,0-13-32.1-32.5-18.3"/>
	<g>
		<polygon class="st8" points="75.9,165.9 90.3,165.9 93,172.4 85.2,178.9 81.4,178.9 74,172.4 		"/>
	</g>
	<polygon class="st8" points="78.2,174.9 75.2,190.9 83.2,213.9 91.2,190.9 88.2,174.9 	"/>
	<g>
		<path class="st9" d="M338.2,164.9h-22.5c-36.3,0-65.8-29.4-65.8-65.8v-7c0-27.2,22-49.2,49.2-49.2h55.6c27.2,0,49.2,22,49.2,49.2
			v7C404,135.6,374.6,164.9,338.2,164.9z"/>
	</g>
	<path class="st10" d="M268.5,40.3c0,0-2.2-16.1-6.3-22.1s-24.7-7.3-24.7-7.3l0,0c0,0,2.2,20.6,8.4,24.4c6.2,3.8,22.3,5.2,22.3,5.2
		L268.5,40.3z"/>
	<path class="st2" d="M283.7,17.9c-4,0-7.3,3.3-7.3,7.3v39.5l14.6-2.8V25.2C291.1,21.2,287.8,17.9,283.7,17.9z"/>
	<path class="st11" d="M360.5,142.6H293c-18,0-32.5-14.6-32.5-32.5v-3.7c0-18,14.6-32.5,32.5-32.5h67.5c18,0,32.5,14.6,32.5,32.5
		v3.7C393,128.1,378.4,142.6,360.5,142.6z"/>
	<path class="st2" d="M359.6,136.8h-65.9c-15.8,0-28.6-12.8-28.6-28.6l0,0c0-15.8,12.8-28.6,28.6-28.6h65.9
		c15.8,0,28.6,12.8,28.6,28.6l0,0C388.2,124,375.4,136.8,359.6,136.8z"/>
	<g>
		<g>
			<g>
				<g>
					<circle class="st4" cx="364" cy="108.3" r="12.4"/>
				</g>
			</g>
		</g>
		<g>
			<g>
				<g>
					<circle class="st4" cx="289.4" cy="108.3" r="12.4"/>
				</g>
			</g>
		</g>
	</g>
	<path class="st0" d="M586.6,192.3c-6.3-4.1-8.2-12.6-4.1-18.9c4.1-6.3,12.6-8.2,18.9-4.1c0.1,0.1,0.3,0.2,0.4,0.3
		c27.9,6.5,45.8-12.4,42.3,0.2C637.9,192.8,590.1,194.4,586.6,192.3z"/>
	<path class="st0" d="M554.4,192.3c6.3-4.1,8.2-12.6,4.1-18.9c-4.1-6.3-12.6-8.2-18.9-4.1c-0.1,0.1-0.3,0.2-0.4,0.3
		c-27.9,6.5-45.8-12.4-42.3,0.2C503.1,192.8,551,194.4,554.4,192.3z"/>
	<path class="st2" d="M527.2,17.9c-4,0-7.3,3.3-7.3,7.3v39.5l14.6-2.8V25.2C534.6,21.2,531.3,17.9,527.2,17.9z"/>
	<g>
		<path class="st12" d="M601.3,153.3h-62.2c-22.1,0-40-17.9-40-40l0,0c0-36.5,29.6-66.1,66.1-66.1h10c36.5,0,66.1,29.6,66.1,66.1
			l0,0C641.3,135.3,623.4,153.3,601.3,153.3z"/>
	</g>
	<path class="st13" d="M603.1,136.8h-65.9c-15.8,0-28.6-12.8-28.6-28.6l0,0c0-15.8,12.8-28.6,28.6-28.6h65.9
		c15.8,0,28.6,12.8,28.6,28.6l0,0C631.7,124,618.9,136.8,603.1,136.8z"/>
	<circle class="st4" cx="607.5" cy="108.3" r="12.4"/>
	<circle class="st4" cx="532.9" cy="108.3" r="12.4"/>
	<g>
		<path class="st14" d="M553.4,192.3c6.3-4.1,8.2-12.6,4.1-18.9c-4.1-6.3-12.6-8.2-18.9-4.1c-0.1,0.1-0.3,0.2-0.4,0.3
			c-10,2.4-14.3,2.9-21.2,1.4c-6.5-1.5-5.7-6-8,2c-2,7-4,10,3,13C529.6,193.4,550.8,193.9,553.4,192.3z"/>
	</g>
	<g>
		<path class="st14" d="M586.4,192.3c-6.3-4.1-8.2-12.6-4.1-18.9c4.1-6.3,12.6-8.2,18.9-4.1c0.1,0.1,0.3,0.2,0.4,0.3
			c10,2.4,14.3,2.9,21.2,1.4c6.5-1.5,5.7-6,8,2c2,7,4,10-3,13C610.2,193.4,589,193.9,586.4,192.3z"/>
	</g>
	<g>
		<path class="st12" d="M556.9,165.1c-11.3,0-24.7,20.7-27.2,43.6c-0.5,4.3-0.3,8.4,0.2,12.2c2.2,16.6,11.7,13.2,11.7,13.2h7
			c0,0,2.5,9.7,8.4,6c6-3.7,20.4-3.7,26.3,0c6,3.7,8.4-6,8.4-6h7c0,0,9.8,2.9,11.8-14.3c0.4-3.5,0.5-7.2,0.1-11.1
			c-2.4-22.8-15.8-43.6-27.2-43.6H556.9z"/>
	</g>
	<path class="st5" d="M578.2,237.9c0,0,13-32.1,32.5-18.3"/>
	<path class="st5" d="M561.9,237.9c0,0-13-32.1-32.5-18.3"/>
	<rect x="529" y="202.9" class="st11" width="82" height="8"/>
	<rect x="561" y="197.9" class="st11" width="18" height="18"/>
	<text transform="matrix(1 0 0 1 565.667 212.95)" class="st15 st16 st17">$</text>
	
		<rect x="561.9" y="172.4" transform="matrix(0.7071 -0.7071 0.7071 0.7071 39.51 455.7288)" class="st11" width="16" height="15.6"/>
	
		<rect x="583.9" y="172.4" transform="matrix(0.7071 -0.7071 0.7071 0.7071 45.9535 471.2851)" class="st11" width="16" height="15.6"/>
	
		<rect x="540.9" y="172.4" transform="matrix(0.7071 -0.7071 0.7071 0.7071 33.3594 440.8795)" class="st11" width="16" height="15.6"/>
	<path class="st2" d="M586,242.6c-1,0-2.2-0.3-3.6-1.1c-5.4-3.4-19.1-3.4-24.4,0c-2.4,1.5-4.3,1.2-5.6,0.7c-2.9-1.1-4.4-4.5-5.1-6.4
		h-5.5c-1,0.3-3.9,0.8-6.9-1c-3.6-2.2-5.9-6.8-6.8-13.7c-0.6-4.2-0.6-8.5-0.2-12.6c2.5-23.6,16.3-45.1,28.9-45.1h26.7
		c12.6,0,26.4,21.5,28.9,45.1c0.4,3.8,0.4,7.6-0.1,11.5c-0.8,7.2-3.1,12-6.7,14.4c-3.1,2-6.1,1.6-7.1,1.4H593
		c-0.7,1.9-2.3,5.3-5.1,6.4C587.4,242.3,586.8,242.6,586,242.6z M541.6,232.1h7c0.8,0,1.5,0.5,1.7,1.3c0.3,1.2,1.6,4.6,3.4,5.4
		c0.4,0.2,1.1,0.3,2.4-0.4c6.6-4.1,21.6-4.1,28.2,0c1.2,0.8,1.9,0.6,2.4,0.4c1.7-0.7,3.1-3.9,3.4-5.4c0.2-0.8,0.9-1.3,1.7-1.3h7
		c0.2,0,0.3,0,0.5,0.1c0.1,0,2.2,0.6,4.4-0.9c2.7-1.8,4.4-5.9,5.1-11.8c0.4-3.6,0.4-7.2,0.1-10.7c-2.5-23.3-15.9-42-25.4-42h-26.7
		c-9.5,0-22.9,18.7-25.4,42c-0.4,3.9-0.3,7.8,0.2,11.8c0.8,5.7,2.5,9.6,5.1,11.1c2.1,1.3,4.2,0.6,4.2,0.6
		C541.1,232.3,541.3,232.1,541.6,232.1z"/>
</g>
</svg>
