<?xml version="1.0" encoding="utf-8"?>
<!-- Generator: Adobe Illustrator 21.1.0, SVG Export Plug-In . SVG Version: 6.00 Build 0)  -->
<svg version="1.1" id="Camada_1" xmlns="http://www.w3.org/2000/svg" xmlns:xlink="http://www.w3.org/1999/xlink" x="0px" y="0px"
	 viewBox="0 0 429.1 260" style="enable-background:new 0 0 429.1 260;" xml:space="preserve">
<style type="text/css">
	.st0{fill:#37474F;}
	.st1{fill:none;}
	.st2{enable-background:new    ;}
	.st3{fill:#FFFFFF;}
	.st4{fill:#1E1E1C;}
	.st5{fill:#FEFFFD;stroke:#1E1E1C;stroke-width:3.7987;stroke-miterlimit:10;}
	.st6{fill:#FFFFFF;stroke:#1E1E1C;stroke-width:2.0995;stroke-miterlimit:10;}
</style>
<path class="st0" d="M396.8,177.6H216.6c-17.9,0-32.4-14.5-32.4-32.4v-96c0-17.9,14.5-32.4,32.4-32.4h180.1
	c17.9,0,32.4,14.5,32.4,32.4v96C429.2,163.1,414.7,177.6,396.8,177.6z"/>
<rect x="198.7" y="39.1" class="st1" width="216" height="116"/>
<g class="st2">
	<path class="st3" d="M234.2,59.4c-0.7-0.1-1.4-0.3-2-0.5v-2.1c1.4,0.5,2.7,0.7,4,0.7c1.2,0,2.1-0.3,2.8-0.8
		c0.6-0.5,0.9-1.3,0.9-2.2c0-0.6-0.1-1-0.3-1.4s-0.5-0.7-0.9-1s-1-0.6-1.8-0.8l-1-0.3c-1.3-0.4-2.3-1.1-3-1.9c-0.7-0.8-1-1.9-1-3.2
		c0-1.1,0.2-2,0.7-2.8s1.2-1.4,2.1-1.8c0.9-0.4,2.1-0.6,3.4-0.6c0.6,0,1.2,0,1.8,0.1s1.2,0.2,1.6,0.3v2.1c-1-0.3-2.1-0.5-3.3-0.5
		c-2.6,0-3.9,1-3.9,2.9c0,0.5,0.1,1,0.3,1.3s0.5,0.7,0.9,1s1,0.5,1.7,0.8l1,0.3c1.4,0.5,2.5,1.1,3.2,2s1.1,1.9,1.1,3.2
		c0,1.1-0.2,2.1-0.7,2.9c-0.5,0.8-1.2,1.4-2.1,1.8c-0.9,0.4-2,0.6-3.3,0.6C235.6,59.6,234.9,59.5,234.2,59.4z"/>
	<path class="st3" d="M245.5,57.9c-0.9-1.1-1.4-2.9-1.4-5.3c0-2.4,0.4-4.2,1.3-5.3c0.9-1.1,2.2-1.7,3.9-1.7s3,0.6,3.9,1.7
		s1.4,2.9,1.4,5.3c0,4.7-1.7,7-5.2,7C247.7,59.6,246.4,59,245.5,57.9z M250.9,57.2c0.4-0.3,0.7-0.8,0.9-1.6c0.2-0.7,0.3-1.8,0.3-3.1
		s-0.1-2.4-0.3-3.1c-0.2-0.8-0.5-1.3-0.9-1.6s-0.9-0.5-1.5-0.5s-1.1,0.2-1.5,0.5s-0.7,0.8-0.9,1.6c-0.2,0.7-0.3,1.8-0.3,3.1
		s0.1,2.4,0.3,3.1s0.5,1.3,0.9,1.6s0.9,0.5,1.5,0.5C250,57.7,250.5,57.5,250.9,57.2z"/>
	<path class="st3" d="M256.9,45.7h2l0.2,1.5h0.1c0.4-0.5,1-1,1.6-1.3s1.3-0.4,2-0.4c1.1,0,2,0.3,2.7,1s1,1.8,1,3.4v9.4h-2.4v-9.2
		c0-0.9-0.2-1.5-0.5-1.9s-0.8-0.5-1.5-0.5c-0.5,0-1,0.1-1.5,0.4c-0.5,0.3-0.9,0.6-1.2,1.2v10.1H257V45.7H256.9z"/>
	<path class="st3" d="M269.4,39.1h2.4v8.1h0.1c0.9-1.1,2-1.7,3.5-1.7c1.1,0,2,0.4,2.6,1.1c0.7,0.7,1,1.9,1,3.4v9.3h-2.4v-9.2
		c0-0.9-0.2-1.5-0.5-1.9s-0.8-0.6-1.5-0.6c-0.5,0-1,0.1-1.5,0.4c-0.5,0.3-0.9,0.6-1.2,1.2v10.1h-2.4V39.1H269.4z"/>
	<path class="st3" d="M282.6,57.9c-0.9-1.1-1.4-2.9-1.4-5.3c0-2.4,0.4-4.2,1.3-5.3s2.2-1.7,3.9-1.7c1.7,0,3,0.6,3.9,1.7
		s1.4,2.9,1.4,5.3c0,4.7-1.7,7-5.2,7C284.8,59.6,283.5,59,282.6,57.9z M288,57.2c0.4-0.3,0.7-0.8,0.9-1.6c0.2-0.7,0.3-1.8,0.3-3.1
		s-0.1-2.4-0.3-3.1c-0.2-0.8-0.5-1.3-0.9-1.6s-0.9-0.5-1.5-0.5s-1.1,0.2-1.5,0.5s-0.7,0.8-0.9,1.6c-0.2,0.7-0.3,1.8-0.3,3.1
		s0.1,2.4,0.3,3.1c0.2,0.8,0.5,1.3,0.9,1.6s0.9,0.5,1.5,0.5S287.6,57.5,288,57.2z"/>
	<path class="st3" d="M293.6,59v-2c1.1,0.4,2.1,0.5,3.2,0.5c0.9,0,1.5-0.2,2-0.5c0.4-0.3,0.7-0.8,0.7-1.5c0-0.5-0.1-1-0.4-1.3
		s-0.7-0.5-1.2-0.7l-1.5-0.4c-1.1-0.3-1.8-0.7-2.3-1.3s-0.7-1.4-0.7-2.4c0-0.8,0.2-1.5,0.6-2.1s0.9-1.1,1.7-1.4
		c0.8-0.3,1.7-0.5,2.7-0.5c0.9,0,1.8,0.1,2.7,0.3v2c-0.5-0.1-0.9-0.2-1.3-0.3c-0.4,0-0.9-0.1-1.3-0.1c-1,0-1.7,0.2-2.1,0.5
		c-0.5,0.4-0.7,0.8-0.7,1.4c0,0.5,0.1,0.9,0.4,1.2s0.7,0.5,1.2,0.7l1.5,0.4c1.1,0.3,1.9,0.7,2.4,1.3s0.7,1.4,0.7,2.4
		c0,0.8-0.2,1.6-0.6,2.2c-0.4,0.6-0.9,1.1-1.7,1.4c-0.7,0.3-1.6,0.5-2.6,0.5C295.7,59.6,294.6,59.4,293.6,59z"/>
	<path class="st3" d="M318.2,53.3h-7.3c0,1.1,0.2,1.9,0.4,2.5s0.7,1,1.2,1.3s1.2,0.4,2.1,0.4c0.8,0,1.8-0.2,2.9-0.5v2
		c-1.1,0.3-2.2,0.5-3.2,0.5c-1.4,0-2.5-0.2-3.3-0.7c-0.9-0.5-1.5-1.2-1.9-2.3c-0.4-1-0.6-2.4-0.6-4.1c0-2.4,0.4-4.1,1.3-5.3
		c0.9-1.1,2.1-1.7,3.7-1.7c1.5,0,2.7,0.6,3.5,1.7c0.8,1.1,1.2,2.9,1.2,5.3L318.2,53.3L318.2,53.3z M311.6,48.2
		c-0.4,0.7-0.7,1.8-0.7,3.5h5c0-1.1-0.1-2-0.3-2.7s-0.5-1.1-0.8-1.4c-0.3-0.3-0.8-0.4-1.3-0.4C312.6,47.2,312,47.6,311.6,48.2z"/>
	<path class="st3" d="M325.6,45.7h2l0.2,1.5h0.1c0.4-0.5,1-1,1.6-1.3s1.3-0.4,2-0.4c1.1,0,2,0.3,2.7,1s1,1.8,1,3.4v9.4h-2.4v-9.2
		c0-0.9-0.2-1.5-0.5-1.9s-0.8-0.5-1.5-0.5c-0.5,0-1,0.1-1.5,0.4c-0.5,0.3-0.9,0.6-1.2,1.2v10.1h-2.4V45.7H325.6z"/>
	<path class="st3" d="M338.9,57.9c-0.9-1.1-1.4-2.9-1.4-5.3c0-2.4,0.4-4.2,1.3-5.3s2.2-1.7,3.9-1.7c1.7,0,3,0.6,3.9,1.7
		s1.4,2.9,1.4,5.3c0,4.7-1.7,7-5.2,7C341,59.6,339.8,59,338.9,57.9z M344.2,57.2c0.4-0.3,0.7-0.8,0.9-1.6c0.2-0.7,0.3-1.8,0.3-3.1
		s-0.1-2.4-0.3-3.1c-0.2-0.8-0.5-1.3-0.9-1.6s-0.9-0.5-1.5-0.5s-1.1,0.2-1.5,0.5s-0.7,0.8-0.9,1.6c-0.2,0.7-0.3,1.8-0.3,3.1
		s0.1,2.4,0.3,3.1c0.2,0.8,0.5,1.3,0.9,1.6s0.9,0.5,1.5,0.5S343.8,57.5,344.2,57.2z"/>
	<path class="st3" d="M357.7,45.7h2.5L356,59.3h-3.2l-4.2-13.6h2.5l3.3,11.2L357.7,45.7z"/>
	<path class="st3" d="M362.4,57.9c-0.9-1.1-1.4-2.9-1.4-5.3c0-2.4,0.4-4.2,1.3-5.3s2.2-1.7,3.9-1.7c1.7,0,3,0.6,3.9,1.7
		s1.4,2.9,1.4,5.3c0,4.7-1.7,7-5.2,7C364.6,59.6,363.3,59,362.4,57.9z M367.7,57.2c0.4-0.3,0.7-0.8,0.9-1.6c0.2-0.7,0.3-1.8,0.3-3.1
		s-0.1-2.4-0.3-3.1c-0.2-0.8-0.5-1.3-0.9-1.6s-0.9-0.5-1.5-0.5s-1.1,0.2-1.5,0.5s-0.7,0.8-0.9,1.6c-0.2,0.7-0.3,1.8-0.3,3.1
		s0.1,2.4,0.3,3.1c0.2,0.8,0.5,1.3,0.9,1.6s0.9,0.5,1.5,0.5S367.3,57.5,367.7,57.2z"/>
	<path class="st3" d="M373.3,59v-2c1.1,0.4,2.1,0.5,3.2,0.5c0.9,0,1.5-0.2,2-0.5c0.4-0.3,0.7-0.8,0.7-1.5c0-0.5-0.1-1-0.4-1.3
		s-0.7-0.5-1.2-0.7l-1.5-0.4c-1.1-0.3-1.8-0.7-2.3-1.3s-0.7-1.4-0.7-2.4c0-0.8,0.2-1.5,0.6-2.1s0.9-1.1,1.7-1.4
		c0.8-0.3,1.7-0.5,2.7-0.5c0.9,0,1.8,0.1,2.7,0.3v2c-0.5-0.1-0.9-0.2-1.3-0.3c-0.4,0-0.9-0.1-1.3-0.1c-1,0-1.7,0.2-2.1,0.5
		c-0.5,0.4-0.7,0.8-0.7,1.4c0,0.5,0.1,0.9,0.4,1.2s0.7,0.5,1.2,0.7l1.5,0.4c1.1,0.3,1.9,0.7,2.4,1.3s0.7,1.4,0.7,2.4
		c0,0.8-0.2,1.6-0.6,2.2c-0.4,0.6-0.9,1.1-1.7,1.4c-0.7,0.3-1.6,0.5-2.6,0.5C375.4,59.6,374.3,59.4,373.3,59z"/>
</g>
<g class="st2">
	<path class="st3" d="M200.4,72.7c-0.3-0.3-0.4-0.6-0.4-1.1s0.1-0.8,0.4-1.1s0.7-0.4,1.2-0.4s0.9,0.1,1.2,0.4s0.4,0.6,0.4,1.1
		s-0.1,0.8-0.4,1.1s-0.7,0.4-1.2,0.4S200.6,72.9,200.4,72.7z M200.4,89.3V75.7h2.4v13.6C202.8,89.3,200.4,89.3,200.4,89.3z"/>
	<path class="st3" d="M205.7,75.7h2l0.2,1.5h0.1c0.4-0.5,1-1,1.6-1.3s1.3-0.4,2-0.4c1.1,0,2,0.3,2.7,1s1,1.8,1,3.4v9.4h-2.4v-9.2
		c0-0.9-0.2-1.5-0.5-1.9c-0.4-0.4-0.9-0.5-1.5-0.5c-0.5,0-1,0.1-1.5,0.4s-0.9,0.6-1.2,1.2v10.1h-2.5V75.7z"/>
	<path class="st3" d="M225.9,75.7h2.5l-4.2,13.6H221l-4.2-13.6h2.5l3.3,11.2L225.9,75.7z"/>
	<path class="st3" d="M238.9,83.3h-7.2c0,1.1,0.2,1.9,0.4,2.5s0.7,1,1.2,1.3s1.2,0.4,2.1,0.4c0.8,0,1.8-0.2,2.9-0.5v2
		c-1.1,0.3-2.2,0.5-3.2,0.5c-1.4,0-2.5-0.2-3.3-0.7c-0.9-0.5-1.5-1.2-1.9-2.3c-0.4-1-0.6-2.4-0.6-4.1c0-2.4,0.4-4.1,1.3-5.3
		c0.9-1.1,2.1-1.7,3.7-1.7c1.5,0,2.7,0.6,3.5,1.7s1.2,2.9,1.2,5.3L238.9,83.3L238.9,83.3z M232.3,78.2c-0.4,0.7-0.7,1.8-0.7,3.5h5
		c0-1.1-0.1-2-0.3-2.7s-0.5-1.1-0.8-1.4s-0.8-0.4-1.3-0.4C233.4,77.2,232.8,77.6,232.3,78.2z"/>
	<path class="st3" d="M240.7,89v-2c1.1,0.4,2.1,0.5,3.2,0.5c0.9,0,1.5-0.2,2-0.5c0.4-0.3,0.7-0.8,0.7-1.5c0-0.5-0.1-1-0.4-1.3
		c-0.3-0.3-0.7-0.5-1.2-0.7l-1.5-0.4c-1.1-0.3-1.8-0.7-2.3-1.3c-0.5-0.6-0.7-1.4-0.7-2.4c0-0.8,0.2-1.5,0.6-2.1
		c0.4-0.6,0.9-1.1,1.7-1.4s1.7-0.5,2.7-0.5c0.9,0,1.8,0.1,2.7,0.3v2c-0.5-0.1-0.9-0.2-1.3-0.3c-0.4,0-0.9-0.1-1.3-0.1
		c-1,0-1.7,0.2-2.1,0.5c-0.5,0.4-0.7,0.8-0.7,1.4c0,0.5,0.1,0.9,0.4,1.2s0.7,0.5,1.2,0.7l1.5,0.4c1.1,0.3,1.9,0.7,2.4,1.3
		c0.5,0.6,0.7,1.4,0.7,2.4c0,0.8-0.2,1.6-0.6,2.2c-0.4,0.6-0.9,1.1-1.7,1.4c-0.7,0.3-1.6,0.5-2.6,0.5
		C242.8,89.6,241.7,89.4,240.7,89z"/>
	<path class="st3" d="M257.4,87.3v2.1c-0.7,0.1-1.3,0.2-1.9,0.2c-1.3,0-2.3-0.4-3-1.1s-1-1.8-1-3.4v-7.4h-2.2v-2h2.2l0.4-4.9h2v4.9
		h3.4v2h-3.4v7.1c0,0.7,0.1,1.2,0.2,1.6c0.2,0.4,0.4,0.7,0.7,0.8c0.3,0.2,0.7,0.2,1.3,0.2C256.4,87.4,256.9,87.4,257.4,87.3z"/>
	<path class="st3" d="M259.1,72.7c-0.3-0.3-0.4-0.6-0.4-1.1s0.1-0.8,0.4-1.1c0.3-0.3,0.7-0.4,1.2-0.4s0.9,0.1,1.2,0.4
		c0.3,0.3,0.4,0.6,0.4,1.1s-0.1,0.8-0.4,1.1c-0.3,0.3-0.7,0.4-1.2,0.4S259.4,72.9,259.1,72.7z M259.1,89.3V75.7h2.4v13.6
		C261.5,89.3,259.1,89.3,259.1,89.3z"/>
	<path class="st3" d="M279.6,76.6c0.7,0.7,1,1.9,1,3.5v9.3h-2.4v-9.2c0-1.6-0.7-2.4-2-2.4c-0.4,0-0.9,0.1-1.3,0.3s-0.9,0.6-1.2,1.1
		c0,0.3,0,0.6,0,0.7v9.4h-2.4v-9.2c0-0.9-0.2-1.5-0.5-1.9s-0.8-0.6-1.4-0.6c-0.5,0-0.9,0.1-1.4,0.4s-0.9,0.7-1.2,1.2v10h-2.4V75.7h2
		l0.2,1.5h0.1c0.9-1.1,2-1.7,3.5-1.7c0.7,0,1.3,0.1,1.8,0.4s0.9,0.8,1.2,1.4c0.5-0.6,1-1.1,1.7-1.4c0.6-0.3,1.3-0.5,2-0.5
		C278.1,75.5,279,75.9,279.6,76.6z"/>
	<path class="st3" d="M292.7,83.3h-7.3c0,1.1,0.2,1.9,0.4,2.5s0.7,1,1.2,1.3s1.2,0.4,2.1,0.4c0.8,0,1.8-0.2,2.9-0.5v2
		c-1.1,0.3-2.2,0.5-3.2,0.5c-1.4,0-2.5-0.2-3.3-0.7c-0.9-0.5-1.5-1.2-1.9-2.3c-0.4-1-0.6-2.4-0.6-4.1c0-2.4,0.4-4.1,1.3-5.3
		c0.9-1.1,2.1-1.7,3.7-1.7c1.5,0,2.7,0.6,3.5,1.7s1.2,2.9,1.2,5.3L292.7,83.3L292.7,83.3z M286.1,78.2c-0.4,0.7-0.7,1.8-0.7,3.5h5
		c0-1.1-0.1-2-0.3-2.7s-0.5-1.1-0.8-1.4s-0.8-0.4-1.3-0.4C287.1,77.2,286.5,77.6,286.1,78.2z"/>
	<path class="st3" d="M294.8,75.7h2l0.2,1.5h0.1c0.4-0.5,1-1,1.6-1.3s1.3-0.4,2-0.4c1.1,0,2,0.3,2.7,1s1,1.8,1,3.4v9.4H302v-9.2
		c0-0.9-0.2-1.5-0.5-1.9s-0.8-0.5-1.5-0.5c-0.5,0-1,0.1-1.5,0.4s-0.9,0.6-1.2,1.2v10.1h-2.4V75.7H294.8z"/>
	<path class="st3" d="M314,87.3v2.1c-0.7,0.1-1.3,0.2-1.9,0.2c-1.3,0-2.3-0.4-3-1.1s-1-1.8-1-3.4v-7.4h-2.2v-2h2.2l0.4-4.9h2v4.9
		h3.4v2h-3.4v7.1c0,0.7,0.1,1.2,0.2,1.6c0.2,0.4,0.4,0.7,0.7,0.8c0.3,0.2,0.7,0.2,1.3,0.2C313,87.4,313.5,87.4,314,87.3z"/>
	<path class="st3" d="M316.3,87.9c-0.9-1.1-1.4-2.9-1.4-5.3s0.4-4.2,1.3-5.3c0.9-1.1,2.2-1.7,3.9-1.7c1.7,0,3,0.6,3.9,1.7
		s1.4,2.9,1.4,5.3c0,4.7-1.7,7-5.2,7C318.5,89.6,317.2,89,316.3,87.9z M321.7,87.2c0.4-0.3,0.7-0.8,0.9-1.6c0.2-0.7,0.3-1.8,0.3-3.1
		c0-1.3-0.1-2.4-0.3-3.1c-0.2-0.8-0.5-1.3-0.9-1.6s-0.9-0.5-1.5-0.5s-1.1,0.2-1.5,0.5s-0.7,0.8-0.9,1.6c-0.2,0.7-0.3,1.8-0.3,3.1
		c0,1.3,0.1,2.4,0.3,3.1c0.2,0.8,0.5,1.3,0.9,1.6c0.4,0.3,0.9,0.5,1.5,0.5S321.3,87.5,321.7,87.2z"/>
	<path class="st3" d="M327.3,89v-2c1.1,0.4,2.1,0.5,3.2,0.5c0.9,0,1.5-0.2,2-0.5c0.4-0.3,0.7-0.8,0.7-1.5c0-0.5-0.1-1-0.4-1.3
		s-0.7-0.5-1.2-0.7l-1.5-0.4c-1.1-0.3-1.8-0.7-2.3-1.3c-0.5-0.6-0.7-1.4-0.7-2.4c0-0.8,0.2-1.5,0.6-2.1s0.9-1.1,1.7-1.4
		c0.8-0.3,1.7-0.5,2.7-0.5c0.9,0,1.8,0.1,2.7,0.3v2c-0.5-0.1-0.9-0.2-1.3-0.3c-0.4,0-0.9-0.1-1.3-0.1c-1,0-1.7,0.2-2.1,0.5
		c-0.5,0.4-0.7,0.8-0.7,1.4c0,0.5,0.1,0.9,0.4,1.2s0.7,0.5,1.2,0.7l1.5,0.4c1.1,0.3,1.9,0.7,2.4,1.3c0.5,0.6,0.7,1.4,0.7,2.4
		c0,0.8-0.2,1.6-0.6,2.2s-0.9,1.1-1.7,1.4c-0.7,0.3-1.6,0.5-2.6,0.5C329.4,89.6,328.3,89.4,327.3,89z"/>
	<path class="st3" d="M342.7,89.3V69.1h2.4v20.2H342.7z"/>
	<path class="st3" d="M348.1,72.7c-0.3-0.3-0.4-0.6-0.4-1.1s0.1-0.8,0.4-1.1c0.3-0.3,0.7-0.4,1.2-0.4s0.9,0.1,1.2,0.4
		c0.3,0.3,0.4,0.6,0.4,1.1s-0.1,0.8-0.4,1.1c-0.3,0.3-0.7,0.4-1.2,0.4S348.4,72.9,348.1,72.7z M348.1,89.3V75.7h2.4v13.6
		C350.5,89.3,348.1,89.3,348.1,89.3z"/>
	<path class="st3" d="M355.2,89.4c-0.7-0.1-1.3-0.3-1.8-0.4V69.1h2.4V77h0.1c0.3-0.5,0.7-0.8,1.2-1.1s1.1-0.4,1.8-0.4
		c0.8,0,1.6,0.2,2.3,0.7s1.2,1.2,1.6,2.2s0.6,2.3,0.6,3.9c0,2.4-0.5,4.3-1.6,5.5c-1,1.2-2.6,1.8-4.7,1.8
		C356.6,89.6,355.9,89.5,355.2,89.4z M359.4,87.1c0.5-0.3,0.9-0.9,1.2-1.6c0.3-0.7,0.4-1.7,0.4-3s-0.1-2.3-0.4-3s-0.6-1.2-1-1.5
		s-0.9-0.4-1.5-0.4c-0.5,0-0.9,0.1-1.3,0.3c-0.4,0.2-0.7,0.5-1,0.9v8.6c0.2,0.1,0.4,0.1,0.7,0.1c0.3,0,0.5,0.1,0.7,0.1
		C358.1,87.6,358.8,87.4,359.4,87.1z"/>
	<path class="st3" d="M375.1,83.3h-7.3c0,1.1,0.2,1.9,0.4,2.5s0.7,1,1.2,1.3s1.2,0.4,2.1,0.4c0.8,0,1.8-0.2,2.9-0.5v2
		c-1.1,0.3-2.2,0.5-3.2,0.5c-1.4,0-2.5-0.2-3.3-0.7c-0.9-0.5-1.5-1.2-1.9-2.3c-0.4-1-0.6-2.4-0.6-4.1c0-2.4,0.4-4.1,1.3-5.3
		c0.9-1.1,2.1-1.7,3.7-1.7c1.5,0,2.7,0.6,3.5,1.7s1.2,2.9,1.2,5.3L375.1,83.3L375.1,83.3z M368.5,78.2c-0.4,0.7-0.7,1.8-0.7,3.5h5
		c0-1.1-0.1-2-0.3-2.7s-0.5-1.1-0.8-1.4s-0.8-0.4-1.3-0.4C369.5,77.2,368.9,77.6,368.5,78.2z"/>
	<path class="st3" d="M377.3,75.7h2l0.2,1.9h0.1c0.4-0.7,0.8-1.2,1.4-1.5s1.2-0.5,1.9-0.5c0.3,0,0.5,0,0.8,0.1V78
		c-0.3,0-0.6-0.1-1-0.1c-0.6,0-1.2,0.2-1.8,0.5c-0.6,0.3-1,0.8-1.3,1.3v9.7h-2.4L377.3,75.7L377.3,75.7z"/>
	<path class="st3" d="M391.5,76c0.7,0.3,1.2,0.8,1.6,1.5s0.5,1.7,0.5,2.9v8.9h-2l-0.2-1.5h-0.1c-0.3,0.6-0.8,1-1.4,1.3
		s-1.2,0.4-1.9,0.4c-0.7,0-1.4-0.1-1.9-0.4c-0.6-0.3-1-0.7-1.3-1.3c-0.3-0.6-0.5-1.2-0.5-2c0-1.3,0.4-2.2,1.1-2.9s1.9-1.1,3.5-1.2
		l2.3-0.2v-1.1c0-0.7-0.1-1.3-0.3-1.7c-0.2-0.4-0.5-0.7-0.9-0.9s-1-0.3-1.7-0.3c-0.5,0-1,0-1.5,0.1s-1.1,0.2-1.6,0.4v-2
		c0.5-0.2,1.1-0.3,1.7-0.4s1.3-0.1,1.9-0.1C389.8,75.5,390.8,75.7,391.5,76z M390.1,87.3c0.4-0.2,0.8-0.6,1.1-1.1V83l-2,0.2
		c-0.8,0.1-1.5,0.3-1.8,0.7c-0.4,0.4-0.6,0.9-0.6,1.6s0.2,1.3,0.5,1.6c0.4,0.4,0.9,0.5,1.5,0.5C389.2,87.7,389.7,87.5,390.1,87.3z"
		/>
	<path class="st3" d="M411.6,76.6c0.7,0.7,1,1.9,1,3.5v9.3h-2.4v-9.2c0-1.6-0.7-2.4-2-2.4c-0.4,0-0.9,0.1-1.3,0.3s-0.9,0.6-1.2,1.1
		c0,0.3,0,0.6,0,0.7v9.4h-2.4v-9.2c0-0.9-0.2-1.5-0.5-1.9s-0.8-0.6-1.4-0.6c-0.5,0-0.9,0.1-1.4,0.4s-0.9,0.7-1.2,1.2v10h-2.4V75.7h2
		l0.2,1.5h0.1c0.9-1.1,2-1.7,3.5-1.7c0.7,0,1.3,0.1,1.8,0.4s0.9,0.8,1.2,1.4c0.5-0.6,1-1.1,1.7-1.4c0.6-0.3,1.3-0.5,2-0.5
		C410,75.5,410.9,75.9,411.6,76.6z"/>
</g>
<g class="st2">
	<path class="st3" d="M218.7,105.7h2.1l0.2,1.4h0.1c0.3-0.5,0.7-0.9,1.2-1.2c0.5-0.3,1.1-0.5,1.8-0.5c0.9,0,1.6,0.2,2.3,0.7
		s1.2,1.2,1.7,2.2c0.4,1,0.6,2.3,0.6,3.9c0,2.5-0.5,4.3-1.6,5.5s-2.6,1.8-4.8,1.8c-0.3,0-0.7,0-1.2-0.1v5.3h-2.4V105.7z
		 M224.6,117.1c0.5-0.3,1-0.9,1.2-1.6s0.4-1.7,0.4-3s-0.1-2.3-0.4-3s-0.6-1.2-1-1.5s-0.9-0.4-1.5-0.4c-0.5,0-0.9,0.1-1.3,0.3
		c-0.4,0.2-0.7,0.5-1,1v8.6c0.2,0,0.4,0.1,0.7,0.1s0.5,0,0.7,0C223.3,117.6,224,117.4,224.6,117.1z"/>
	<path class="st3" d="M231,105.7h2l0.2,1.9h0.1c0.4-0.7,0.8-1.2,1.4-1.5s1.2-0.5,1.9-0.5c0.3,0,0.5,0,0.8,0.1v2.3
		c-0.3,0-0.6-0.1-1-0.1c-0.6,0-1.2,0.2-1.8,0.5s-1,0.8-1.3,1.3v9.7h-2.4v-13.7H231z"/>
	<path class="st3" d="M248.1,113.3h-7.3c0,1.1,0.2,1.9,0.4,2.5s0.7,1,1.2,1.3s1.2,0.4,2.1,0.4c0.8,0,1.8-0.2,2.9-0.5v2
		c-1.1,0.3-2.2,0.5-3.2,0.5c-1.4,0-2.5-0.2-3.3-0.7c-0.9-0.5-1.5-1.2-1.9-2.3s-0.6-2.4-0.6-4.1c0-2.4,0.4-4.1,1.3-5.3
		c0.9-1.1,2.1-1.7,3.7-1.7c1.5,0,2.7,0.6,3.5,1.7s1.2,2.9,1.2,5.3L248.1,113.3L248.1,113.3z M241.5,108.2c-0.4,0.7-0.7,1.8-0.7,3.5
		h5c0-1.1-0.1-2-0.3-2.7s-0.5-1.1-0.8-1.4s-0.8-0.4-1.3-0.4C242.5,107.2,241.9,107.6,241.5,108.2z"/>
	<path class="st3" d="M249.8,119v-2c1.1,0.4,2.1,0.5,3.2,0.5c0.9,0,1.5-0.2,2-0.5c0.4-0.3,0.7-0.8,0.7-1.5c0-0.5-0.1-1-0.4-1.3
		s-0.7-0.5-1.2-0.7l-1.5-0.4c-1.1-0.3-1.8-0.7-2.3-1.3c-0.5-0.6-0.7-1.4-0.7-2.4c0-0.8,0.2-1.5,0.6-2.1c0.4-0.6,0.9-1.1,1.7-1.4
		c0.8-0.3,1.7-0.5,2.7-0.5c0.9,0,1.8,0.1,2.7,0.3v2c-0.5-0.1-0.9-0.2-1.3-0.3c-0.4,0-0.9-0.1-1.3-0.1c-1,0-1.7,0.2-2.1,0.5
		c-0.5,0.4-0.7,0.8-0.7,1.4c0,0.5,0.1,0.9,0.4,1.2s0.7,0.5,1.2,0.7l1.5,0.4c1.1,0.3,1.9,0.7,2.4,1.3c0.5,0.6,0.7,1.4,0.7,2.4
		c0,0.8-0.2,1.6-0.6,2.2s-0.9,1.1-1.7,1.4c-0.7,0.3-1.6,0.5-2.6,0.5C251.9,119.6,250.8,119.4,249.8,119z"/>
	<path class="st3" d="M269.1,113.3h-7.3c0,1.1,0.2,1.9,0.4,2.5s0.7,1,1.2,1.3s1.2,0.4,2.1,0.4c0.8,0,1.8-0.2,2.9-0.5v2
		c-1.1,0.3-2.2,0.5-3.2,0.5c-1.4,0-2.5-0.2-3.3-0.7c-0.9-0.5-1.5-1.2-1.9-2.3c-0.4-1-0.6-2.4-0.6-4.1c0-2.4,0.4-4.1,1.3-5.3
		c0.9-1.1,2.1-1.7,3.7-1.7c1.5,0,2.7,0.6,3.5,1.7s1.2,2.9,1.2,5.3L269.1,113.3L269.1,113.3z M262.5,108.2c-0.4,0.7-0.7,1.8-0.7,3.5
		h5c0-1.1-0.1-2-0.3-2.7s-0.5-1.1-0.8-1.4s-0.8-0.4-1.3-0.4C263.6,107.2,262.9,107.6,262.5,108.2z"/>
	<path class="st3" d="M271.3,105.7h2l0.2,1.5h0.1c0.4-0.5,1-1,1.6-1.3s1.3-0.4,2-0.4c1.1,0,2,0.3,2.7,1s1,1.8,1,3.4v9.4h-2.4v-9.2
		c0-0.9-0.2-1.5-0.5-1.9s-0.8-0.5-1.5-0.5c-0.5,0-1,0.1-1.5,0.4s-0.9,0.6-1.2,1.2v10.1h-2.4v-13.7H271.3z"/>
	<path class="st3" d="M290.5,117.3v2.1c-0.7,0.1-1.3,0.2-1.9,0.2c-1.3,0-2.3-0.4-3-1.1s-1-1.8-1-3.4v-7.4h-2.2v-2h2.2l0.4-4.9h2v4.9
		h3.4v2H287v7.1c0,0.7,0.1,1.2,0.2,1.6c0.2,0.4,0.4,0.7,0.7,0.8c0.3,0.2,0.7,0.2,1.3,0.2C289.5,117.4,289.9,117.4,290.5,117.3z"/>
	<path class="st3" d="M301.2,113.3h-7.3c0,1.1,0.2,1.9,0.4,2.5s0.7,1,1.2,1.3s1.2,0.4,2.1,0.4c0.8,0,1.8-0.2,2.9-0.5v2
		c-1.1,0.3-2.2,0.5-3.2,0.5c-1.4,0-2.5-0.2-3.3-0.7c-0.9-0.5-1.5-1.2-1.9-2.3c-0.4-1-0.6-2.4-0.6-4.1c0-2.4,0.4-4.1,1.3-5.3
		c0.9-1.1,2.1-1.7,3.7-1.7c1.5,0,2.7,0.6,3.5,1.7s1.2,2.9,1.2,5.3L301.2,113.3L301.2,113.3z M294.6,108.2c-0.4,0.7-0.7,1.8-0.7,3.5
		h5c0-1.1-0.1-2-0.3-2.7s-0.5-1.1-0.8-1.4s-0.8-0.4-1.3-0.4C295.6,107.2,295,107.6,294.6,108.2z"/>
	<path class="st3" d="M302.9,119v-2c1.1,0.4,2.1,0.5,3.2,0.5c0.9,0,1.5-0.2,2-0.5c0.4-0.3,0.7-0.8,0.7-1.5c0-0.5-0.1-1-0.4-1.3
		s-0.7-0.5-1.2-0.7l-1.5-0.4c-1.1-0.3-1.8-0.7-2.3-1.3c-0.5-0.6-0.7-1.4-0.7-2.4c0-0.8,0.2-1.5,0.6-2.1s0.9-1.1,1.7-1.4
		c0.8-0.3,1.7-0.5,2.7-0.5c0.9,0,1.8,0.1,2.7,0.3v2c-0.5-0.1-0.9-0.2-1.3-0.3c-0.4,0-0.9-0.1-1.3-0.1c-1,0-1.7,0.2-2.1,0.5
		c-0.5,0.4-0.7,0.8-0.7,1.4c0,0.5,0.1,0.9,0.4,1.2s0.7,0.5,1.2,0.7l1.5,0.4c1.1,0.3,1.9,0.7,2.4,1.3c0.5,0.6,0.7,1.4,0.7,2.4
		c0,0.8-0.2,1.6-0.6,2.2s-0.9,1.1-1.7,1.4c-0.7,0.3-1.6,0.5-2.6,0.5C305,119.6,303.9,119.4,302.9,119z"/>
	<path class="st3" d="M318.3,105.7h2.1l0.2,1.4h0.1c0.3-0.5,0.7-0.9,1.2-1.2s1.1-0.5,1.8-0.5c0.9,0,1.6,0.2,2.3,0.7
		c0.7,0.5,1.2,1.2,1.7,2.2c0.4,1,0.6,2.3,0.6,3.9c0,2.5-0.5,4.3-1.6,5.5s-2.6,1.8-4.8,1.8c-0.3,0-0.7,0-1.2-0.1v5.3h-2.4
		L318.3,105.7L318.3,105.7z M324.2,117.1c0.5-0.3,1-0.9,1.2-1.6s0.4-1.7,0.4-3s-0.1-2.3-0.4-3s-0.6-1.2-1-1.5s-0.9-0.4-1.5-0.4
		c-0.5,0-0.9,0.1-1.3,0.3s-0.7,0.5-1,1v8.6c0.2,0,0.4,0.1,0.7,0.1s0.5,0,0.7,0C323,117.6,323.7,117.4,324.2,117.1z"/>
	<path class="st3" d="M337.1,106c0.7,0.3,1.2,0.8,1.6,1.5s0.5,1.7,0.5,2.9v8.9h-2l-0.2-1.5h-0.1c-0.3,0.6-0.8,1-1.4,1.3
		s-1.2,0.4-1.9,0.4c-0.7,0-1.4-0.1-1.9-0.4c-0.6-0.3-1-0.7-1.3-1.3c-0.3-0.6-0.5-1.2-0.5-2c0-1.3,0.4-2.2,1.1-2.9s1.9-1.1,3.5-1.2
		l2.3-0.2v-1.1c0-0.7-0.1-1.3-0.3-1.7c-0.2-0.4-0.5-0.7-0.9-0.9s-1-0.3-1.7-0.3c-0.5,0-1,0-1.5,0.1s-1.1,0.2-1.6,0.4v-2
		c0.5-0.2,1.1-0.3,1.7-0.4s1.3-0.1,1.9-0.1C335.5,105.5,336.4,105.7,337.1,106z M335.8,117.3c0.4-0.2,0.8-0.6,1.1-1.1V113l-2,0.2
		c-0.8,0.1-1.5,0.3-1.8,0.7c-0.4,0.4-0.6,0.9-0.6,1.6s0.2,1.3,0.5,1.6c0.4,0.4,0.9,0.5,1.5,0.5C334.9,117.7,335.3,117.5,335.8,117.3
		z"/>
	<path class="st3" d="M342.1,105.7h2l0.2,1.9h0.1c0.4-0.7,0.8-1.2,1.4-1.5s1.2-0.5,1.9-0.5c0.3,0,0.5,0,0.8,0.1v2.3
		c-0.3,0-0.6-0.1-1-0.1c-0.6,0-1.2,0.2-1.8,0.5c-0.6,0.3-1,0.8-1.3,1.3v9.7H342L342.1,105.7L342.1,105.7z"/>
	<path class="st3" d="M356.3,106c0.7,0.3,1.2,0.8,1.6,1.5s0.5,1.7,0.5,2.9v8.9h-2l-0.2-1.5h-0.1c-0.3,0.6-0.8,1-1.4,1.3
		s-1.2,0.4-1.9,0.4c-0.7,0-1.4-0.1-1.9-0.4c-0.6-0.3-1-0.7-1.3-1.3c-0.3-0.6-0.5-1.2-0.5-2c0-1.3,0.4-2.2,1.1-2.9s1.9-1.1,3.5-1.2
		l2.3-0.2v-1.1c0-0.7-0.1-1.3-0.3-1.7c-0.2-0.4-0.5-0.7-0.9-0.9s-1-0.3-1.7-0.3c-0.5,0-1,0-1.5,0.1s-1.1,0.2-1.6,0.4v-2
		c0.5-0.2,1.1-0.3,1.7-0.4s1.3-0.1,1.9-0.1C354.7,105.5,355.6,105.7,356.3,106z M354.9,117.3c0.4-0.2,0.8-0.6,1.1-1.1V113l-2,0.2
		c-0.8,0.1-1.5,0.3-1.8,0.7c-0.4,0.4-0.6,0.9-0.6,1.6s0.2,1.3,0.5,1.6c0.4,0.4,0.9,0.5,1.5,0.5C354.1,117.7,354.5,117.5,354.9,117.3
		z"/>
	<path class="st3" d="M381.7,106.6c0.7,0.7,1,1.9,1,3.5v9.3h-2.4v-9.2c0-1.6-0.7-2.4-2-2.4c-0.4,0-0.9,0.1-1.3,0.3s-0.9,0.6-1.2,1.1
		c0,0.3,0,0.6,0,0.7v9.4h-2.4v-9.2c0-0.9-0.2-1.5-0.5-1.9s-0.8-0.6-1.4-0.6c-0.5,0-0.9,0.1-1.4,0.4s-0.9,0.7-1.2,1.2v10h-2.4v-13.6
		h2l0.2,1.5h0.1c0.9-1.1,2-1.7,3.5-1.7c0.7,0,1.3,0.1,1.8,0.4s0.9,0.8,1.2,1.4c0.5-0.6,1-1.1,1.7-1.4c0.6-0.3,1.3-0.5,2-0.5
		C380.2,105.5,381.1,105.9,381.7,106.6z"/>
	<path class="st3" d="M394.7,113.3h-7.3c0,1.1,0.2,1.9,0.4,2.5s0.7,1,1.2,1.3s1.2,0.4,2.1,0.4c0.8,0,1.8-0.2,2.9-0.5v2
		c-1.1,0.3-2.2,0.5-3.2,0.5c-1.4,0-2.5-0.2-3.3-0.7c-0.9-0.5-1.5-1.2-1.9-2.3c-0.4-1-0.6-2.4-0.6-4.1c0-2.4,0.4-4.1,1.3-5.3
		c0.9-1.1,2.1-1.7,3.7-1.7c1.5,0,2.7,0.6,3.5,1.7s1.2,2.9,1.2,5.3L394.7,113.3L394.7,113.3z M388.2,108.2c-0.4,0.7-0.7,1.8-0.7,3.5
		h5c0-1.1-0.1-2-0.3-2.7s-0.5-1.1-0.8-1.4s-0.8-0.4-1.3-0.4C389.2,107.2,388.6,107.6,388.2,108.2z"/>
</g>
<g class="st2">
	<path class="st3" d="M255.9,147.9c-0.9-1.1-1.4-2.9-1.4-5.4s0.5-4.3,1.5-5.4c1-1.1,2.5-1.7,4.5-1.7c0.8,0,1.6,0.1,2.3,0.3v2
		c-0.6-0.2-1.3-0.2-1.9-0.2c-0.9,0-1.6,0.1-2.2,0.4c-0.6,0.3-1,0.8-1.3,1.5s-0.4,1.7-0.4,2.9c0,1.3,0.1,2.3,0.4,3s0.6,1.2,1.1,1.6
		c0.5,0.3,1.1,0.5,1.9,0.5c0.7,0,1.5-0.2,2.3-0.5v2.1c-0.9,0.3-1.9,0.5-2.8,0.5C258.2,149.6,256.9,149,255.9,147.9z"/>
	<path class="st3" d="M265.5,148.5c-0.7-0.7-1-1.8-1-3.4v-9.4h2.4v9.2c0,0.9,0.2,1.5,0.5,1.9s0.8,0.6,1.5,0.6c0.5,0,1-0.1,1.5-0.4
		s0.9-0.6,1.2-1.2v-10.1h2.4v13.6h-2l-0.2-1.5h-0.1c-0.5,0.6-1,1-1.6,1.3s-1.2,0.4-1.9,0.4C267.1,149.6,266.2,149.2,265.5,148.5z"/>
	<path class="st3" d="M276.5,149v-2c1.1,0.4,2.1,0.5,3.2,0.5c0.9,0,1.5-0.2,2-0.5c0.4-0.3,0.7-0.8,0.7-1.5c0-0.5-0.1-1-0.4-1.3
		s-0.7-0.5-1.2-0.7l-1.5-0.4c-1.1-0.3-1.8-0.7-2.3-1.3s-0.7-1.4-0.7-2.4c0-0.8,0.2-1.5,0.6-2.1s0.9-1.1,1.7-1.4
		c0.8-0.3,1.7-0.5,2.7-0.5c0.9,0,1.8,0.1,2.7,0.3v2c-0.5-0.1-0.9-0.2-1.3-0.3c-0.4,0-0.9-0.1-1.3-0.1c-1,0-1.7,0.2-2.1,0.5
		c-0.5,0.4-0.7,0.8-0.7,1.4c0,0.5,0.1,0.9,0.4,1.2s0.7,0.5,1.2,0.7l1.5,0.4c1.1,0.3,1.9,0.7,2.4,1.3s0.7,1.4,0.7,2.4
		c0,0.8-0.2,1.6-0.6,2.2c-0.4,0.6-0.9,1.1-1.7,1.4c-0.7,0.3-1.6,0.5-2.6,0.5C278.6,149.6,277.5,149.4,276.5,149z"/>
	<path class="st3" d="M293.3,147.3v2.1c-0.7,0.1-1.3,0.2-1.9,0.2c-1.3,0-2.3-0.4-3-1.1c-0.7-0.7-1-1.8-1-3.4v-7.4h-2.2v-2h2.2
		l0.4-4.9h2v4.9h3.4v2h-3.5v7.1c0,0.7,0.1,1.2,0.2,1.6c0.2,0.4,0.4,0.7,0.7,0.8c0.3,0.2,0.7,0.2,1.3,0.2
		C292.3,147.4,292.7,147.4,293.3,147.3z"/>
	<path class="st3" d="M295.5,147.9c-0.9-1.1-1.4-2.9-1.4-5.3c0-2.4,0.4-4.2,1.3-5.3s2.2-1.7,3.9-1.7c1.7,0,3,0.6,3.9,1.7
		s1.4,2.9,1.4,5.3c0,4.7-1.7,7-5.2,7C297.7,149.6,296.4,149,295.5,147.9z M300.9,147.2c0.4-0.3,0.7-0.8,0.9-1.6
		c0.2-0.7,0.3-1.8,0.3-3.1s-0.1-2.4-0.3-3.1c-0.2-0.8-0.5-1.3-0.9-1.6s-0.9-0.5-1.5-0.5s-1.1,0.2-1.5,0.5s-0.7,0.8-0.9,1.6
		c-0.2,0.7-0.3,1.8-0.3,3.1s0.1,2.4,0.3,3.1c0.2,0.8,0.5,1.3,0.9,1.6s0.9,0.5,1.5,0.5C300,147.7,300.5,147.5,300.9,147.2z"/>
	<path class="st3" d="M322.1,136.6c0.7,0.7,1,1.9,1,3.5v9.3h-2.4v-9.2c0-1.6-0.7-2.4-2-2.4c-0.4,0-0.9,0.1-1.3,0.3s-0.9,0.6-1.2,1.1
		c0,0.3,0,0.6,0,0.7v9.4h-2.4v-9.2c0-0.9-0.2-1.5-0.5-1.9s-0.8-0.6-1.4-0.6c-0.5,0-0.9,0.1-1.4,0.4c-0.5,0.3-0.9,0.7-1.2,1.2v10
		h-2.4v-13.6h2l0.2,1.5h0.1c0.9-1.1,2-1.7,3.5-1.7c0.7,0,1.3,0.1,1.8,0.4c0.5,0.3,0.9,0.8,1.2,1.4c0.5-0.6,1-1.1,1.7-1.4
		c0.6-0.3,1.3-0.5,2-0.5C320.6,135.5,321.5,135.9,322.1,136.6z"/>
	<path class="st3" d="M326,132.7c-0.3-0.3-0.4-0.6-0.4-1.1s0.1-0.8,0.4-1.1s0.7-0.4,1.2-0.4s0.9,0.1,1.2,0.4
		c0.3,0.3,0.4,0.6,0.4,1.1s-0.1,0.8-0.4,1.1s-0.7,0.4-1.2,0.4S326.3,132.9,326,132.7z M326,149.3v-13.6h2.4v13.6H326z"/>
	<path class="st3" d="M333.2,147.3h6.1v2h-8.8v-1.5l6-10.1h-5.8v-2h8.6v1.5L333.2,147.3z"/>
	<path class="st3" d="M347.5,136c0.7,0.3,1.2,0.8,1.6,1.5s0.5,1.7,0.5,2.9v8.9h-2l-0.2-1.5h-0.1c-0.3,0.6-0.8,1-1.4,1.3
		s-1.2,0.4-1.9,0.4c-0.7,0-1.4-0.1-1.9-0.4c-0.6-0.3-1-0.7-1.3-1.3s-0.5-1.2-0.5-2c0-1.3,0.4-2.2,1.1-2.9s1.9-1.1,3.5-1.2l2.3-0.2
		v-1.1c0-0.7-0.1-1.3-0.3-1.7c-0.2-0.4-0.5-0.7-0.9-0.9s-1-0.3-1.7-0.3c-0.5,0-1,0-1.5,0.1s-1.1,0.2-1.6,0.4v-2
		c0.5-0.2,1.1-0.3,1.7-0.4s1.3-0.1,1.9-0.1C345.9,135.5,346.8,135.7,347.5,136z M346.2,147.3c0.4-0.2,0.8-0.6,1.1-1.1V143l-2,0.2
		c-0.8,0.1-1.5,0.3-1.8,0.7c-0.4,0.4-0.6,0.9-0.6,1.6c0,0.7,0.2,1.3,0.5,1.6c0.4,0.4,0.9,0.5,1.5,0.5
		C345.3,147.7,345.7,147.5,346.2,147.3z"/>
	<path class="st3" d="M352.5,135.7h2l0.2,1.9h0.1c0.4-0.7,0.8-1.2,1.4-1.5s1.2-0.5,1.9-0.5c0.3,0,0.5,0,0.8,0.1v2.3
		c-0.3,0-0.6-0.1-1-0.1c-0.6,0-1.2,0.2-1.8,0.5c-0.6,0.3-1,0.8-1.3,1.3v9.7h-2.4L352.5,135.7L352.5,135.7z"/>
</g>
<polygon class="st0" points="224,176 201.2,200.4 266.2,176 "/>
<g>
	<path class="st4" d="M34,105c-4.3,0-7.8,3.5-7.8,7.8v42.3l15.7-3v-39.2C41.9,108.6,38.4,105,34,105z"/>
	<path class="st5" d="M113.4,250H46.7C23,250,3.9,230.8,3.9,207.2l0,0c0-39.1,31.7-70.8,70.8-70.8h10.7c39.1,0,70.8,31.7,70.8,70.8
		l0,0C156.2,230.8,137,250,113.4,250z"/>
	<path class="st4" d="M115.3,232.4H44.8c-16.9,0-30.6-13.7-30.6-30.6l0,0c0-16.9,13.7-30.6,30.6-30.6h70.5
		c16.9,0,30.6,13.7,30.6,30.6l0,0C145.9,218.7,132.2,232.4,115.3,232.4z"/>
	<g>
		<g>
			<g>
				<circle class="st6" cx="40.1" cy="201.8" r="13.3"/>
			</g>
		</g>
	</g>
	<path class="st6" d="M109.3,202.5c2.1-4.2,6.1-7,10.7-7s8.7,2.8,10.7,7h2.5c0-0.2,0-0.5,0-0.7c0-7.3-5.9-13.3-13.3-13.3
		c-7.3,0-13.3,5.9-13.3,13.3c0,0.2,0,0.5,0,0.7H109.3z"/>
</g>
</svg>
