<?xml version="1.0" encoding="utf-8"?>
<!-- Generator: Adobe Illustrator 21.1.0, SVG Export Plug-In . SVG Version: 6.00 Build 0)  -->
<svg version="1.1" id="Camada_1" xmlns="http://www.w3.org/2000/svg" xmlns:xlink="http://www.w3.org/1999/xlink" x="0px" y="0px"
	 viewBox="0 0 192 179.2" style="enable-background:new 0 0 192 179.2;" xml:space="preserve">
<style type="text/css">
	.st0{fill-rule:evenodd;clip-rule:evenodd;fill:#FFFFFF;}
	.st1{fill-rule:evenodd;clip-rule:evenodd;}
</style>
<g>
	<path class="st0" d="M40.3,1.7L152,1.8c17.6,0,32,14.5,31.9,32v111.7c0,17.6-14.4,32-32,32l-111.7-0.1c-17.6-0.1-32-14.4-32-32
		L8.3,33.7C8.3,16.1,22.7,1.7,40.3,1.7L40.3,1.7z"/>
	<path class="st1" d="M159.2,81.9h-12.7l-5.3,10h8.9L159.2,81.9L159.2,81.9z M167.6,98.1h-12.4v26.8c0,8.2-5.5,10.5-9.6,10.5
		c-3.9,0-8.1-1.4-8.1-8.6V98.1h-12.5l-0.1,30.5c0,11.8,6.8,17.1,16.1,17.1c6.5,0.1,11.5-2.8,14.3-7.8h0.1v6.5h12V98.1L167.6,98.1z"
		/>
	<path class="st1" d="M115.4,110.4c0-11.4-12-13.5-18.7-13.5c-9.7,0-19.7,2.1-21.2,16.3h12c0.4-2.7,1.5-6.5,7.7-6.5
		c3.2,0,8.2,0.3,8.2,5.4c0,2.6-2.4,3.4-4.5,3.7l-11.2,1.7c-7.9,1.1-13.8,5.8-13.8,14.8c0,9.6,7.3,13.5,14.4,13.5
		c8.5,0,12.5-3.9,15.3-6.7c0.3,2.5,0.5,3.2,1.2,5.4l10.7-0.1c0-5.1-0.1-8.9-0.1-8.9V110.4L115.4,110.4z M103.4,127.9v-6
		c-1.3,0.9-3.4,1.7-8.5,2.4c-4.7,0.8-8.5,2-8.5,7.1c0,4.2,3.5,5.5,5.8,5.5C97.7,136.9,103.4,133.5,103.4,127.9L103.4,127.9z"/>
	<path class="st1" d="M62.5,81.9H50.1v16.2h-6.4v8.7H50v28.2c0,6,1.9,10.1,12.7,10.1h1.7c1.9,0,4-0.1,5.8-0.2v-9.3
		c-0.9,0.1-1.8,0.2-2.6,0.2c-5,0-5.2-1-5.2-3.8l0.1-25.1h7.8v-8.7h-7.8V81.9L62.5,81.9z"/>
	<polygon class="st1" points="37.9,81.8 24.5,81.8 24.5,144.4 37.9,144.4 37.9,81.8 	"/>
</g>
</svg>
