<?xml version="1.0" encoding="utf-8"?>
<!-- Generator: Adobe Illustrator 21.1.0, SVG Export Plug-In . SVG Version: 6.00 Build 0)  -->
<svg version="1.1" id="Camada_1" xmlns="http://www.w3.org/2000/svg" xmlns:xlink="http://www.w3.org/1999/xlink" x="0px" y="0px"
	 viewBox="0 0 510 510" style="enable-background:new 0 0 510 510;" xml:space="preserve">
<style type="text/css">
	.st0{fill:#FFAB00;}
	.st1{fill:#37474F;}
	.st2{fill:#FFFFFF;stroke:#1E1E1C;stroke-width:6.3922;stroke-linejoin:round;stroke-miterlimit:10;}
	.st3{fill:#FFFFFF;stroke:#1E1E1C;stroke-width:5.9403;stroke-miterlimit:10;}
	.st4{fill:#1E1E1C;}
	.st5{fill:#FEFFFD;stroke:#1E1E1C;stroke-width:6.3922;stroke-miterlimit:10;}
	.st6{fill:#FFFFFF;stroke:#1E1E1C;stroke-width:3.5329;stroke-miterlimit:10;}
	.st7{fill:none;stroke:#1E1E1C;stroke-width:2.5569;stroke-miterlimit:10;}
	.st8{fill:none;}
	.st9{enable-background:new    ;}
	.st10{fill:#FFFFFF;}
</style>
<circle class="st0" cx="255" cy="255" r="248"/>
<path class="st1" d="M116.8,157.9H23.2c-8.9,0-16.2-7.2-16.2-16.2V96.3c0-8.9,7.2-16.2,16.2-16.2h93.6c8.9,0,16.2,7.2,16.2,16.2
	v45.5C133,150.7,125.8,157.9,116.8,157.9z"/>
<polygon class="st1" points="114,155 128,170 88,155 "/>
<path class="st2" d="M228.4,361c11.4-7.4,14.7-22.6,7.3-34.1c-7.4-11.4-22.6-14.7-34.1-7.3c-0.3,0.2-0.5,0.4-0.7,0.5
	c-50.2,11.8-82.5-22.3-76.3,0.4C135.9,362.1,222.1,365,228.4,361z"/>
<path class="st2" d="M297,314c-13.6,0-24.6,11-24.6,24.6s11,24.6,24.6,24.6c0.3,0,0.6,0,0.9,0c48.6,17.4,57.1,63.5,64.3,41.1
	C375.2,363.3,304.4,314,297,314z"/>
<path class="st3" d="M282,311.9c20.4,0,44.6,37.3,49,78.5s-21.3,72.8-21.3,72.8H297c0,0-4.5-9.6-15.2-16.3
	c-10.7-6.7-36.7-6.7-47.4,0s-15.2,16.3-15.2,16.3h-12.7c0,0-25.7-31.6-21.3-72.8s28.5-78.5,49-78.5L282,311.9L282,311.9z"/>
<path class="st4" d="M180.6,46.8c-7.3,0-13.2,5.9-13.2,13.2v71.1l26.4-5.1V60C193.8,52.7,187.9,46.8,180.6,46.8z"/>
<path class="st5" d="M314.1,290.8H202c-39.8,0-72.1-32.3-72.1-72.1l0,0c0-65.8,53.3-119.1,119.1-119.1h18
	c65.8,0,119.1,53.3,119.1,119.1l0,0C386.1,258.5,353.9,290.8,314.1,290.8z"/>
<path class="st4" d="M317.4,261.2H198.7c-28.4,0-51.5-23-51.5-51.5l0,0c0-28.4,23-51.5,51.5-51.5h118.7c28.4,0,51.5,23,51.5,51.5
	l0,0C368.8,238.1,345.8,261.2,317.4,261.2z"/>
<g>
	<g>
		<circle class="st6" cx="325.3" cy="209.7" r="22.3"/>
	</g>
</g>
<g>
	<g>
		<circle class="st6" cx="190.8" cy="209.7" r="22.3"/>
	</g>
</g>
<path class="st7" d="M243.7,443.3c0,0-23.4-57.9-58.6-32.9"/>
<path class="st7" d="M272.9,443.3c0,0,23.4-57.9,58.6-32.9"/>
<rect x="16.1" y="92.5" class="st8" width="107.7" height="57"/>
<g>
	<g class="st9">
		<path class="st10" d="M59.7,104.7c0.6,0.8,0.9,1.8,0.9,3c0,1.7-0.6,3-1.9,3.9s-3.2,1.3-5.9,1.3c-1.4,0-2.8-0.1-4.2-0.3V94.5
			c1.5-0.3,3.1-0.5,4.6-0.5c1.6,0,2.9,0.2,3.9,0.5s1.7,0.9,2.2,1.6s0.7,1.7,0.7,2.8c0,1-0.3,1.9-0.8,2.7c-0.5,0.8-1.3,1.3-2.3,1.5
			C58.2,103.4,59.1,103.9,59.7,104.7z M51,96.2v6h2.6c1,0,1.9-0.1,2.5-0.3s1-0.6,1.3-1c0.3-0.5,0.4-1,0.4-1.7c0-0.8-0.1-1.3-0.4-1.8
			c-0.3-0.5-0.7-0.8-1.3-1s-1.4-0.3-2.5-0.3C52.7,96,51.9,96,51,96.2z M56.2,110.5c0.7-0.2,1.2-0.6,1.6-1.1c0.3-0.5,0.5-1.1,0.5-1.9
			c0-1.1-0.3-2-1-2.5s-1.8-0.8-3.2-0.8h-3v6.5c0.7,0.1,1.5,0.1,2.3,0.1C54.6,110.9,55.5,110.8,56.2,110.5z"/>
		<path class="st10" d="M63.5,111.3c-0.9-1.1-1.4-2.9-1.4-5.3s0.4-4.2,1.3-5.3c0.9-1.1,2.2-1.7,3.9-1.7s3,0.6,3.9,1.7
			s1.4,2.9,1.4,5.3c0,4.7-1.7,7-5.2,7C65.7,113,64.4,112.4,63.5,111.3z M68.9,110.6c0.4-0.3,0.7-0.8,0.9-1.6
			c0.2-0.7,0.3-1.8,0.3-3.1c0-1.3-0.1-2.4-0.3-3.1c-0.2-0.8-0.5-1.3-0.9-1.6c-0.4-0.3-0.9-0.5-1.5-0.5s-1.1,0.2-1.5,0.5
			s-0.7,0.8-0.9,1.6c-0.2,0.7-0.3,1.8-0.3,3.1c0,1.3,0.1,2.4,0.3,3.1s0.5,1.3,0.9,1.6s0.9,0.5,1.5,0.5C68,111,68.5,110.9,68.9,110.6
			z"/>
		<path class="st10" d="M75,99.1h2l0.2,1.9h0.1c0.4-0.7,0.8-1.2,1.4-1.5s1.2-0.5,1.9-0.5c0.3,0,0.5,0,0.8,0.1v2.3
			c-0.3,0-0.6-0.1-1-0.1c-0.6,0-1.2,0.2-1.8,0.5c-0.6,0.3-1,0.8-1.3,1.3v9.7H75V99.1z"/>
		<path class="st10" d="M89.2,99.4c0.7,0.3,1.2,0.8,1.6,1.5s0.5,1.7,0.5,2.9v8.9h-2l-0.2-1.5H89c-0.3,0.6-0.8,1-1.4,1.3
			s-1.2,0.4-1.9,0.4c-0.7,0-1.4-0.1-1.9-0.4c-0.6-0.3-1-0.7-1.3-1.3c-0.3-0.6-0.5-1.2-0.5-2c0-1.3,0.4-2.2,1.1-2.9s1.9-1.1,3.5-1.2
			l2.3-0.2v-1.1c0-0.7-0.1-1.3-0.3-1.7c-0.2-0.4-0.5-0.7-0.9-0.9s-1-0.3-1.7-0.3c-0.5,0-1,0-1.5,0.1s-1.1,0.2-1.6,0.4v-2
			c0.5-0.2,1.1-0.3,1.7-0.4s1.3-0.1,1.9-0.1C87.6,98.9,88.5,99,89.2,99.4z M87.8,110.7c0.4-0.2,0.8-0.6,1.1-1.1v-3.2l-2,0.2
			c-0.8,0.1-1.5,0.3-1.8,0.7c-0.4,0.4-0.6,0.9-0.6,1.6s0.2,1.3,0.5,1.6c0.4,0.4,0.9,0.5,1.5,0.5C86.9,111,87.4,110.9,87.8,110.7z"/>
	</g>
	<g class="st9">
		<path class="st10" d="M30.1,126c-0.3-0.3-0.4-0.6-0.4-1.1s0.1-0.8,0.4-1.1s0.7-0.4,1.2-0.4s0.9,0.1,1.2,0.4s0.4,0.6,0.4,1.1
			s-0.1,0.8-0.4,1.1s-0.7,0.4-1.2,0.4S30.4,126.3,30.1,126z M30.1,142.7v-13.6h2.4v13.6H30.1z"/>
		<path class="st10" d="M35.5,129.1h2l0.2,1.5h0.1c0.4-0.5,1-1,1.6-1.3s1.3-0.4,2-0.4c1.1,0,2,0.3,2.7,1s1,1.8,1,3.4v9.4h-2.4v-9.2
			c0-0.9-0.2-1.5-0.5-1.9c-0.4-0.4-0.9-0.5-1.5-0.5c-0.5,0-1,0.1-1.5,0.4c-0.5,0.3-0.9,0.6-1.2,1.2v10.1h-2.4L35.5,129.1L35.5,129.1
			z"/>
		<path class="st10" d="M55.7,129.1h2.5L54,142.7h-3.2l-4.2-13.6h2.5l3.3,11.2L55.7,129.1z"/>
		<path class="st10" d="M68.7,136.7h-7.3c0,1.1,0.2,1.9,0.4,2.5s0.7,1,1.2,1.3s1.2,0.4,2.1,0.4c0.8,0,1.8-0.2,2.9-0.5v2
			c-1.1,0.3-2.2,0.5-3.2,0.5c-1.4,0-2.5-0.2-3.3-0.7c-0.9-0.5-1.5-1.2-1.9-2.3c-0.4-1-0.6-2.4-0.6-4.1c0-2.4,0.4-4.1,1.3-5.3
			c0.9-1.1,2.1-1.7,3.7-1.7c1.5,0,2.7,0.6,3.5,1.7c0.8,1.1,1.2,2.9,1.2,5.3V136.7z M62.1,131.6c-0.4,0.7-0.7,1.8-0.7,3.5h5
			c0-1.1-0.1-2-0.3-2.7s-0.5-1.1-0.8-1.4c-0.3-0.3-0.8-0.4-1.3-0.4C63.2,130.6,62.5,130.9,62.1,131.6z"/>
		<path class="st10" d="M70.4,142.4v-2c1.1,0.4,2.1,0.5,3.2,0.5c0.9,0,1.5-0.2,2-0.5c0.4-0.3,0.7-0.8,0.7-1.5c0-0.5-0.1-1-0.4-1.3
			s-0.7-0.5-1.2-0.7l-1.5-0.4c-1.1-0.3-1.8-0.7-2.3-1.3s-0.7-1.4-0.7-2.4c0-0.8,0.2-1.5,0.6-2.1s0.9-1.1,1.7-1.4
			c0.8-0.3,1.7-0.5,2.7-0.5c0.9,0,1.8,0.1,2.7,0.3v2c-0.5-0.1-0.9-0.2-1.3-0.3c-0.4,0-0.9-0.1-1.3-0.1c-1,0-1.7,0.2-2.1,0.5
			c-0.5,0.4-0.7,0.8-0.7,1.4c0,0.5,0.1,0.9,0.4,1.2s0.7,0.5,1.2,0.7l1.5,0.4c1.1,0.3,1.9,0.7,2.4,1.3s0.7,1.4,0.7,2.4
			c0,0.8-0.2,1.6-0.6,2.2c-0.4,0.6-0.9,1.1-1.7,1.4c-0.7,0.3-1.6,0.5-2.6,0.5C72.5,143,71.4,142.8,70.4,142.4z"/>
		<path class="st10" d="M87.2,140.7v2.1c-0.7,0.1-1.3,0.2-1.9,0.2c-1.3,0-2.3-0.4-3-1.1c-0.7-0.7-1-1.8-1-3.4v-7.4H79v-2h2.2
			l0.4-4.9h2v4.9H87v2h-3.4v7.1c0,0.7,0.1,1.2,0.2,1.6c0.2,0.4,0.4,0.7,0.7,0.8c0.3,0.2,0.7,0.2,1.3,0.2
			C86.2,140.8,86.6,140.8,87.2,140.7z"/>
		<path class="st10" d="M88.9,126c-0.3-0.3-0.4-0.6-0.4-1.1s0.1-0.8,0.4-1.1c0.3-0.3,0.7-0.4,1.2-0.4s0.9,0.1,1.2,0.4
			c0.3,0.3,0.4,0.6,0.4,1.1s-0.1,0.8-0.4,1.1c-0.3,0.3-0.7,0.4-1.2,0.4S89.1,126.3,88.9,126z M88.9,142.7v-13.6h2.4v13.6H88.9z"/>
		<path class="st10" d="M94.2,129.1h2l0.2,1.9h0.1c0.4-0.7,0.8-1.2,1.4-1.5s1.2-0.5,1.9-0.5c0.3,0,0.5,0,0.8,0.1v2.3
			c-0.3,0-0.6-0.1-1-0.1c-0.6,0-1.2,0.2-1.8,0.5c-0.6,0.3-1,0.8-1.3,1.3v9.7h-2.4v-13.7H94.2z"/>
		<path class="st10" d="M104.1,132.9c1-0.3,1.8-0.7,2.4-1.1c0.6-0.4,1-0.8,1.3-1.3s0.4-1,0.4-1.7c0-1-0.3-1.7-0.9-2.2
			s-1.4-0.7-2.6-0.7s-2.4,0.2-3.5,0.7v-2c0.5-0.2,1-0.4,1.7-0.5s1.4-0.2,2-0.2c1.8,0,3.2,0.4,4.1,1.2c0.9,0.8,1.4,2,1.4,3.5
			c0,1.3-0.3,2.3-1,3.2s-1.7,1.6-3.2,2.2l-0.2,3.8h-1.5L104.1,132.9z M104.1,142.4c-0.3-0.3-0.5-0.7-0.5-1.2s0.2-0.9,0.5-1.2
			s0.7-0.5,1.2-0.5s0.9,0.2,1.2,0.5c0.3,0.3,0.5,0.7,0.5,1.2s-0.2,0.9-0.5,1.2s-0.7,0.5-1.2,0.5S104.4,142.7,104.1,142.4z"/>
	</g>
</g>
<ellipse class="st4" cx="190.8" cy="222" rx="24.7" ry="20.5"/>
<ellipse class="st4" cx="325.3" cy="222" rx="24.7" ry="20.5"/>
</svg>
