<?xml version="1.0" encoding="utf-8"?>
<!-- Generator: Adobe Illustrator 21.1.0, SVG Export Plug-In . SVG Version: 6.00 Build 0)  -->
<svg version="1.1" id="Camada_1" xmlns="http://www.w3.org/2000/svg" xmlns:xlink="http://www.w3.org/1999/xlink" x="0px" y="0px"
	 viewBox="0 0 179 330" style="enable-background:new 0 0 179 330;" xml:space="preserve">
<style type="text/css">
	.st0{fill:none;stroke:#37474F;stroke-width:4;}
	.st1{fill:#102027;}
	.st2{fill:none;stroke:#FFFFFF;stroke-width:3;stroke-miterlimit:10;}
	.st3{fill:none;stroke:#FFAB00;stroke-width:3;stroke-linecap:round;stroke-miterlimit:10;}
	.st4{fill:#FFAB00;}
</style>
<g>
	<path class="st0" d="M18.2,10.8h142.6c5.2,0,9.4,4.6,9.4,10.3v287.8c0,5.7-4.2,10.3-9.4,10.3H18.2c-5.2,0-9.4-4.6-9.4-10.3V21.1
		C8.8,15.4,13,10.8,18.2,10.8z"/>
	<rect x="22.1" y="34" class="st1" width="134.9" height="244.1"/>
	<circle class="st0" cx="89.3" cy="298.2" r="12"/>
	<line class="st2" x1="39" y1="221.2" x2="139" y2="221.2"/>
	<line class="st2" x1="50.5" y1="229.2" x2="50.5" y2="129.2"/>
	<path class="st3" d="M50.5,203.7c0,0,61-8,95-64"/>
	<path class="st4" d="M53.5,105.1c0-0.9-0.2-1.7-0.7-2.2c-0.5-0.5-1.3-1-2.4-1.5s-2.2-0.9-3.2-1.4c-1-0.5-1.8-1-2.5-1.7
		c-0.7-0.6-1.2-1.4-1.6-2.2c-0.4-0.8-0.6-1.8-0.6-3c0-2,0.7-3.6,2-4.9c1.3-1.3,3.1-2,5.4-2.3v-3.7h2.8V86c2.2,0.3,3.8,1.2,5.1,2.7
		c1.2,1.5,1.8,3.3,1.8,5.5h-6c0-1.2-0.2-2.2-0.7-2.8c-0.5-0.7-1.1-1-2-1c-0.8,0-1.4,0.2-1.8,0.7c-0.4,0.5-0.6,1.2-0.6,2
		c0,0.9,0.2,1.6,0.7,2.1c0.5,0.5,1.3,1,2.4,1.5c1.1,0.5,2.1,0.9,3.1,1.4c1,0.5,1.8,1.1,2.5,1.7c0.7,0.6,1.3,1.4,1.7,2.2
		c0.4,0.8,0.6,1.9,0.6,3.1c0,2-0.6,3.7-1.9,4.9c-1.3,1.3-3,2-5.2,2.2v3.5h-2.8v-3.6c-2.6-0.3-4.5-1.2-5.9-2.6
		c-1.4-1.5-2.1-3.5-2.1-5.9h6c0,1.3,0.3,2.4,0.9,3.1c0.6,0.7,1.4,1,2.5,1c0.8,0,1.4-0.2,1.9-0.7C53.2,106.6,53.5,105.9,53.5,105.1z"
		/>
	<path class="st4" d="M124.7,230.2c-7.9,0-14.3,6.4-14.3,14.3s6.4,14.3,14.3,14.3s14.3-6.4,14.3-14.3S132.6,230.2,124.7,230.2z
		 M124.7,256.5c-6.6,0-12.1-5.4-12.1-12.1s5.4-12.1,12.1-12.1c6.6,0,12.1,5.4,12.1,12.1C136.8,251.1,131.4,256.5,124.7,256.5z
		 M125.8,243.9v-9.3c0-0.6-0.5-1.1-1.1-1.1c-0.6,0-1.1,0.5-1.1,1.1v9.8c0,0.3,0.1,0.6,0.3,0.8l5.4,5.2c0.2,0.2,0.5,0.3,0.8,0.3
		c0.3,0,0.6-0.1,0.8-0.3c0.4-0.4,0.4-1.1,0-1.5L125.8,243.9z"/>
</g>
</svg>
