<?xml version="1.0" encoding="utf-8"?>
<!-- Generator: Adobe Illustrator 21.1.0, SVG Export Plug-In . SVG Version: 6.00 Build 0)  -->
<svg version="1.1" id="Camada_1" xmlns="http://www.w3.org/2000/svg" xmlns:xlink="http://www.w3.org/1999/xlink" x="0px" y="0px"
	 viewBox="0 0 179 330" style="enable-background:new 0 0 179 330;" xml:space="preserve">
<style type="text/css">
	.st0{fill:none;stroke:#37474F;stroke-width:4;}
	.st1{clip-path:url(#SVGID_2_);fill:#FFFFFF;stroke:#102027;stroke-width:1.6153;stroke-linejoin:round;stroke-miterlimit:10;}
	.st2{clip-path:url(#SVGID_2_);fill:#FFFFFF;stroke:#102027;stroke-width:1.5011;stroke-miterlimit:10;}
	.st3{clip-path:url(#SVGID_2_);fill:#102027;}
	.st4{clip-path:url(#SVGID_2_);fill:#FDFDFC;stroke:#102027;stroke-width:1.6153;stroke-miterlimit:10;}
	.st5{clip-path:url(#SVGID_2_);fill:#FFFFFF;stroke:#1D1D1B;stroke-width:0.8927;stroke-miterlimit:10;}
	.st6{clip-path:url(#SVGID_2_);fill:none;stroke:#1D1D1B;stroke-width:0.6461;stroke-miterlimit:10;}
	.st7{fill:#102027;}
	.st8{fill:none;stroke:#F5FAFC;stroke-width:1.8382;stroke-miterlimit:10;}
</style>
<g>
	<path class="st0" d="M18.2,10.8h142.6c5.2,0,9.4,4.6,9.4,10.3v287.8c0,5.7-4.2,10.3-9.4,10.3H18.2c-5.2,0-9.4-4.6-9.4-10.3V21.1
		C8.8,15.4,13,10.8,18.2,10.8z"/>
	<rect x="22.1" y="34" class="st0" width="134.9" height="244.1"/>
	<g>
		<defs>
			<rect id="SVGID_1_" x="23.4" y="36.2" width="132.2" height="240"/>
		</defs>
		<clipPath id="SVGID_2_">
			<use xlink:href="#SVGID_1_"  style="overflow:visible;"/>
		</clipPath>
		<path class="st1" d="M71.5,269c-2.9-1.9-3.7-5.7-1.8-8.6c1.9-2.9,5.7-3.7,8.6-1.8c0.1,0,0.1,0.1,0.2,0.1c12.7,3,20.8-5.6,19.3,0.1
			C94.8,269.3,73.1,270.1,71.5,269z"/>
		<path class="st1" d="M54.2,257.2c3.4,0,6.2,2.8,6.2,6.2c0,3.4-2.8,6.2-6.2,6.2c-0.1,0-0.2,0-0.2,0C41.7,274,39.5,285.7,37.7,280
			C34.4,269.6,52.3,257.2,54.2,257.2z"/>
		<path class="st2" d="M57.9,256.6c-5.2,0-11.3,9.4-12.4,19.9c-1.1,10.4,5.4,18.4,5.4,18.4h3.2c0,0,1.1-2.4,3.8-4.1
			c2.7-1.7,9.3-1.7,12,0c2.7,1.7,3.8,4.1,3.8,4.1H77c0,0,6.5-8,5.4-18.4c-1.1-10.4-7.2-19.9-12.4-19.9H57.9z"/>
		<path class="st3" d="M44.5,189.6c-1.8,0-3.3,1.5-3.3,3.3v18l6.7-1.3v-16.7C47.8,191.1,46.3,189.6,44.5,189.6z"/>
		<path class="st4" d="M78.1,251.3H49.9c-10.1,0-18.2-8.2-18.2-18.2v0c0-16.6,13.5-30.1,30.1-30.1h4.5c16.6,0,30.1,13.5,30.1,30.1v0
			C96.4,243.1,88.2,251.3,78.1,251.3z"/>
		<path class="st3" d="M79,243.8H49c-7.2,0-13-5.8-13-13v0c0-7.2,5.8-13,13-13h30c7.2,0,13,5.8,13,13v0C92,238,86.2,243.8,79,243.8z
			"/>
		<ellipse class="st5" cx="81" cy="230.8" rx="5.6" ry="5.7"/>
		<ellipse class="st5" cx="47" cy="230.8" rx="5.6" ry="5.7"/>
		<path class="st6" d="M67.6,289.9c0,0,5.9-14.6,14.8-8.3"/>
		<path class="st6" d="M60.2,289.9c0,0-5.9-14.6-14.8-8.3"/>
	</g>
	<path class="st7" d="M129.9,180.2H49.1c-9.7,0-17.5-7.8-17.5-17.5v-64c0-9.7,7.8-17.5,17.5-17.5h80.8c9.7,0,17.5,7.8,17.5,17.5v64
		C147.4,172.3,139.5,180.2,129.9,180.2z"/>
	<polygon class="st7" points="80.9,173.2 66.9,188.2 106.9,173.2 	"/>
	<polyline class="st8" points="50.2,108.2 58.7,102.2 67.1,108.2 76.7,102.2 88,108.2 99.2,102.2 111.9,108.2 120.9,102.2 
		128.8,108.2 	"/>
	<polyline class="st8" points="50.2,130.2 58.7,124.2 67.1,130.2 76.7,124.2 88,130.2 99.2,124.2 111.9,130.2 120.9,124.2 
		128.8,130.2 	"/>
	<polyline class="st8" points="50.2,152.2 58.7,146.2 67.1,152.2 76.7,146.2 88,152.2 99.2,146.2 111.9,152.2 120.9,146.2 
		128.8,152.2 	"/>
	<circle class="st0" cx="89.3" cy="298.2" r="12"/>
</g>
</svg>
