<?xml version="1.0" encoding="utf-8"?>
<!-- Generator: Adobe Illustrator 21.1.0, SVG Export Plug-In . SVG Version: 6.00 Build 0)  -->
<svg version="1.1" id="Camada_1" xmlns="http://www.w3.org/2000/svg" xmlns:xlink="http://www.w3.org/1999/xlink" x="0px" y="0px"
	 viewBox="0 0 179 330" style="enable-background:new 0 0 179 330;" xml:space="preserve">
<style type="text/css">
	.st0{fill:none;stroke:#37474F;stroke-width:4;}
	.st1{fill:#102027;}
	.st2{fill:#FFAB00;}
	.st3{fill:none;stroke:#37474F;stroke-width:2.0488;stroke-miterlimit:10;}
	.st4{fill:none;}
	.st5{fill:#FFFFFF;}
	.st6{font-family:'Roboto-Regular';}
	.st7{font-size:15px;}
	.st8{fill:none;stroke:#FFFFFF;stroke-width:2;stroke-miterlimit:10;}
</style>
<g>
	<path class="st0" d="M18.2,10.8h142.6c5.2,0,9.4,4.6,9.4,10.3v287.8c0,5.7-4.2,10.3-9.4,10.3H18.2c-5.2,0-9.4-4.6-9.4-10.3V21.1
		C8.8,15.4,13,10.8,18.2,10.8z"/>
	<rect x="22.1" y="34" class="st1" width="134.9" height="244.1"/>
	<g>
		<path class="st2" d="M125.5,248.6H53c-4.6,0-8.4-3.8-8.4-8.4v-10.6c0-4.6,3.8-8.4,8.4-8.4h72.5c4.6,0,8.4,3.8,8.4,8.4v10.6
			C133.8,244.9,130.1,248.6,125.5,248.6z"/>
	</g>
	<polyline class="st3" points="59.3,239.2 65.6,229.2 71.9,239.2 79,229.2 87.4,239.2 95.8,229.2 105.3,239.2 112,229.2 
		117.8,239.2 	"/>
	<circle class="st0" cx="89.3" cy="298.2" r="12"/>
	<path class="st2" d="M122.8,70.2c-2,0-4,0.3-5.9,0.8c-6.5-15-24-22-39.1-15.4c-5.8,2.5-10.6,6.8-13.8,12.2
		c-1.9-0.5-3.8-0.7-5.8-0.7c-13.2-0.2-24,10.3-24.2,23.5c-0.2,12.9,9.9,23.6,22.7,24.2c6.4,9.5,19.4,12.1,28.9,5.7c3-2,5.4-4.8,7-8
		c4.9-0.5,9.5-2.2,13.6-4.9c8.3,9.1,22.3,9.9,31.5,1.6s9.9-22.3,1.6-31.5C135.2,72.9,129.2,70.2,122.8,70.2z M122.8,110.3
		c-5.7,0-11-2.7-14.3-7.3c-0.4-0.5-0.9-0.8-1.5-0.9c-0.6-0.1-1.2,0.1-1.7,0.5c-4.1,3.2-9,5.1-14.2,5.4c-0.9,0-1.6,0.6-2,1.4
		c-3.5,8.3-13,12.3-21.4,8.8c-3.3-1.4-6-3.7-7.8-6.8c-0.4-0.7-1.1-1.1-1.9-1.1c-10.7-0.1-19.2-8.9-19.1-19.6
		c0.1-10.7,8.9-19.2,19.6-19.1c2,0,4,0.4,5.9,1c1.1,0.4,2.2-0.1,2.7-1.1c6.3-12.4,21.4-17.4,33.8-11.2c5.8,2.9,10.3,8.1,12.5,14.2
		c0.4,1.2,1.7,1.8,2.9,1.4c0.1,0,0.1,0,0.2-0.1c9.1-3.6,19.5,1,23,10.1s-1,19.5-10.1,23C127.3,109.9,125.1,110.3,122.8,110.3
		L122.8,110.3z"/>
	<rect x="40.3" y="180.2" class="st4" width="29" height="22.5"/>
	<text transform="matrix(1 0 0 1 40.3465 191.4118)" class="st5 st6 st7">R$</text>
	<polyline class="st8" points="43.1,158.2 53.1,152.2 63.1,158.2 74.4,152.2 87.7,158.2 101.1,152.2 116.1,158.2 126.7,152.2 
		136.1,158.2 	"/>
	<polyline class="st8" points="62.8,188.3 70.7,183 78.6,188.3 87.5,183 98,188.3 108.5,183 120.3,188.3 128.7,183 136.1,188.3 	"/>
</g>
</svg>
