<?xml version="1.0" encoding="utf-8"?>
<!-- Generator: Adobe Illustrator 21.1.0, SVG Export Plug-In . SVG Version: 6.00 Build 0)  -->
<svg version="1.1" id="Camada_1" xmlns="http://www.w3.org/2000/svg" xmlns:xlink="http://www.w3.org/1999/xlink" x="0px" y="0px"
	 viewBox="0 0 179 330" style="enable-background:new 0 0 179 330;" xml:space="preserve">
<style type="text/css">
	.st0{fill:none;stroke:#37474F;stroke-width:4;}
	.st1{fill:#FFAB00;}
	.st2{fill:none;stroke:#102027;stroke-width:2;stroke-miterlimit:10;}
	.st3{fill:none;stroke:#37474F;stroke-width:2.0488;stroke-miterlimit:10;}
</style>
<g>
	<path class="st0" d="M18.2,10.8h142.6c5.2,0,9.4,4.6,9.4,10.3v287.8c0,5.7-4.2,10.3-9.4,10.3H18.2c-5.2,0-9.4-4.6-9.4-10.3V21.1
		C8.8,15.4,13,10.8,18.2,10.8z"/>
	<rect x="22.1" y="34" class="st0" width="134.9" height="244.1"/>
	<g>
		<path class="st1" d="M125.4,248.6H52.9c-4.6,0-8.4-3.8-8.4-8.4v-10.6c0-4.6,3.8-8.4,8.4-8.4h72.5c4.6,0,8.4,3.8,8.4,8.4v10.6
			C133.8,244.9,130,248.6,125.4,248.6z"/>
	</g>
	<polyline class="st2" points="43,143.2 53,137.2 63,143.2 74.3,137.2 87.7,143.2 101,137.2 116,143.2 126.7,137.2 136,143.2 	"/>
	<polyline class="st2" points="43,174.2 53,168.2 63,174.2 74.3,168.2 87.7,174.2 101,168.2 116,174.2 126.7,168.2 136,174.2 	"/>
	<polyline class="st2" points="43,204.2 53,198.2 63,204.2 74.3,198.2 87.7,204.2 101,198.2 116,204.2 126.7,198.2 136,204.2 	"/>
	<polyline class="st3" points="59.2,239.2 65.5,229.2 71.8,239.2 78.9,229.2 87.3,239.2 95.7,229.2 105.2,239.2 111.9,229.2 
		117.8,239.2 	"/>
	<circle class="st0" cx="89.3" cy="298.2" r="12"/>
	<path class="st1" d="M120.8,121.3H57.7V74.1l31.1-17.4l32,17.4V121.3z M59.7,119.3h59.2V75.2l-30-16.3L59.7,75.2V119.3z"/>
	<g>
		<path class="st1" d="M75.9,106.5c0-1.1,0.4-2.3,1-3.7c0.6-1.3,1.4-2.2,2.2-2.7c4,2.1,7.5,3.1,10.3,3.1c1.2,0,2.1-0.2,2.8-0.7
			c0.7-0.4,1.1-1.1,1.1-1.9c0-1.4-0.9-2.4-2.8-3l-5.5-2c-5.1-2-7.7-5.1-7.7-9.2c0-2.5,0.8-4.7,2.5-6.4c1.6-1.8,3.8-2.9,6.5-3.4V72
			c0.7-0.2,1.8-0.2,3.1-0.2c1.3,0,2.4,0.1,3.2,0.2v4.6c2.8,0.3,5.9,1.2,9.1,2.6c0,1.2-0.3,2.5-0.8,3.7c-0.5,1.2-1.3,2.2-2.1,3
			c-3.9-1.5-6.9-2.3-9.1-2.3c-1,0-1.8,0.2-2.4,0.7c-0.6,0.4-0.9,1-0.9,1.8c0,1,1,1.8,2.9,2.4l5.4,2.1c5.3,2,8,5.3,8,9.9
			c0,2.6-0.9,4.7-2.8,6.4c-1.9,1.7-4.3,2.8-7.4,3.2v4.4c-0.6,0.1-1.6,0.2-3.2,0.2c-1.5,0-2.6-0.1-3.1-0.2v-4.5
			C81.9,109.4,78.5,108.3,75.9,106.5z"/>
	</g>
</g>
</svg>
