<?xml version="1.0" encoding="utf-8"?>
<!-- Generator: Adobe Illustrator 21.1.0, SVG Export Plug-In . SVG Version: 6.00 Build 0)  -->
<svg version="1.1" id="Camada_1" xmlns="http://www.w3.org/2000/svg" xmlns:xlink="http://www.w3.org/1999/xlink" x="0px" y="0px"
	 viewBox="0 0 485.7 200.3" style="enable-background:new 0 0 485.7 200.3;" xml:space="preserve">
<style type="text/css">
	.st0{fill:#F8AA17;}
</style>
<g>
	<g>
		<path class="st0" d="M163.4,48c9.7-2,19-2.9,28-2.9c14.7,0,25.7,3.2,33,9.6c7.3,6.4,10.9,16.4,10.9,29.9c0,12.9-3.7,22.7-11,29.3
			c-7.3,6.7-18.2,10-32.5,10c-2.8,0-6.1-0.1-9.9-0.4v34.3h-18.5V48z M211.1,103.1c4.1-3.8,6.1-9.8,6.1-18.1c0-8.6-2-14.9-5.9-18.8
			c-3.9-3.9-10-5.9-18.3-5.9c-3.9,0-7.6,0.3-11.1,0.9v47c2.9,0.4,6.3,0.6,10.2,0.6C200.7,108.8,207,106.9,211.1,103.1z"/>
		<path class="st0" d="M306,157.9l-8.9-32.2h-36.8l-8.8,32.2h-18.2l31.9-111.5h27.2l31.9,111.5H306z M264.6,109.8h28.1L278.6,59
			L264.6,109.8z"/>
		<path class="st0" d="M405.6,103.6V157c-8,1.4-15.5,2-22.6,2c-12.2,0-22.2-1.9-30.2-5.8c-8-3.9-14-10-18.1-18.4
			c-4.1-8.4-6.1-19.2-6.1-32.6c0-19.8,4.5-34.3,13.4-43.5c9-9.2,22.1-13.8,39.4-13.8c7.8,0,15.2,1,22.1,2.9v15.8
			c-7.2-1.9-14-2.9-20.4-2.9c-8.1,0-14.7,1.3-19.8,3.9c-5.1,2.6-8.9,7-11.5,13c-2.6,6.1-3.8,14.3-3.8,24.7c0,10,1.2,18.1,3.7,24
			c2.5,6,6.1,10.3,11,12.9c4.8,2.6,11,3.9,18.5,3.9c2.8,0,5.2-0.1,7.2-0.3v-39.3H405.6z"/>
		<path class="st0" d="M476.8,146.5c-4.2,5.4-10.4,9.1-18.3,11.1v18.3h-17v-16.7c-3.7-0.1-7.5-0.5-11.5-1.2c-4-0.7-7.6-1.6-11-2.8
			v-15.7c8.9,2.7,17.1,4.1,24.6,4.1c13.9,0,20.9-5.2,20.9-15.7c0-2.9-0.5-5.3-1.5-7.3c-1-2-2.7-3.7-5.1-5.3c-2.4-1.5-5.7-3-9.8-4.4
			l-6.7-2.3c-16.4-5.6-24.6-16-24.6-31.2c0-8,2.1-14.7,6.3-20c4.2-5.3,10.3-8.9,18.5-10.9V28.3h17V45c3.5,0.1,6.9,0.4,10.4,0.8
			c3.4,0.5,6.5,1.1,9.2,1.8v15.7c-6.1-1.8-12.6-2.6-19.5-2.6c-8.1,0-14,1.3-17.7,4c-3.6,2.7-5.5,6.5-5.5,11.4c0,2.8,0.5,5.1,1.4,6.9
			c0.9,1.9,2.5,3.5,4.7,5c2.2,1.5,5.2,2.8,9.1,4.1l6.7,2.3c8.5,2.9,15,6.8,19.4,11.9c4.4,5.1,6.6,11.7,6.6,19.9
			C483.1,134.3,481,141.1,476.8,146.5z"/>
	</g>
	<g>
		<path class="st0" d="M36.1,19.9c-4,0-7.2,3.2-7.2,7.2v35.8L43.3,57V27C43.3,23.1,40.1,19.9,36.1,19.9z"/>
		<path class="st0" d="M108.6,157.1H47.8c-24.5,0-44.4-19.9-44.4-44.4c0-38.5,31.4-69.9,69.9-69.9H83c38.5,0,69.9,31.4,69.9,69.9
			C152.9,137.1,133,157.1,108.6,157.1z M73.3,53.3c-32.7,0-59.4,26.6-59.4,59.4c0,18.7,15.2,33.8,33.8,33.8h60.8
			c18.7,0,33.8-15.2,33.8-33.8c0-32.7-26.6-59.4-59.4-59.4H73.3z"/>
		<path class="st0" d="M114.6,120.9c-7.2,0-13.1-5.9-13.1-13.1c0-7.2,5.9-13.1,13.1-13.1c7.2,0,13.1,5.9,13.1,13.1
			C127.7,115,121.9,120.9,114.6,120.9z M114.6,96.6c-6.2,0-11.2,5-11.2,11.2s5,11.2,11.2,11.2s11.2-5,11.2-11.2
			S120.8,96.6,114.6,96.6z"/>
		<path class="st0" d="M41.7,120.9c-7.2,0-13.1-5.9-13.1-13.1c0-7.2,5.9-13.1,13.1-13.1c7.2,0,13.1,5.9,13.1,13.1
			C54.8,115,48.9,120.9,41.7,120.9z M41.7,96.6c-6.2,0-11.2,5-11.2,11.2s5,11.2,11.2,11.2s11.2-5,11.2-11.2S47.8,96.6,41.7,96.6z"/>
		<path class="st0" d="M110.3,79.9H46C30.5,79.9,18,92.4,18,107.8v0c0,15.4,12.5,27.9,27.9,27.9h64.4c15.4,0,27.9-12.5,27.9-27.9v0
			C138.3,92.4,125.8,79.9,110.3,79.9z M41.7,119.9c-6.7,0-12.1-5.4-12.1-12.1c0-6.7,5.4-12.1,12.1-12.1s12.1,5.4,12.1,12.1
			C53.8,114.5,48.4,119.9,41.7,119.9z M114.6,119.9c-6.7,0-12.1-5.4-12.1-12.1c0-6.7,5.4-12.1,12.1-12.1c6.7,0,12.1,5.4,12.1,12.1
			C126.8,114.5,121.3,119.9,114.6,119.9z"/>
	</g>
</g>
</svg>
