<?xml version="1.0" encoding="utf-8"?>
<!-- Generator: Adobe Illustrator 16.0.4, SVG Export Plug-In . SVG Version: 6.00 Build 0)  -->
<!DOCTYPE svg PUBLIC "-//W3C//DTD SVG 1.1//EN" "http://www.w3.org/Graphics/SVG/1.1/DTD/svg11.dtd">
<svg version="1.1" id="Camada_1" xmlns="http://www.w3.org/2000/svg" xmlns:xlink="http://www.w3.org/1999/xlink" x="0px" y="0px"
	 width="841.889px" height="595.281px" viewBox="0 0 841.889 595.281" enable-background="new 0 0 841.889 595.281"
	 xml:space="preserve">
<g>
	<g>
		<path fill="#102027" d="M283.23,207.246c16.813-3.467,32.934-5.026,48.534-5.026c25.48,0,44.547,5.546,57.2,16.64
			s18.894,28.427,18.894,51.827c0,22.36-6.413,39.348-19.066,50.788c-12.653,11.613-31.547,17.333-56.334,17.333
			c-4.854,0-10.573-0.173-17.16-0.693v59.454H283.23V207.246z M365.91,302.754c7.107-6.587,10.574-16.987,10.574-31.374
			c0-14.906-3.467-25.827-10.228-32.587c-6.76-6.76-17.333-10.227-31.72-10.227c-6.76,0-13.174,0.52-19.24,1.56v81.468
			c5.026,0.693,10.92,1.04,17.68,1.04C347.884,312.634,358.804,309.341,365.91,302.754z"/>
		<path fill="#102027" d="M530.406,397.742l-15.427-55.814h-63.787l-15.254,55.814h-31.547l55.294-193.27h47.147l55.294,193.27
			H530.406z M458.645,314.367h48.707l-24.439-88.055L458.645,314.367z"/>
		<path fill="#102027" d="M703.048,303.621v92.561c-13.867,2.427-26.867,3.467-39.174,3.467c-21.147,0-38.48-3.293-52.348-10.054
			c-13.866-6.76-24.267-17.333-31.374-31.894c-7.106-14.56-10.573-33.28-10.573-56.507c0-34.321,7.8-59.454,23.228-75.401
			c15.6-15.947,38.307-23.92,68.294-23.92c13.52,0,26.347,1.733,38.307,5.026v27.387c-12.479-3.293-24.267-5.026-35.36-5.026
			c-14.04,0-25.48,2.253-34.32,6.76s-15.427,12.134-19.934,22.534c-4.507,10.573-6.587,24.786-6.587,42.813
			c0,17.334,2.08,31.374,6.414,41.601c4.333,10.4,10.573,17.854,19.066,22.36c8.32,4.507,19.067,6.76,32.067,6.76
			c4.854,0,9.014-0.173,12.48-0.52v-68.121h29.813V303.621z"/>
		<path fill="#102027" d="M826.462,377.981c-7.279,9.36-18.026,15.773-31.72,19.24v31.721h-29.467v-28.947
			c-6.414-0.173-13.001-0.866-19.934-2.08c-6.934-1.213-13.174-2.773-19.067-4.854v-27.214c15.427,4.681,29.641,7.107,42.641,7.107
			c24.094,0,36.227-9.014,36.227-27.214c0-5.026-0.866-9.187-2.6-12.653s-4.68-6.414-8.84-9.187c-4.16-2.601-9.88-5.2-16.987-7.627
			l-11.613-3.987c-28.427-9.706-42.641-27.733-42.641-54.08c0-13.867,3.641-25.48,10.92-34.668
			c7.28-9.187,17.854-15.427,32.067-18.893v-31.548h29.467v28.947c6.067,0.174,11.96,0.693,18.027,1.387
			c5.894,0.866,11.267,1.906,15.946,3.12v27.214c-10.573-3.12-21.84-4.507-33.8-4.507c-14.04,0-24.268,2.253-30.681,6.934
			c-6.24,4.68-9.533,11.267-9.533,19.76c0,4.854,0.866,8.84,2.427,11.96c1.56,3.294,4.333,6.067,8.146,8.667
			s9.014,4.854,15.773,7.106l11.613,3.987c14.733,5.026,26.001,11.787,33.627,20.627c7.627,8.84,11.44,20.28,11.44,34.494
			C837.383,356.835,833.742,368.621,826.462,377.981z"/>
	</g>
	<g>
		<path fill="#102027" d="M62.574,158.539c-6.934,0-12.48,5.547-12.48,12.479v62.055l24.96-10.227v-52.001
			C75.054,164.086,69.507,158.539,62.574,158.539z"/>
		<path fill="#102027" d="M188.242,396.355H82.855c-42.468,0-76.961-34.494-76.961-76.961c0-66.734,54.427-121.162,121.161-121.162
			h16.813c66.734,0,121.161,54.428,121.161,121.162C265.03,361.688,230.536,396.355,188.242,396.355z M127.055,216.432
			c-56.681,0-102.961,46.107-102.961,102.962c0,32.413,26.347,58.587,58.587,58.587h105.388c32.414,0,58.588-26.347,58.588-58.587
			c0-56.682-46.107-102.962-102.962-102.962H127.055L127.055,216.432z"/>
		<path fill="#102027" d="M198.642,333.607c-12.479,0-22.706-10.227-22.706-22.707c0-12.479,10.227-22.707,22.706-22.707
			c12.48,0,22.707,10.228,22.707,22.707C221.349,323.381,211.296,333.607,198.642,333.607z M198.642,291.487
			c-10.746,0-19.413,8.667-19.413,19.413c0,10.747,8.667,19.414,19.413,19.414c10.747,0,19.414-8.667,19.414-19.414
			C218.056,300.154,209.389,291.487,198.642,291.487z"/>
		<path fill="#102027" d="M72.281,333.607c-12.479,0-22.707-10.227-22.707-22.707c0-12.479,10.228-22.707,22.707-22.707
			c12.48,0,22.707,10.228,22.707,22.707C94.988,323.381,84.761,333.607,72.281,333.607z M72.281,291.487
			c-10.746,0-19.413,8.667-19.413,19.413c0,10.747,8.667,19.414,19.413,19.414c10.747,0,19.414-8.667,19.414-19.414
			C91.695,300.154,82.855,291.487,72.281,291.487z"/>
		<path fill="#102027" d="M191.189,262.54H79.735c-26.867,0-48.534,21.667-48.534,48.36l0,0c0,26.694,21.667,48.361,48.36,48.361
			h111.628c26.693,0,48.36-21.667,48.36-48.361l0,0C239.723,284.207,218.056,262.54,191.189,262.54z M72.281,331.874
			c-11.613,0-20.974-9.359-20.974-20.974c0-11.613,9.36-20.974,20.974-20.974c11.614,0,20.974,9.36,20.974,20.974
			C93.254,322.514,83.895,331.874,72.281,331.874z M198.642,331.874c-11.613,0-20.974-9.359-20.974-20.974
			c0-11.613,9.36-20.974,20.974-20.974c11.614,0,20.974,9.36,20.974,20.974C219.789,322.514,210.256,331.874,198.642,331.874z"/>
	</g>
</g>
</svg>
