<?xml version="1.0" encoding="utf-8"?>
<!-- Generator: Adobe Illustrator 21.1.0, SVG Export Plug-In . SVG Version: 6.00 Build 0)  -->
<svg version="1.1" id="Camada_1" xmlns="http://www.w3.org/2000/svg" xmlns:xlink="http://www.w3.org/1999/xlink" x="0px" y="0px"
	 viewBox="0 0 841.9 276.7" style="enable-background:new 0 0 841.9 276.7;" xml:space="preserve">
<style type="text/css">
	.st0{fill:#102027;}
</style>
<g>
	<g>
		<path class="st0" d="M283.2,51.9c16.8-3.5,32.9-5,48.5-5c25.5,0,44.5,5.5,57.2,16.6s18.9,28.4,18.9,51.8
			c0,22.4-6.4,39.3-19.1,50.8c-12.7,11.6-31.5,17.3-56.3,17.3c-4.9,0-10.6-0.2-17.2-0.7v59.5h-32.1V51.9z M365.9,147.4
			c7.1-6.6,10.6-17,10.6-31.4c0-14.9-3.5-25.8-10.2-32.6c-6.8-6.8-17.3-10.2-31.7-10.2c-6.8,0-13.2,0.5-19.2,1.6v81.5
			c5,0.7,10.9,1,17.7,1C347.9,157.3,358.8,154,365.9,147.4z"/>
		<path class="st0" d="M530.4,242.4L515,186.5h-63.8l-15.3,55.8h-31.5l55.3-193.3h47.1l55.3,193.3H530.4z M458.6,159h48.7
			l-24.4-88.1L458.6,159z"/>
		<path class="st0" d="M703,148.2v92.6c-13.9,2.4-26.9,3.5-39.2,3.5c-21.1,0-38.5-3.3-52.3-10.1c-13.9-6.8-24.3-17.3-31.4-31.9
			c-7.1-14.6-10.6-33.3-10.6-56.5c0-34.3,7.8-59.5,23.2-75.4c15.6-15.9,38.3-23.9,68.3-23.9c13.5,0,26.3,1.7,38.3,5v27.4
			c-12.5-3.3-24.3-5-35.4-5c-14,0-25.5,2.3-34.3,6.8s-15.4,12.1-19.9,22.5c-4.5,10.6-6.6,24.8-6.6,42.8c0,17.3,2.1,31.4,6.4,41.6
			c4.3,10.4,10.6,17.9,19.1,22.4c8.3,4.5,19.1,6.8,32.1,6.8c4.9,0,9-0.2,12.5-0.5v-68.1H703L703,148.2L703,148.2z"/>
		<path class="st0" d="M826.5,222.6c-7.3,9.4-18,15.8-31.7,19.2v31.7h-29.5v-28.9c-6.4-0.2-13-0.9-19.9-2.1
			c-6.9-1.2-13.2-2.8-19.1-4.9v-27.2c15.4,4.7,29.6,7.1,42.6,7.1c24.1,0,36.2-9,36.2-27.2c0-5-0.9-9.2-2.6-12.7s-4.7-6.4-8.8-9.2
			c-4.2-2.6-9.9-5.2-17-7.6l-11.6-4c-28.4-9.7-42.6-27.7-42.6-54.1c0-13.9,3.6-25.5,10.9-34.7c7.3-9.2,17.9-15.4,32.1-18.9V17.7
			h29.5v28.9c6.1,0.2,12,0.7,18,1.4c5.9,0.9,11.3,1.9,15.9,3.1v27.2c-10.6-3.1-21.8-4.5-33.8-4.5c-14,0-24.3,2.3-30.7,6.9
			c-6.2,4.7-9.5,11.3-9.5,19.8c0,4.9,0.9,8.8,2.4,12c1.6,3.3,4.3,6.1,8.1,8.7s9,4.9,15.8,7.1l11.6,4c14.7,5,26,11.8,33.6,20.6
			c7.6,8.8,11.4,20.3,11.4,34.5C837.4,201.5,833.7,213.2,826.5,222.6z"/>
	</g>
	<g>
		<path class="st0" d="M62.6,3.2c-6.9,0-12.5,5.5-12.5,12.5v62.1l25-10.2v-52C75.1,8.7,69.5,3.2,62.6,3.2z"/>
		<path class="st0" d="M188.2,241H82.9c-42.5,0-77-34.5-77-77c0-66.7,54.4-121.2,121.2-121.2h16.8C210.6,42.9,265,97.3,265,164
			C265,206.3,230.5,241,188.2,241z M127.1,61.1c-56.7,0-103,46.1-103,103c0,32.4,26.3,58.6,58.6,58.6h105.4
			c32.4,0,58.6-26.3,58.6-58.6c0-56.7-46.1-103-103-103H127.1L127.1,61.1z"/>
		<path class="st0" d="M198.6,178.2c-12.5,0-22.7-10.2-22.7-22.7c0-12.5,10.2-22.7,22.7-22.7c12.5,0,22.7,10.2,22.7,22.7
			C221.3,168,211.3,178.2,198.6,178.2z M198.6,136.1c-10.7,0-19.4,8.7-19.4,19.4c0,10.7,8.7,19.4,19.4,19.4
			c10.7,0,19.4-8.7,19.4-19.4C218.1,144.8,209.4,136.1,198.6,136.1z"/>
		<path class="st0" d="M72.3,178.2c-12.5,0-22.7-10.2-22.7-22.7c0-12.5,10.2-22.7,22.7-22.7c12.5,0,22.7,10.2,22.7,22.7
			C95,168,84.8,178.2,72.3,178.2z M72.3,136.1c-10.7,0-19.4,8.7-19.4,19.4c0,10.7,8.7,19.4,19.4,19.4c10.7,0,19.4-8.7,19.4-19.4
			C91.7,144.8,82.9,136.1,72.3,136.1z"/>
		<path class="st0" d="M191.2,107.2H79.7c-26.9,0-48.5,21.7-48.5,48.4l0,0c0,26.7,21.7,48.4,48.4,48.4h111.6
			c26.7,0,48.4-21.7,48.4-48.4l0,0C239.7,128.8,218.1,107.2,191.2,107.2z M72.3,176.5c-11.6,0-21-9.4-21-21c0-11.6,9.4-21,21-21
			s21,9.4,21,21C93.3,167.1,83.9,176.5,72.3,176.5z M198.6,176.5c-11.6,0-21-9.4-21-21c0-11.6,9.4-21,21-21s21,9.4,21,21
			C219.8,167.1,210.3,176.5,198.6,176.5z"/>
	</g>
</g>
</svg>
