<?xml version="1.0" encoding="utf-8"?>
<!-- Generator: Adobe Illustrator 21.1.0, SVG Export Plug-In . SVG Version: 6.00 Build 0)  -->
<svg version="1.1" id="Camada_1" xmlns="http://www.w3.org/2000/svg" xmlns:xlink="http://www.w3.org/1999/xlink" x="0px" y="0px"
	 viewBox="0 0 487 380" style="enable-background:new 0 0 487 380;" xml:space="preserve">
<style type="text/css">
	.st0{fill:#102027;}
	.st1{fill:#FFFFFF;stroke:#1D1D1B;stroke-width:4.7997;stroke-linejoin:round;stroke-miterlimit:10;}
	.st2{fill:#FFFFFF;stroke:#1D1D1B;stroke-width:4.4604;stroke-miterlimit:10;}
	.st3{fill:#1D1D1B;}
	.st4{fill:#FDFDFC;stroke:#1D1D1B;stroke-width:4.7997;stroke-miterlimit:10;}
	.st5{fill:#FFFFFF;stroke:#1D1D1B;stroke-width:2.6527;stroke-miterlimit:10;}
	.st6{fill:none;stroke:#1D1D1B;stroke-width:1.9199;stroke-miterlimit:10;}
	.st7{fill:none;}
	.st8{enable-background:new    ;}
	.st9{fill:#FFFFFF;}
</style>
<path class="st0" d="M272.1,379.8H435c28.7,0,52.1-23.3,52.1-52.1V51.9c0-28.7-23.3-52.1-52.1-52.1H272.1
	c-28.7,0-52.1,23.3-52.1,52.1v275.9C220,356.5,243.3,379.8,272.1,379.8z"/>
<polygon class="st0" points="228.4,91.6 198.6,106.5 240.4,51.1 "/>
<g>
	<g>
		<path class="st1" d="M126.5,299.1c-8.6-5.5-11-17-5.5-25.6s17-11,25.6-5.5c0.2,0.1,0.4,0.3,0.6,0.4c37.7,8.9,61.9-16.8,57.3,0.3
			C195.9,299.9,131.2,302.1,126.5,299.1z"/>
	</g>
	<g>
		<path class="st1" d="M82.9,299.1c8.6-5.5,11-17,5.5-25.6s-17-11-25.6-5.5c-0.2,0.1-0.4,0.3-0.6,0.4c-37.7,8.9-61.9-16.8-57.3,0.3
			C13.5,299.9,78.2,302.1,82.9,299.1z"/>
	</g>
	<path class="st2" d="M86.2,262.2c-15.4,0-33.5,28-36.8,58.9s16,54.6,16,54.6H75c0,0,3.4-7.2,11.4-12.2c8.1-5,27.6-5,35.6,0
		c8.1,5,11.4,12.2,11.4,12.2h9.5c0,0,19.3-23.7,16-54.6s-21.4-58.9-36.8-58.9H86.2z"/>
	<g>
		<path class="st3" d="M75.1,56.5c-5.4-0.8-10.5,2.9-11.3,8.3l-8.2,52.7l20.2-0.7l7.6-49C84.2,62.4,80.5,57.4,75.1,56.5z"/>
		<path class="st4" d="M145.9,253l-83.2-13c-29.5-4.6-49.7-32.3-45.1-61.8l0,0C25.2,129.4,71,96,119.8,103.6l13.4,2.1
			c48.8,7.6,82.2,53.4,74.6,102.2l0,0C203.1,237.4,175.4,257.6,145.9,253z"/>
		<path class="st3" d="M151.8,231.4l-88-13.7c-21.1-3.3-35.5-23.1-32.2-44.2l0,0c3.3-21.1,23.1-35.5,44.2-32.2l88,13.7
			c21.1,3.3,35.5,23.1,32.2,44.2l0,0C192.6,220.3,172.8,234.7,151.8,231.4z"/>
		<g>
			<g>
				<g>
					<g>
						
							<ellipse transform="matrix(0.1543 -0.988 0.988 0.1543 -53.4351 325.7365)" class="st5" cx="163.6" cy="194.1" rx="16.8" ry="16.8"/>
					</g>
				</g>
			</g>
			<g>
				<g>
					<g>
						
							<ellipse transform="matrix(0.1543 -0.988 0.988 0.1543 -122.4533 213.9084)" class="st5" cx="63.7" cy="178.5" rx="16.8" ry="16.8"/>
					</g>
				</g>
			</g>
		</g>
	</g>
	<path class="st6" d="M115,360.9c0,0,17.6-43.5,44-24.7"/>
	<path class="st6" d="M93.1,360.9c0,0-17.6-43.5-44-24.7"/>
</g>
<rect x="263" y="87.8" class="st7" width="181" height="204.1"/>
<g class="st8">
	<path class="st9" d="M270.1,107.1V88.8c1.5-0.3,3-0.4,4.3-0.4c2.8,0,4.9,0.8,6.3,2.3c1.4,1.5,2.1,3.9,2.1,7.1c0,2.2-0.3,4-1,5.4
		c-0.7,1.4-1.6,2.4-2.9,3.1c-1.3,0.7-2.9,1-4.9,1C272.8,107.3,271.5,107.2,270.1,107.1z M277.7,104.4c0.8-0.5,1.5-1.3,1.9-2.3
		c0.4-1.1,0.6-2.5,0.6-4.3c0-1.8-0.2-3.2-0.6-4.3c-0.4-1.1-1-1.9-1.9-2.4c-0.8-0.5-1.9-0.7-3.1-0.7c-0.7,0-1.3,0.1-2,0.2v14.4
		c0.6,0.1,1.2,0.1,1.9,0.1C275.8,105.2,276.8,104.9,277.7,104.4z"/>
	<path class="st9" d="M294.4,101.1h-7.3c0,1.1,0.2,1.9,0.4,2.5s0.7,1,1.2,1.3s1.2,0.4,2.1,0.4c0.8,0,1.8-0.2,2.9-0.5v2
		c-1.1,0.3-2.2,0.5-3.2,0.5c-1.4,0-2.5-0.2-3.3-0.7s-1.5-1.2-1.9-2.3c-0.4-1-0.6-2.4-0.6-4.1c0-2.4,0.4-4.1,1.3-5.3
		c0.9-1.1,2.1-1.7,3.7-1.7c1.5,0,2.7,0.6,3.5,1.7c0.8,1.1,1.2,2.9,1.2,5.3V101.1z M287.8,96c-0.4,0.7-0.7,1.8-0.7,3.5h5
		c0-1.1-0.1-2-0.3-2.7s-0.5-1.1-0.8-1.4c-0.3-0.3-0.8-0.4-1.3-0.4C288.9,95,288.2,95.3,287.8,96z"/>
	<path class="st9" d="M296.6,90.4c-0.3-0.3-0.4-0.6-0.4-1.1c0-0.5,0.1-0.8,0.4-1.1c0.3-0.3,0.7-0.4,1.2-0.4s0.9,0.1,1.2,0.4
		c0.3,0.3,0.4,0.6,0.4,1.1c0,0.5-0.1,0.8-0.4,1.1c-0.3,0.3-0.7,0.4-1.2,0.4S296.9,90.7,296.6,90.4z M296.6,107.1V93.5h2.4v13.6
		H296.6z"/>
	<path class="st9" d="M307.5,100.2l4.2,6.9h-2.7l-3-5l-3,5h-2.6l4.2-6.8l-4.1-6.8h2.7l2.9,4.8l2.9-4.8h2.6L307.5,100.2z"/>
	<path class="st9" d="M319.5,93.8c0.7,0.3,1.2,0.8,1.6,1.5s0.5,1.7,0.5,2.9v8.9h-2l-0.2-1.5h-0.1c-0.3,0.6-0.8,1-1.4,1.3
		c-0.6,0.3-1.2,0.4-1.9,0.4c-0.7,0-1.4-0.1-1.9-0.4c-0.6-0.3-1-0.7-1.3-1.3c-0.3-0.6-0.5-1.2-0.5-2c0-1.3,0.4-2.2,1.1-2.9
		s1.9-1.1,3.5-1.2l2.3-0.2v-1.1c0-0.7-0.1-1.3-0.3-1.7c-0.2-0.4-0.5-0.7-0.9-0.9c-0.4-0.2-1-0.3-1.7-0.3c-0.5,0-1,0-1.5,0.1
		s-1.1,0.2-1.6,0.4v-2c0.5-0.2,1.1-0.3,1.7-0.4s1.3-0.1,1.9-0.1C317.9,93.3,318.8,93.4,319.5,93.8z M318.1,105.1
		c0.4-0.2,0.8-0.6,1.1-1.1v-3.2l-2,0.2c-0.8,0.1-1.5,0.3-1.9,0.7c-0.4,0.4-0.6,0.9-0.6,1.6c0,0.7,0.2,1.3,0.5,1.6
		c0.4,0.4,0.9,0.5,1.5,0.5C317.2,105.4,317.7,105.3,318.1,105.1z"/>
	<path class="st9" d="M324.5,93.5h2l0.2,1.9h0.1c0.4-0.7,0.8-1.2,1.4-1.5s1.2-0.5,1.9-0.5c0.3,0,0.5,0,0.8,0.1v2.3
		c-0.3,0-0.6-0.1-1-0.1c-0.6,0-1.2,0.2-1.8,0.5c-0.6,0.3-1,0.8-1.3,1.3v9.7h-2.4V93.5z"/>
	<path class="st9" d="M338.6,105.7c-0.9-1.1-1.4-2.9-1.4-5.3c0-2.4,0.4-4.2,1.3-5.3c0.9-1.1,2.2-1.7,3.9-1.7c1.7,0,3,0.6,3.9,1.7
		s1.4,2.9,1.4,5.3c0,4.7-1.7,7-5.2,7C340.8,107.4,339.5,106.8,338.6,105.7z M344,105c0.4-0.3,0.7-0.8,0.9-1.6
		c0.2-0.7,0.3-1.8,0.3-3.1c0-1.3-0.1-2.4-0.3-3.1c-0.2-0.8-0.5-1.3-0.9-1.6s-0.9-0.5-1.5-0.5c-0.6,0-1.1,0.2-1.5,0.5
		s-0.7,0.8-0.9,1.6c-0.2,0.7-0.3,1.8-0.3,3.1c0,1.3,0.1,2.4,0.3,3.1c0.2,0.8,0.5,1.3,0.9,1.6s0.9,0.5,1.5,0.5
		C343.1,105.4,343.6,105.3,344,105z"/>
	<path class="st9" d="M357,106.7c-0.7-0.5-1.2-1.2-1.7-2.2c-0.4-1-0.6-2.3-0.6-3.9c0-2.4,0.5-4.3,1.6-5.5s2.7-1.8,4.8-1.8
		c0.4,0,0.8,0,1.2,0.1v-6.5h2.4v20.2h-2.1l-0.2-1.4h-0.1c-0.3,0.5-0.7,0.9-1.2,1.2c-0.5,0.3-1.1,0.5-1.8,0.5
		C358.5,107.4,357.7,107.1,357,106.7z M361.4,104.9c0.4-0.2,0.7-0.5,1-1v-8.6c-0.2,0-0.4-0.1-0.7-0.1s-0.5,0-0.7,0
		c-0.8,0-1.5,0.2-2,0.5c-0.5,0.3-0.9,0.9-1.2,1.6s-0.4,1.7-0.4,3c0,1.3,0.1,2.3,0.4,3s0.6,1.2,1,1.5c0.4,0.3,0.9,0.4,1.5,0.4
		C360.5,105.3,361,105.1,361.4,104.9z"/>
	<path class="st9" d="M367.7,90.4c-0.3-0.3-0.4-0.6-0.4-1.1c0-0.5,0.1-0.8,0.4-1.1c0.3-0.3,0.7-0.4,1.2-0.4s0.9,0.1,1.2,0.4
		c0.3,0.3,0.4,0.6,0.4,1.1c0,0.5-0.1,0.8-0.4,1.1c-0.3,0.3-0.7,0.4-1.2,0.4S368,90.7,367.7,90.4z M367.7,107.1V93.5h2.4v13.6H367.7z
		"/>
	<path class="st9" d="M373.1,93.5h2l0.2,1.5h0.1c0.4-0.5,1-1,1.6-1.3c0.6-0.3,1.3-0.4,2-0.4c1.1,0,2,0.3,2.7,1c0.7,0.7,1,1.8,1,3.4
		v9.4h-2.4v-9.2c0-0.9-0.2-1.5-0.5-1.9c-0.3-0.4-0.8-0.5-1.5-0.5c-0.5,0-1,0.1-1.5,0.4c-0.5,0.3-0.9,0.6-1.2,1.2v10.1h-2.4V93.5z"/>
	<path class="st9" d="M385.6,86.9h2.4V95h0.1c0.9-1.1,2-1.7,3.5-1.7c1.1,0,2,0.4,2.6,1.1c0.7,0.7,1,1.9,1,3.4v9.3h-2.4v-9.2
		c0-0.9-0.2-1.5-0.5-1.9c-0.4-0.4-0.9-0.6-1.5-0.6c-0.5,0-1,0.1-1.5,0.4c-0.5,0.3-0.9,0.6-1.2,1.2v10.1h-2.4V86.9z"/>
	<path class="st9" d="M407.2,101.1h-7.3c0,1.1,0.2,1.9,0.4,2.5s0.7,1,1.2,1.3c0.5,0.3,1.2,0.4,2.1,0.4c0.8,0,1.8-0.2,2.9-0.5v2
		c-1.1,0.3-2.2,0.5-3.2,0.5c-1.4,0-2.5-0.2-3.3-0.7c-0.9-0.5-1.5-1.2-1.9-2.3c-0.4-1-0.6-2.4-0.6-4.1c0-2.4,0.4-4.1,1.3-5.3
		c0.9-1.1,2.1-1.7,3.7-1.7c1.5,0,2.7,0.6,3.5,1.7c0.8,1.1,1.2,2.9,1.2,5.3V101.1z M400.6,96c-0.4,0.7-0.7,1.8-0.7,3.5h5
		c0-1.1-0.1-2-0.3-2.7s-0.5-1.1-0.8-1.4c-0.3-0.3-0.8-0.4-1.3-0.4C401.6,95,401,95.3,400.6,96z"/>
	<path class="st9" d="M409.4,90.4c-0.3-0.3-0.4-0.6-0.4-1.1c0-0.5,0.1-0.8,0.4-1.1c0.3-0.3,0.7-0.4,1.2-0.4s0.9,0.1,1.2,0.4
		c0.3,0.3,0.4,0.6,0.4,1.1c0,0.5-0.1,0.8-0.4,1.1c-0.3,0.3-0.7,0.4-1.2,0.4S409.6,90.7,409.4,90.4z M409.4,107.1V93.5h2.4v13.6
		H409.4z"/>
	<path class="st9" d="M414.7,93.5h2l0.2,1.9h0.1c0.4-0.7,0.8-1.2,1.4-1.5c0.6-0.3,1.2-0.5,1.9-0.5c0.3,0,0.5,0,0.8,0.1v2.3
		c-0.3,0-0.6-0.1-1-0.1c-0.6,0-1.2,0.2-1.8,0.5c-0.6,0.3-1,0.8-1.3,1.3v9.7h-2.4V93.5z"/>
	<path class="st9" d="M423.4,105.7c-0.9-1.1-1.4-2.9-1.4-5.3c0-2.4,0.4-4.2,1.3-5.3c0.9-1.1,2.2-1.7,3.9-1.7c1.7,0,3,0.6,3.9,1.7
		s1.4,2.9,1.4,5.3c0,4.7-1.7,7-5.2,7C425.6,107.4,424.3,106.8,423.4,105.7z M428.8,105c0.4-0.3,0.7-0.8,0.9-1.6
		c0.2-0.7,0.3-1.8,0.3-3.1c0-1.3-0.1-2.4-0.3-3.1c-0.2-0.8-0.5-1.3-0.9-1.6s-0.9-0.5-1.5-0.5c-0.6,0-1.1,0.2-1.5,0.5
		c-0.4,0.3-0.7,0.8-0.9,1.6c-0.2,0.7-0.3,1.8-0.3,3.1c0,1.3,0.1,2.4,0.3,3.1c0.2,0.8,0.5,1.3,0.9,1.6c0.4,0.3,0.9,0.5,1.5,0.5
		C427.9,105.4,428.4,105.3,428.8,105z"/>
</g>
<g class="st8">
	<path class="st9" d="M265.1,142.7c-0.6-0.1-1.2-0.2-1.7-0.4v-2c1.1,0.4,2.2,0.5,3.2,0.5c0.8,0,1.5-0.1,2-0.4
		c0.5-0.2,0.9-0.6,1.2-1.2c0.3-0.5,0.4-1.3,0.4-2.2v-1.4H270c-0.3,0.5-0.7,0.8-1.2,1.1s-1.1,0.4-1.8,0.4c-0.8,0-1.6-0.2-2.2-0.7
		c-0.7-0.4-1.2-1.2-1.6-2.2s-0.6-2.3-0.6-3.9c0-2.4,0.5-4.3,1.6-5.5c1.1-1.2,2.6-1.8,4.7-1.8c0.6,0,1.3,0.1,1.9,0.2
		c0.7,0.1,1.3,0.3,1.8,0.4v12.9c0,2.1-0.5,3.7-1.4,4.7c-0.9,1-2.4,1.4-4.3,1.4C266.3,142.9,265.7,142.8,265.1,142.7z M269.2,134.9
		c0.4-0.2,0.7-0.5,1-0.9v-8.6c-0.5-0.1-1-0.2-1.4-0.2c-1.2,0-2.1,0.4-2.7,1.2c-0.6,0.8-0.9,2.1-0.9,3.9c0,1.3,0.1,2.3,0.3,3
		s0.6,1.2,1,1.5c0.4,0.3,0.9,0.4,1.5,0.4C268.4,135.2,268.8,135.1,269.2,134.9z"/>
	<path class="st9" d="M276.4,136.3c-0.7-0.7-1-1.8-1-3.4v-9.4h2.4v9.2c0,0.9,0.2,1.5,0.5,1.9c0.3,0.4,0.8,0.6,1.5,0.6
		c0.5,0,1-0.1,1.5-0.4s0.9-0.6,1.2-1.2v-10.1h2.4v13.6h-2l-0.2-1.5h-0.1c-0.5,0.6-1,1-1.6,1.3s-1.2,0.4-1.9,0.4
		C278,137.3,277.1,137,276.4,136.3z"/>
	<path class="st9" d="M294.3,123.8c0.7,0.3,1.2,0.8,1.6,1.5c0.4,0.7,0.5,1.7,0.5,2.9v8.9h-2l-0.2-1.5h-0.1c-0.4,0.6-0.8,1-1.4,1.3
		c-0.6,0.3-1.2,0.4-1.9,0.4c-0.7,0-1.4-0.1-1.9-0.4c-0.6-0.3-1-0.7-1.3-1.3c-0.3-0.6-0.5-1.2-0.5-2c0-1.3,0.4-2.2,1.1-2.9
		s1.9-1.1,3.5-1.2l2.3-0.2v-1.1c0-0.7-0.1-1.3-0.3-1.7c-0.2-0.4-0.5-0.7-0.9-0.9s-1-0.3-1.7-0.3c-0.5,0-1,0-1.5,0.1
		c-0.6,0.1-1.1,0.2-1.6,0.4v-2c0.5-0.2,1.1-0.3,1.7-0.4c0.6-0.1,1.3-0.1,1.9-0.1C292.7,123.3,293.6,123.4,294.3,123.8z M292.9,135.1
		c0.4-0.2,0.8-0.6,1.1-1.1v-3.2l-2,0.2c-0.8,0.1-1.5,0.3-1.8,0.7c-0.4,0.4-0.6,0.9-0.6,1.6c0,0.7,0.2,1.3,0.5,1.6
		c0.4,0.4,0.9,0.5,1.5,0.5C292.1,135.4,292.5,135.3,292.9,135.1z"/>
	<path class="st9" d="M299.3,123.5h2l0.2,1.9h0.1c0.4-0.7,0.8-1.2,1.4-1.5s1.2-0.5,1.9-0.5c0.3,0,0.5,0,0.8,0.1v2.3
		c-0.3,0-0.6-0.1-1-0.1c-0.6,0-1.2,0.2-1.8,0.5c-0.6,0.3-1,0.8-1.3,1.3v9.7h-2.4V123.5z"/>
	<path class="st9" d="M308.9,136.7c-0.7-0.5-1.2-1.2-1.7-2.2c-0.4-1-0.6-2.3-0.6-3.9c0-2.4,0.5-4.3,1.6-5.5c1.1-1.2,2.6-1.8,4.8-1.8
		c0.4,0,0.8,0,1.2,0.1v-6.5h2.4v20.2h-2.1l-0.2-1.4h-0.1c-0.3,0.5-0.7,0.9-1.2,1.2s-1.1,0.5-1.8,0.5
		C310.3,137.4,309.6,137.1,308.9,136.7z M313.2,134.9c0.4-0.2,0.7-0.5,1-1v-8.6c-0.2,0-0.4-0.1-0.7-0.1c-0.3,0-0.5,0-0.7,0
		c-0.8,0-1.5,0.2-2,0.5c-0.5,0.3-0.9,0.9-1.2,1.6s-0.4,1.7-0.4,3c0,1.3,0.1,2.3,0.4,3s0.6,1.2,1,1.5c0.4,0.3,0.9,0.4,1.5,0.4
		C312.3,135.3,312.8,135.1,313.2,134.9z"/>
	<path class="st9" d="M326,123.8c0.7,0.3,1.2,0.8,1.6,1.5s0.5,1.7,0.5,2.9v8.9h-2l-0.2-1.5h-0.1c-0.3,0.6-0.8,1-1.4,1.3
		c-0.6,0.3-1.2,0.4-1.9,0.4c-0.7,0-1.4-0.1-1.9-0.4c-0.6-0.3-1-0.7-1.3-1.3c-0.3-0.6-0.5-1.2-0.5-2c0-1.3,0.4-2.2,1.1-2.9
		s1.9-1.1,3.5-1.2l2.3-0.2v-1.1c0-0.7-0.1-1.3-0.3-1.7c-0.2-0.4-0.5-0.7-0.9-0.9c-0.4-0.2-1-0.3-1.7-0.3c-0.5,0-1,0-1.5,0.1
		s-1.1,0.2-1.6,0.4v-2c0.5-0.2,1.1-0.3,1.7-0.4s1.3-0.1,1.9-0.1C324.4,123.3,325.3,123.4,326,123.8z M324.6,135.1
		c0.4-0.2,0.8-0.6,1.1-1.1v-3.2l-2,0.2c-0.8,0.1-1.5,0.3-1.9,0.7c-0.4,0.4-0.6,0.9-0.6,1.6c0,0.7,0.2,1.3,0.5,1.6
		c0.4,0.4,0.9,0.5,1.5,0.5C323.8,135.4,324.2,135.3,324.6,135.1z"/>
	<path class="st9" d="M332.7,136.7c-0.7-0.5-1.2-1.2-1.7-2.2c-0.4-1-0.6-2.3-0.6-3.9c0-2.4,0.5-4.3,1.6-5.5c1.1-1.2,2.6-1.8,4.8-1.8
		c0.4,0,0.8,0,1.2,0.1v-6.5h2.4v20.2h-2.1l-0.2-1.4H338c-0.3,0.5-0.7,0.9-1.2,1.2s-1.1,0.5-1.8,0.5
		C334.1,137.4,333.3,137.1,332.7,136.7z M337,134.9c0.4-0.2,0.7-0.5,1-1v-8.6c-0.2,0-0.4-0.1-0.7-0.1c-0.3,0-0.5,0-0.7,0
		c-0.8,0-1.5,0.2-2,0.5c-0.5,0.3-0.9,0.9-1.2,1.6s-0.4,1.7-0.4,3c0,1.3,0.1,2.3,0.4,3s0.6,1.2,1,1.5c0.4,0.3,0.9,0.4,1.5,0.4
		C336.1,135.3,336.6,135.1,337,134.9z"/>
	<path class="st9" d="M344.1,135.7c-0.9-1.1-1.4-2.9-1.4-5.3c0-2.4,0.4-4.2,1.3-5.3c0.9-1.1,2.2-1.7,3.9-1.7c1.7,0,3,0.6,3.9,1.7
		s1.4,2.9,1.4,5.3c0,4.7-1.7,7-5.2,7C346.3,137.4,345,136.8,344.1,135.7z M349.5,135c0.4-0.3,0.7-0.8,0.9-1.6
		c0.2-0.7,0.3-1.8,0.3-3.1c0-1.3-0.1-2.4-0.3-3.1c-0.2-0.8-0.5-1.3-0.9-1.6c-0.4-0.3-0.9-0.5-1.5-0.5c-0.6,0-1.1,0.2-1.5,0.5
		c-0.4,0.3-0.7,0.8-0.9,1.6c-0.2,0.7-0.3,1.8-0.3,3.1c0,1.3,0.1,2.4,0.3,3.1c0.2,0.8,0.5,1.3,0.9,1.6s0.9,0.5,1.5,0.5
		C348.6,135.4,349.1,135.3,349.5,135z"/>
	<path class="st9" d="M360.8,123.5h2l0.2,1.5h0.1c0.4-0.5,1-1,1.6-1.3c0.6-0.3,1.3-0.4,2-0.4c1.1,0,2,0.3,2.7,1s1,1.8,1,3.4v9.4H368
		v-9.2c0-0.9-0.2-1.5-0.5-1.9c-0.4-0.4-0.9-0.5-1.5-0.5c-0.5,0-1,0.1-1.5,0.4c-0.5,0.3-0.9,0.6-1.2,1.2v10.1h-2.4V123.5z"/>
	<path class="st9" d="M379.7,123.8c0.7,0.3,1.2,0.8,1.6,1.5c0.4,0.7,0.5,1.7,0.5,2.9v8.9h-2l-0.2-1.5h-0.1c-0.4,0.6-0.8,1-1.4,1.3
		c-0.6,0.3-1.2,0.4-1.9,0.4c-0.7,0-1.4-0.1-1.9-0.4c-0.6-0.3-1-0.7-1.3-1.3c-0.3-0.6-0.5-1.2-0.5-2c0-1.3,0.4-2.2,1.1-2.9
		s1.9-1.1,3.5-1.2l2.3-0.2v-1.1c0-0.7-0.1-1.3-0.3-1.7c-0.2-0.4-0.5-0.7-0.9-0.9s-1-0.3-1.7-0.3c-0.5,0-1,0-1.5,0.1
		c-0.6,0.1-1.1,0.2-1.6,0.4v-2c0.5-0.2,1.1-0.3,1.7-0.4c0.6-0.1,1.3-0.1,1.9-0.1C378.1,123.3,379,123.4,379.7,123.8z M378.3,120.4
		c-0.3-0.1-0.6-0.2-1-0.4c-0.3-0.2-0.6-0.3-0.8-0.4s-0.5-0.1-0.7-0.1c-0.4,0-0.7,0.1-1,0.2c-0.3,0.2-0.6,0.4-0.9,0.8v-1.7
		c0.5-0.6,1.2-0.9,2-0.9c0.3,0,0.6,0,0.9,0.1c0.3,0.1,0.6,0.2,1,0.4c0.3,0.2,0.6,0.3,0.8,0.4s0.4,0.1,0.7,0.1c0.4,0,0.7-0.1,1-0.2
		c0.3-0.2,0.6-0.4,0.9-0.8v1.7c-0.5,0.6-1.1,0.9-2,0.9C378.8,120.5,378.5,120.5,378.3,120.4z M378.3,135.1c0.4-0.2,0.8-0.6,1.1-1.1
		v-3.2l-2,0.2c-0.8,0.1-1.5,0.3-1.8,0.7c-0.4,0.4-0.6,0.9-0.6,1.6c0,0.7,0.2,1.3,0.5,1.6c0.4,0.4,0.9,0.5,1.5,0.5
		C377.5,135.4,377.9,135.3,378.3,135.1z"/>
	<path class="st9" d="M385.4,135.7c-0.9-1.1-1.4-2.9-1.4-5.3c0-2.4,0.4-4.2,1.3-5.3c0.9-1.1,2.2-1.7,3.9-1.7c1.7,0,3,0.6,3.9,1.7
		s1.4,2.9,1.4,5.3c0,4.7-1.7,7-5.2,7C387.6,137.4,386.4,136.8,385.4,135.7z M390.8,135c0.4-0.3,0.7-0.8,0.9-1.6
		c0.2-0.7,0.3-1.8,0.3-3.1c0-1.3-0.1-2.4-0.3-3.1c-0.2-0.8-0.5-1.3-0.9-1.6c-0.4-0.3-0.9-0.5-1.5-0.5c-0.6,0-1.1,0.2-1.5,0.5
		s-0.7,0.8-0.9,1.6c-0.2,0.7-0.3,1.8-0.3,3.1c0,1.3,0.1,2.4,0.3,3.1c0.2,0.8,0.5,1.3,0.9,1.6s0.9,0.5,1.5,0.5
		C389.9,135.4,390.4,135.3,390.8,135z"/>
	<path class="st9" d="M409.9,123.5h2.5l-4.2,13.6H405l-4.2-13.6h2.5l3.3,11.2L409.9,123.5z"/>
	<path class="st9" d="M419.9,123.8c0.7,0.3,1.2,0.8,1.6,1.5s0.5,1.7,0.5,2.9v8.9h-2l-0.2-1.5h-0.1c-0.3,0.6-0.8,1-1.4,1.3
		c-0.6,0.3-1.2,0.4-1.9,0.4c-0.7,0-1.4-0.1-1.9-0.4c-0.6-0.3-1-0.7-1.3-1.3c-0.3-0.6-0.5-1.2-0.5-2c0-1.3,0.4-2.2,1.1-2.9
		s1.9-1.1,3.5-1.2l2.3-0.2v-1.1c0-0.7-0.1-1.3-0.3-1.7c-0.2-0.4-0.5-0.7-0.9-0.9s-1-0.3-1.7-0.3c-0.5,0-1,0-1.5,0.1
		s-1.1,0.2-1.6,0.4v-2c0.5-0.2,1.1-0.3,1.7-0.4s1.3-0.1,1.9-0.1C418.3,123.3,419.2,123.4,419.9,123.8z M418.5,135.1
		c0.4-0.2,0.8-0.6,1.1-1.1v-3.2l-2,0.2c-0.8,0.1-1.5,0.3-1.8,0.7c-0.4,0.4-0.6,0.9-0.6,1.6c0,0.7,0.2,1.3,0.5,1.6
		c0.4,0.4,0.9,0.5,1.5,0.5C417.6,135.4,418.1,135.3,418.5,135.1z"/>
	<path class="st9" d="M424.9,137.1v-20.2h2.4v20.2H424.9z"/>
	<path class="st9" d="M439.4,131.1h-7.3c0,1.1,0.2,1.9,0.4,2.5s0.7,1,1.2,1.3c0.5,0.3,1.2,0.4,2.1,0.4c0.8,0,1.8-0.2,2.9-0.5v2
		c-1.1,0.3-2.2,0.5-3.2,0.5c-1.4,0-2.5-0.2-3.3-0.7c-0.9-0.5-1.5-1.2-1.9-2.3c-0.4-1-0.6-2.4-0.6-4.1c0-2.4,0.4-4.1,1.3-5.3
		c0.9-1.1,2.1-1.7,3.7-1.7c1.5,0,2.7,0.6,3.5,1.7c0.8,1.1,1.2,2.9,1.2,5.3V131.1z M432.8,126c-0.4,0.7-0.7,1.8-0.7,3.5h5
		c0-1.1-0.1-2-0.3-2.7s-0.5-1.1-0.8-1.4c-0.3-0.3-0.8-0.4-1.3-0.4C433.9,125,433.2,125.3,432.8,126z"/>
</g>
<g class="st8">
	<path class="st9" d="M274.4,153.8c0.7,0.3,1.2,0.8,1.6,1.5s0.5,1.7,0.5,2.9v8.9h-2l-0.2-1.5h-0.1c-0.3,0.6-0.8,1-1.4,1.3
		c-0.6,0.3-1.2,0.4-1.9,0.4c-0.7,0-1.4-0.1-1.9-0.4c-0.6-0.3-1-0.7-1.3-1.3c-0.3-0.6-0.5-1.2-0.5-2c0-1.3,0.4-2.2,1.1-2.9
		s1.9-1.1,3.5-1.2l2.3-0.2v-1.1c0-0.7-0.1-1.3-0.3-1.7c-0.2-0.4-0.5-0.7-0.9-0.9c-0.4-0.2-1-0.3-1.7-0.3c-0.5,0-1,0-1.5,0.1
		s-1.1,0.2-1.6,0.4v-2c0.5-0.2,1.1-0.3,1.7-0.4s1.3-0.1,1.9-0.1C272.8,153.3,273.7,153.4,274.4,153.8z M273,165.1
		c0.4-0.2,0.8-0.6,1.1-1.1v-3.2l-2,0.2c-0.8,0.1-1.5,0.3-1.9,0.7c-0.4,0.4-0.6,0.9-0.6,1.6c0,0.7,0.2,1.3,0.5,1.6
		c0.4,0.4,0.9,0.5,1.5,0.5C272.1,165.4,272.6,165.3,273,165.1z"/>
	<path class="st9" d="M284.7,153.5h2.1l0.2,1.4h0.1c0.3-0.5,0.7-0.9,1.2-1.2c0.5-0.3,1.1-0.5,1.8-0.5c0.9,0,1.6,0.2,2.3,0.7
		c0.7,0.5,1.2,1.2,1.7,2.2c0.4,1,0.6,2.3,0.6,3.9c0,2.5-0.5,4.3-1.6,5.5c-1.1,1.2-2.6,1.8-4.8,1.8c-0.3,0-0.7,0-1.2-0.1v5.3h-2.4
		V153.5z M290.5,164.9c0.5-0.3,1-0.9,1.2-1.6s0.4-1.7,0.4-3c0-1.3-0.1-2.3-0.4-3s-0.6-1.2-1-1.5c-0.4-0.3-0.9-0.4-1.5-0.4
		c-0.5,0-0.9,0.1-1.3,0.3c-0.4,0.2-0.7,0.5-1,1v8.6c0.2,0,0.4,0.1,0.7,0.1s0.5,0,0.7,0C289.3,165.4,290,165.2,290.5,164.9z"/>
	<path class="st9" d="M306.3,161.1H299c0,1.1,0.2,1.9,0.4,2.5s0.7,1,1.2,1.3s1.2,0.4,2.1,0.4c0.8,0,1.8-0.2,2.9-0.5v2
		c-1.1,0.3-2.2,0.5-3.2,0.5c-1.4,0-2.5-0.2-3.3-0.7s-1.5-1.2-1.9-2.3c-0.4-1-0.6-2.4-0.6-4.1c0-2.4,0.4-4.1,1.3-5.3
		c0.9-1.1,2.1-1.7,3.7-1.7c1.5,0,2.7,0.6,3.5,1.7c0.8,1.1,1.2,2.9,1.2,5.3V161.1z M299.7,156c-0.4,0.7-0.7,1.8-0.7,3.5h5
		c0-1.1-0.1-2-0.3-2.7s-0.5-1.1-0.8-1.4c-0.3-0.3-0.8-0.4-1.3-0.4C300.7,155,300.1,155.3,299.7,156z"/>
	<path class="st9" d="M308.5,153.5h2l0.2,1.5h0.1c0.4-0.5,1-1,1.6-1.3c0.6-0.3,1.3-0.4,2-0.4c1.1,0,2,0.3,2.7,1c0.7,0.7,1,1.8,1,3.4
		v9.4h-2.4v-9.2c0-0.9-0.2-1.5-0.5-1.9c-0.3-0.4-0.8-0.5-1.5-0.5c-0.5,0-1,0.1-1.5,0.4c-0.5,0.3-0.9,0.6-1.2,1.2v10.1h-2.4V153.5z"
		/>
	<path class="st9" d="M327.4,153.8c0.7,0.3,1.2,0.8,1.6,1.5s0.5,1.7,0.5,2.9v8.9h-2l-0.2-1.5h-0.1c-0.3,0.6-0.8,1-1.4,1.3
		c-0.6,0.3-1.2,0.4-1.9,0.4c-0.7,0-1.4-0.1-1.9-0.4c-0.6-0.3-1-0.7-1.3-1.3c-0.3-0.6-0.5-1.2-0.5-2c0-1.3,0.4-2.2,1.1-2.9
		s1.9-1.1,3.5-1.2l2.3-0.2v-1.1c0-0.7-0.1-1.3-0.3-1.7c-0.2-0.4-0.5-0.7-0.9-0.9c-0.4-0.2-1-0.3-1.7-0.3c-0.5,0-1,0-1.5,0.1
		s-1.1,0.2-1.6,0.4v-2c0.5-0.2,1.1-0.3,1.7-0.4s1.3-0.1,1.9-0.1C325.7,153.3,326.7,153.4,327.4,153.8z M326,165.1
		c0.4-0.2,0.8-0.6,1.1-1.1v-3.2l-2,0.2c-0.8,0.1-1.5,0.3-1.9,0.7c-0.4,0.4-0.6,0.9-0.6,1.6c0,0.7,0.2,1.3,0.5,1.6
		c0.4,0.4,0.9,0.5,1.5,0.5C325.1,165.4,325.6,165.3,326,165.1z"/>
	<path class="st9" d="M332.4,166.8c-0.3-0.3-0.5-0.7-0.5-1.2c0-0.5,0.2-0.9,0.5-1.2c0.3-0.3,0.7-0.5,1.2-0.5c0.5,0,0.9,0.2,1.2,0.5
		c0.3,0.3,0.5,0.7,0.5,1.2c0,0.5-0.2,0.9-0.5,1.2s-0.7,0.5-1.2,0.5C333.1,167.3,332.7,167.1,332.4,166.8z"/>
	<path class="st9" d="M343.3,148.8c1.5-0.3,3-0.4,4.3-0.4c2.4,0,4.1,0.5,5.3,1.6c1.2,1,1.8,2.7,1.8,4.9c0,2.1-0.6,3.7-1.8,4.8
		c-1.2,1.1-3,1.6-5.3,1.6c-0.5,0-1.1,0-1.8-0.1v5.9h-2.5V148.8z M351.1,158.2c0.8-0.7,1.1-1.8,1.1-3.3c0-1.5-0.4-2.7-1.1-3.4
		c-0.7-0.7-1.8-1.1-3.4-1.1c-0.8,0-1.4,0.1-2.1,0.2v8.5c0.5,0.1,1.1,0.1,1.9,0.1C349.2,159.2,350.3,158.8,351.1,158.2z"/>
	<path class="st9" d="M357.6,165.7c-0.9-1.1-1.4-2.9-1.4-5.3c0-2.4,0.4-4.2,1.3-5.3c0.9-1.1,2.2-1.7,3.9-1.7c1.7,0,3,0.6,3.9,1.7
		s1.4,2.9,1.4,5.3c0,4.7-1.7,7-5.2,7C359.8,167.4,358.5,166.8,357.6,165.7z M363,165c0.4-0.3,0.7-0.8,0.9-1.6
		c0.2-0.7,0.3-1.8,0.3-3.1c0-1.3-0.1-2.4-0.3-3.1c-0.2-0.8-0.5-1.3-0.9-1.6c-0.4-0.3-0.9-0.5-1.5-0.5c-0.6,0-1.1,0.2-1.5,0.5
		c-0.4,0.3-0.7,0.8-0.9,1.6c-0.2,0.7-0.3,1.8-0.3,3.1c0,1.3,0.1,2.4,0.3,3.1c0.2,0.8,0.5,1.3,0.9,1.6s0.9,0.5,1.5,0.5
		C362.1,165.4,362.6,165.3,363,165z"/>
	<path class="st9" d="M369,153.5h2l0.2,1.9h0.1c0.4-0.7,0.8-1.2,1.4-1.5s1.2-0.5,1.9-0.5c0.3,0,0.5,0,0.8,0.1v2.3
		c-0.3,0-0.6-0.1-1-0.1c-0.6,0-1.2,0.2-1.8,0.5c-0.6,0.3-1,0.8-1.3,1.3v9.7H369V153.5z"/>
	<path class="st9" d="M383.2,165.7c-0.9-1.1-1.4-2.9-1.4-5.4c0-2.5,0.5-4.3,1.5-5.4s2.5-1.7,4.5-1.7c0.8,0,1.6,0.1,2.3,0.3v2
		c-0.7-0.2-1.3-0.2-1.9-0.2c-0.9,0-1.6,0.1-2.2,0.4c-0.6,0.3-1,0.8-1.3,1.5c-0.3,0.7-0.4,1.7-0.4,2.9c0,1.3,0.1,2.3,0.4,3
		c0.3,0.7,0.6,1.2,1.1,1.6c0.5,0.3,1.1,0.5,1.9,0.5c0.7,0,1.5-0.2,2.3-0.5v2.1c-0.9,0.3-1.9,0.5-2.8,0.5
		C385.5,167.4,384.2,166.8,383.2,165.7z"/>
	<path class="st9" d="M398.4,153.8c0.7,0.3,1.2,0.8,1.6,1.5c0.4,0.7,0.5,1.7,0.5,2.9v8.9h-2l-0.2-1.5h-0.1c-0.3,0.6-0.8,1-1.4,1.3
		c-0.6,0.3-1.2,0.4-1.9,0.4c-0.7,0-1.4-0.1-1.9-0.4c-0.6-0.3-1-0.7-1.3-1.3c-0.3-0.6-0.5-1.2-0.5-2c0-1.3,0.4-2.2,1.1-2.9
		s1.9-1.1,3.5-1.2l2.3-0.2v-1.1c0-0.7-0.1-1.3-0.3-1.7c-0.2-0.4-0.5-0.7-0.9-0.9c-0.4-0.2-1-0.3-1.7-0.3c-0.5,0-1,0-1.5,0.1
		c-0.6,0.1-1.1,0.2-1.6,0.4v-2c0.5-0.2,1.1-0.3,1.7-0.4c0.6-0.1,1.3-0.1,1.9-0.1C396.8,153.3,397.7,153.4,398.4,153.8z M397,165.1
		c0.4-0.2,0.8-0.6,1.1-1.1v-3.2l-2.1,0.2c-0.8,0.1-1.5,0.3-1.8,0.7c-0.4,0.4-0.6,0.9-0.6,1.6c0,0.7,0.2,1.3,0.5,1.6
		c0.4,0.4,0.9,0.5,1.5,0.5C396.1,165.4,396.6,165.3,397,165.1z"/>
	<path class="st9" d="M404.3,166.3c-0.7-0.7-1-1.8-1-3.4v-9.4h2.4v9.2c0,0.9,0.2,1.5,0.5,1.9c0.3,0.4,0.8,0.6,1.5,0.6
		c0.5,0,1-0.1,1.5-0.4s0.9-0.6,1.2-1.2v-10.1h2.4v13.6h-2l-0.2-1.5h-0.1c-0.5,0.6-1,1-1.6,1.3s-1.2,0.4-1.9,0.4
		C405.8,167.3,404.9,167,404.3,166.3z"/>
	<path class="st9" d="M415.3,166.8v-2c1.1,0.4,2.1,0.5,3.2,0.5c0.9,0,1.5-0.2,2-0.5c0.4-0.3,0.7-0.8,0.7-1.5c0-0.5-0.1-1-0.4-1.3
		c-0.3-0.3-0.7-0.5-1.2-0.7L418,161c-1.1-0.3-1.8-0.7-2.3-1.3c-0.5-0.6-0.7-1.4-0.7-2.4c0-0.8,0.2-1.5,0.6-2.1
		c0.4-0.6,0.9-1.1,1.7-1.4c0.8-0.3,1.7-0.5,2.7-0.5c0.9,0,1.8,0.1,2.7,0.3v2c-0.5-0.1-0.9-0.2-1.3-0.3c-0.4,0-0.9-0.1-1.3-0.1
		c-1,0-1.7,0.2-2.1,0.5c-0.5,0.4-0.7,0.8-0.7,1.4c0,0.5,0.1,0.9,0.4,1.2s0.7,0.5,1.2,0.7l1.5,0.4c1.1,0.3,1.9,0.7,2.4,1.3
		c0.5,0.6,0.7,1.4,0.7,2.4c0,0.8-0.2,1.6-0.6,2.2c-0.4,0.6-0.9,1.1-1.7,1.4c-0.7,0.3-1.6,0.5-2.6,0.5
		C417.3,167.4,416.3,167.2,415.3,166.8z"/>
	<path class="st9" d="M431.8,153.8c0.7,0.3,1.2,0.8,1.6,1.5s0.5,1.7,0.5,2.9v8.9h-2l-0.2-1.5h-0.1c-0.3,0.6-0.8,1-1.4,1.3
		c-0.6,0.3-1.2,0.4-1.9,0.4c-0.7,0-1.4-0.1-1.9-0.4c-0.6-0.3-1-0.7-1.3-1.3c-0.3-0.6-0.5-1.2-0.5-2c0-1.3,0.4-2.2,1.1-2.9
		s1.9-1.1,3.5-1.2l2.3-0.2v-1.1c0-0.7-0.1-1.3-0.3-1.7c-0.2-0.4-0.5-0.7-0.9-0.9s-1-0.3-1.7-0.3c-0.5,0-1,0-1.5,0.1
		s-1.1,0.2-1.6,0.4v-2c0.5-0.2,1.1-0.3,1.7-0.4s1.3-0.1,1.9-0.1C430.2,153.3,431.1,153.4,431.8,153.8z M430.5,165.1
		c0.4-0.2,0.8-0.6,1.1-1.1v-3.2l-2,0.2c-0.8,0.1-1.5,0.3-1.8,0.7c-0.4,0.4-0.6,0.9-0.6,1.6c0,0.7,0.2,1.3,0.5,1.6
		c0.4,0.4,0.9,0.5,1.5,0.5C429.6,165.4,430,165.3,430.5,165.1z"/>
</g>
<g class="st8">
	<path class="st9" d="M273.6,196.7c-0.7-0.5-1.2-1.2-1.7-2.2c-0.4-1-0.6-2.3-0.6-3.9c0-2.4,0.5-4.3,1.6-5.5c1.1-1.2,2.6-1.8,4.8-1.8
		c0.4,0,0.8,0,1.2,0.1v-6.5h2.4v20.2h-2.1l-0.2-1.4h-0.1c-0.3,0.5-0.7,0.9-1.2,1.2s-1.1,0.5-1.8,0.5
		C275.1,197.4,274.3,197.1,273.6,196.7z M277.9,194.9c0.4-0.2,0.7-0.5,1-1v-8.6c-0.2,0-0.4-0.1-0.7-0.1c-0.3,0-0.5,0-0.7,0
		c-0.8,0-1.5,0.2-2,0.5c-0.5,0.3-0.9,0.9-1.2,1.6s-0.4,1.7-0.4,3c0,1.3,0.1,2.3,0.4,3s0.6,1.2,1,1.5c0.4,0.3,0.9,0.4,1.5,0.4
		C277.1,195.3,277.5,195.1,277.9,194.9z"/>
	<path class="st9" d="M290.7,183.8c0.7,0.3,1.2,0.8,1.6,1.5s0.5,1.7,0.5,2.9v8.9h-2l-0.2-1.5h-0.1c-0.3,0.6-0.8,1-1.4,1.3
		c-0.6,0.3-1.2,0.4-1.9,0.4c-0.7,0-1.4-0.1-1.9-0.4c-0.6-0.3-1-0.7-1.3-1.3c-0.3-0.6-0.5-1.2-0.5-2c0-1.3,0.4-2.2,1.1-2.9
		c0.8-0.7,1.9-1.1,3.5-1.2l2.3-0.2v-1.1c0-0.7-0.1-1.3-0.3-1.7c-0.2-0.4-0.5-0.7-0.9-0.9c-0.4-0.2-1-0.3-1.7-0.3c-0.5,0-1,0-1.5,0.1
		s-1.1,0.2-1.6,0.4v-2c0.5-0.2,1.1-0.3,1.7-0.4s1.3-0.1,1.9-0.1C289.1,183.3,290,183.4,290.7,183.8z M289.3,195.1
		c0.4-0.2,0.8-0.6,1.1-1.1v-3.2l-2,0.2c-0.8,0.1-1.5,0.3-1.9,0.7c-0.4,0.4-0.6,0.9-0.6,1.6c0,0.7,0.2,1.3,0.5,1.6
		c0.4,0.4,0.9,0.5,1.5,0.5C288.5,195.4,288.9,195.3,289.3,195.1z"/>
	<path class="st9" d="M301,180.4c-0.3-0.3-0.4-0.6-0.4-1.1c0-0.5,0.1-0.8,0.4-1.1c0.3-0.3,0.7-0.4,1.2-0.4s0.9,0.1,1.2,0.4
		c0.3,0.3,0.4,0.6,0.4,1.1c0,0.5-0.1,0.8-0.4,1.1c-0.3,0.3-0.7,0.4-1.2,0.4S301.3,180.7,301,180.4z M301,197.1v-13.6h2.4v13.6H301z"
		/>
	<path class="st9" d="M306.4,183.5h2l0.2,1.5h0.1c0.4-0.5,1-1,1.6-1.3c0.6-0.3,1.3-0.4,2-0.4c1.1,0,2,0.3,2.7,1c0.7,0.7,1,1.8,1,3.4
		v9.4h-2.4v-9.2c0-0.9-0.2-1.5-0.5-1.9c-0.3-0.4-0.8-0.5-1.5-0.5c-0.5,0-1,0.1-1.5,0.4c-0.5,0.3-0.9,0.6-1.2,1.2v10.1h-2.4V183.5z"
		/>
	<path class="st9" d="M320.8,177.8c0.8-0.8,1.8-1.2,3.3-1.2c0.6,0,1.2,0,1.6,0.2v2c-0.4-0.1-0.8-0.1-1.3-0.1c-0.8,0-1.3,0.2-1.7,0.6
		c-0.4,0.4-0.6,0.9-0.6,1.7v2.5h3.4v2h-3.4v11.6h-2.4v-11.6h-2.2v-2h2.2v-2.4C319.7,179.7,320,178.6,320.8,177.8z M326.7,176.9h2.4
		v20.2h-2.4V176.9z"/>
	<path class="st9" d="M338.6,183.8c0.7,0.3,1.2,0.8,1.6,1.5s0.5,1.7,0.5,2.9v8.9h-2l-0.2-1.5h-0.1c-0.3,0.6-0.8,1-1.4,1.3
		c-0.6,0.3-1.2,0.4-1.9,0.4c-0.7,0-1.4-0.1-1.9-0.4c-0.6-0.3-1-0.7-1.3-1.3c-0.3-0.6-0.5-1.2-0.5-2c0-1.3,0.4-2.2,1.1-2.9
		c0.8-0.7,1.9-1.1,3.5-1.2l2.3-0.2v-1.1c0-0.7-0.1-1.3-0.3-1.7c-0.2-0.4-0.5-0.7-0.9-0.9c-0.4-0.2-1-0.3-1.7-0.3c-0.5,0-1,0-1.5,0.1
		s-1.1,0.2-1.6,0.4v-2c0.5-0.2,1.1-0.3,1.7-0.4s1.3-0.1,1.9-0.1C336.9,183.3,337.9,183.4,338.6,183.8z M337.2,195.1
		c0.4-0.2,0.8-0.6,1.1-1.1v-3.2l-2,0.2c-0.8,0.1-1.5,0.3-1.9,0.7c-0.4,0.4-0.6,0.9-0.6,1.6c0,0.7,0.2,1.3,0.5,1.6
		c0.4,0.4,0.9,0.5,1.5,0.5C336.3,195.4,336.8,195.3,337.2,195.1z"/>
	<path class="st9" d="M347.1,185.8c-0.6,0.3-1,0.8-1.3,1.5c-0.3,0.7-0.4,1.7-0.4,2.9c0,1.3,0.1,2.3,0.4,3c0.3,0.7,0.6,1.2,1.1,1.6
		c0.5,0.3,1.1,0.5,1.9,0.5c0.7,0,1.5-0.2,2.3-0.5v2.1c-0.9,0.3-1.9,0.5-2.8,0.5v1c0.6,0.1,1,0.3,1.3,0.7s0.5,0.8,0.5,1.3
		c0,0.6-0.2,1.1-0.7,1.5c-0.4,0.4-1.1,0.5-2,0.5c-0.4,0-0.7,0-1-0.1c-0.3-0.1-0.6-0.2-0.9-0.3v-1.2c0.6,0.3,1.2,0.4,1.9,0.4
		c0.4,0,0.7-0.1,0.9-0.2c0.2-0.2,0.3-0.4,0.3-0.8c0-0.7-0.4-1-1.3-1h-0.4v-2c-1.4-0.2-2.4-0.9-3.1-2c-0.7-1.1-1-2.7-1-4.9
		c0-2.5,0.5-4.3,1.5-5.4s2.5-1.7,4.5-1.7c0.8,0,1.6,0.1,2.3,0.3v2c-0.7-0.2-1.3-0.2-1.9-0.2C348.4,185.4,347.7,185.5,347.1,185.8z"
		/>
	<path class="st9" d="M359.5,183.8c0.7,0.3,1.2,0.8,1.6,1.5c0.4,0.7,0.5,1.7,0.5,2.9v8.9h-2l-0.2-1.5h-0.1c-0.4,0.6-0.8,1-1.4,1.3
		c-0.6,0.3-1.2,0.4-1.9,0.4c-0.7,0-1.4-0.1-1.9-0.4c-0.6-0.3-1-0.7-1.3-1.3c-0.3-0.6-0.5-1.2-0.5-2c0-1.3,0.4-2.2,1.1-2.9
		c0.8-0.7,1.9-1.1,3.5-1.2l2.3-0.2v-1.1c0-0.7-0.1-1.3-0.3-1.7c-0.2-0.4-0.5-0.7-0.9-0.9s-1-0.3-1.7-0.3c-0.5,0-1,0-1.5,0.1
		c-0.6,0.1-1.1,0.2-1.6,0.4v-2c0.5-0.2,1.1-0.3,1.7-0.4c0.6-0.1,1.3-0.1,1.9-0.1C357.8,183.3,358.8,183.4,359.5,183.8z M358,180.4
		c-0.3-0.1-0.6-0.2-1-0.4c-0.3-0.2-0.6-0.3-0.8-0.4s-0.5-0.1-0.7-0.1c-0.4,0-0.7,0.1-1,0.2c-0.3,0.2-0.6,0.4-0.9,0.8v-1.7
		c0.5-0.6,1.2-0.9,2-0.9c0.3,0,0.6,0,0.9,0.1c0.3,0.1,0.6,0.2,1,0.4c0.3,0.2,0.6,0.3,0.8,0.4s0.4,0.1,0.7,0.1c0.4,0,0.7-0.1,1-0.2
		c0.3-0.2,0.6-0.4,0.9-0.8v1.7c-0.5,0.6-1.1,0.9-2,0.9C358.6,180.5,358.3,180.5,358,180.4z M358.1,195.1c0.4-0.2,0.8-0.6,1.1-1.1
		v-3.2l-2,0.2c-0.8,0.1-1.5,0.3-1.8,0.7c-0.4,0.4-0.6,0.9-0.6,1.6c0,0.7,0.2,1.3,0.5,1.6c0.4,0.4,0.9,0.5,1.5,0.5
		C357.2,195.4,357.7,195.3,358.1,195.1z"/>
	<path class="st9" d="M365.2,195.7c-0.9-1.1-1.4-2.9-1.4-5.3c0-2.4,0.4-4.2,1.3-5.3c0.9-1.1,2.2-1.7,3.9-1.7c1.7,0,3,0.6,3.9,1.7
		s1.4,2.9,1.4,5.3c0,4.7-1.7,7-5.2,7C367.4,197.4,366.1,196.8,365.2,195.7z M370.5,195c0.4-0.3,0.7-0.8,0.9-1.6
		c0.2-0.7,0.3-1.8,0.3-3.1c0-1.3-0.1-2.4-0.3-3.1c-0.2-0.8-0.5-1.3-0.9-1.6c-0.4-0.3-0.9-0.5-1.5-0.5c-0.6,0-1.1,0.2-1.5,0.5
		c-0.4,0.3-0.7,0.8-0.9,1.6c-0.2,0.7-0.3,1.8-0.3,3.1c0,1.3,0.1,2.4,0.3,3.1c0.2,0.8,0.5,1.3,0.9,1.6s0.9,0.5,1.5,0.5
		C369.7,195.4,370.2,195.3,370.5,195z"/>
	<path class="st9" d="M378.8,194.5c0.3,0.4,0.4,0.9,0.4,1.6c0,0.9-0.1,1.8-0.4,2.6s-0.6,1.7-1,2.4h-1.4c0.3-0.8,0.5-1.4,0.7-2.1
		c0.2-0.6,0.3-1.2,0.3-1.8c-0.5,0-0.8-0.2-1.1-0.5c-0.3-0.3-0.4-0.7-0.4-1.2c0-0.5,0.2-0.9,0.5-1.2s0.7-0.4,1.2-0.4
		C378,193.9,378.5,194.1,378.8,194.5z"/>
	<path class="st9" d="M387.8,195.7c-0.9-1.1-1.4-2.9-1.4-5.4c0-2.5,0.5-4.3,1.5-5.4s2.5-1.7,4.5-1.7c0.8,0,1.6,0.1,2.3,0.3v2
		c-0.7-0.2-1.3-0.2-1.9-0.2c-0.9,0-1.6,0.1-2.2,0.4c-0.6,0.3-1,0.8-1.3,1.5c-0.3,0.7-0.4,1.7-0.4,2.9c0,1.3,0.1,2.3,0.4,3
		c0.3,0.7,0.6,1.2,1.1,1.6c0.5,0.3,1.1,0.5,1.9,0.5c0.7,0,1.5-0.2,2.3-0.5v2.1c-0.9,0.3-1.9,0.5-2.8,0.5
		C390.1,197.4,388.7,196.8,387.8,195.7z"/>
	<path class="st9" d="M397.1,195.7c-0.9-1.1-1.4-2.9-1.4-5.3c0-2.4,0.4-4.2,1.3-5.3c0.9-1.1,2.2-1.7,3.9-1.7c1.7,0,3,0.6,3.9,1.7
		s1.4,2.9,1.4,5.3c0,4.7-1.7,7-5.2,7C399.3,197.4,398,196.8,397.1,195.7z M402.5,195c0.4-0.3,0.7-0.8,0.9-1.6
		c0.2-0.7,0.3-1.8,0.3-3.1c0-1.3-0.1-2.4-0.3-3.1c-0.2-0.8-0.5-1.3-0.9-1.6s-0.9-0.5-1.5-0.5c-0.6,0-1.1,0.2-1.5,0.5
		c-0.4,0.3-0.7,0.8-0.9,1.6c-0.2,0.7-0.3,1.8-0.3,3.1c0,1.3,0.1,2.4,0.3,3.1c0.2,0.8,0.5,1.3,0.9,1.6c0.4,0.3,0.9,0.5,1.5,0.5
		C401.6,195.4,402.1,195.3,402.5,195z"/>
	<path class="st9" d="M423.7,184.4c0.7,0.7,1,1.9,1,3.5v9.3h-2.4v-9.2c0-1.6-0.7-2.4-2-2.4c-0.4,0-0.9,0.1-1.3,0.3s-0.9,0.6-1.2,1.1
		c0,0.3,0,0.6,0,0.7v9.4h-2.4v-9.2c0-0.9-0.2-1.5-0.5-1.9c-0.3-0.4-0.8-0.6-1.4-0.6c-0.5,0-0.9,0.1-1.4,0.4
		c-0.5,0.3-0.9,0.7-1.2,1.2v10h-2.4v-13.6h2l0.2,1.5h0.1c0.9-1.1,2-1.7,3.5-1.7c0.7,0,1.3,0.1,1.8,0.4c0.5,0.3,0.9,0.8,1.2,1.4
		c0.5-0.6,1-1.1,1.7-1.4c0.6-0.3,1.3-0.5,2-0.5C422.1,183.3,423,183.6,423.7,184.4z"/>
</g>
<g class="st8">
	<path class="st9" d="M276.9,225.7c-0.9-1.1-1.4-2.9-1.4-5.3c0-2.4,0.4-4.2,1.3-5.3c0.9-1.1,2.2-1.7,3.9-1.7c1.7,0,3,0.6,3.9,1.7
		s1.4,2.9,1.4,5.3c0,4.7-1.7,7-5.2,7C279.1,227.4,277.8,226.8,276.9,225.7z M282.2,225c0.4-0.3,0.7-0.8,0.9-1.6
		c0.2-0.7,0.3-1.8,0.3-3.1c0-1.3-0.1-2.4-0.3-3.1c-0.2-0.8-0.5-1.3-0.9-1.6s-0.9-0.5-1.5-0.5c-0.6,0-1.1,0.2-1.5,0.5
		s-0.7,0.8-0.9,1.6c-0.2,0.7-0.3,1.8-0.3,3.1c0,1.3,0.1,2.4,0.3,3.1c0.2,0.8,0.5,1.3,0.9,1.6s0.9,0.5,1.5,0.5
		C281.3,225.4,281.8,225.3,282.2,225z"/>
	<path class="st9" d="M300.3,225.1v2.1c-0.7,0.1-1.3,0.2-1.9,0.2c-1.3,0-2.3-0.4-3-1.1c-0.7-0.7-1-1.8-1-3.4v-7.4h-2.2v-2h2.2
		l0.4-4.9h2v4.9h3.4v2h-3.4v7.1c0,0.7,0.1,1.2,0.2,1.6c0.2,0.4,0.4,0.7,0.7,0.8c0.3,0.2,0.7,0.2,1.3,0.2
		C299.3,225.2,299.8,225.2,300.3,225.1z"/>
	<path class="st9" d="M311,221.1h-7.3c0,1.1,0.2,1.9,0.4,2.5c0.3,0.6,0.7,1,1.2,1.3s1.2,0.4,2.1,0.4c0.9,0,1.8-0.2,2.9-0.5v2
		c-1.1,0.3-2.2,0.5-3.2,0.5c-1.4,0-2.5-0.2-3.3-0.7c-0.9-0.5-1.5-1.2-1.9-2.3c-0.4-1-0.6-2.4-0.6-4.1c0-2.4,0.4-4.1,1.3-5.3
		c0.9-1.1,2.1-1.7,3.7-1.7c1.5,0,2.7,0.6,3.5,1.7c0.8,1.1,1.2,2.9,1.2,5.3V221.1z M304.4,216c-0.4,0.7-0.7,1.8-0.7,3.5h5
		c0-1.1-0.1-2-0.3-2.7c-0.2-0.7-0.5-1.1-0.8-1.4c-0.3-0.3-0.8-0.4-1.3-0.4C305.5,215,304.8,215.3,304.4,216z"/>
	<path class="st9" d="M328.3,214.3c0.7,0.7,1,1.9,1,3.5v9.3h-2.4v-9.2c0-1.6-0.7-2.4-2-2.4c-0.4,0-0.9,0.1-1.3,0.3
		c-0.5,0.2-0.9,0.6-1.2,1.1c0,0.3,0,0.6,0,0.7v9.4h-2.4v-9.2c0-0.9-0.2-1.5-0.5-1.9c-0.3-0.4-0.8-0.6-1.4-0.6
		c-0.5,0-0.9,0.1-1.4,0.4c-0.5,0.3-0.9,0.7-1.2,1.2v10h-2.4v-13.6h2l0.2,1.5h0.1c0.9-1.1,2-1.7,3.5-1.7c0.7,0,1.3,0.1,1.8,0.4
		c0.5,0.3,0.9,0.8,1.2,1.4c0.5-0.6,1-1.1,1.7-1.4c0.6-0.3,1.3-0.5,2-0.5C326.8,213.3,327.7,213.6,328.3,214.3z"/>
	<path class="st9" d="M332.2,213.5h2.1l0.2,1.4h0.1c0.3-0.5,0.7-0.9,1.2-1.2c0.5-0.3,1.1-0.5,1.8-0.5c0.9,0,1.6,0.2,2.3,0.7
		c0.7,0.5,1.2,1.2,1.7,2.2c0.4,1,0.6,2.3,0.6,3.9c0,2.5-0.5,4.3-1.6,5.5c-1.1,1.2-2.6,1.8-4.8,1.8c-0.3,0-0.7,0-1.2-0.1v5.3h-2.4
		V213.5z M338.1,224.9c0.5-0.3,1-0.9,1.2-1.6s0.4-1.7,0.4-3c0-1.3-0.1-2.3-0.4-3s-0.6-1.2-1-1.5c-0.4-0.3-0.9-0.4-1.5-0.4
		c-0.5,0-0.9,0.1-1.3,0.3c-0.4,0.2-0.7,0.5-1,1v8.6c0.2,0,0.4,0.1,0.7,0.1s0.5,0,0.7,0C336.9,225.4,337.5,225.2,338.1,224.9z"/>
	<path class="st9" d="M345.4,225.7c-0.9-1.1-1.4-2.9-1.4-5.3c0-2.4,0.4-4.2,1.3-5.3c0.9-1.1,2.2-1.7,3.9-1.7c1.7,0,3,0.6,3.9,1.7
		s1.4,2.9,1.4,5.3c0,4.7-1.7,7-5.2,7C347.6,227.4,346.3,226.8,345.4,225.7z M350.8,225c0.4-0.3,0.7-0.8,0.9-1.6
		c0.2-0.7,0.3-1.8,0.3-3.1c0-1.3-0.1-2.4-0.3-3.1c-0.2-0.8-0.5-1.3-0.9-1.6c-0.4-0.3-0.9-0.5-1.5-0.5c-0.6,0-1.1,0.2-1.5,0.5
		c-0.4,0.3-0.7,0.8-0.9,1.6c-0.2,0.7-0.3,1.8-0.3,3.1c0,1.3,0.1,2.4,0.3,3.1c0.2,0.8,0.5,1.3,0.9,1.6s0.9,0.5,1.5,0.5
		C349.9,225.4,350.4,225.3,350.8,225z"/>
	<path class="st9" d="M359,224.5c0.3,0.4,0.4,0.9,0.4,1.6c0,0.9-0.1,1.8-0.4,2.6s-0.6,1.7-1,2.4h-1.4c0.3-0.8,0.5-1.4,0.7-2.1
		c0.2-0.6,0.3-1.2,0.3-1.8c-0.5,0-0.8-0.2-1.1-0.5c-0.3-0.3-0.4-0.7-0.4-1.2c0-0.5,0.2-0.9,0.5-1.2s0.7-0.4,1.2-0.4
		C358.3,223.9,358.7,224.1,359,224.5z"/>
	<path class="st9" d="M376.4,221.1h-7.3c0,1.1,0.2,1.9,0.4,2.5s0.7,1,1.2,1.3s1.2,0.4,2.1,0.4c0.8,0,1.8-0.2,2.9-0.5v2
		c-1.1,0.3-2.2,0.5-3.2,0.5c-1.4,0-2.5-0.2-3.3-0.7s-1.5-1.2-1.9-2.3c-0.4-1-0.6-2.4-0.6-4.1c0-2.4,0.4-4.1,1.3-5.3
		c0.9-1.1,2.1-1.7,3.7-1.7c1.5,0,2.7,0.6,3.5,1.7c0.8,1.1,1.2,2.9,1.2,5.3V221.1z M369.8,216c-0.4,0.7-0.7,1.8-0.7,3.5h5
		c0-1.1-0.1-2-0.3-2.7s-0.5-1.1-0.8-1.4c-0.3-0.3-0.8-0.4-1.3-0.4C370.8,215,370.2,215.3,369.8,216z"/>
	<path class="st9" d="M378.6,227.1v-20.2h2.4v20.2H378.6z"/>
	<path class="st9" d="M393.1,221.1h-7.3c0,1.1,0.2,1.9,0.4,2.5c0.3,0.6,0.7,1,1.2,1.3s1.2,0.4,2.1,0.4c0.9,0,1.8-0.2,2.9-0.5v2
		c-1.1,0.3-2.2,0.5-3.2,0.5c-1.4,0-2.5-0.2-3.3-0.7c-0.9-0.5-1.5-1.2-1.9-2.3c-0.4-1-0.6-2.4-0.6-4.1c0-2.4,0.4-4.1,1.3-5.3
		c0.9-1.1,2.1-1.7,3.7-1.7c1.5,0,2.7,0.6,3.5,1.7c0.8,1.1,1.2,2.9,1.2,5.3V221.1z M386.5,216c-0.4,0.7-0.7,1.8-0.7,3.5h5
		c0-1.1-0.1-2-0.3-2.7c-0.2-0.7-0.5-1.1-0.8-1.4c-0.3-0.3-0.8-0.4-1.3-0.4C387.5,215,386.9,215.3,386.5,216z"/>
	<path class="st9" d="M408.3,213.5h2.5l-4.2,13.6h-3.2l-4.2-13.6h2.5l3.3,11.2L408.3,213.5z"/>
	<path class="st9" d="M418.3,213.8c0.7,0.3,1.2,0.8,1.6,1.5s0.5,1.7,0.5,2.9v8.9h-2l-0.2-1.5h-0.1c-0.3,0.6-0.8,1-1.4,1.3
		c-0.6,0.3-1.2,0.4-1.9,0.4c-0.7,0-1.4-0.1-1.9-0.4c-0.6-0.3-1-0.7-1.3-1.3c-0.3-0.6-0.5-1.2-0.5-2c0-1.3,0.4-2.2,1.1-2.9
		s1.9-1.1,3.5-1.2l2.3-0.2v-1.1c0-0.7-0.1-1.3-0.3-1.7c-0.2-0.4-0.5-0.7-0.9-0.9s-1-0.3-1.7-0.3c-0.5,0-1,0-1.5,0.1
		s-1.1,0.2-1.6,0.4v-2c0.5-0.2,1.1-0.3,1.7-0.4s1.3-0.1,1.9-0.1C416.7,213.3,417.6,213.4,418.3,213.8z M416.9,225.1
		c0.4-0.2,0.8-0.6,1.1-1.1v-3.2l-2,0.2c-0.8,0.1-1.5,0.3-1.8,0.7c-0.4,0.4-0.6,0.9-0.6,1.6c0,0.7,0.2,1.3,0.5,1.6
		c0.4,0.4,0.9,0.5,1.5,0.5C416,225.4,416.5,225.3,416.9,225.1z"/>
	<path class="st9" d="M423.3,210.4c-0.3-0.3-0.4-0.6-0.4-1.1c0-0.5,0.1-0.8,0.4-1.1c0.3-0.3,0.7-0.4,1.2-0.4s0.9,0.1,1.2,0.4
		c0.3,0.3,0.4,0.6,0.4,1.1c0,0.5-0.1,0.8-0.4,1.1c-0.3,0.3-0.7,0.4-1.2,0.4S423.5,210.7,423.3,210.4z M423.3,227.1v-13.6h2.4v13.6
		H423.3z"/>
</g>
<g class="st8">
	<path class="st9" d="M270.6,243.5h2.1l0.2,1.4h0.1c0.3-0.5,0.7-0.9,1.2-1.2c0.5-0.3,1.1-0.5,1.8-0.5c0.9,0,1.6,0.2,2.3,0.7
		c0.7,0.5,1.2,1.2,1.7,2.2c0.4,1,0.6,2.3,0.6,3.9c0,2.5-0.5,4.3-1.6,5.5c-1.1,1.2-2.6,1.8-4.8,1.8c-0.3,0-0.7,0-1.2-0.1v5.3h-2.4
		V243.5z M276.5,254.9c0.5-0.3,1-0.9,1.2-1.6s0.4-1.7,0.4-3c0-1.3-0.1-2.3-0.4-3s-0.6-1.2-1-1.5c-0.4-0.3-0.9-0.4-1.5-0.4
		c-0.5,0-0.9,0.1-1.3,0.3c-0.4,0.2-0.7,0.5-1,1v8.6c0.2,0,0.4,0.1,0.7,0.1s0.5,0,0.7,0C275.3,255.4,276,255.2,276.5,254.9z"/>
	<path class="st9" d="M292.2,251.1h-7.3c0,1.1,0.2,1.9,0.4,2.5c0.3,0.6,0.7,1,1.2,1.3s1.2,0.4,2.1,0.4c0.9,0,1.8-0.2,2.9-0.5v2
		c-1.1,0.3-2.2,0.5-3.2,0.5c-1.4,0-2.5-0.2-3.3-0.7c-0.9-0.5-1.5-1.2-1.9-2.3c-0.4-1-0.6-2.4-0.6-4.1c0-2.4,0.4-4.1,1.3-5.3
		c0.9-1.1,2.1-1.7,3.7-1.7c1.5,0,2.7,0.6,3.5,1.7c0.8,1.1,1.2,2.9,1.2,5.3V251.1z M285.6,246c-0.4,0.7-0.7,1.8-0.7,3.5h5
		c0-1.1-0.1-2-0.3-2.7c-0.2-0.7-0.5-1.1-0.8-1.4c-0.3-0.3-0.8-0.4-1.3-0.4C286.7,245,286.1,245.3,285.6,246z"/>
	<path class="st9" d="M294.4,243.5h2l0.2,1.9h0.1c0.4-0.7,0.8-1.2,1.4-1.5s1.2-0.5,1.9-0.5c0.3,0,0.5,0,0.8,0.1v2.3
		c-0.3,0-0.6-0.1-1-0.1c-0.6,0-1.2,0.2-1.8,0.5c-0.6,0.3-1,0.8-1.3,1.3v9.7h-2.4V243.5z"/>
	<path class="st9" d="M304,256.7c-0.7-0.5-1.2-1.2-1.7-2.2c-0.4-1-0.6-2.3-0.6-3.9c0-2.4,0.5-4.3,1.6-5.5s2.7-1.8,4.8-1.8
		c0.4,0,0.8,0,1.2,0.1v-6.5h2.4v20.2h-2.1l-0.2-1.4h-0.1c-0.3,0.5-0.7,0.9-1.2,1.2c-0.5,0.3-1.1,0.5-1.8,0.5
		C305.5,257.4,304.7,257.1,304,256.7z M308.3,254.9c0.4-0.2,0.7-0.5,1-1v-8.6c-0.2,0-0.4-0.1-0.7-0.1s-0.5,0-0.7,0
		c-0.8,0-1.5,0.2-2,0.5c-0.5,0.3-0.9,0.9-1.2,1.6s-0.4,1.7-0.4,3c0,1.3,0.1,2.3,0.4,3s0.6,1.2,1,1.5c0.4,0.3,0.9,0.4,1.5,0.4
		C307.5,255.3,307.9,255.1,308.3,254.9z"/>
	<path class="st9" d="M323.8,251.1h-7.3c0,1.1,0.2,1.9,0.4,2.5c0.3,0.6,0.7,1,1.2,1.3s1.2,0.4,2.1,0.4c0.9,0,1.8-0.2,2.9-0.5v2
		c-1.1,0.3-2.2,0.5-3.2,0.5c-1.4,0-2.5-0.2-3.3-0.7c-0.9-0.5-1.5-1.2-1.9-2.3c-0.4-1-0.6-2.4-0.6-4.1c0-2.4,0.4-4.1,1.3-5.3
		c0.9-1.1,2.1-1.7,3.7-1.7c1.5,0,2.7,0.6,3.5,1.7c0.8,1.1,1.2,2.9,1.2,5.3V251.1z M317.2,246c-0.4,0.7-0.7,1.8-0.7,3.5h5
		c0-1.1-0.1-2-0.3-2.7c-0.2-0.7-0.5-1.1-0.8-1.4c-0.3-0.3-0.8-0.4-1.3-0.4C318.3,245,317.7,245.3,317.2,246z"/>
	<path class="st9" d="M326,243.5h2l0.2,1.5h0.1c0.4-0.5,1-1,1.6-1.3c0.6-0.3,1.3-0.4,2-0.4c1.1,0,2,0.3,2.7,1s1,1.8,1,3.4v9.4h-2.4
		v-9.2c0-0.9-0.2-1.5-0.5-1.9c-0.4-0.4-0.9-0.5-1.5-0.5c-0.5,0-1,0.1-1.5,0.4c-0.5,0.3-0.9,0.6-1.2,1.2v10.1H326V243.5z"/>
	<path class="st9" d="M340.1,256.7c-0.7-0.5-1.2-1.2-1.7-2.2c-0.4-1-0.6-2.3-0.6-3.9c0-2.4,0.5-4.3,1.6-5.5c1.1-1.2,2.6-1.8,4.8-1.8
		c0.4,0,0.8,0,1.2,0.1v-6.5h2.4v20.2h-2.1l-0.2-1.4h-0.1c-0.3,0.5-0.7,0.9-1.2,1.2s-1.1,0.5-1.8,0.5
		C341.6,257.4,340.8,257.1,340.1,256.7z M344.5,254.9c0.4-0.2,0.7-0.5,1-1v-8.6c-0.2,0-0.4-0.1-0.7-0.1c-0.3,0-0.5,0-0.7,0
		c-0.8,0-1.5,0.2-2,0.5c-0.5,0.3-0.9,0.9-1.2,1.6s-0.4,1.7-0.4,3c0,1.3,0.1,2.3,0.4,3s0.6,1.2,1,1.5c0.4,0.3,0.9,0.4,1.5,0.4
		C343.6,255.3,344.1,255.1,344.5,254.9z"/>
	<path class="st9" d="M351.6,255.7c-0.9-1.1-1.4-2.9-1.4-5.3c0-2.4,0.4-4.2,1.3-5.3c0.9-1.1,2.2-1.7,3.9-1.7c1.7,0,3,0.6,3.9,1.7
		s1.4,2.9,1.4,5.3c0,4.7-1.7,7-5.2,7C353.8,257.4,352.5,256.8,351.6,255.7z M356.9,255c0.4-0.3,0.7-0.8,0.9-1.6
		c0.2-0.7,0.3-1.8,0.3-3.1c0-1.3-0.1-2.4-0.3-3.1c-0.2-0.8-0.5-1.3-0.9-1.6c-0.4-0.3-0.9-0.5-1.5-0.5c-0.6,0-1.1,0.2-1.5,0.5
		c-0.4,0.3-0.7,0.8-0.9,1.6c-0.2,0.7-0.3,1.8-0.3,3.1c0,1.3,0.1,2.4,0.3,3.1c0.2,0.8,0.5,1.3,0.9,1.6s0.9,0.5,1.5,0.5
		C356,255.4,356.5,255.3,356.9,255z"/>
	<path class="st9" d="M369,255.7c-0.9-1.1-1.4-2.9-1.4-5.3c0-2.4,0.4-4.2,1.3-5.3c0.9-1.1,2.2-1.7,3.9-1.7c1.7,0,3,0.6,3.9,1.7
		s1.4,2.9,1.4,5.3c0,4.7-1.7,7-5.2,7C371.2,257.4,370,256.8,369,255.7z M374.4,255c0.4-0.3,0.7-0.8,0.9-1.6c0.2-0.7,0.3-1.8,0.3-3.1
		c0-1.3-0.1-2.4-0.3-3.1c-0.2-0.8-0.5-1.3-0.9-1.6s-0.9-0.5-1.5-0.5c-0.6,0-1.1,0.2-1.5,0.5s-0.7,0.8-0.9,1.6
		c-0.2,0.7-0.3,1.8-0.3,3.1c0,1.3,0.1,2.4,0.3,3.1c0.2,0.8,0.5,1.3,0.9,1.6s0.9,0.5,1.5,0.5C373.5,255.4,374,255.3,374.4,255z"/>
	<path class="st9" d="M393.5,243.5h2.5l-4.2,13.6h-3.2l-4.2-13.6h2.5l3.3,11.2L393.5,243.5z"/>
	<path class="st9" d="M403.5,243.8c0.7,0.3,1.2,0.8,1.6,1.5c0.4,0.7,0.5,1.7,0.5,2.9v8.9h-2l-0.2-1.5h-0.1c-0.3,0.6-0.8,1-1.4,1.3
		c-0.6,0.3-1.2,0.4-1.9,0.4c-0.7,0-1.4-0.1-1.9-0.4s-1-0.7-1.3-1.3c-0.3-0.6-0.5-1.2-0.5-2c0-1.3,0.4-2.2,1.1-2.9
		c0.8-0.7,1.9-1.1,3.5-1.2l2.3-0.2v-1.1c0-0.7-0.1-1.3-0.3-1.7c-0.2-0.4-0.5-0.7-0.9-0.9c-0.4-0.2-1-0.3-1.7-0.3c-0.5,0-1,0-1.5,0.1
		s-1.1,0.2-1.6,0.4v-2c0.5-0.2,1.1-0.3,1.7-0.4c0.6-0.1,1.3-0.1,1.9-0.1C401.9,243.3,402.8,243.4,403.5,243.8z M402.1,255.1
		c0.4-0.2,0.8-0.6,1.1-1.1v-3.2l-2.1,0.2c-0.8,0.1-1.4,0.3-1.8,0.7c-0.4,0.4-0.6,0.9-0.6,1.6c0,0.7,0.2,1.3,0.5,1.6
		c0.4,0.4,0.9,0.5,1.5,0.5C401.2,255.4,401.7,255.3,402.1,255.1z"/>
	<path class="st9" d="M408.5,257.1v-20.2h2.4v20.2H408.5z"/>
	<path class="st9" d="M414.6,255.7c-0.9-1.1-1.4-2.9-1.4-5.3c0-2.4,0.4-4.2,1.3-5.3c0.9-1.1,2.2-1.7,3.9-1.7c1.7,0,3,0.6,3.9,1.7
		s1.4,2.9,1.4,5.3c0,4.7-1.7,7-5.2,7C416.8,257.4,415.5,256.8,414.6,255.7z M419.9,255c0.4-0.3,0.7-0.8,0.9-1.6
		c0.2-0.7,0.3-1.8,0.3-3.1c0-1.3-0.1-2.4-0.3-3.1c-0.2-0.8-0.5-1.3-0.9-1.6s-0.9-0.5-1.5-0.5c-0.6,0-1.1,0.2-1.5,0.5
		c-0.4,0.3-0.7,0.8-0.9,1.6c-0.2,0.7-0.3,1.8-0.3,3.1c0,1.3,0.1,2.4,0.3,3.1c0.2,0.8,0.5,1.3,0.9,1.6c0.4,0.3,0.9,0.5,1.5,0.5
		C419.1,255.4,419.6,255.3,419.9,255z"/>
	<path class="st9" d="M426,243.5h2l0.2,1.9h0.1c0.4-0.7,0.8-1.2,1.4-1.5c0.6-0.3,1.2-0.5,1.9-0.5c0.3,0,0.5,0,0.8,0.1v2.3
		c-0.3,0-0.6-0.1-1-0.1c-0.6,0-1.2,0.2-1.8,0.5c-0.6,0.3-1,0.8-1.3,1.3v9.7H426V243.5z"/>
</g>
<g class="st8">
	<path class="st9" d="M348.6,276.2c-0.3-0.3-0.5-0.7-0.5-1.2c0-0.5,0.2-0.9,0.5-1.2c0.3-0.3,0.7-0.5,1.2-0.5c0.5,0,0.9,0.2,1.2,0.5
		c0.3,0.3,0.5,0.7,0.5,1.2c0,0.5-0.2,0.9-0.5,1.2c-0.3,0.3-0.7,0.5-1.2,0.5C349.3,276.7,348.9,276.5,348.6,276.2z M348.6,286.8
		c-0.3-0.3-0.5-0.7-0.5-1.2c0-0.5,0.2-0.9,0.5-1.2c0.3-0.3,0.7-0.5,1.2-0.5c0.5,0,0.9,0.2,1.2,0.5c0.3,0.3,0.5,0.7,0.5,1.2
		c0,0.5-0.2,0.9-0.5,1.2s-0.7,0.5-1.2,0.5C349.3,287.3,348.9,287.1,348.6,286.8z"/>
	<path class="st9" d="M353.8,279.8c0-5,1.2-9.3,3.6-12.9h2.4c-2.3,3.7-3.5,8-3.5,12.9s1.2,9.1,3.5,12.8h-2.4
		C355,289,353.8,284.8,353.8,279.8z"/>
</g>
</svg>
