<?xml version="1.0" encoding="utf-8"?>
<!-- Generator: Adobe Illustrator 21.1.0, SVG Export Plug-In . SVG Version: 6.00 Build 0)  -->
<svg version="1.1" id="Camada_1" xmlns="http://www.w3.org/2000/svg" xmlns:xlink="http://www.w3.org/1999/xlink" x="0px" y="0px"
	 viewBox="0 0 535 316" style="enable-background:new 0 0 535 316;" xml:space="preserve">
<style type="text/css">
	.st0{fill:#C67C00;}
	.st1{fill:#DFDFDF;stroke:#000000;stroke-width:0.8932;stroke-miterlimit:10;}
	.st2{fill:#102027;}
	.st3{fill:none;stroke:#595959;stroke-width:0.7822;stroke-miterlimit:10;}
	.st4{fill:none;stroke:#595959;stroke-width:0.7822;stroke-miterlimit:10;stroke-dasharray:0.8868,0.8868;}
	.st5{fill:none;stroke:#595959;stroke-width:0.7822;stroke-miterlimit:10;stroke-dasharray:0.885,0.885;}
	.st6{fill:none;stroke:#595959;stroke-width:0.8205;stroke-miterlimit:10;}
	.st7{fill:none;stroke:#595959;stroke-width:0.8205;stroke-miterlimit:10;stroke-dasharray:0.8843,0.8843;}
	.st8{fill:none;stroke:#595959;stroke-width:0.8205;stroke-miterlimit:10;stroke-dasharray:0.885,0.885;}
	.st9{fill:none;stroke:#000000;stroke-width:1.8941;stroke-miterlimit:10;}
	.st10{font-family:'Roboto-Regular';}
	.st11{font-size:20px;}
</style>
<rect x="89.3" y="80.4" class="st0" width="14.8" height="206.6"/>
<rect x="150.9" y="73.2" class="st0" width="14.8" height="213.7"/>
<rect x="212.4" y="63" class="st0" width="14.8" height="223.9"/>
<rect x="274" y="55.8" class="st0" width="14.8" height="231.2"/>
<rect x="335.5" y="48.9" class="st0" width="14.8" height="238.1"/>
<rect x="397.1" y="36" class="st0" width="14.8" height="250.9"/>
<rect x="458.7" y="24.3" class="st0" width="14.8" height="262.7"/>
<rect x="520.2" class="st0" width="14.8" height="287"/>
<rect x="72.9" y="80.4" class="st1" width="14.8" height="206.6"/>
<rect x="134.4" y="78.5" class="st1" width="14.8" height="208.4"/>
<rect x="196" y="76.3" class="st1" width="14.8" height="210.6"/>
<rect x="257.6" y="74.6" class="st1" width="14.8" height="212.4"/>
<rect x="319.1" y="73.3" class="st1" width="14.8" height="213.6"/>
<rect x="380.7" y="71.6" class="st1" width="14.8" height="215.4"/>
<rect x="442.2" y="76.5" class="st1" width="14.8" height="210.4"/>
<rect x="503.8" y="72" class="st1" width="14.8" height="215"/>
<rect x="56.5" y="80.4" class="st2" width="14.8" height="206.6"/>
<rect x="118" y="92.6" class="st2" width="14.8" height="194.4"/>
<rect x="179.6" y="105.3" class="st2" width="14.8" height="181.7"/>
<rect x="241.1" y="115.8" class="st2" width="14.8" height="171.2"/>
<rect x="302.7" y="125.9" class="st2" width="14.8" height="161"/>
<rect x="364.3" y="136.2" class="st2" width="14.8" height="150.7"/>
<rect x="425.8" y="152.4" class="st2" width="14.8" height="134.6"/>
<rect x="487.4" y="160.8" class="st2" width="14.8" height="126.1"/>
<g>
	<g>
		<line class="st3" x1="535" y1="28" x2="534.6" y2="28"/>
		<line class="st4" x1="533.7" y1="28" x2="51.7" y2="28"/>
		<line class="st3" x1="51.3" y1="28" x2="50.8" y2="28"/>
	</g>
</g>
<g>
	<g>
		<line class="st3" x1="535" y1="79.5" x2="534.6" y2="79.5"/>
		<line class="st5" x1="533.7" y1="79.5" x2="50.9" y2="79.5"/>
		<line class="st3" x1="50.4" y1="79.5" x2="50" y2="79.5"/>
	</g>
</g>
<g>
	<g>
		<line class="st3" x1="535" y1="131" x2="534.6" y2="131"/>
		<line class="st5" x1="533.7" y1="131" x2="50.9" y2="131"/>
		<line class="st3" x1="50.4" y1="131" x2="50" y2="131"/>
	</g>
</g>
<g>
	<g>
		<line class="st6" x1="535" y1="182.5" x2="534.6" y2="182.5"/>
		<line class="st7" x1="533.7" y1="182.5" x2="51.3" y2="182.5"/>
		<line class="st6" x1="50.9" y1="182.5" x2="50.4" y2="182.5"/>
	</g>
</g>
<g>
	<g>
		<line class="st6" x1="535" y1="234" x2="534.6" y2="234"/>
		<line class="st8" x1="533.7" y1="234" x2="50.9" y2="234"/>
		<line class="st6" x1="50.4" y1="234" x2="50" y2="234"/>
	</g>
</g>
<line class="st9" x1="535" y1="285.9" x2="56.1" y2="285.9"/>
<text transform="matrix(1 0 0 1 136.2129 311.4042)" class="st10 st11">2</text>
<text transform="matrix(0.9125 0 0 1 75.1426 311.4043)" class="st10 st11">1</text>
<text transform="matrix(0.9125 0 0 1 1.4326 85.3647)" class="st10 st11">2000</text>
<text transform="matrix(0.9125 0 0 1 1.4326 33.8721)" class="st10 st11">2500</text>
<text transform="matrix(0.9125 0 0 1 1.4326 188.3496)" class="st10 st11">1000</text>
<text transform="matrix(0.9125 0 0 1 8.0938 239.8418)" class="st10 st11">500</text>
<text transform="matrix(0.9125 0 0 1 1.4326 136.8574)" class="st10 st11">1500</text>
<text transform="matrix(0.9125 0 0 1 198.2656 311.4043)" class="st10 st11">3</text>
<text transform="matrix(1 0 0 1 320.8965 311.4042)" class="st10 st11">5</text>
<text transform="matrix(0.9125 0 0 1 259.8271 311.4043)" class="st10 st11">4</text>
<text transform="matrix(0.9125 0 0 1 382.9492 311.4043)" class="st10 st11">6</text>
<text transform="matrix(1 0 0 1 505.5809 311.4042)" class="st10 st11">8</text>
<text transform="matrix(0.9125 0 0 1 444.5107 311.4043)" class="st10 st11">7</text>
</svg>
